<svg id="Layer_1" data-name="Layer 1" xmlns="http://www.w3.org/2000/svg" width="140" height="130" viewBox="0 0 140 130"><defs><style>.cls-1{fill:#ef8626;}.cls-2{fill:#fff;}.cls-3{fill:#efb126;}.cls-4{opacity:0.5;}.cls-5{fill:#0f090a;}</style></defs><title>appelsin</title><path class="cls-1" d="M25.6,121.35C-5.69,106.22,4,60.06,17.15,32.78s49.25-37.15,80.54-22,46,49.51,32.77,76.8S56.89,136.48,25.6,121.35Z"/><path class="cls-2" d="M67.05,83.08C52.6,73.68,12.93,55,24.4,31.25S73.22,3,99.59,15.78s38.43,42.31,27,66S68.2,83.83,67.05,83.08Z"/><path class="cls-3" d="M66,76.25C46,66.6,21.51,46.58,30.73,27.51s50.53-15.89,70.5-6.24,33.31,35.19,24.09,54.26S85.91,85.91,66,76.25Z"/><rect class="cls-4" x="78.3" y="0.99" width="3.4" height="95.95" rx="1.36" transform="translate(161.25 2.1) rotate(118.55)"/><rect class="cls-4" x="77.55" y="7.42" width="3.4" height="82.35" rx="1.36" transform="translate(121.92 -34.01) rotate(85.8)"/><rect class="cls-4" x="80.39" y="12.89" width="3.4" height="77.99" rx="1.36" transform="translate(179.15 48.64) rotate(145.8)"/><rect class="cls-4" x="79.87" y="18.87" width="2.85" height="57.57" rx="1.14" transform="translate(133.75 125.95) rotate(-154.2)"/><ellipse class="cls-5" cx="47.72" cy="41.87" rx="1.39" ry="4" transform="translate(-6.31 75.2) rotate(-72.93)"/><ellipse class="cls-5" cx="61.65" cy="60.2" rx="4" ry="1.39" transform="translate(-23.18 45.06) rotate(-34.2)"/><ellipse class="cls-5" cx="58.63" cy="29.64" rx="1.39" ry="4" transform="translate(-3.56 50.81) rotate(-45.62)"/><ellipse class="cls-5" cx="78.25" cy="25.86" rx="1.39" ry="4" transform="translate(-1.68 5.8) rotate(-4.2)"/><ellipse class="cls-5" cx="81.64" cy="72.03" rx="1.39" ry="4" transform="translate(-19.15 30.85) rotate(-19.2)"/><ellipse class="cls-5" cx="99.94" cy="34.18" rx="4" ry="1.39" transform="translate(-3.86 53.73) rotate(-29.55)"/><ellipse class="cls-5" cx="110.49" cy="55.82" rx="1.39" ry="4" transform="matrix(0.29, -0.96, 0.96, 0.29, 24.7, 145.06)"/><ellipse class="cls-5" cx="104.2" cy="71.29" rx="1.39" ry="4" transform="translate(-21.33 84.79) rotate(-40.52)"/><ellipse class="cls-5" cx="80.83" cy="49.02" rx="3.72" ry="4.16" transform="translate(1.52 100.46) rotate(-64.2)"/></svg>
