<svg id="Layer_1" data-name="Layer 1" xmlns="http://www.w3.org/2000/svg" width="699.13" height="723.22" viewBox="0 0 699.13 723.22"><defs><style>.cls-1,.cls-3{fill:#b824d1;}.cls-1{stroke:#000;stroke-miterlimit:10;stroke-width:0.25px;}.cls-2{fill:#cf6bd1;}</style></defs><title>Artboard 19</title><rect class="cls-1" x="0.13" y="0.13" width="698.88" height="722.97" rx="21.02"/><rect class="cls-2" x="22.89" y="18.59" width="653.36" height="686.03" rx="21.02"/><path d="M219.65,81.75c0,2.24-1.11,3.36-3.31,3.36L201,84.91a2.8,2.8,0,0,1-2.37-1,3.86,3.86,0,0,1-.68-2.3,3.28,3.28,0,0,1,.89-2.52,3,3,0,0,1,2.16-.84l4.24,0q.66-11.27.71-22.59c-1.46.1-2.68.2-3.67.3l-1.68.1a2.68,2.68,0,0,1-2.17-.86,3.69,3.69,0,0,1-.74-2.45,3.36,3.36,0,0,1,.74-2.4,3.66,3.66,0,0,1,2.17-1c.74-.1,2.07-.2,4-.3s3.81-.16,5.72-.16,4,.11,6.42.31a3,3,0,0,1,2.17,1,3.56,3.56,0,0,1,.74,2.33q0,3.21-3.21,3.21-.76,0-3.06-.15-.1,13.86-.77,22.74l3.78.05C218.56,78.47,219.65,79.57,219.65,81.75Z"/><path d="M245.94,62.29q2.48,3.13,2.47,9.26l0,11.52a1.79,1.79,0,0,1-1,1.64,5.47,5.47,0,0,1-2.58.56,6.46,6.46,0,0,1-2.63-.51A1.59,1.59,0,0,1,241,83.33L241,71.5a11.66,11.66,0,0,0-.82-5.21,2.71,2.71,0,0,0-2.55-1.47,2.67,2.67,0,0,0-2.34,1.32,14.8,14.8,0,0,0-1.48,5.15,28.78,28.78,0,0,0-.36,4.75l.05,6.58a2.3,2.3,0,0,1-1,2,4.65,4.65,0,0,1-2.68.69,4.56,4.56,0,0,1-2.73-.72,2.3,2.3,0,0,1-1-2q0-10.62-.31-16.53a3.66,3.66,0,0,0-.28-1.15,6.22,6.22,0,0,0-.53-1c-.21-.31-.36-.54-.46-.72a2.23,2.23,0,0,1-.31-1.12,2.61,2.61,0,0,1,1.25-2,4,4,0,0,1,2.42-.94,1.93,1.93,0,0,1,1.1.35,6.1,6.1,0,0,1,1.2,1.17A6.89,6.89,0,0,1,231,62a3,3,0,0,1,.26,1.27v.46a8.22,8.22,0,0,1,2.78-3.24A8.47,8.47,0,0,1,239,59.16,8.36,8.36,0,0,1,245.94,62.29Z"/><path d="M259.58,84.07a11.89,11.89,0,0,1-4.84-4.72,15.41,15.41,0,0,1-.05-14.13,11.58,11.58,0,0,1,4.74-4.64A14.81,14.81,0,0,1,266.52,59a11,11,0,0,1,6.12,1.58l.56-12.24.15-3.57a2.46,2.46,0,0,1,1.07-2,4.78,4.78,0,0,1,5.33.15,2.39,2.39,0,0,1,.95,2.22c-.21,1.7-.4,5.47-.59,11.3s-.28,11-.28,15.42a49.94,49.94,0,0,0,.25,6.84,10.08,10.08,0,0,0,1.33,2.6,1.9,1.9,0,0,1,.31,1.07,3.05,3.05,0,0,1-1.2,2.32,3.92,3.92,0,0,1-2.63,1,4.43,4.43,0,0,1-1.27-.18,2.45,2.45,0,0,1-1-.49,7,7,0,0,1-2.25-2.85,8.24,8.24,0,0,1-6.68,3.52A15,15,0,0,1,259.58,84.07Zm10.05-5A6.41,6.41,0,0,0,271.75,77a5.17,5.17,0,0,0,.79-2.68V66.7a5.75,5.75,0,0,0-2.32-1.4,9.2,9.2,0,0,0-3.34-.69,5.85,5.85,0,0,0-4.77,2.07,8.63,8.63,0,0,0-1.71,5.68,8,8,0,0,0,1.81,5.46,5.77,5.77,0,0,0,4.56,2.09A5.41,5.41,0,0,0,269.63,79.1Z"/><path d="M289.77,84a9.42,9.42,0,0,1-3.92-4.41,3.5,3.5,0,0,1-.31-1.28,2.77,2.77,0,0,1,1.12-2,3.72,3.72,0,0,1,2.45-1,2.08,2.08,0,0,1,1.23.33,4.68,4.68,0,0,1,.71.62,1.75,1.75,0,0,1,.3.38,17.3,17.3,0,0,0,2.45,2.45,3.9,3.9,0,0,0,2.35.71,4.23,4.23,0,0,0,2.19-.54,1.65,1.65,0,0,0,.92-1.5,1.87,1.87,0,0,0-1.07-1.68,19.15,19.15,0,0,0-3.47-1.38A39.36,39.36,0,0,1,290.41,73a8.57,8.57,0,0,1-2.91-2.43,6.5,6.5,0,0,1-1.24-4.1,6.75,6.75,0,0,1,1.42-4.31,9,9,0,0,1,3.8-2.78,13.35,13.35,0,0,1,5.13-1,11.21,11.21,0,0,1,5.12,1.1,8,8,0,0,1,3.29,2.9,7.19,7.19,0,0,1,1.13,3.85,2.71,2.71,0,0,1-.77,2.09,3.67,3.67,0,0,1-2.55.72,3.41,3.41,0,0,1-2.17-.51,2.33,2.33,0,0,1-.74-1.43,3.77,3.77,0,0,0-.79-2,3.2,3.2,0,0,0-2.52-.76,4.1,4.1,0,0,0-2.22.51,1.59,1.59,0,0,0-.79,1.42A1.9,1.9,0,0,0,294.7,68a17.93,17.93,0,0,0,3.54,1.32,35.27,35.27,0,0,1,4.28,1.61,8,8,0,0,1,2.91,2.35,6.4,6.4,0,0,1,1.23,4.1,7.08,7.08,0,0,1-1.64,4.8,9,9,0,0,1-4.08,2.7,15.47,15.47,0,0,1-4.89.81A12,12,0,0,1,289.77,84Z"/><path d="M329.3,75.73a2.69,2.69,0,0,1,.76,2.14,7.11,7.11,0,0,1-2.14,5.41,7.52,7.52,0,0,1-5.4,2,6.91,6.91,0,0,1-6.48-3.6c-1.36-2.4-2-6.19-2-11.4,0-1.56,0-2.7.05-3.41a8.36,8.36,0,0,0-1.17,0c-1.94,0-2.91-1-2.91-2.81a2.86,2.86,0,0,1,.74-2.14,3.58,3.58,0,0,1,2.63-.66l1.12,0q.36-3.16,1.17-7.76a2.7,2.7,0,0,1,1.15-1.86,4.26,4.26,0,0,1,2.42-.63,4.07,4.07,0,0,1,2.7.81,2.51,2.51,0,0,1,1,2l-.05.41-.25,1.63q-.61,4.19-.82,5.71c1.16.07,2,.1,2.65.1a2.38,2.38,0,0,1,2.6,2.71,2.59,2.59,0,0,1-.71,2,3.5,3.5,0,0,1-2.4.66h-2.55c0,.68,0,1.77,0,3.26q0,3.78.18,5.79a8.55,8.55,0,0,0,.54,2.73,1,1,0,0,0,.91.71c.48,0,.79-.15.92-.45a4.4,4.4,0,0,0,.21-1.64c0-1.59.93-2.39,2.8-2.39A3.72,3.72,0,0,1,329.3,75.73Z"/><path d="M336.87,57.29a4.47,4.47,0,0,1-1.3-3.29,4.3,4.3,0,0,1,1.3-3.23,4.67,4.67,0,0,1,3.39-1.25,4.52,4.52,0,0,1,3.32,1.25A4.25,4.25,0,0,1,344.85,54a4.55,4.55,0,0,1-1.3,3.32,4.91,4.91,0,0,1-6.68,0Zm-.07,26.8a2.48,2.48,0,0,1-1-2.19l.41-18.82a2.75,2.75,0,0,1,1.07-2.17,4.27,4.27,0,0,1,2.66-.79,4.43,4.43,0,0,1,2.75.82,2.55,2.55,0,0,1,1,2.24L343.27,82a2.71,2.71,0,0,1-1.09,2.17,4.9,4.9,0,0,1-5.38,0Z"/><path d="M353.17,83.89a2.81,2.81,0,0,1-1-2.19l-.31-33.77A2.77,2.77,0,0,1,353,45.69a4.18,4.18,0,0,1,2.71-.87,3.92,3.92,0,0,1,2.62.84,2.8,2.8,0,0,1,1,2.22l.25,33.77a2.68,2.68,0,0,1-1.1,2.26,4.2,4.2,0,0,1-2.67.85A3.73,3.73,0,0,1,353.17,83.89Z"/><path d="M366.94,83.89a2.81,2.81,0,0,1-1-2.19l-.31-33.77a2.77,2.77,0,0,1,1.07-2.24,4.18,4.18,0,0,1,2.71-.87,3.92,3.92,0,0,1,2.62.84,2.8,2.8,0,0,1,1,2.22l.25,33.77a2.7,2.7,0,0,1-1.1,2.26,4.2,4.2,0,0,1-2.67.85A3.73,3.73,0,0,1,366.94,83.89Z"/><path d="M381.65,57.29a4.43,4.43,0,0,1-1.3-3.29,4.26,4.26,0,0,1,1.3-3.23A4.67,4.67,0,0,1,385,49.52a4.48,4.48,0,0,1,3.31,1.25A4.26,4.26,0,0,1,389.63,54a4.55,4.55,0,0,1-1.3,3.32,4.91,4.91,0,0,1-6.68,0Zm-.08,26.8a2.5,2.5,0,0,1-1-2.19L381,63.08A2.72,2.72,0,0,1,382,60.91a4.26,4.26,0,0,1,2.65-.79,4.46,4.46,0,0,1,2.76.82,2.55,2.55,0,0,1,1,2.24L388.05,82a2.69,2.69,0,0,1-1.1,2.17,4.9,4.9,0,0,1-5.38,0Z"/><path d="M417.86,62.29q2.47,3.13,2.47,9.26l-.05,11.52a1.79,1.79,0,0,1-1,1.64,5.47,5.47,0,0,1-2.58.56,6.43,6.43,0,0,1-2.63-.51,1.59,1.59,0,0,1-1.14-1.43l.05-11.83a11.8,11.8,0,0,0-.82-5.21,2.71,2.71,0,0,0-2.55-1.47,2.65,2.65,0,0,0-2.34,1.32,14.58,14.58,0,0,0-1.48,5.15,28.78,28.78,0,0,0-.36,4.75l.05,6.58a2.28,2.28,0,0,1-1,2,5.52,5.52,0,0,1-5.4,0,2.31,2.31,0,0,1-1-2q0-10.62-.3-16.53a4,4,0,0,0-.28-1.15,5.55,5.55,0,0,0-.54-1l-.46-.72a2.32,2.32,0,0,1-.3-1.12,2.58,2.58,0,0,1,1.25-2,4,4,0,0,1,2.42-.94,2,2,0,0,1,1.1.35,6.09,6.09,0,0,1,1.19,1.17,6.51,6.51,0,0,1,.82,1.28,3,3,0,0,1,.26,1.27v.46A8.14,8.14,0,0,1,406,60.45a8.47,8.47,0,0,1,4.92-1.29A8.36,8.36,0,0,1,417.86,62.29Z"/><path d="M451.24,82.67v2.6a12.94,12.94,0,0,1-1.61,6.4,12,12,0,0,1-4.51,4.59A13,13,0,0,1,438.39,98a14.16,14.16,0,0,1-5.62-1.1,9.79,9.79,0,0,1-4-3,6.72,6.72,0,0,1-1.48-4.21,2.5,2.5,0,0,1,.84-2.09,4.15,4.15,0,0,1,2.58-.66,3.09,3.09,0,0,1,1.83.51,2.11,2.11,0,0,1,.87,1.43,3.38,3.38,0,0,0,1.43,2.42,5.85,5.85,0,0,0,3.31.79q5.82,0,5.81-7c0-.68,0-1.24-.05-1.68a9.71,9.71,0,0,1-2.93,1.5,12.14,12.14,0,0,1-3.85.59,11.92,11.92,0,0,1-6.3-1.68,11.6,11.6,0,0,1-4.33-4.64,14,14,0,0,1-1.56-6.63,13.82,13.82,0,0,1,1.61-6.69A11.7,11.7,0,0,1,431,61.17a12.5,12.5,0,0,1,6.46-1.66,8,8,0,0,1,5.3,1.53l.77-1.53a2,2,0,0,1,.86-.92,3.09,3.09,0,0,1,1.53-.35,5.07,5.07,0,0,1,2.71.79,2.28,2.28,0,0,1,1.27,2,4.13,4.13,0,0,1-.1.66l-.41,1.23a12.93,12.93,0,0,0-.51,1.48l.15,1q.83,5.66,1.48,11.06Q451.24,82.67,451.24,82.67Zm-9.95-3.6a3.49,3.49,0,0,0,1.89-1.91q-.76-6.22-1.38-10.15a3.77,3.77,0,0,0-1.48-1.33,4.6,4.6,0,0,0-2.19-.51,5.14,5.14,0,0,0-4.21,2.14,8.54,8.54,0,0,0-1.65,5.36,8.66,8.66,0,0,0,1.47,5.07A4.9,4.9,0,0,0,438,79.86,7,7,0,0,0,441.29,79.07Z"/><path d="M461.67,84a11.19,11.19,0,0,1-4.77-4.79,14.81,14.81,0,0,1-1.58-6.94,13.2,13.2,0,0,1,1.81-6.91,12.6,12.6,0,0,1,4.94-4.72,15.41,15.41,0,0,1,13.37-.3,10.85,10.85,0,0,1,4.54,4,11,11,0,0,1,1.65,6,4.88,4.88,0,0,1-.79,3.14,3.32,3.32,0,0,1-2.67.94H461.69a4.35,4.35,0,0,0,.87,2.48,6.67,6.67,0,0,0,2.6,2.11,9.12,9.12,0,0,0,4.13.87,7.32,7.32,0,0,0,3.37-.64,11.41,11.41,0,0,0,2.55-1.91,3,3,0,0,1,2-.87,3.26,3.26,0,0,1,2.19.9,2.62,2.62,0,0,1,1,2,3.14,3.14,0,0,1-.61,1.79,10.16,10.16,0,0,1-3.62,3.13,13.43,13.43,0,0,1-6.69,1.46A16.12,16.12,0,0,1,461.67,84ZM474.9,69.81a.8.8,0,0,0,.59-.15,1,1,0,0,0,.12-.56,3.92,3.92,0,0,0-1.91-3.32A8.1,8.1,0,0,0,469,64.46a8.31,8.31,0,0,0-3.9.87,6.84,6.84,0,0,0-2.52,2.11,4.23,4.23,0,0,0-.87,2.37Z"/><path d="M504.63,59.69a7,7,0,0,1,2.76,2.68,7.79,7.79,0,0,1,1,4,6.27,6.27,0,0,1-2.17,5.12,8.41,8.41,0,0,1-5.58,1.81,4.35,4.35,0,0,1-2.5-.53,2.11,2.11,0,0,1-.72-1.81,2.3,2.3,0,0,1,.51-1.71,2.44,2.44,0,0,1,1.43-.59c2-.2,3-1,3-2.5a2.07,2.07,0,0,0-.43-1.4,1.54,1.54,0,0,0-1.2-.48,3.24,3.24,0,0,0-2.55,1.55,14.34,14.34,0,0,0-1.94,3.62,17.84,17.84,0,0,0-1,3.5,58.42,58.42,0,0,0-.36,8c0,1.84-.26,3.09-.79,3.75a3.36,3.36,0,0,1-2.78,1,4.55,4.55,0,0,1-2.78-.71,2.68,2.68,0,0,1-1-2.19V74.51c0-2.18-.05-4-.15-5.54s-.28-3.46-.51-5.84L486.73,61a2.35,2.35,0,0,1,.84-2.09,3.92,3.92,0,0,1,2.63-.82c1.9,0,2.92.86,3.06,2.55.07.82.14,2,.2,3.47a9.78,9.78,0,0,1,2.89-3.9,7,7,0,0,1,4.51-1.5A7.72,7.72,0,0,1,504.63,59.69Z"/><rect class="cls-3" x="211.85" y="579.13" width="282.22" height="94.28" rx="21.02"/><rect class="cls-2" x="221.82" y="584.85" width="256.6" height="78.74" rx="21.02"/><path d="M322.41,634.38a4.24,4.24,0,0,1-2.36-2.73,21.69,21.69,0,0,1-.59-5.89,76.88,76.88,0,0,1,.41-8.23c.27-2.49.65-5.12,1.11-7.88a2.28,2.28,0,0,1,1-1.5,3.5,3.5,0,0,1,2.05-.56,2.8,2.8,0,0,1,2,.64,2.27,2.27,0,0,1,.69,1.74,5.1,5.1,0,0,1-.08.7c-.55,3.2-1,5.92-1.25,8.17a55.42,55.42,0,0,0-.43,7.08,15.58,15.58,0,0,0,.18,2.8,1.81,1.81,0,0,0,.7,1.25,3,3,0,0,0,1.66.35,53.55,53.55,0,0,0,8.34-1.09,3.56,3.56,0,0,1,.55,0A2,2,0,0,1,338,630a2.79,2.79,0,0,1,.6,1.78q0,2.07-3,2.61c-1.8.34-3.15.57-4.08.68a27.79,27.79,0,0,1-3.49.18A14.06,14.06,0,0,1,322.41,634.38Z"/><path d="M359.05,631.07a5.77,5.77,0,0,0,.5,1.24,2.12,2.12,0,0,1,.28.55,2.06,2.06,0,0,1-.73,1.62,2.77,2.77,0,0,1-1.92.64,2.52,2.52,0,0,1-1.62-.8,3.7,3.7,0,0,1-1.15-1.77c-.91,1.74-2.62,2.61-5.11,2.61a6.39,6.39,0,0,1-5.33-2.42,9.69,9.69,0,0,1-1.89-6.16v-9.2a1.74,1.74,0,0,1,.8-1.47,3.37,3.37,0,0,1,2-.56,3.57,3.57,0,0,1,2,.56,1.71,1.71,0,0,1,.84,1.47v9.12a7.33,7.33,0,0,0,.58,3,1.9,1.9,0,0,0,1.8,1.33,2.37,2.37,0,0,0,2.24-1.36,11.23,11.23,0,0,0,.72-4.8v-7.22a2,2,0,0,1,.76-1.67,3.06,3.06,0,0,1,2-.63,3.29,3.29,0,0,1,2.09.63,2,2,0,0,1,.8,1.67l.11,11.47A7.67,7.67,0,0,0,359.05,631.07Z"/><path d="M365.25,634.81a1.72,1.72,0,0,1-.82-1.44V608.48a2,2,0,0,1,.78-1.67,3.06,3.06,0,0,1,2-.63,3.23,3.23,0,0,1,2.05.63,2,2,0,0,1,.79,1.67L370,619.4l2.3-1.48q3.81-2.42,5.57-3.47a2.69,2.69,0,0,1,1.76-.39A2.09,2.09,0,0,1,381,615a2.82,2.82,0,0,1,.59,1.69,1.47,1.47,0,0,1-.31,1,5.31,5.31,0,0,1-1.05.82L371.14,624l9.39,7.18a1.79,1.79,0,0,1,.67,1.52,2.15,2.15,0,0,1-.76,1.68,2.64,2.64,0,0,1-1.78.66,3.31,3.31,0,0,1-2-.7c-.91-.68-2.19-1.76-3.86-3.24L370,628.65v4.68a1.78,1.78,0,0,1-.78,1.48,3.16,3.16,0,0,1-1.95.58A3.32,3.32,0,0,1,365.25,634.81Z"/><path class="cls-1" d="M109.17,62.12c0,18.22-21.45,32.36-35.28,33C54.44,96,38.6,80.34,38.6,62.12s18.46-33.48,35.29-33C89.4,29.6,109.17,43.91,109.17,62.12Z"/><path class="cls-2" d="M77.1,59.48c-4.35,11.68-8.45,21-10.35,20.24-2.1-.78-.79-11.22,3.56-22.9S80,35.68,82.51,37.43C84.9,39.06,81.45,47.8,77.1,59.48Z"/><path class="cls-2" d="M76.81,57.48C83.51,69.32,88.05,79,86.29,79.67c-2,.72-9.08-8.06-15.78-19.9S59,37,62,36.78C64.84,36.53,70.11,45.63,76.81,57.48Z"/><path d="M109.41,263c0,3.59.08,6.37.08,8.36a1.61,1.61,0,0,1-.4,1.15,1.52,1.52,0,0,1-1.2.45,1.58,1.58,0,0,1-1.19-.45,1.47,1.47,0,0,1-.44-1.11q0-4-.05-12.09,0-12.73-1.8-12.73c-.51,0-1.16.64-2,1.91a27.34,27.34,0,0,0-3.4,7.71c-.36,1.34-.74,2.9-1.13,4.66-.17.84-.77,1.26-1.81,1.26a2.18,2.18,0,0,1-1.15-.27,1.59,1.59,0,0,1-.65-.91l-.59-2.1a58.92,58.92,0,0,0-1.85-6.3,25.29,25.29,0,0,0-2-4.11c-.78-1.29-1.4-1.93-1.84-1.93-.62,0-1.07,1.18-1.37,3.54s-.48,5.35-.57,8.93c0,1.26,0,3.21,0,5.84v6.59a1.22,1.22,0,0,1-.44,1,2,2,0,0,1-1.28.36,1.42,1.42,0,0,1-1.24-.45,2,2,0,0,1-.31-1.19c0-1.6,0-3.8.08-6.6l0-5.58q0-8.32,1.14-12.22c.75-2.61,2-3.91,3.61-3.91,1.87,0,3.52,1.4,4.93,4.2a45,45,0,0,1,3.51,10.12,39.55,39.55,0,0,1,2.14-6.76,21.84,21.84,0,0,1,3.15-5.44,4.88,4.88,0,0,1,3.61-2.12,2.9,2.9,0,0,1,2.63,1.89,16.38,16.38,0,0,1,1.32,5.44c.25,2.37.41,5.4.46,9.09Z"/><path d="M132.32,269.46a4.83,4.83,0,0,0,.48,1,1.62,1.62,0,0,1,.29.65,1.18,1.18,0,0,1-.46.88,1.35,1.35,0,0,1-.88.42,1.81,1.81,0,0,1-1.49-1.05,3.78,3.78,0,0,1-.65-2v-.58a6.29,6.29,0,0,1-2.71,2.94,8.53,8.53,0,0,1-4.18,1,6.14,6.14,0,0,1-5.33-2.43c-1.18-1.63-1.77-4-1.77-7.1V252.83a1.08,1.08,0,0,1,.44-.89,1.84,1.84,0,0,1,1.12-.33,2,2,0,0,1,1.17.33,1,1,0,0,1,.46.89v10.45a10.18,10.18,0,0,0,1,5.17,3.52,3.52,0,0,0,3.24,1.64q5.67,0,5.67-10.29v-7a1.36,1.36,0,0,1,.42-1.05,1.62,1.62,0,0,1,1.13-.37,1.89,1.89,0,0,1,1.22.37,1.3,1.3,0,0,1,.46,1.05l.17,15.33A4.07,4.07,0,0,0,132.32,269.46Z"/><path d="M141.24,271.54a10,10,0,0,1-3.15-3.59,2.5,2.5,0,0,1-.29-.8,1.31,1.31,0,0,1,.52-1,1.74,1.74,0,0,1,1.16-.44.9.9,0,0,1,.65.23,7.45,7.45,0,0,1,.65.82,10.87,10.87,0,0,0,2.23,2.54,4.8,4.8,0,0,0,3.1.94,4.93,4.93,0,0,0,3-.88,2.68,2.68,0,0,0,1.19-2.22,2.24,2.24,0,0,0-.65-1.64,4.93,4.93,0,0,0-1.59-1.09c-.63-.28-1.54-.63-2.71-1.05-1.49-.54-2.68-1-3.59-1.45a6.64,6.64,0,0,1-2.33-1.85,4.67,4.67,0,0,1-1-3,5.54,5.54,0,0,1,.9-3,6.36,6.36,0,0,1,2.59-2.25,9.29,9.29,0,0,1,7.72,0,6.59,6.59,0,0,1,2.61,2.23,5.45,5.45,0,0,1,.92,3.06,1.9,1.9,0,0,1-.31,1.22,1.4,1.4,0,0,1-1.12.38,1.46,1.46,0,0,1-1.11-.31,1.37,1.37,0,0,1-.31-.82,3.94,3.94,0,0,0-1.39-2.92,5,5,0,0,0-3.15-.95,4.12,4.12,0,0,0-3.21,1.07,3.43,3.43,0,0,0-1,2.29,2.47,2.47,0,0,0,1.24,2.21,21.08,21.08,0,0,0,3.84,1.7,31.78,31.78,0,0,1,3.57,1.47,6.74,6.74,0,0,1,2.29,1.85,4.53,4.53,0,0,1,1,2.94,5,5,0,0,1-2.14,4.28,8.77,8.77,0,0,1-5.3,1.55A8.3,8.3,0,0,1,141.24,271.54Z"/><path d="M161.44,248.23a2.71,2.71,0,0,1,0-3.74,2.68,2.68,0,0,1,1.94-.74,2.55,2.55,0,0,1,1.86.72,2.46,2.46,0,0,1,.74,1.85,2.54,2.54,0,0,1-.78,1.89,2.64,2.64,0,0,1-1.91.75A2.56,2.56,0,0,1,161.44,248.23Zm0,23.87a1.25,1.25,0,0,1-.44-1l.42-17.85a1.39,1.39,0,0,1,.44-1.1,2.13,2.13,0,0,1,2.4,0,1.44,1.44,0,0,1,.44,1.14l-.42,17.81a1.36,1.36,0,0,1-.48,1,1.79,1.79,0,0,1-1.16.36A1.76,1.76,0,0,1,161.46,272.1Z"/><path d="M173.5,272.61a1,1,0,0,1-.46-.84v-29.7a1.36,1.36,0,0,1,.42-1,1.68,1.68,0,0,1,1.17-.37,1.9,1.9,0,0,1,1.2.35,1.32,1.32,0,0,1,.44,1.07l-.08,14.87,3.06-1.72q6.34-3.57,8.4-4.83a2.16,2.16,0,0,1,1-.38,1.29,1.29,0,0,1,1,.61,2.25,2.25,0,0,1,.44,1.32c0,.31-.31.65-.93,1l-12.93,7.69,13.1,9.32a1.13,1.13,0,0,1,.42.93,1.59,1.59,0,0,1-.52,1.15,1.54,1.54,0,0,1-1.07.53,2.56,2.56,0,0,1-1.26-.47l-4.33-3q-3.07-2.26-6.34-4.49l0,7.14a1.06,1.06,0,0,1-.45.88,1.79,1.79,0,0,1-1.11.33A1.89,1.89,0,0,1,173.5,272.61Z"/><path d="M84.75,434.31a4,4,0,0,1-2.27-2.63,22.93,22.93,0,0,1-.54-5.86q0-4.57.44-8.94c.29-2.91.75-6.27,1.36-10.08a1.43,1.43,0,0,1,.55-.95,1.92,1.92,0,0,1,1.18-.35c1,0,1.51.46,1.51,1.38a1.82,1.82,0,0,1,0,.42q-1.09,7.14-1.5,10.71a73.24,73.24,0,0,0-.39,7.9,18.13,18.13,0,0,0,.31,4,2.5,2.5,0,0,0,1.32,1.74,7.78,7.78,0,0,0,3.28.51,29.55,29.55,0,0,0,4.14-.26c1.19-.16,2.72-.44,4.6-.84a2.3,2.3,0,0,1,.42,0,1.15,1.15,0,0,1,1,.42,1.7,1.7,0,0,1,.32,1.05,1.33,1.33,0,0,1-.42,1.05,3,3,0,0,1-1.3.59,36.48,36.48,0,0,1-8.45.92A14.77,14.77,0,0,1,84.75,434.31Z"/><path d="M109.17,445.46a1.39,1.39,0,0,1-.48-1.07,1.62,1.62,0,0,1,.13-.59q2.31-5.71,4-10.33a13.33,13.33,0,0,1-3.66-4.12,43.48,43.48,0,0,1-3.51-6.82,54.12,54.12,0,0,1-2.41-7,1.61,1.61,0,0,1-.09-.54,1.21,1.21,0,0,1,.42-.89,1.78,1.78,0,0,1,1.22-.37,1.25,1.25,0,0,1,.89.25,2.18,2.18,0,0,1,.42.88q4.28,13.19,7.81,15.5,2.55-9.07,4.24-15.67a1.67,1.67,0,0,1,.46-.84,1.42,1.42,0,0,1,.93-.25q1.55,0,1.8,1.26a.86.86,0,0,1,0,.46q-1.43,5.88-2.33,9.12t-2.25,7.14c-.64,1.84-1.45,4.11-2.41,6.78s-1.78,4.82-2.42,6.45a1.8,1.8,0,0,1-.57.86,1.44,1.44,0,0,1-.9.27A1.76,1.76,0,0,1,109.17,445.46Z"/><path d="M131.16,434a9.2,9.2,0,0,1-3.91-3.62,11.5,11.5,0,0,1-1.47-6,11.33,11.33,0,0,1,1.35-5.67,9.05,9.05,0,0,1,3.8-3.68,12.29,12.29,0,0,1,5.73-1.28,11.44,11.44,0,0,1,4.14.69,7.61,7.61,0,0,1,2.83,1.79v-.89c.12-4.39.21-7.6.28-9.61s.2-4,.4-6a1.55,1.55,0,0,1,.5-1,1.57,1.57,0,0,1,1.09-.38,1.83,1.83,0,0,1,1.22.4,1.18,1.18,0,0,1,.42,1q-.3,3.08-.55,10.54t-.25,13.49a41.33,41.33,0,0,0,.3,7.05,6,6,0,0,0,.61,1.54c.23.4.49.6.77.6.09,0,.13.16.13.47a1.5,1.5,0,0,1-.55,1.13,1.73,1.73,0,0,1-1.22.5,1.45,1.45,0,0,1-.79-.2,4.24,4.24,0,0,1-1.2-1.12,4.55,4.55,0,0,1-.82-2.16,7.17,7.17,0,0,1-3,2.64,9.84,9.84,0,0,1-4.41,1A12.26,12.26,0,0,1,131.16,434Zm8.72-2.46a7.17,7.17,0,0,0,2.62-2.1,4.66,4.66,0,0,0,1-2.88c0-1.23,0-2.21,0-2.94l0-3.49a6.7,6.7,0,0,0-2.6-2.47,8.21,8.21,0,0,0-4.33-1.14,7.54,7.54,0,0,0-5.58,2.1,7.9,7.9,0,0,0-2.1,5.84,8.2,8.2,0,0,0,1.11,4.45,6.77,6.77,0,0,0,2.84,2.59,8.16,8.16,0,0,0,3.52.81A7.79,7.79,0,0,0,139.88,431.56Z"/><path d="M157.52,433.7a9.85,9.85,0,0,1-3.79-3.95,11.45,11.45,0,0,1-1.28-5.35,11.32,11.32,0,0,1,1.35-5.48,10.05,10.05,0,0,1,3.82-4,11,11,0,0,1,5.71-1.47,11.16,11.16,0,0,1,5.13,1.15,8.58,8.58,0,0,1,3.52,3.22,8.79,8.79,0,0,1,1.26,4.7,3.84,3.84,0,0,1-.29,1.78q-.3.53-1.47.57l-16,.34a6.58,6.58,0,0,0,1,3.27,8.22,8.22,0,0,0,2.75,2.82,7.6,7.6,0,0,0,4.14,1.13,7.87,7.87,0,0,0,3-.52,6.51,6.51,0,0,0,2-1.2,21.12,21.12,0,0,0,1.72-1.89,1.12,1.12,0,0,1,.93-.38,1.57,1.57,0,0,1,1,.42,1.25,1.25,0,0,1,.48,1,1.48,1.48,0,0,1-.34.88,13.15,13.15,0,0,1-3.25,3.15,9.61,9.61,0,0,1-5.44,1.3A11.39,11.39,0,0,1,157.52,433.7Zm12.57-11.36c.28,0,.42-.2.42-.59a4.94,4.94,0,0,0-2-4.09,8,8,0,0,0-5.08-1.58,7.33,7.33,0,0,0-4.12,1.18,9.07,9.07,0,0,0-2.81,2.77,5.28,5.28,0,0,0-1,2.69Z"/><path d="M192.9,410.58a1.35,1.35,0,0,1-1.55,1.51c-1.1,0-1.64-.47-1.64-1.43a6.87,6.87,0,0,0-.51-2.94,2.08,2.08,0,0,0-2.1-1.05,2.53,2.53,0,0,0-2.5,1.52,11.51,11.51,0,0,0-.69,4.57c0,2.16,0,3.91,0,5.25h3.32a1.23,1.23,0,0,1,.93.36,1.47,1.47,0,0,1,.33,1c0,.75-.42,1.15-1.26,1.17l-3.27.09q.08,7.89.08,12.94a1.31,1.31,0,0,1-.44,1.09,1.82,1.82,0,0,1-1.12.33,1.5,1.5,0,0,1-1.13-.38,1.35,1.35,0,0,1-.38-1q0-3.87-.16-10.59l0-2.31-2.52,0a1.53,1.53,0,0,1-1.09-.33,1.4,1.4,0,0,1-.34-1,1.32,1.32,0,0,1,.3-.92,1.51,1.51,0,0,1,1.09-.38l2.52,0c-.06-2.75-.08-4.54-.08-5.38a11.42,11.42,0,0,1,1.57-6.4,5.37,5.37,0,0,1,4.81-2.38Q192.9,403.94,192.9,410.58Z"/><path d="M209.24,410.58a1.36,1.36,0,0,1-1.56,1.51c-1.09,0-1.63-.47-1.63-1.43a6.87,6.87,0,0,0-.51-2.94,2.09,2.09,0,0,0-2.1-1.05,2.52,2.52,0,0,0-2.5,1.52,11.51,11.51,0,0,0-.69,4.57c0,2.16,0,3.91,0,5.25h3.32a1.19,1.19,0,0,1,.92.36,1.42,1.42,0,0,1,.34,1c0,.75-.42,1.15-1.26,1.17l-3.28.09q.09,7.89.09,12.94a1.31,1.31,0,0,1-.44,1.09,1.84,1.84,0,0,1-1.12.33,1.5,1.5,0,0,1-1.13-.38,1.35,1.35,0,0,1-.38-1q0-3.87-.17-10.59l0-2.31-2.52,0a1.51,1.51,0,0,1-1.09-.33,1.4,1.4,0,0,1-.34-1,1.32,1.32,0,0,1,.3-.92,1.5,1.5,0,0,1,1.09-.38l2.52,0c-.06-2.75-.08-4.54-.08-5.38a11.42,11.42,0,0,1,1.57-6.4,5.36,5.36,0,0,1,4.81-2.38Q209.24,403.94,209.24,410.58Z"/><path d="M216.19,433.7a9.76,9.76,0,0,1-3.78-3.95,11.85,11.85,0,0,1,.06-10.83,10.12,10.12,0,0,1,3.82-4,11,11,0,0,1,5.72-1.47,11.12,11.12,0,0,1,5.12,1.15,8.6,8.6,0,0,1,3.53,3.22,8.79,8.79,0,0,1,1.26,4.7,3.82,3.82,0,0,1-.3,1.78q-.28.53-1.47.57l-16,.34a6.49,6.49,0,0,0,1,3.27,8.13,8.13,0,0,0,2.75,2.82,7.6,7.6,0,0,0,4.14,1.13,7.85,7.85,0,0,0,3-.52,6.39,6.39,0,0,0,2-1.2,22.61,22.61,0,0,0,1.73-1.89,1.09,1.09,0,0,1,.92-.38,1.55,1.55,0,0,1,1,.42,1.25,1.25,0,0,1,.48,1,1.48,1.48,0,0,1-.34.88,13.15,13.15,0,0,1-3.25,3.15,9.59,9.59,0,0,1-5.44,1.3A11.39,11.39,0,0,1,216.19,433.7Zm12.58-11.36c.28,0,.42-.2.42-.59a4.92,4.92,0,0,0-2-4.09,8,8,0,0,0-5.08-1.58,7.36,7.36,0,0,0-4.12,1.18,9.07,9.07,0,0,0-2.81,2.77,5.37,5.37,0,0,0-1,2.69Z"/><path d="M239.1,434.9a1,1,0,0,1-.46-.84v-29.7a1.35,1.35,0,0,1,.42-1.05,1.69,1.69,0,0,1,1.17-.37,1.83,1.83,0,0,1,1.2.35,1.32,1.32,0,0,1,.44,1.07l-.08,14.87,3.06-1.72q6.35-3.57,8.4-4.83a2.16,2.16,0,0,1,1-.38,1.27,1.27,0,0,1,1,.61,2.25,2.25,0,0,1,.44,1.32c0,.31-.31.65-.93,1l-12.93,7.69,13.1,9.32a1.11,1.11,0,0,1,.42.93,1.59,1.59,0,0,1-.52,1.15,1.54,1.54,0,0,1-1.07.53,2.56,2.56,0,0,1-1.26-.47l-4.33-3c-2-1.51-4.16-3-6.34-4.5l0,7.15a1.08,1.08,0,0,1-.44.88,1.84,1.84,0,0,1-1.12.33A1.89,1.89,0,0,1,239.1,434.9Z"/><path d="M273,428.53a2,2,0,0,1,.32,1.28,5.13,5.13,0,0,1-1.45,3.7,4.93,4.93,0,0,1-3.72,1.51,4.66,4.66,0,0,1-4.51-2.77q-1.36-2.78-1.37-8.61c0-1.45.07-3.12.21-5l-2.6-.21a1.24,1.24,0,0,1-1.26-1.38c0-.84.4-1.26,1.22-1.26.22,0,.7,0,1.42.08s1.1.08,1.43.08c.2-2.07.53-4.67,1-7.81a1.46,1.46,0,0,1,.44-.94,1.73,1.73,0,0,1,1.16-.32,1.81,1.81,0,0,1,1.26.42,1.14,1.14,0,0,1,.37,1.05l-.21,1.39q-.63,4.88-.79,6.38l3.36.09a1.47,1.47,0,0,1,.94.25,1.07,1.07,0,0,1,.32.88,1.39,1.39,0,0,1-.32,1.07,2.08,2.08,0,0,1-1.2.32c-.86,0-2,0-3.36,0-.14,1.76-.21,3.39-.21,4.87a24.8,24.8,0,0,0,.65,6.39c.44,1.53,1.23,2.3,2.38,2.3a1.76,1.76,0,0,0,1.47-.71,4,4,0,0,0,.63-2.14,2,2,0,0,1,.27-1c.15-.21.51-.31,1.07-.31A1.39,1.39,0,0,1,273,428.53Z"/><path d="M283,433.7a9.76,9.76,0,0,1-3.78-3.95,11.77,11.77,0,0,1,.06-10.83,10.12,10.12,0,0,1,3.82-4,11,11,0,0,1,5.71-1.47,11.13,11.13,0,0,1,5.13,1.15,8.6,8.6,0,0,1,3.53,3.22,8.88,8.88,0,0,1,1.25,4.7,3.84,3.84,0,0,1-.29,1.78q-.3.53-1.47.57l-16,.34a6.49,6.49,0,0,0,1,3.27,8.13,8.13,0,0,0,2.75,2.82,7.57,7.57,0,0,0,4.13,1.13,7.87,7.87,0,0,0,3-.52,6.39,6.39,0,0,0,2-1.2,21.12,21.12,0,0,0,1.72-1.89,1.12,1.12,0,0,1,.93-.38,1.57,1.57,0,0,1,1,.42,1.25,1.25,0,0,1,.48,1,1.48,1.48,0,0,1-.34.88,13.15,13.15,0,0,1-3.25,3.15,9.61,9.61,0,0,1-5.44,1.3A11.39,11.39,0,0,1,283,433.7Zm12.58-11.36c.27,0,.42-.2.42-.59a5,5,0,0,0-2-4.09,8,8,0,0,0-5.08-1.58,7.33,7.33,0,0,0-4.12,1.18,9.07,9.07,0,0,0-2.81,2.77,5.37,5.37,0,0,0-1,2.69Z"/><path d="M318.52,415.14a6,6,0,0,1,1.51,4.13,4.79,4.79,0,0,1-1.39,3.64,5,5,0,0,1-3.57,1.32,2.17,2.17,0,0,1-1.19-.25,1.07,1.07,0,0,1-.36-.93,1,1,0,0,1,1.05-1.13c1.82-.17,2.73-1.06,2.73-2.69a3.53,3.53,0,0,0-.71-2.22,2.74,2.74,0,0,0-2.31-.93,3.76,3.76,0,0,0-2.92,1.43,10.35,10.35,0,0,0-2,3.55,16.68,16.68,0,0,0-.84,4.18c-.16,2.57-.25,5-.25,7.3a5.28,5.28,0,0,1-.31,2.27,1.3,1.3,0,0,1-1.24.55,1.58,1.58,0,0,1-1.28-.44,2.51,2.51,0,0,1-.36-1.54l0-8q0-2.76-.42-7.31c-.17-1.76-.27-3-.3-3.77a1.19,1.19,0,0,1,.38-1,1.75,1.75,0,0,1,1.18-.36,1.21,1.21,0,0,1,1.38,1.26q.26,2.64.3,5.16a8.33,8.33,0,0,1,2.48-4.32,6.16,6.16,0,0,1,4.24-1.55A5.31,5.31,0,0,1,318.52,415.14Z"/><path d="M470.34,215.63a.78.78,0,0,1,.21.6.93.93,0,0,1-.22.65.66.66,0,0,1-.63.2c-.9-.12-1.69-.2-2.37-.25s-1.45-.07-2.3-.07c-.67,0-1.67,0-3,.1q.23,2.63.25,6c.61-.05,1.33-.08,2.15-.08a32.29,32.29,0,0,1,3.92.18.81.81,0,0,1,.59.3,1,1,0,0,1,.19.6.87.87,0,0,1-.2.58.77.77,0,0,1-.65.22c-1.2-.09-2.5-.13-3.88-.13-.77,0-1.47,0-2.12.08,0,2.78-.09,5.14-.25,7.07a.93.93,0,0,1-.3.56,1,1,0,0,1-.68.22,1,1,0,0,1-.71-.23.63.63,0,0,1-.24-.57q.25-2.83.28-6.88l-1.1.15a.59.59,0,0,1-.57-.2,1,1,0,0,1-.21-.65.83.83,0,0,1,.83-.9l1.05-.12q0-3.59-.3-6.1l-.7,0a.89.89,0,0,1-.72-.2.94.94,0,0,1-.21-.67.88.88,0,0,1,.19-.6.84.84,0,0,1,.66-.25l.6,0,0-.3a.83.83,0,0,1,.23-.68,1.07,1.07,0,0,1,.74-.25.92.92,0,0,1,1,1l0,.18c1-.05,2-.08,3-.08s2.06,0,2.94.09a12.18,12.18,0,0,1,1.91.24A1.2,1.2,0,0,1,470.34,215.63Z"/><path d="M481.48,220.77a3.55,3.55,0,0,1,.9,2.46,2.83,2.83,0,0,1-.83,2.16,2.93,2.93,0,0,1-2.12.79,1.29,1.29,0,0,1-.72-.15.63.63,0,0,1-.21-.55.59.59,0,0,1,.63-.67c1.08-.1,1.62-.64,1.62-1.6a2.13,2.13,0,0,0-.42-1.33,1.64,1.64,0,0,0-1.38-.55,2.25,2.25,0,0,0-1.74.85,6.2,6.2,0,0,0-1.16,2.11,9.83,9.83,0,0,0-.5,2.49c-.1,1.54-.15,3-.15,4.35a3,3,0,0,1-.19,1.35.76.76,0,0,1-.73.33.93.93,0,0,1-.77-.27,1.46,1.46,0,0,1-.21-.91l0-4.77c0-1.1-.09-2.55-.25-4.35q-.15-1.57-.18-2.25a.7.7,0,0,1,.23-.62,1,1,0,0,1,.7-.21.72.72,0,0,1,.82.75c.1,1,.16,2.08.18,3.08a5,5,0,0,1,1.47-2.58,3.72,3.72,0,0,1,2.53-.92A3.16,3.16,0,0,1,481.48,220.77Z"/><path d="M497.8,231.18a.68.68,0,0,1,.18.55.94.94,0,0,1-.19.6.65.65,0,0,1-.51.23,2.76,2.76,0,0,1-1.52-.33,2.53,2.53,0,0,1-.83-1.22c-.75,1.21-2.09,1.82-4,1.82a5.49,5.49,0,0,1-3.28-.9,5,5,0,0,1-1.79-2.29,8,8,0,0,1-.53-2.93,7.45,7.45,0,0,1,.67-3.15,5.64,5.64,0,0,1,2-2.38,5.4,5.4,0,0,1,3.14-.9,4.54,4.54,0,0,1,2.17.5,3.69,3.69,0,0,1,1.45,1.4l.1-.82c0-.62.32-.93.85-.93a1.08,1.08,0,0,1,.76.24.6.6,0,0,1,.22.56l-.08.63a21.14,21.14,0,0,0-.25,2.17c-.05.63-.07,1.48-.07,2.55v1.73a15,15,0,0,0,.06,1.58,1.67,1.67,0,0,0,.26.79.83.83,0,0,0,.68.3A1,1,0,0,1,497.8,231.18Zm-3.4-5.92a3.44,3.44,0,0,0-.52-2,3,3,0,0,0-1.28-1.09,3.5,3.5,0,0,0-1.42-.32,3.31,3.31,0,0,0-2.22.75,4.43,4.43,0,0,0-1.3,1.87,6.54,6.54,0,0,0-.41,2.23,5.84,5.84,0,0,0,.86,3.13,3.08,3.08,0,0,0,2.84,1.39,3.8,3.8,0,0,0,2.44-.76,2.72,2.72,0,0,0,1-2.19C494.39,227.5,494.4,226.49,494.4,225.26Z"/><path d="M471.39,382.86a.8.8,0,0,1,.21.6.92.92,0,0,1-.22.65.66.66,0,0,1-.63.2c-.9-.11-1.69-.2-2.37-.25s-1.45-.07-2.3-.07c-.67,0-1.67,0-3,.1q.23,2.63.25,6c.61,0,1.33-.08,2.15-.08a32.17,32.17,0,0,1,3.92.18.79.79,0,0,1,.59.3.92.92,0,0,1,.19.6.87.87,0,0,1-.2.58.77.77,0,0,1-.65.22c-1.2-.09-2.49-.13-3.88-.13-.76,0-1.47,0-2.12.08,0,2.78-.09,5.14-.25,7.07a.91.91,0,0,1-.3.56,1,1,0,0,1-.68.22,1,1,0,0,1-.71-.23.68.68,0,0,1-.24-.57q.25-2.83.28-6.88l-1.1.15a.55.55,0,0,1-.56-.2.92.92,0,0,1-.22-.65.83.83,0,0,1,.83-.9l1.05-.12q0-3.59-.3-6.1l-.7,0a.86.86,0,0,1-.71-.2.9.9,0,0,1-.22-.67.88.88,0,0,1,.19-.6.86.86,0,0,1,.66-.25l.6-.05,0-.3a.8.8,0,0,1,.24-.68,1,1,0,0,1,.73-.25c.59,0,.91.32,1,1l0,.18c1,0,2-.08,3.05-.08s2.07,0,2.94.09a12,12,0,0,1,1.91.24A1.2,1.2,0,0,1,471.39,382.86Z"/><path d="M482.53,388a3.55,3.55,0,0,1,.9,2.46,2.83,2.83,0,0,1-.83,2.16,2.93,2.93,0,0,1-2.12.79,1.25,1.25,0,0,1-.71-.15.61.61,0,0,1-.22-.55.59.59,0,0,1,.63-.67c1.08-.1,1.62-.64,1.62-1.6a2.13,2.13,0,0,0-.42-1.33,1.63,1.63,0,0,0-1.38-.55,2.25,2.25,0,0,0-1.73.85,6.22,6.22,0,0,0-1.17,2.11,9.91,9.91,0,0,0-.5,2.49c-.1,1.54-.15,3-.15,4.35a3.24,3.24,0,0,1-.18,1.35.79.79,0,0,1-.74.33.91.91,0,0,1-.76-.27,1.39,1.39,0,0,1-.22-.91l0-4.77c0-1.1-.09-2.55-.25-4.35q-.15-1.58-.18-2.25a.73.73,0,0,1,.23-.62,1,1,0,0,1,.7-.21.72.72,0,0,1,.82.75c.1,1,.16,2.08.18,3.08a5,5,0,0,1,1.47-2.58A3.72,3.72,0,0,1,480,387,3.16,3.16,0,0,1,482.53,388Z"/><path d="M498.85,398.41a.7.7,0,0,1,.18.55.94.94,0,0,1-.19.6.65.65,0,0,1-.51.23,2.76,2.76,0,0,1-1.52-.33,2.53,2.53,0,0,1-.83-1.22c-.75,1.21-2.09,1.82-4,1.82a5.51,5.51,0,0,1-3.28-.9,5,5,0,0,1-1.79-2.29,8.19,8.19,0,0,1-.53-2.93,7.45,7.45,0,0,1,.67-3.15,5.64,5.64,0,0,1,2-2.38,5.4,5.4,0,0,1,3.14-.9,4.52,4.52,0,0,1,2.17.5,3.69,3.69,0,0,1,1.45,1.4l.1-.82c0-.62.32-.93.85-.93a1.11,1.11,0,0,1,.77.24.61.61,0,0,1,.21.56l-.08.63c-.11.7-.2,1.42-.25,2.17s-.07,1.48-.07,2.55v1.73a15,15,0,0,0,.06,1.58,1.67,1.67,0,0,0,.26.79.81.81,0,0,0,.68.3A1,1,0,0,1,498.85,398.41Zm-3.4-5.92a3.44,3.44,0,0,0-.52-2,3,3,0,0,0-1.28-1.09,3.67,3.67,0,0,0-1.42-.32,3.29,3.29,0,0,0-2.21.75,4.36,4.36,0,0,0-1.31,1.87,6.54,6.54,0,0,0-.41,2.23,5.84,5.84,0,0,0,.86,3.13,3.09,3.09,0,0,0,2.84,1.39,3.78,3.78,0,0,0,2.44-.76,2.72,2.72,0,0,0,1-2.19C495.44,394.73,495.45,393.72,495.45,392.49Z"/><path d="M574.55,216.28a.9.9,0,0,1-.25.69.88.88,0,0,1-.7.21c-1.52-.11-2.88-.18-4.08-.2q-.19,2.33-.32,6.73l0,.52q-.17,5.1-.17,7.58a1.12,1.12,0,0,1-.24.81,1.08,1.08,0,0,1-.79.24,1,1,0,0,1-.8-.28,1.62,1.62,0,0,1-.22-1c0-.51,0-1.44.07-2.76s.09-2.36.13-3.11l.07-1.45.35-7.28c-1.28,0-2.68.13-4.2.28a.88.88,0,0,1-.71-.19.94.94,0,0,1-.26-.71.75.75,0,0,1,.75-.85,51,51,0,0,1,5.55-.3,48,48,0,0,1,5,.17C574.26,215.45,574.55,215.75,574.55,216.28Z"/><path d="M578.52,218a1.48,1.48,0,0,1-.45-1.11,1.52,1.52,0,0,1,.45-1.12,1.59,1.59,0,0,1,1.15-.43,1.57,1.57,0,0,1,1.12.42,1.48,1.48,0,0,1,.43,1.1,1.51,1.51,0,0,1-.46,1.13,1.58,1.58,0,0,1-1.14.45A1.53,1.53,0,0,1,578.52,218Zm0,14.21a.74.74,0,0,1-.27-.6l.25-10.62a.79.79,0,0,1,.27-.65,1.21,1.21,0,0,1,1.42,0,.81.81,0,0,1,.26.67l-.25,10.6a.79.79,0,0,1-.28.61,1.2,1.2,0,0,1-1.4,0Z"/><path d="M585.39,232.16a.8.8,0,0,1-.27-.65l-.15-17.8a.82.82,0,0,1,.28-.67,1.09,1.09,0,0,1,.72-.23,1,1,0,0,1,.68.23.87.87,0,0,1,.25.64l.12,17.83a.8.8,0,0,1-.26.65,1.18,1.18,0,0,1-1.37,0Z"/><path d="M575.6,383.51a.9.9,0,0,1-.25.69.88.88,0,0,1-.7.21c-1.52-.11-2.88-.18-4.07-.2q-.21,2.32-.33,6.73l0,.52q-.18,5.1-.18,7.58a1.12,1.12,0,0,1-.24.81,1.08,1.08,0,0,1-.79.24,1,1,0,0,1-.79-.28,1.61,1.61,0,0,1-.23-1c0-.51,0-1.44.08-2.76s.09-2.36.12-3.11l.07-1.45.36-7.28c-1.29,0-2.69.13-4.2.28a.9.9,0,0,1-.72-.19.94.94,0,0,1-.26-.71.75.75,0,0,1,.75-.85,51,51,0,0,1,5.55-.3,48.24,48.24,0,0,1,5,.17Q575.6,382.72,575.6,383.51Z"/><path d="M579.57,385.25a1.47,1.47,0,0,1-.44-1.11,1.51,1.51,0,0,1,.44-1.12,1.62,1.62,0,0,1,1.16-.43,1.53,1.53,0,0,1,1.11.42,1.48,1.48,0,0,1,.43,1.1,1.51,1.51,0,0,1-.46,1.13,1.63,1.63,0,0,1-2.24,0Zm0,14.21a.74.74,0,0,1-.27-.6l.25-10.62a.79.79,0,0,1,.27-.65,1.21,1.21,0,0,1,1.42,0,.81.81,0,0,1,.26.67l-.25,10.6a.79.79,0,0,1-.28.61,1.2,1.2,0,0,1-1.4,0Z"/><path d="M586.44,399.39a.8.8,0,0,1-.26-.65l-.15-17.8a.85.85,0,0,1,.27-.67A1.12,1.12,0,0,1,587,380a1,1,0,0,1,.67.23.84.84,0,0,1,.25.64l.13,17.83a.8.8,0,0,1-.27.65,1.18,1.18,0,0,1-1.37,0Z"/></svg>