<svg id="Layer_1" data-name="Layer 1" xmlns="http://www.w3.org/2000/svg" width="500" height="101" viewBox="0 0 500 101"><defs><style>.cls-1{fill:#6b6a68;}.cls-2{fill:#cf6bd1;}.cls-3{fill:#fff;}.cls-4{fill:none;stroke:#fff;stroke-linecap:round;stroke-miterlimit:10;stroke-width:2px;}</style></defs><title>Artboard 1</title><rect class="cls-1" x="8.44" y="32.32" width="87.66" height="57.98" rx="21.02" transform="translate(-7.73 7.54) rotate(-7.69)"/><path class="cls-2" d="M13,34.15,76.16,26.8c6.17-.72,11.75,3.14,12.46,8.62l4.43,33.84c.72,5.48-3.7,10.5-9.87,11.22L20,87.82c-6.17.72-11.75-3.14-12.46-8.61L3.11,45.36C2.39,39.89,6.81,34.87,13,34.15Z"/><path class="cls-3" d="M73,51.23c1,1.75.35,1.91-1,3.3L56.49,65,41.38,76.88c-2.42,1.91-6.21.66-6.58-2.17L32.86,59.87,30.72,43.48C30.4,41,33,39,35.67,39.57l17.74,6Z"/><path class="cls-4" d="M6.88,44.09a7.8,7.8,0,0,1,3.48-5.7,11,11,0,0,1,7-2.28"/><path class="cls-4" d="M9.25,43.28a6.05,6.05,0,0,1,3.19-3.84,8.22,8.22,0,0,1,5.36-1"/><path class="cls-4" d="M73.66,29.84a10,10,0,0,1,7.25-.31,9.6,9.6,0,0,1,5.68,4.2"/><path class="cls-4" d="M75.62,31.24a7.27,7.27,0,0,1,5.29.44,6.77,6.77,0,0,1,3.65,3.57"/><path class="cls-4" d="M90.21,69.59a7.52,7.52,0,0,1-2.54,6.08,10.77,10.77,0,0,1-6.6,3.14"/><path class="cls-4" d="M88,70.69a5.76,5.76,0,0,1-2.55,4.2,8.11,8.11,0,0,1-5.15,1.68"/><path class="cls-4" d="M20.44,85.47a9.61,9.61,0,0,1-6.85-2A8.54,8.54,0,0,1,10,77.68"/><path class="cls-4" d="M19.18,83.53a6.85,6.85,0,0,1-4.73-2.11,6.08,6.08,0,0,1-1.93-4.52"/><rect class="cls-1" x="108.44" y="32.32" width="87.66" height="57.98" rx="21.02" transform="translate(-6.83 20.92) rotate(-7.69)"/><path class="cls-2" d="M113,34.15l63.18-7.35c6.17-.72,11.75,3.14,12.46,8.62l4.43,33.84c.72,5.48-3.7,10.5-9.87,11.22L120,87.82c-6.17.72-11.75-3.14-12.46-8.61l-4.43-33.85C102.39,39.89,106.81,34.87,113,34.15Z"/><path class="cls-3" d="M165,50.86c.79,1.41.29,1.54-.83,2.66l-12.51,8.4-12.17,9.61c-1.95,1.54-5,.53-5.3-1.75l-1.56-12-1.73-13.22c-.26-2,1.81-3.62,4-3.15l14.3,4.81Z"/><path class="cls-4" d="M106.88,44.09a7.8,7.8,0,0,1,3.48-5.7,11,11,0,0,1,7-2.28"/><path class="cls-4" d="M109.25,43.28a6.05,6.05,0,0,1,3.19-3.84,8.22,8.22,0,0,1,5.36-1"/><path class="cls-4" d="M173.66,29.84a10,10,0,0,1,7.25-.31,9.6,9.6,0,0,1,5.68,4.2"/><path class="cls-4" d="M175.62,31.24a7.27,7.27,0,0,1,5.29.44,6.77,6.77,0,0,1,3.65,3.57"/><path class="cls-4" d="M190.21,69.59a7.52,7.52,0,0,1-2.54,6.08,10.77,10.77,0,0,1-6.6,3.14"/><path class="cls-4" d="M188,70.69a5.76,5.76,0,0,1-2.55,4.2,8.11,8.11,0,0,1-5.15,1.68"/><path class="cls-4" d="M120.44,85.47a9.61,9.61,0,0,1-6.85-2A8.54,8.54,0,0,1,110,77.68"/><path class="cls-4" d="M119.18,83.53a6.85,6.85,0,0,1-4.73-2.11,6.08,6.08,0,0,1-1.93-4.52"/><rect class="cls-1" x="208.44" y="32.32" width="87.66" height="57.98" rx="21.02" transform="translate(-5.93 34.3) rotate(-7.69)"/><path class="cls-2" d="M213,34.15l63.18-7.35c6.17-.72,11.75,3.14,12.46,8.62l4.43,33.84c.72,5.48-3.7,10.5-9.87,11.22L220,87.82c-6.17.72-11.75-3.14-12.46-8.61l-4.43-33.85C202.39,39.89,206.81,34.87,213,34.15Z"/><path class="cls-3" d="M266.82,53.21c.71,1.28.26,1.4-.77,2.42l-11.38,7.65L243.57,72c-1.77,1.4-4.55.48-4.82-1.6l-1.42-10.89-1.58-12c-.23-1.81,1.65-3.3,3.64-2.87l13,4.38Z"/><path class="cls-4" d="M206.88,44.09a7.8,7.8,0,0,1,3.48-5.7,11,11,0,0,1,7-2.28"/><path class="cls-4" d="M209.25,43.28a6.05,6.05,0,0,1,3.19-3.84,8.22,8.22,0,0,1,5.36-1"/><path class="cls-4" d="M273.66,29.84a10,10,0,0,1,7.25-.31,9.6,9.6,0,0,1,5.68,4.2"/><path class="cls-4" d="M275.62,31.24a7.27,7.27,0,0,1,5.29.44,6.77,6.77,0,0,1,3.65,3.57"/><path class="cls-4" d="M290.21,69.59a7.52,7.52,0,0,1-2.54,6.08,10.77,10.77,0,0,1-6.6,3.14"/><path class="cls-4" d="M288,70.69a5.76,5.76,0,0,1-2.55,4.2,8.11,8.11,0,0,1-5.15,1.68"/><path class="cls-4" d="M220.44,85.47a9.61,9.61,0,0,1-6.85-2A8.54,8.54,0,0,1,210,77.68"/><path class="cls-4" d="M219.18,83.53a6.85,6.85,0,0,1-4.73-2.11,6.08,6.08,0,0,1-1.93-4.52"/><path class="cls-4" d="M306.88,44.09a7.8,7.8,0,0,1,3.48-5.7,11,11,0,0,1,7-2.28"/><path class="cls-4" d="M309.25,43.28a6.05,6.05,0,0,1,3.19-3.84,8.22,8.22,0,0,1,5.36-1"/><path class="cls-4" d="M390.21,69.59a7.52,7.52,0,0,1-2.54,6.08,10.77,10.77,0,0,1-6.6,3.14"/><path class="cls-4" d="M388,70.69a5.76,5.76,0,0,1-2.55,4.2,8.11,8.11,0,0,1-5.15,1.68"/><path class="cls-4" d="M320.44,85.47a9.61,9.61,0,0,1-6.85-2A8.54,8.54,0,0,1,310,77.68"/><path class="cls-4" d="M319.18,83.53a6.85,6.85,0,0,1-4.73-2.11,6.08,6.08,0,0,1-1.93-4.52"/><rect class="cls-1" x="308.44" y="32.32" width="87.66" height="57.98" rx="21.02" transform="translate(-5.04 47.67) rotate(-7.69)"/><path class="cls-2" d="M313,34.15l63.18-7.35c6.17-.72,11.75,3.14,12.46,8.62l4.43,33.84c.72,5.48-3.7,10.5-9.87,11.22L320,87.82c-6.17.72-11.75-3.14-12.46-8.61l-4.43-33.85C302.39,39.89,306.81,34.87,313,34.15Z"/><path class="cls-3" d="M366.82,53.21c.71,1.28.26,1.4-.77,2.42l-11.38,7.65L343.57,72c-1.77,1.4-4.55.48-4.82-1.6l-1.42-10.89-1.58-12c-.23-1.81,1.65-3.3,3.64-2.87l13,4.38Z"/><path class="cls-4" d="M306.88,44.09a7.8,7.8,0,0,1,3.48-5.7,11,11,0,0,1,7-2.28"/><path class="cls-4" d="M309.25,43.28a6.05,6.05,0,0,1,3.19-3.84,8.22,8.22,0,0,1,5.36-1"/><path class="cls-4" d="M373.66,29.84a10,10,0,0,1,7.25-.31,9.6,9.6,0,0,1,5.68,4.2"/><path class="cls-4" d="M375.62,31.24a7.27,7.27,0,0,1,5.29.44,6.77,6.77,0,0,1,3.65,3.57"/><path class="cls-4" d="M390.21,69.59a7.52,7.52,0,0,1-2.54,6.08,10.77,10.77,0,0,1-6.6,3.14"/><path class="cls-4" d="M388,70.69a5.76,5.76,0,0,1-2.55,4.2,8.11,8.11,0,0,1-5.15,1.68"/><path class="cls-4" d="M320.44,85.47a9.61,9.61,0,0,1-6.85-2A8.54,8.54,0,0,1,310,77.68"/><path class="cls-4" d="M319.18,83.53a6.85,6.85,0,0,1-4.73-2.11,6.08,6.08,0,0,1-1.93-4.52"/><rect class="cls-1" x="408.44" y="32.32" width="87.66" height="57.98" rx="21.02" transform="translate(-4.14 61.05) rotate(-7.69)"/><path class="cls-2" d="M413,34.15l63.18-7.35c6.17-.72,11.75,3.14,12.46,8.62l4.43,33.84c.72,5.48-3.7,10.5-9.87,11.22L420,87.82c-6.17.72-11.75-3.14-12.46-8.61l-4.43-33.85C402.39,39.89,406.81,34.87,413,34.15Z"/><path class="cls-3" d="M465,50.86c.79,1.41.29,1.54-.83,2.66l-12.51,8.4-12.17,9.61c-2,1.54-5,.53-5.3-1.75l-1.56-12-1.73-13.22c-.26-2,1.81-3.62,4-3.15l14.3,4.81Z"/><path class="cls-4" d="M406.88,44.09a7.8,7.8,0,0,1,3.48-5.7,11,11,0,0,1,7-2.28"/><path class="cls-4" d="M409.25,43.28a6.05,6.05,0,0,1,3.19-3.84,8.22,8.22,0,0,1,5.36-1"/><path class="cls-4" d="M473.66,29.84a10,10,0,0,1,7.25-.31,9.6,9.6,0,0,1,5.68,4.2"/><path class="cls-4" d="M475.62,31.24a7.27,7.27,0,0,1,5.29.44,6.77,6.77,0,0,1,3.65,3.57"/><path class="cls-4" d="M490.21,69.59a7.52,7.52,0,0,1-2.54,6.08,10.77,10.77,0,0,1-6.6,3.14"/><path class="cls-4" d="M488,70.69a5.76,5.76,0,0,1-2.55,4.2,8.11,8.11,0,0,1-5.15,1.68"/><path class="cls-4" d="M420.44,85.47a9.61,9.61,0,0,1-6.85-2A8.54,8.54,0,0,1,410,77.68"/><path class="cls-4" d="M419.18,83.53a6.85,6.85,0,0,1-4.73-2.11,6.08,6.08,0,0,1-1.93-4.52"/></svg>