<svg id="Layer_1" data-name="Layer 1" xmlns="http://www.w3.org/2000/svg" width="130" height="100" viewBox="0 0 130 100"><defs><style>.cls-1{fill:#fff30b;}.cls-2{fill:#ffbf0b;opacity:0.5;}</style></defs><title>Bananer</title><path class="cls-1" d="M42.14,91.69C105.35,102.52,118.76,66,120.6,62c23.25-50.52-39,27.42-80.48,15.43C27.05,73.63,4,92.88,12,92.1,41.6,89.23,40.1,91.34,42.14,91.69Z"/><path class="cls-2" d="M99.41,79.4c10.86-7.76,14.46-18.19,15-17.42s-.16,10.17-11,17.93S67.49,91.46,66.94,90.69,88.55,87.15,99.41,79.4Z"/><ellipse cx="19.18" cy="85.92" rx="10.47" ry="2.47" transform="translate(-44 24.61) rotate(-33.27)"/><ellipse cx="20.21" cy="88.24" rx="10.47" ry="2.63" transform="matrix(0.96, -0.26, 0.26, 0.96, -22.64, 8.5)"/><ellipse cx="20.72" cy="89.89" rx="10.47" ry="1.46" transform="translate(-8.58 2.42) rotate(-5.54)"/><path class="cls-1" d="M37.77,76.54c62.15-15.81,59.53-54.65,59.59-59,.7-55.61-24.49,40.91-67.24,46.82C16.64,66.19,3.36,93.17,10.41,89.18,36.27,74.52,35.76,77.06,37.77,76.54Z"/><path class="cls-2" d="M85.09,42c6.76-11.5,5.81-22.5,6.63-22s4,9.36-2.78,20.87S60.83,66,60,65.55,78.32,53.53,85.09,42Z"/><ellipse cx="14.45" cy="80.61" rx="10.47" ry="2.47" transform="translate(-61.18 49.19) rotate(-57.27)"/><ellipse cx="16.33" cy="82.31" rx="10.47" ry="2.63" transform="translate(-48.49 29.01) rotate(-39.35)"/><ellipse cx="17.47" cy="83.61" rx="10.47" ry="1.46" transform="translate(-38.95 19.48) rotate(-29.54)"/><path class="cls-1" d="M41.44,81.61c64-3.93,68.69-42.57,69.57-46.88,11.07-54.5-31.7,35.62-74.81,33.44-13.59-.69-31.67,23.34-24,20.73C40.34,79.34,39.37,81.73,41.44,81.61Z"/><path class="cls-2" d="M94.37,56.53c8.8-10,9.92-21,10.63-20.39s2.16,9.94-6.63,20S66.06,75.58,65.35,75,85.58,66.57,94.37,56.53Z"/><ellipse cx="17.53" cy="81.03" rx="10.47" ry="2.79" transform="translate(-53.32 37.98) rotate(-46.51)"/><ellipse cx="19.29" cy="83.27" rx="10.47" ry="2.63" transform="translate(-37.48 19.38) rotate(-28.58)"/><ellipse cx="19.95" cy="85.45" rx="10.9" ry="2.05" transform="translate(-26.43 10.97) rotate(-18.77)"/><path d="M11.88,87c.51.26-.57,3.27-2.4,6.71S8.56,96,5.25,99.44c-.39.42-1.81.78,0-2.66S11.38,86.71,11.88,87Z"/></svg>
