<svg id="Layer_1" data-name="Layer 1" xmlns="http://www.w3.org/2000/svg" width="710" height="730" viewBox="0 0 710 730"><defs><style>.cls-1{fill:#b824d1;stroke:#000;stroke-miterlimit:10;stroke-width:0.25px;}.cls-2{fill:#cf6bd1;}</style></defs><title>game_over_vindue</title><rect class="cls-1" x="5.56" y="3.52" width="698.88" height="722.97" rx="21.02"/><rect class="cls-2" x="28.32" y="21.98" width="653.36" height="686.03" rx="21.02"/><path d="M297.17,83.1l.61,2a3.12,3.12,0,0,1,.16,1,2.59,2.59,0,0,1-1.25,2.29,5.21,5.21,0,0,1-2.93.82,4.53,4.53,0,0,1-2.3-.56A2.7,2.7,0,0,1,290.18,87l-1.73-6.58-10.4,0-1.79,6.47A2.6,2.6,0,0,1,275,88.58a4.49,4.49,0,0,1-2.27.54,5.26,5.26,0,0,1-3-.84,2.56,2.56,0,0,1-1.27-2.22,3.6,3.6,0,0,1,.15-1l5.87-17.65,2.85-8.72a14,14,0,0,1,2.55-4.92,4.89,4.89,0,0,1,3.73-1.45,4.78,4.78,0,0,1,3.54,1.3,11.63,11.63,0,0,1,2.37,4.61q2.81,8.88,4.9,15.76h1.38q2.49,0,2.49,3.21c0,2.18-.63,3.27-1.88,3.27h0Zm-17.31-33a6.91,6.91,0,0,1-2.48-2.47,6.58,6.58,0,0,1-.91-3.39,6.36,6.36,0,0,1,.91-3.32,6.75,6.75,0,0,1,2.5-2.42,6.9,6.9,0,0,1,3.47-.89,6.3,6.3,0,0,1,3.37.94A6.73,6.73,0,0,1,289.11,41a6.41,6.41,0,0,1,.87,3.22,6.62,6.62,0,0,1-1.91,4.84,6.86,6.86,0,0,1-8.21,1Zm6.86,23.77-.67-2.4L284.78,67l-.51-1.78c-.21-.75-.38-1.29-.51-1.63s-.27-.51-.41-.51-.3.15-.41.46-.25.84-.46,1.63l-.4,1.48L280,73.82Zm-1.79-27.95a2.34,2.34,0,0,0,.66-1.73,2.1,2.1,0,0,0-.66-1.53,2.25,2.25,0,0,0-1.68-.67,2.38,2.38,0,0,0-1.66.64,2,2,0,0,0-.69,1.56,2.31,2.31,0,0,0,.67,1.7,2.22,2.22,0,0,0,1.68.69A2.28,2.28,0,0,0,284.93,45.92Z"/><path d="M328.59,85.65a2.35,2.35,0,0,1-1.07,2,4.39,4.39,0,0,1-2.6.76,4.29,4.29,0,0,1-2.66-.81,2.74,2.74,0,0,1-1.07-2.3q0-6.27-.13-9.74a29.48,29.48,0,0,0-.63-5.61,2.93,2.93,0,0,0-1.07-1.86,3,3,0,0,0-1.59-.43,4.53,4.53,0,0,0-4.13,2.11,10.35,10.35,0,0,0-1.32,5.54V85.8a2.2,2.2,0,0,1-1.07,1.86,4.42,4.42,0,0,1-2.6.74,4.34,4.34,0,0,1-2.6-.76A2.26,2.26,0,0,1,305,85.75q0-9.8.26-19.48.11-3.61.51-11.12l.2-3.62A3.11,3.11,0,0,1,307,49.36a3.86,3.86,0,0,1,2.61-.84,3.76,3.76,0,0,1,2.49.77,2.38,2.38,0,0,1,.87,2q-.41,6-.71,13a8.87,8.87,0,0,1,2.9-1.71A11.49,11.49,0,0,1,319.1,62a7.78,7.78,0,0,1,5.38,1.76,10.6,10.6,0,0,1,2.88,5.49Q328.59,74.27,328.59,85.65Z"/><path d="M383.23,53.11a4.32,4.32,0,0,1,.9,3q0,4-.06,6.07L384,69.74a112.21,112.21,0,0,1-.43,11.57q-.43,3.82-1.61,5.31a4.29,4.29,0,0,1-3.57,1.48A5.48,5.48,0,0,1,375,86.92a18.5,18.5,0,0,1-3.52-3.87q-2-2.7-5.48-8.32L360,65c0,1.26.05,3.61.05,7l.05,13a2.86,2.86,0,0,1-1,2.24,3.93,3.93,0,0,1-2.68.92,4,4,0,0,1-2.68-.89,2.89,2.89,0,0,1-1-2.27V71.73l-.05-5.56c0-1-.05-2.3-.05-4a38.89,38.89,0,0,1,.33-5.82,5.19,5.19,0,0,1,1.25-2.93,3.82,3.82,0,0,1,2.75-.89,5.36,5.36,0,0,1,3.24,1.07,17.28,17.28,0,0,1,3.42,3.83q2,2.74,5.89,9,2.08,3.31,6.22,10.1l1,1.63V69.74l.05-14.44A3.06,3.06,0,0,1,377.6,53a4,4,0,0,1,2.85-.89A3.62,3.62,0,0,1,383.23,53.11Z"/><path d="M396.08,87.38a11.22,11.22,0,0,1-4.76-4.79,14.82,14.82,0,0,1-1.59-6.94,13.23,13.23,0,0,1,1.82-6.91A12.6,12.6,0,0,1,396.49,64a14.62,14.62,0,0,1,7-1.68,14.47,14.47,0,0,1,6.34,1.38,10.62,10.62,0,0,1,6.2,10,4.87,4.87,0,0,1-.79,3.13,3.33,3.33,0,0,1-2.68,1H396.11a4.32,4.32,0,0,0,.87,2.47,6.7,6.7,0,0,0,2.6,2.12,9.22,9.22,0,0,0,4.13.86,7.25,7.25,0,0,0,3.36-.64,11.23,11.23,0,0,0,2.56-1.91,2.94,2.94,0,0,1,2-.87,3.26,3.26,0,0,1,2.2.9,2.62,2.62,0,0,1,1,2,3.08,3.08,0,0,1-.62,1.79,10.07,10.07,0,0,1-3.62,3.13,13.39,13.39,0,0,1-6.68,1.46A16.18,16.18,0,0,1,396.08,87.38ZM409.32,73.2a.8.8,0,0,0,.59-.15,1,1,0,0,0,.12-.56,3.89,3.89,0,0,0-1.91-3.31,8.06,8.06,0,0,0-4.72-1.33,8.31,8.31,0,0,0-3.9.87A6.85,6.85,0,0,0,397,70.83a4.23,4.23,0,0,0-.87,2.37Z"/><path d="M416.43,98.48A7.24,7.24,0,0,1,414,92.84a3.41,3.41,0,0,1,.79-2.52,3.54,3.54,0,0,1,2.58-.8c2.17,0,3.33.85,3.46,2.55a6.57,6.57,0,0,0,.57,2.25,1.14,1.14,0,0,0,1.07.61c.78,0,1.35-.56,1.7-1.68a23,23,0,0,0,.59-6q.25-12,.26-21.67a2,2,0,0,1,1-1.76,4.68,4.68,0,0,1,2.63-.69,4.4,4.4,0,0,1,2.6.69,2.22,2.22,0,0,1,1,1.91q0,11.58-.21,21.57-.15,6.84-2.42,10.07c-1.51,2.16-3.82,3.24-6.91,3.24A9.13,9.13,0,0,1,416.43,98.48Zm9.23-38a4.2,4.2,0,0,1-1.4-3.16,4.06,4.06,0,0,1,1.35-3.06A4.74,4.74,0,0,1,429,53a4.63,4.63,0,0,1,3.32,1.25,4.14,4.14,0,0,1,1.33,3.13,4.2,4.2,0,0,1-1.36,3.17,4.55,4.55,0,0,1-3.24,1.27A4.75,4.75,0,0,1,425.66,60.45Z"/><path d="M441.09,87.26a4.43,4.43,0,0,1-1.33-3.19A4.13,4.13,0,0,1,441.12,81a4.31,4.31,0,0,1,3.13-1.33A4.43,4.43,0,0,1,447.42,81a4.14,4.14,0,0,1,1.37,3.06,4.7,4.7,0,0,1-4.54,4.54A4.27,4.27,0,0,1,441.09,87.26Zm1.56-10.15a3.31,3.31,0,0,1-.74-2.12L441.6,54.9a2.81,2.81,0,0,1,.74-2.12,2.59,2.59,0,0,1,2-.84,2.4,2.4,0,0,1,1.92.79,3.19,3.19,0,0,1,.69,2.17l.25,19.83A3.39,3.39,0,0,1,446.4,77a2.39,2.39,0,0,1-1.89.92A2.37,2.37,0,0,1,442.65,77.11Z"/><path d="M141.7,119.56a14.24,14.24,0,0,1,5.41,11.79,16.43,16.43,0,0,1-2.84,9.56,18.31,18.31,0,0,1-8,6.37,29.69,29.69,0,0,1-12.06,2.27h-3.32a5.22,5.22,0,0,1-3.21-.76,3.12,3.12,0,0,1-1-2.6,3.49,3.49,0,0,1,.69-2.37,2.72,2.72,0,0,1,2.17-.8h.51l-.62-22.49h-.3a2.27,2.27,0,0,1-1.81-.79,3.49,3.49,0,0,1-.69-2.37,3.63,3.63,0,0,1,.79-2.57,2.62,2.62,0,0,1,2-.85h.67a4,4,0,0,1,2.85-.86q2.3,0,3.06,1.17Q136.3,115.28,141.7,119.56Zm-8,21.4a12,12,0,0,0,4.41-4,10,10,0,0,0,1.63-5.63,8.23,8.23,0,0,0-3.47-7.22,20.9,20.9,0,0,0-9.38-3.19l.61,21.93A17.23,17.23,0,0,0,133.67,141Z"/><path d="M174.9,144.55a8,8,0,0,0,.66,1.64,2.81,2.81,0,0,1,.36.71A2.72,2.72,0,0,1,175,149a3.66,3.66,0,0,1-2.53.84,3.28,3.28,0,0,1-2.11-1.05,4.9,4.9,0,0,1-1.51-2.32q-1.79,3.42-6.68,3.42a8.32,8.32,0,0,1-7-3.16,12.7,12.7,0,0,1-2.48-8.06v-12a2.24,2.24,0,0,1,1-1.91,4.39,4.39,0,0,1,2.58-.74,4.59,4.59,0,0,1,2.62.74,2.23,2.23,0,0,1,1.1,1.91v11.94a9.59,9.59,0,0,0,.76,3.92,2.5,2.5,0,0,0,2.35,1.74,3.11,3.11,0,0,0,2.93-1.79q.94-1.78,1-6.27v-9.43a2.71,2.71,0,0,1,1-2.2,4,4,0,0,1,2.63-.81,4.34,4.34,0,0,1,2.73.81,2.67,2.67,0,0,1,1,2.2l.15,15A10.25,10.25,0,0,0,174.9,144.55Z"/><path d="M225.82,132.16a16.05,16.05,0,0,1,.84,5.25q0,6-3.72,9.26T212.84,150a16.81,16.81,0,0,1-7.24-1.43l-2.19,2.55a2.82,2.82,0,0,1-.92.79,2.41,2.41,0,0,1-1.12.23,2.59,2.59,0,0,1-1.76-.71,2.15,2.15,0,0,1-.79-1.63,2.59,2.59,0,0,1,.66-1.74l2.09-2.45a12.83,12.83,0,0,1-2.8-8.51,14.65,14.65,0,0,1,1.68-7.09,12,12,0,0,1,4.77-4.85,14.67,14.67,0,0,1,7.27-1.73,15,15,0,0,1,6.83,1.48L220.9,123A2.67,2.67,0,0,1,223,122l.41.05a2.25,2.25,0,0,1,1.48.82,2.41,2.41,0,0,1,.61,1.63,2.21,2.21,0,0,1-.66,1.63l-1.53,1.79A12.38,12.38,0,0,1,225.82,132.16Zm-19.35,7.7,8.82-10.3a6.31,6.31,0,0,0-2.55-.51,5.87,5.87,0,0,0-4.79,2.19,9,9,0,0,0-1.79,5.87A11,11,0,0,0,206.47,139.86Zm11.09,2.68a7.22,7.22,0,0,0,1.71-5.23,11.2,11.2,0,0,0-.66-3.92l-8.88,10.35a8,8,0,0,0,3,.56A6.41,6.41,0,0,0,217.56,142.54Z"/><path d="M236.81,148.66a11.83,11.83,0,0,1-4.84-4.72,15.39,15.39,0,0,1-.05-14.12,11.54,11.54,0,0,1,4.74-4.65,14.93,14.93,0,0,1,7.09-1.63,11,11,0,0,1,6.12,1.58l.56-12.24.15-3.57a2.46,2.46,0,0,1,1.07-2,4.78,4.78,0,0,1,5.33.15,2.39,2.39,0,0,1,.95,2.22c-.21,1.7-.4,5.47-.59,11.3s-.28,11-.28,15.42a47.51,47.51,0,0,0,.26,6.84,9.52,9.52,0,0,0,1.32,2.6A1.92,1.92,0,0,1,259,147a3.05,3.05,0,0,1-1.2,2.32,3.92,3.92,0,0,1-2.63,1,4.48,4.48,0,0,1-1.27-.18,2.52,2.52,0,0,1-1-.49,7,7,0,0,1-2.25-2.85,8.24,8.24,0,0,1-6.68,3.52A14.93,14.93,0,0,1,236.81,148.66Zm10.05-5a6.41,6.41,0,0,0,2.12-2.12,5.17,5.17,0,0,0,.79-2.68v-7.6a5.75,5.75,0,0,0-2.32-1.4,9.2,9.2,0,0,0-3.34-.69,5.85,5.85,0,0,0-4.77,2.07,8.66,8.66,0,0,0-1.71,5.69,8,8,0,0,0,1.81,5.45A5.77,5.77,0,0,0,244,144.5,5.39,5.39,0,0,0,246.86,143.69Z"/><path d="M268.87,148.58a11.19,11.19,0,0,1-4.77-4.79,14.81,14.81,0,0,1-1.58-6.94,13.22,13.22,0,0,1,1.81-6.91,12.51,12.51,0,0,1,4.94-4.71,15.37,15.37,0,0,1,13.37-.31,10.85,10.85,0,0,1,4.54,4,11,11,0,0,1,1.65,6,4.87,4.87,0,0,1-.79,3.13,3.32,3.32,0,0,1-2.67.95H268.89a4.32,4.32,0,0,0,.87,2.47,6.77,6.77,0,0,0,2.6,2.12,9.25,9.25,0,0,0,4.13.86,7.47,7.47,0,0,0,3.37-.63,11.81,11.81,0,0,0,2.55-1.92,2.94,2.94,0,0,1,2-.87,3.26,3.26,0,0,1,2.19.9,2.62,2.62,0,0,1,1,2,3.07,3.07,0,0,1-.61,1.79,10.06,10.06,0,0,1-3.62,3.13,13.46,13.46,0,0,1-6.69,1.46A16.12,16.12,0,0,1,268.87,148.58ZM282.1,134.4a.8.8,0,0,0,.59-.15,1,1,0,0,0,.12-.56,3.89,3.89,0,0,0-1.91-3.31,8,8,0,0,0-4.72-1.33,8.31,8.31,0,0,0-3.9.87,6.93,6.93,0,0,0-2.52,2.11,4.23,4.23,0,0,0-.87,2.37Z"/><path d="M295.21,148.48a2.81,2.81,0,0,1-1-2.19l-.31-33.76a2.78,2.78,0,0,1,1.07-2.25,4.17,4.17,0,0,1,2.71-.86,3.92,3.92,0,0,1,2.62.84,2.75,2.75,0,0,1,1,2.22l.25,33.76a2.71,2.71,0,0,1-1.09,2.27,4.31,4.31,0,0,1-2.68.84A3.73,3.73,0,0,1,295.21,148.48Z"/><path d="M333.38,144.86a2.86,2.86,0,0,1,.54,2,3.46,3.46,0,0,1-.64,2.09,2,2,0,0,1-1.71.87,8.36,8.36,0,0,1-3.37-.54,5.43,5.43,0,0,1-2.14-2,6,6,0,0,1-3.06,2.37,13.5,13.5,0,0,1-4.54.69q-5.76,0-8.77-3.32t-3-9.23a14.6,14.6,0,0,1,1.58-6.88,11.67,11.67,0,0,1,4.41-4.69,12.44,12.44,0,0,1,6.51-1.69,8.11,8.11,0,0,1,3.41.72,5.58,5.58,0,0,1,2.4,1.88l.1-.66a1.74,1.74,0,0,1,.82-1.2,4.07,4.07,0,0,1,2.24-.48,3.62,3.62,0,0,1,2.4.66,2.12,2.12,0,0,1,.76,1.68,2.09,2.09,0,0,1-.05.56q-.3,1.74-.61,5.82c-.1,1.26-.15,2.87-.15,4.84v2.55a7.76,7.76,0,0,0,.25,2.27,1.35,1.35,0,0,0,1.13,1A2.58,2.58,0,0,1,333.38,144.86Zm-10-10.71a3.72,3.72,0,0,0-1.15-2.83,4.06,4.06,0,0,0-2.93-1.1,4.44,4.44,0,0,0-3.77,2.12,9.24,9.24,0,0,0-1.48,5.43,8.66,8.66,0,0,0,1.32,5,4.16,4.16,0,0,0,3.57,1.89,4.54,4.54,0,0,0,3.22-1.05,4.14,4.14,0,0,0,1.17-3Q323.4,138.53,323.41,134.15Z"/><path d="M364.31,147.26v2.6a12.94,12.94,0,0,1-1.6,6.4,12.14,12.14,0,0,1-4.52,4.59,13,13,0,0,1-6.73,1.71,14.07,14.07,0,0,1-5.61-1.1,9.89,9.89,0,0,1-4-3,6.7,6.7,0,0,1-1.48-4.21,2.5,2.5,0,0,1,.84-2.09,4.15,4.15,0,0,1,2.58-.66,3,3,0,0,1,1.83.51,2.1,2.1,0,0,1,.87,1.43,3.4,3.4,0,0,0,1.43,2.42,5.88,5.88,0,0,0,3.32.79q5.81,0,5.81-7c0-.68,0-1.24,0-1.68a9.71,9.71,0,0,1-2.93,1.5,12.73,12.73,0,0,1-10.15-1.09,11.63,11.63,0,0,1-4.34-4.64,14,14,0,0,1-1.55-6.63,13.77,13.77,0,0,1,1.6-6.68,11.68,11.68,0,0,1,4.44-4.62,12.59,12.59,0,0,1,6.45-1.66,8,8,0,0,1,5.31,1.53l.76-1.53a2,2,0,0,1,.87-.91,3,3,0,0,1,1.53-.36,5,5,0,0,1,2.7.79,2.29,2.29,0,0,1,1.27,2,4.19,4.19,0,0,1-.1.67l-.41,1.22a14.21,14.21,0,0,0-.5,1.48l.15,1q.81,5.66,1.48,11.06Q364.32,147.26,364.31,147.26Zm-9.94-3.6a3.4,3.4,0,0,0,1.88-1.91c-.51-4.15-1-7.53-1.37-10.15a3.84,3.84,0,0,0-1.48-1.33,4.78,4.78,0,0,0-2.19-.51,5.09,5.09,0,0,0-4.21,2.15,8.43,8.43,0,0,0-1.66,5.35,8.63,8.63,0,0,0,1.48,5.08,4.89,4.89,0,0,0,4.28,2.11A7,7,0,0,0,354.37,143.66Z"/><path d="M375,148.66a11.83,11.83,0,0,1-4.84-4.72,15.43,15.43,0,0,1-.06-14.12,11.62,11.62,0,0,1,4.75-4.65,14.93,14.93,0,0,1,7.09-1.63,11,11,0,0,1,6.12,1.58l.56-12.24.15-3.57a2.43,2.43,0,0,1,1.07-2,4.78,4.78,0,0,1,5.33.15,2.36,2.36,0,0,1,.94,2.22c-.2,1.7-.4,5.47-.58,11.3s-.28,11-.28,15.42a49.94,49.94,0,0,0,.25,6.84,9.62,9.62,0,0,0,1.33,2.6,1.91,1.91,0,0,1,.3,1.07,3.07,3.07,0,0,1-1.19,2.32,3.92,3.92,0,0,1-2.63,1,4.55,4.55,0,0,1-1.28-.18,2.47,2.47,0,0,1-1-.49,7,7,0,0,1-2.25-2.85,8.24,8.24,0,0,1-6.68,3.52A14.87,14.87,0,0,1,375,148.66Zm10-5a6.29,6.29,0,0,0,2.11-2.12,5.07,5.07,0,0,0,.79-2.68v-7.6a5.61,5.61,0,0,0-2.32-1.4,9.12,9.12,0,0,0-3.34-.69,5.81,5.81,0,0,0-4.76,2.07,8.66,8.66,0,0,0-1.71,5.69,8,8,0,0,0,1.81,5.45,5.75,5.75,0,0,0,4.56,2.09A5.41,5.41,0,0,0,385,143.69Z"/><path d="M407,148.58a11.22,11.22,0,0,1-4.76-4.79,14.82,14.82,0,0,1-1.59-6.94,13.32,13.32,0,0,1,1.81-6.91,12.6,12.6,0,0,1,4.95-4.71,15.34,15.34,0,0,1,13.36-.31,10.62,10.62,0,0,1,6.2,10,4.87,4.87,0,0,1-.79,3.13,3.33,3.33,0,0,1-2.68.95H407.05a4.32,4.32,0,0,0,.87,2.47,6.7,6.7,0,0,0,2.6,2.12,9.22,9.22,0,0,0,4.13.86,7.39,7.39,0,0,0,3.36-.63,11.34,11.34,0,0,0,2.55-1.92,3,3,0,0,1,2-.87,3.26,3.26,0,0,1,2.2.9,2.62,2.62,0,0,1,1,2,3.08,3.08,0,0,1-.62,1.79,10,10,0,0,1-3.62,3.13,13.39,13.39,0,0,1-6.68,1.46A16.18,16.18,0,0,1,407,148.58Zm13.24-14.18c.3,0,.5-.05.58-.15a.87.87,0,0,0,.13-.56,3.89,3.89,0,0,0-1.91-3.31,8.06,8.06,0,0,0-4.72-1.33,8.31,8.31,0,0,0-3.9.87,6.85,6.85,0,0,0-2.52,2.11,4.23,4.23,0,0,0-.87,2.37Z"/><path d="M481.64,114.31a4.36,4.36,0,0,1,.89,3q0,4,0,6.07l-.05,7.55a111.57,111.57,0,0,1-.44,11.57q-.44,3.83-1.6,5.31a4.32,4.32,0,0,1-3.57,1.48,5.49,5.49,0,0,1-3.4-1.18,18.51,18.51,0,0,1-3.51-3.87q-2-2.7-5.49-8.31l-6-9.75q0,1.89,0,7l.05,13a2.87,2.87,0,0,1-1.05,2.24,3.93,3.93,0,0,1-2.68.92,4,4,0,0,1-2.67-.89,2.87,2.87,0,0,1-1.05-2.27V132.93l-.05-5.56c0-1-.05-2.3-.05-4a38.89,38.89,0,0,1,.33-5.82,5.19,5.19,0,0,1,1.25-2.93,3.82,3.82,0,0,1,2.75-.89,5.36,5.36,0,0,1,3.24,1.07A17.28,17.28,0,0,1,462,118.6q2,2.75,5.89,9,2.09,3.31,6.22,10.1l1,1.63v-8.41l.05-14.44a3.06,3.06,0,0,1,.92-2.27,4,4,0,0,1,2.86-.89A3.65,3.65,0,0,1,481.64,114.31Z"/><path d="M491.43,146.57q-3.81-3.39-3.8-9.51a14.65,14.65,0,0,1,1.68-7.09,12,12,0,0,1,4.77-4.85,14.67,14.67,0,0,1,7.27-1.73,15.05,15.05,0,0,1,7.44,1.78,12.47,12.47,0,0,1,5,5,14.67,14.67,0,0,1,1.76,7.26q0,6-3.72,9.26T501.7,150Q495.22,150,491.43,146.57Zm15-4a7.22,7.22,0,0,0,1.71-5.23,10.06,10.06,0,0,0-1.66-5.84,5.53,5.53,0,0,0-4.87-2.42,5.85,5.85,0,0,0-4.79,2.19,9,9,0,0,0-1.79,5.87,7.49,7.49,0,0,0,1.74,5.38,7.43,7.43,0,0,0,9.66,0Z"/><path d="M545.79,144.86a2.86,2.86,0,0,1,.54,2,3.39,3.39,0,0,1-.64,2.09,2,2,0,0,1-1.71.87,8.27,8.27,0,0,1-3.36-.54,5.39,5.39,0,0,1-2.15-2,5.94,5.94,0,0,1-3.06,2.37,13.48,13.48,0,0,1-4.53.69q-5.77,0-8.78-3.32t-3-9.23a14.6,14.6,0,0,1,1.58-6.88,11.63,11.63,0,0,1,4.42-4.69,12.38,12.38,0,0,1,6.5-1.69,8.19,8.19,0,0,1,3.42.72,5.6,5.6,0,0,1,2.39,1.88l.11-.66a1.69,1.69,0,0,1,.81-1.2,4.13,4.13,0,0,1,2.25-.48,3.61,3.61,0,0,1,2.39.66,2.13,2.13,0,0,1,.77,1.68,2.61,2.61,0,0,1-.05.56c-.21,1.16-.41,3.1-.62,5.82-.1,1.26-.15,2.87-.15,4.84v2.55a7.7,7.7,0,0,0,.26,2.27,1.34,1.34,0,0,0,1.12,1A2.55,2.55,0,0,1,545.79,144.86Zm-10-10.71a3.72,3.72,0,0,0-1.15-2.83,4.06,4.06,0,0,0-2.93-1.1,4.44,4.44,0,0,0-3.77,2.12,9.24,9.24,0,0,0-1.48,5.43,8.58,8.58,0,0,0,1.33,5,4.13,4.13,0,0,0,3.56,1.89,4.54,4.54,0,0,0,3.22-1.05,4.06,4.06,0,0,0,1.17-3Q535.81,138.53,535.82,134.15Z"/><path d="M576,146.85a2.35,2.35,0,0,1-1.07,2,4.36,4.36,0,0,1-2.6.76,4.29,4.29,0,0,1-2.66-.81,2.74,2.74,0,0,1-1.07-2.3q0-6.27-.12-9.74a30.21,30.21,0,0,0-.64-5.61,2.93,2.93,0,0,0-1.07-1.86,3,3,0,0,0-1.58-.43A4.52,4.52,0,0,0,561,131a10.26,10.26,0,0,0-1.33,5.54V147a2.2,2.2,0,0,1-1.07,1.86,4.4,4.4,0,0,1-2.6.74,4.34,4.34,0,0,1-2.6-.76,2.25,2.25,0,0,1-1.07-1.89q0-9.8.25-19.48.1-3.61.51-11.12l.2-3.62a3.08,3.08,0,0,1,1.08-2.17,4.44,4.44,0,0,1,5.1-.07,2.37,2.37,0,0,1,.86,2q-.4,6-.71,13a8.82,8.82,0,0,1,2.91-1.71,11.39,11.39,0,0,1,3.92-.63,7.78,7.78,0,0,1,5.38,1.75,10.68,10.68,0,0,1,2.89,5.49Q576,135.47,576,146.85Z"/><path d="M584.53,148.61a9.39,9.39,0,0,1-3.93-4.41,3.72,3.72,0,0,1-.31-1.28,2.75,2.75,0,0,1,1.13-2,3.67,3.67,0,0,1,2.44-1,2.08,2.08,0,0,1,1.23.33,5.31,5.31,0,0,1,.71.62,2.41,2.41,0,0,1,.31.38,15.83,15.83,0,0,0,2.45,2.45,3.85,3.85,0,0,0,2.34.71,4.33,4.33,0,0,0,2.19-.53,1.66,1.66,0,0,0,.92-1.51,1.86,1.86,0,0,0-1.07-1.68,19.15,19.15,0,0,0-3.47-1.38,40.2,40.2,0,0,1-4.31-1.73,8.41,8.41,0,0,1-2.9-2.42A6.47,6.47,0,0,1,581,131a6.7,6.7,0,0,1,1.43-4.31,9.05,9.05,0,0,1,3.8-2.78,13.3,13.3,0,0,1,5.12-1,11.28,11.28,0,0,1,5.13,1.1,8.07,8.07,0,0,1,3.29,2.9,7.3,7.3,0,0,1,1.12,3.86,2.74,2.74,0,0,1-.77,2.09,3.72,3.72,0,0,1-2.55.71,3.38,3.38,0,0,1-2.16-.51,2.28,2.28,0,0,1-.74-1.43,3.93,3.93,0,0,0-.79-2,3.24,3.24,0,0,0-2.53-.76,4.1,4.1,0,0,0-2.22.51,1.62,1.62,0,0,0-.79,1.43,1.91,1.91,0,0,0,1.1,1.73A18.48,18.48,0,0,0,593,133.9a35.66,35.66,0,0,1,4.29,1.6,8,8,0,0,1,2.9,2.35,6.42,6.42,0,0,1,1.23,4.1,7.12,7.12,0,0,1-1.63,4.8,9,9,0,0,1-4.08,2.7,15.59,15.59,0,0,1-4.9.82A11.94,11.94,0,0,1,584.53,148.61Z"/><path d="M235.36,175.44a7.68,7.68,0,0,1,2.17,5.68,4.4,4.4,0,0,1-.87,3,3.58,3.58,0,0,1-2.75.94q-3.42,0-3.68-3.11a8.93,8.93,0,0,1,0-1.12,2.43,2.43,0,0,0-.28-1.28,1,1,0,0,0-.94-.46.9.9,0,0,0-.82.41,3.45,3.45,0,0,0-.35,1.43c-.07.68-.12,1.78-.16,3.31,0,1,0,2.66,0,4.9h2.76c1.63,0,2.44.92,2.44,2.75s-.85,2.71-2.55,2.71c-1.12,0-2,0-2.6.05q.06,5.55.31,13.31a2.53,2.53,0,0,1-1,2.19,4.07,4.07,0,0,1-2.65.82,4.15,4.15,0,0,1-2.6-.79,2.69,2.69,0,0,1-1.07-2.12q-.21-6.16-.26-13.26h-1.17a3.43,3.43,0,0,1-2.45-.71,2.91,2.91,0,0,1-.71-2.15,3.12,3.12,0,0,1,.61-2.06,2.8,2.8,0,0,1,2.24-.74h1.38l0-5.3c0-3.44.78-6.06,2.34-7.88a9.59,9.59,0,0,1,12.78-.56Z"/><path d="M263.41,193.36a16.05,16.05,0,0,1,.84,5.25q0,6-3.72,9.26t-10.1,3.29a16.64,16.64,0,0,1-7.24-1.43l-2.2,2.55a2.8,2.8,0,0,1-.91.79,2.42,2.42,0,0,1-1.13.23,2.56,2.56,0,0,1-1.75-.71,2.16,2.16,0,0,1-.8-1.63,2.6,2.6,0,0,1,.67-1.74l2.09-2.45a12.84,12.84,0,0,1-2.81-8.51,14.57,14.57,0,0,1,1.69-7.09,12.07,12.07,0,0,1,4.76-4.85,14.67,14.67,0,0,1,7.27-1.73,15.07,15.07,0,0,1,6.84,1.48l1.58-1.84a2.67,2.67,0,0,1,2.14-1.07l.41.05a2.25,2.25,0,0,1,1.48.82,2.46,2.46,0,0,1,.61,1.63,2.21,2.21,0,0,1-.66,1.63l-1.53,1.79A12.54,12.54,0,0,1,263.41,193.36Zm-19.36,7.7,8.83-10.3a6.35,6.35,0,0,0-2.55-.51,5.87,5.87,0,0,0-4.8,2.19,9,9,0,0,0-1.78,5.87A11.52,11.52,0,0,0,244.05,201.06Zm11.1,2.68a7.22,7.22,0,0,0,1.71-5.23,11.2,11.2,0,0,0-.67-3.92l-8.87,10.35a8,8,0,0,0,3,.56A6.43,6.43,0,0,0,255.15,203.74Z"/><path d="M274.4,209.86a11.91,11.91,0,0,1-4.85-4.72A15.47,15.47,0,0,1,269.5,191a11.62,11.62,0,0,1,4.75-4.65,14.93,14.93,0,0,1,7.09-1.63,11,11,0,0,1,6.12,1.58l.56-12.24.15-3.57a2.43,2.43,0,0,1,1.07-2,4.78,4.78,0,0,1,5.33.15,2.36,2.36,0,0,1,.94,2.22c-.2,1.7-.4,5.47-.58,11.3s-.28,11-.28,15.43a49.85,49.85,0,0,0,.25,6.83,9.62,9.62,0,0,0,1.33,2.6,1.91,1.91,0,0,1,.3,1.07,3.07,3.07,0,0,1-1.19,2.32,3.92,3.92,0,0,1-2.63,1.05,4.55,4.55,0,0,1-1.28-.18,2.6,2.6,0,0,1-1-.49,7,7,0,0,1-2.24-2.85,8.25,8.25,0,0,1-6.68,3.52A14.87,14.87,0,0,1,274.4,209.86Zm10.05-5a6.29,6.29,0,0,0,2.11-2.12,5.07,5.07,0,0,0,.79-2.68v-7.6a5.61,5.61,0,0,0-2.32-1.4,9.12,9.12,0,0,0-3.34-.69,5.85,5.85,0,0,0-4.77,2.07,8.66,8.66,0,0,0-1.71,5.69,8,8,0,0,0,1.82,5.45,5.74,5.74,0,0,0,4.56,2.09A5.41,5.41,0,0,0,284.45,204.89Z"/><path d="M304.59,209.81a9.5,9.5,0,0,1-3.93-4.41,3.67,3.67,0,0,1-.3-1.28,2.74,2.74,0,0,1,1.12-2,3.7,3.7,0,0,1,2.45-1,2,2,0,0,1,1.22.33,4.89,4.89,0,0,1,.72.62,1.75,1.75,0,0,1,.3.38,16.29,16.29,0,0,0,2.45,2.45,3.9,3.9,0,0,0,2.35.71,4.33,4.33,0,0,0,2.19-.53,1.68,1.68,0,0,0,.92-1.51,1.88,1.88,0,0,0-1.07-1.68,19.47,19.47,0,0,0-3.47-1.38,38.55,38.55,0,0,1-4.31-1.73,8.35,8.35,0,0,1-2.91-2.42,6.53,6.53,0,0,1-1.25-4.11,6.76,6.76,0,0,1,1.43-4.31,9.12,9.12,0,0,1,3.8-2.78,13.34,13.34,0,0,1,5.12-1,11.25,11.25,0,0,1,5.13,1.1,8,8,0,0,1,3.29,2.91A7.15,7.15,0,0,1,321,192a2.74,2.74,0,0,1-.76,2.09,3.72,3.72,0,0,1-2.55.71,3.39,3.39,0,0,1-2.17-.51,2.33,2.33,0,0,1-.74-1.43,3.85,3.85,0,0,0-.79-2,3.24,3.24,0,0,0-2.53-.76,4,4,0,0,0-2.21.51,1.6,1.6,0,0,0-.79,1.43,1.9,1.9,0,0,0,1.09,1.73,18.36,18.36,0,0,0,3.55,1.33,35.43,35.43,0,0,1,4.28,1.6,8.08,8.08,0,0,1,2.91,2.35,6.47,6.47,0,0,1,1.22,4.1,7.07,7.07,0,0,1-1.63,4.8,9,9,0,0,1-4.08,2.7,15.5,15.5,0,0,1-4.9.82A12,12,0,0,1,304.59,209.81Z"/><path d="M332.16,209.78a11.19,11.19,0,0,1-4.77-4.79,14.81,14.81,0,0,1-1.58-6.94,13.22,13.22,0,0,1,1.81-6.91,12.51,12.51,0,0,1,4.94-4.71,15.37,15.37,0,0,1,13.37-.31,10.59,10.59,0,0,1,6.19,10,4.87,4.87,0,0,1-.79,3.13,3.32,3.32,0,0,1-2.67.95H332.18a4.32,4.32,0,0,0,.87,2.47,6.77,6.77,0,0,0,2.6,2.12,9.25,9.25,0,0,0,4.13.86,7.47,7.47,0,0,0,3.37-.63,11.81,11.81,0,0,0,2.55-1.92,3,3,0,0,1,2-.87,3.26,3.26,0,0,1,2.19.9,2.63,2.63,0,0,1,1,2,3.07,3.07,0,0,1-.61,1.79,10.06,10.06,0,0,1-3.62,3.13,13.46,13.46,0,0,1-6.69,1.46A16.12,16.12,0,0,1,332.16,209.78Zm13.23-14.17a.8.8,0,0,0,.59-.16,1,1,0,0,0,.12-.56,3.91,3.91,0,0,0-1.91-3.31,8,8,0,0,0-4.72-1.33,8.31,8.31,0,0,0-3.9.87,6.93,6.93,0,0,0-2.52,2.11,4.23,4.23,0,0,0-.87,2.38Z"/><path d="M358.5,209.68a2.81,2.81,0,0,1-1-2.19l-.31-33.76a2.78,2.78,0,0,1,1.07-2.25,4.17,4.17,0,0,1,2.71-.86,3.92,3.92,0,0,1,2.62.84,2.75,2.75,0,0,1,1,2.22l.25,33.76a2.71,2.71,0,0,1-1.09,2.27,4.31,4.31,0,0,1-2.68.84A3.73,3.73,0,0,1,358.5,209.68Z"/><path d="M374.46,209.81a9.39,9.39,0,0,1-3.93-4.41,3.67,3.67,0,0,1-.3-1.28,2.74,2.74,0,0,1,1.12-2,3.7,3.7,0,0,1,2.45-1,2,2,0,0,1,1.22.33,5.48,5.48,0,0,1,.72.62,2.16,2.16,0,0,1,.3.38,16.29,16.29,0,0,0,2.45,2.45,3.88,3.88,0,0,0,2.35.71,4.36,4.36,0,0,0,2.19-.53,1.68,1.68,0,0,0,.92-1.51,1.88,1.88,0,0,0-1.07-1.68,19.47,19.47,0,0,0-3.47-1.38,38.55,38.55,0,0,1-4.31-1.73,8.35,8.35,0,0,1-2.91-2.42,6.53,6.53,0,0,1-1.25-4.11,6.76,6.76,0,0,1,1.43-4.31,9.12,9.12,0,0,1,3.8-2.78,13.34,13.34,0,0,1,5.12-1,11.25,11.25,0,0,1,5.13,1.1,8,8,0,0,1,3.29,2.91,7.15,7.15,0,0,1,1.12,3.85,2.74,2.74,0,0,1-.76,2.09,3.72,3.72,0,0,1-2.55.71,3.39,3.39,0,0,1-2.17-.51,2.33,2.33,0,0,1-.74-1.43,3.85,3.85,0,0,0-.79-2,3.24,3.24,0,0,0-2.53-.76,4,4,0,0,0-2.21.51,1.6,1.6,0,0,0-.79,1.43,1.9,1.9,0,0,0,1.09,1.73,18.36,18.36,0,0,0,3.55,1.33,35.43,35.43,0,0,1,4.28,1.6,8.08,8.08,0,0,1,2.91,2.35,6.47,6.47,0,0,1,1.22,4.1,7.07,7.07,0,0,1-1.63,4.8,9,9,0,0,1-4.08,2.7,15.5,15.5,0,0,1-4.9.82A12,12,0,0,1,374.46,209.81Z"/><path d="M402.26,209.86a11.85,11.85,0,0,1-4.85-4.72,15.47,15.47,0,0,1-.05-14.12,11.54,11.54,0,0,1,4.74-4.65,15,15,0,0,1,7.09-1.63,11,11,0,0,1,6.12,1.58l.56-12.24.16-3.57a2.43,2.43,0,0,1,1.07-2,4.25,4.25,0,0,1,2.55-.74,4.31,4.31,0,0,1,2.78.89,2.38,2.38,0,0,1,.94,2.22q-.3,2.55-.59,11.3t-.28,15.43a49.1,49.1,0,0,0,.26,6.83,9.83,9.83,0,0,0,1.32,2.6,1.84,1.84,0,0,1,.31,1.07,3.05,3.05,0,0,1-1.2,2.32,3.9,3.9,0,0,1-2.63,1.05,4.48,4.48,0,0,1-1.27-.18,2.52,2.52,0,0,1-1-.49,6.94,6.94,0,0,1-2.24-2.85,8.27,8.27,0,0,1-6.69,3.52A14.86,14.86,0,0,1,402.26,209.86Zm10-5a6.32,6.32,0,0,0,2.12-2.12,5.07,5.07,0,0,0,.79-2.68v-7.6a5.75,5.75,0,0,0-2.32-1.4,9.16,9.16,0,0,0-3.34-.69,5.85,5.85,0,0,0-4.77,2.07,8.66,8.66,0,0,0-1.71,5.69,8,8,0,0,0,1.81,5.45,5.77,5.77,0,0,0,4.57,2.09A5.35,5.35,0,0,0,412.3,204.89Z"/><path d="M454.66,206.06a2.93,2.93,0,0,1,.53,2,3.45,3.45,0,0,1-.63,2.09,2,2,0,0,1-1.71.87,8.29,8.29,0,0,1-3.37-.54,5.37,5.37,0,0,1-2.14-2,6,6,0,0,1-3.06,2.37,13.54,13.54,0,0,1-4.54.69q-5.76,0-8.77-3.32T428,199a14.6,14.6,0,0,1,1.58-6.88,11.54,11.54,0,0,1,4.41-4.69,12.43,12.43,0,0,1,6.5-1.69,8.13,8.13,0,0,1,3.42.72,5.7,5.7,0,0,1,2.4,1.88l.1-.66a1.74,1.74,0,0,1,.82-1.2,4.07,4.07,0,0,1,2.24-.48,3.62,3.62,0,0,1,2.4.66,2.12,2.12,0,0,1,.76,1.68,2.61,2.61,0,0,1,0,.56c-.2,1.16-.41,3.1-.61,5.82-.1,1.26-.15,2.87-.15,4.84v2.55a7.76,7.76,0,0,0,.25,2.27,1.34,1.34,0,0,0,1.12.95A2.58,2.58,0,0,1,454.66,206.06Zm-10-10.71a3.75,3.75,0,0,0-1.15-2.83,4.08,4.08,0,0,0-2.93-1.1,4.47,4.47,0,0,0-3.78,2.12,9.31,9.31,0,0,0-1.48,5.43,8.66,8.66,0,0,0,1.33,5.05,4.14,4.14,0,0,0,3.57,1.89,4.53,4.53,0,0,0,3.21-1,4.1,4.1,0,0,0,1.18-3Q444.69,199.73,444.69,195.35Z"/><path d="M485.59,208.46v2.6a12.94,12.94,0,0,1-1.61,6.4,12,12,0,0,1-4.51,4.59,13,13,0,0,1-6.73,1.71,14.07,14.07,0,0,1-5.61-1.1,9.83,9.83,0,0,1-4-3,6.7,6.7,0,0,1-1.48-4.21,2.5,2.5,0,0,1,.84-2.09,4.15,4.15,0,0,1,2.58-.66,3.07,3.07,0,0,1,1.83.51,2.1,2.1,0,0,1,.87,1.43,3.36,3.36,0,0,0,1.43,2.42,5.85,5.85,0,0,0,3.31.79q5.82,0,5.82-7c0-.68,0-1.24-.05-1.68a9.77,9.77,0,0,1-2.94,1.5,11.82,11.82,0,0,1-3.85.59,12,12,0,0,1-6.3-1.68,11.67,11.67,0,0,1-4.33-4.64,14,14,0,0,1-1.56-6.63,13.78,13.78,0,0,1,1.61-6.68,11.75,11.75,0,0,1,4.44-4.62,12.54,12.54,0,0,1,6.45-1.66,8,8,0,0,1,5.3,1.53l.77-1.53a2,2,0,0,1,.86-.91,3,3,0,0,1,1.53-.36,5,5,0,0,1,2.71.79,2.29,2.29,0,0,1,1.27,2,4.19,4.19,0,0,1-.1.67l-.41,1.22c-.3.81-.47,1.31-.51,1.48l.15,1q.82,5.66,1.48,11.06Q485.59,208.46,485.59,208.46Zm-9.95-3.6a3.46,3.46,0,0,0,1.89-1.91q-.76-6.22-1.38-10.15a3.85,3.85,0,0,0-1.48-1.33,4.72,4.72,0,0,0-2.19-.51,5.12,5.12,0,0,0-4.21,2.15,8.49,8.49,0,0,0-1.65,5.35,8.63,8.63,0,0,0,1.48,5.08,4.89,4.89,0,0,0,4.28,2.11A7,7,0,0,0,475.64,204.86Z"/><path d="M491.5,209.66a4.42,4.42,0,0,1-1.32-3.19,4.16,4.16,0,0,1,1.35-3.06,4.33,4.33,0,0,1,3.14-1.33,4.41,4.41,0,0,1,3.16,1.33,4.11,4.11,0,0,1,1.38,3.06,4.72,4.72,0,0,1-4.54,4.54A4.3,4.3,0,0,1,491.5,209.66Zm1.56-10.15a3.31,3.31,0,0,1-.74-2.12L492,177.3a2.85,2.85,0,0,1,.74-2.12,2.59,2.59,0,0,1,2-.84,2.4,2.4,0,0,1,1.91.79,3.19,3.19,0,0,1,.69,2.17l.25,19.84a3.38,3.38,0,0,1-.76,2.24,2.49,2.49,0,0,1-3.75.13Z"/><path d="M108.71,293.69q5.31,3.8,5.31,11.11a15.1,15.1,0,0,1-2.46,8.6,15.7,15.7,0,0,1-7.09,5.68,27.13,27.13,0,0,1-10.88,2H90.33a2.37,2.37,0,0,1-1.47-.36,1.5,1.5,0,0,1-.46-1.24c0-1.05.49-1.57,1.47-1.57h1.56l-.69-25.48h-.32a3,3,0,0,1-1.54-.32,1.31,1.31,0,0,1-.53-1.2,1.54,1.54,0,0,1,.53-1.34,2.74,2.74,0,0,1,1.54-.36h.51a1.56,1.56,0,0,1,1.56-.83,1.45,1.45,0,0,1,1.56.92Q103.4,289.9,108.71,293.69Zm-5.66,22.45a12.91,12.91,0,0,0,5.5-4.49,11.9,11.9,0,0,0,2-6.85q0-11.13-16.23-12.23l.64,25.34A21.64,21.64,0,0,0,103.05,316.14Z"/><path d="M137.73,317.82a6.48,6.48,0,0,0,.53,1.13,1.94,1.94,0,0,1,.32.71,1.31,1.31,0,0,1-.5,1,1.47,1.47,0,0,1-1,.46,2,2,0,0,1-1.63-1.14,4.2,4.2,0,0,1-.72-2.21v-.65a6.77,6.77,0,0,1-3,3.22,9.3,9.3,0,0,1-4.58,1.11,6.73,6.73,0,0,1-5.84-2.67q-1.93-2.67-1.93-7.78V299.6a1.14,1.14,0,0,1,.48-1,1.93,1.93,0,0,1,1.22-.37,2.12,2.12,0,0,1,1.29.37,1.13,1.13,0,0,1,.5,1v11.46a11.06,11.06,0,0,0,1.11,5.65,3.83,3.83,0,0,0,3.54,1.8q6.21,0,6.21-11.27v-7.68a1.45,1.45,0,0,1,.46-1.15,1.77,1.77,0,0,1,1.24-.42,2,2,0,0,1,1.34.42,1.41,1.41,0,0,1,.5,1.15l.18,16.79A4.48,4.48,0,0,0,137.73,317.82Z"/><path d="M174.78,294.63a1.48,1.48,0,0,1-1.7,1.66c-1.19,0-1.79-.52-1.79-1.56a7.71,7.71,0,0,0-.55-3.22,2.29,2.29,0,0,0-2.3-1.15A2.76,2.76,0,0,0,165.7,292a12.59,12.59,0,0,0-.76,5c0,2.36,0,4.28.05,5.75h3.63a1.31,1.31,0,0,1,1,.39,1.55,1.55,0,0,1,.37,1.12q0,1.24-1.38,1.29l-3.59.09q.09,8.65.09,14.17a1.42,1.42,0,0,1-.48,1.2,2,2,0,0,1-1.22.37,1.68,1.68,0,0,1-1.24-.42,1.46,1.46,0,0,1-.41-1.1c0-2.82-.07-6.69-.19-11.59l0-2.53-2.76,0a1.63,1.63,0,0,1-1.2-.37,1.46,1.46,0,0,1-.37-1.1,1.49,1.49,0,0,1,.32-1,1.72,1.72,0,0,1,1.2-.42l2.76,0c-.06-3-.09-5-.09-5.89a12.52,12.52,0,0,1,1.72-7,5.88,5.88,0,0,1,5.27-2.6Q174.78,287.37,174.78,294.63Zm5.11-.06a2.95,2.95,0,0,1,0-4.1,2.94,2.94,0,0,1,2.12-.8,2.81,2.81,0,0,1,2,.78,2.69,2.69,0,0,1,.81,2,2.79,2.79,0,0,1-.85,2.07,2.87,2.87,0,0,1-2.1.83A2.82,2.82,0,0,1,179.89,294.57Zm0,26.15a1.4,1.4,0,0,1-.48-1.11l.46-19.55a1.47,1.47,0,0,1,.48-1.19,2.27,2.27,0,0,1,2.63,0,1.54,1.54,0,0,1,.48,1.24l-.46,19.5a1.51,1.51,0,0,1-.53,1.13,2,2,0,0,1-1.27.39A2,2,0,0,1,179.91,320.72Z"/><path d="M193.09,321.27a1.09,1.09,0,0,1-.5-.92V287.83a1.45,1.45,0,0,1,.46-1.15,1.81,1.81,0,0,1,1.28-.42,2,2,0,0,1,1.31.39,1.42,1.42,0,0,1,.49,1.18L196,304.11l3.35-1.88q6.95-3.92,9.2-5.29a2.35,2.35,0,0,1,1.06-.42,1.37,1.37,0,0,1,1.13.67,2.43,2.43,0,0,1,.48,1.45c0,.33-.34.7-1,1.1l-14.17,8.42,14.35,10.21a1.22,1.22,0,0,1,.46,1,1.79,1.79,0,0,1-.57,1.27,1.68,1.68,0,0,1-1.17.57,2.87,2.87,0,0,1-1.38-.5L203,317.4q-3.36-2.47-6.95-4.92l0,7.82a1.15,1.15,0,0,1-.49,1,2,2,0,0,1-1.22.37A2.09,2.09,0,0,1,193.09,321.27Z"/><path d="M233.11,294.57a2.95,2.95,0,0,1,0-4.1,2.94,2.94,0,0,1,2.12-.8,2.79,2.79,0,0,1,2,.78,2.69,2.69,0,0,1,.81,2,2.75,2.75,0,0,1-.85,2.07,2.87,2.87,0,0,1-2.09.83A2.82,2.82,0,0,1,233.11,294.57Zm0,26.15a1.4,1.4,0,0,1-.48-1.11l.46-19.55a1.47,1.47,0,0,1,.48-1.19,2.27,2.27,0,0,1,2.63,0,1.54,1.54,0,0,1,.48,1.24l-.46,19.5a1.51,1.51,0,0,1-.53,1.13,1.94,1.94,0,0,1-1.26.39A2,2,0,0,1,233.13,320.72Z"/><path d="M246.31,321.27a1.12,1.12,0,0,1-.5-.92V287.83a1.45,1.45,0,0,1,.46-1.15,1.82,1.82,0,0,1,1.29-.42,2,2,0,0,1,1.31.39,1.44,1.44,0,0,1,.48,1.18l-.09,16.28,3.36-1.88q6.94-3.92,9.2-5.29a2.33,2.33,0,0,1,1.05-.42,1.37,1.37,0,0,1,1.13.67,2.43,2.43,0,0,1,.48,1.45c0,.33-.33.7-1,1.1l-14.17,8.42,14.36,10.21a1.25,1.25,0,0,1,.46,1,1.8,1.8,0,0,1-.58,1.27,1.67,1.67,0,0,1-1.17.57,2.87,2.87,0,0,1-1.38-.5l-4.74-3.32c-2.24-1.65-4.55-3.29-6.95-4.92l0,7.82a1.15,1.15,0,0,1-.49,1,2,2,0,0,1-1.21.37A2.1,2.1,0,0,1,246.31,321.27Z"/><path d="M270.74,321.27a1.1,1.1,0,0,1-.51-.92V287.83a1.48,1.48,0,0,1,.46-1.15,1.86,1.86,0,0,1,1.29-.42,2,2,0,0,1,1.31.39,1.45,1.45,0,0,1,.49,1.18l-.1,16.28,3.36-1.88q6.94-3.92,9.2-5.29a2.31,2.31,0,0,1,1.06-.42,1.39,1.39,0,0,1,1.13.67,2.43,2.43,0,0,1,.48,1.45c0,.33-.34.7-1,1.1l-14.17,8.42,14.35,10.21a1.22,1.22,0,0,1,.46,1,1.79,1.79,0,0,1-.57,1.27,1.7,1.7,0,0,1-1.18.57,2.94,2.94,0,0,1-1.38-.5l-4.73-3.32q-3.36-2.47-6.95-4.92l-.05,7.82a1.17,1.17,0,0,1-.48,1,2,2,0,0,1-1.22.37A2.09,2.09,0,0,1,270.74,321.27Z"/><path d="M298.55,320a10.7,10.7,0,0,1-4.14-4.33,12.89,12.89,0,0,1,.07-11.86,11,11,0,0,1,4.18-4.35,12.08,12.08,0,0,1,6.26-1.61,12.25,12.25,0,0,1,5.61,1.26,9.47,9.47,0,0,1,3.86,3.52,9.68,9.68,0,0,1,1.38,5.15,4.23,4.23,0,0,1-.32,2c-.21.38-.75.59-1.61.62l-17.52.37a7.22,7.22,0,0,0,1.05,3.59,9,9,0,0,0,3,3.08,8.23,8.23,0,0,0,4.53,1.24,8.64,8.64,0,0,0,3.31-.57,7.07,7.07,0,0,0,2.16-1.32,25.32,25.32,0,0,0,1.89-2.06,1.18,1.18,0,0,1,1-.42,1.69,1.69,0,0,1,1.13.46,1.39,1.39,0,0,1,.53,1.06,1.66,1.66,0,0,1-.37,1,14.11,14.11,0,0,1-3.57,3.45,10.42,10.42,0,0,1-5.95,1.43A12.44,12.44,0,0,1,298.55,320Zm13.77-12.44c.31,0,.46-.22.46-.65a5.42,5.42,0,0,0-2.2-4.48,8.79,8.79,0,0,0-5.57-1.73A8.07,8.07,0,0,0,300.5,302a10.13,10.13,0,0,0-3.08,3,5.85,5.85,0,0,0-1.1,2.95Z"/><path d="M352,294.63a1.49,1.49,0,0,1-1.7,1.66q-1.8,0-1.8-1.56a7.55,7.55,0,0,0-.55-3.22,2.28,2.28,0,0,0-2.3-1.15,2.74,2.74,0,0,0-2.73,1.65,12.59,12.59,0,0,0-.76,5c0,2.36,0,4.28,0,5.75h3.64a1.33,1.33,0,0,1,1,.39,1.59,1.59,0,0,1,.37,1.12q0,1.24-1.38,1.29l-3.59.09q.09,8.65.09,14.17a1.42,1.42,0,0,1-.48,1.2,2,2,0,0,1-1.22.37,1.66,1.66,0,0,1-1.24-.42,1.46,1.46,0,0,1-.42-1.1c0-2.82-.06-6.69-.18-11.59l-.05-2.53-2.76,0a1.6,1.6,0,0,1-1.19-.37,1.46,1.46,0,0,1-.37-1.1,1.49,1.49,0,0,1,.32-1,1.68,1.68,0,0,1,1.2-.42l2.76,0c-.06-3-.1-5-.1-5.89a12.52,12.52,0,0,1,1.73-7,5.87,5.87,0,0,1,5.27-2.6Q352,287.37,352,294.63Z"/><path d="M377,318.78a1.3,1.3,0,0,1,.33,1,1.67,1.67,0,0,1-.35,1.1,1.15,1.15,0,0,1-.94.42,5.05,5.05,0,0,1-2.78-.6,4.64,4.64,0,0,1-1.55-2.26q-2.07,3.36-7.36,3.36a10,10,0,0,1-6-1.66,9.13,9.13,0,0,1-3.29-4.2,14.88,14.88,0,0,1-1-5.41,13.8,13.8,0,0,1,1.24-5.8,10.6,10.6,0,0,1,3.66-4.37,10,10,0,0,1,5.77-1.65,8.29,8.29,0,0,1,4,.92,6.63,6.63,0,0,1,2.67,2.58l.19-1.52q.09-1.71,1.56-1.71a2,2,0,0,1,1.4.44,1.07,1.07,0,0,1,.39,1l-.13,1.15a38.46,38.46,0,0,0-.46,4c-.1,1.16-.14,2.73-.14,4.69v3.17a29,29,0,0,0,.11,2.93,3,3,0,0,0,.49,1.44,1.53,1.53,0,0,0,1.24.56A1.86,1.86,0,0,1,377,318.78Zm-6.25-10.9a6.25,6.25,0,0,0-1-3.65,5.37,5.37,0,0,0-2.34-2,6.61,6.61,0,0,0-2.63-.6,6.1,6.1,0,0,0-4.07,1.38,8.09,8.09,0,0,0-2.39,3.45,11.72,11.72,0,0,0-.76,4.09,10.67,10.67,0,0,0,1.59,5.77,5.66,5.66,0,0,0,5.22,2.56,7,7,0,0,0,4.48-1.41,4.91,4.91,0,0,0,1.82-4C370.77,312,370.79,310.15,370.79,307.88Z"/><path d="M397.63,314.3a2.15,2.15,0,0,1,.34,1.4,5.65,5.65,0,0,1-1.58,4.05,5.38,5.38,0,0,1-4.07,1.66,5.12,5.12,0,0,1-4.95-3c-1-2-1.49-5.17-1.49-9.43,0-1.59.07-3.42.23-5.47l-2.86-.23a1.37,1.37,0,0,1-1.38-1.52,1.2,1.2,0,0,1,1.34-1.38q.36,0,1.56.09c.68.06,1.2.09,1.57.09q.32-3.4,1.1-8.55a1.62,1.62,0,0,1,.48-1,1.89,1.89,0,0,1,1.27-.34,2,2,0,0,1,1.38.46,1.26,1.26,0,0,1,.41,1.15l-.23,1.51q-.69,5.34-.87,7l3.68.09a1.65,1.65,0,0,1,1,.27,1.19,1.19,0,0,1,.35,1,1.53,1.53,0,0,1-.35,1.17,2.21,2.21,0,0,1-1.31.35c-.95,0-2.18.05-3.68.05-.15,1.93-.23,3.71-.23,5.33a27.1,27.1,0,0,0,.71,7c.48,1.69,1.35,2.53,2.6,2.53a1.92,1.92,0,0,0,1.61-.78,4.23,4.23,0,0,0,.69-2.35,2,2,0,0,1,.3-1.08c.17-.23.56-.34,1.18-.34A1.5,1.5,0,0,1,397.63,314.3Z"/><path d="M420.74,294.57a2.95,2.95,0,0,1,0-4.1,2.94,2.94,0,0,1,2.12-.8,2.83,2.83,0,0,1,2.05.78,2.72,2.72,0,0,1,.8,2,2.75,2.75,0,0,1-.85,2.07,2.87,2.87,0,0,1-2.09.83A2.82,2.82,0,0,1,420.74,294.57Zm0,26.15a1.38,1.38,0,0,1-.49-1.11l.46-19.55a1.45,1.45,0,0,1,.49-1.19,2.25,2.25,0,0,1,2.62,0,1.54,1.54,0,0,1,.48,1.24l-.46,19.5a1.51,1.51,0,0,1-.53,1.13,1.94,1.94,0,0,1-1.26.39A2,2,0,0,1,420.77,320.72Z"/><path d="M469.46,318.78a1.34,1.34,0,0,1,.32,1,1.67,1.67,0,0,1-.35,1.1,1.15,1.15,0,0,1-.94.42,5.08,5.08,0,0,1-2.78-.6,4.64,4.64,0,0,1-1.54-2.26c-1.38,2.24-3.84,3.36-7.36,3.36a10,10,0,0,1-6-1.66,9.19,9.19,0,0,1-3.29-4.2,14.88,14.88,0,0,1-1-5.41,14,14,0,0,1,1.24-5.8,10.6,10.6,0,0,1,3.66-4.37,10,10,0,0,1,5.77-1.65,8.36,8.36,0,0,1,4,.92,6.67,6.67,0,0,1,2.66,2.58l.19-1.52q.09-1.71,1.56-1.71a2.05,2.05,0,0,1,1.41.44,1.12,1.12,0,0,1,.39,1l-.14,1.15a38.46,38.46,0,0,0-.46,4c-.09,1.16-.14,2.73-.14,4.69v3.17a25.71,25.71,0,0,0,.12,2.93,2.94,2.94,0,0,0,.48,1.44,1.53,1.53,0,0,0,1.24.56A1.93,1.93,0,0,1,469.46,318.78Zm-6.26-10.9a6.25,6.25,0,0,0-1-3.65,5.37,5.37,0,0,0-2.34-2,6.6,6.6,0,0,0-2.62-.6A6.06,6.06,0,0,0,453.2,303a8.11,8.11,0,0,0-2.4,3.45,12,12,0,0,0-.76,4.09,10.67,10.67,0,0,0,1.59,5.77,5.66,5.66,0,0,0,5.22,2.56,7,7,0,0,0,4.49-1.41,4.93,4.93,0,0,0,1.81-4C463.18,312,463.2,310.15,463.2,307.88Z"/><path d="M476.75,320.58a1.48,1.48,0,0,1-.49-1.2L476,286.63a1.55,1.55,0,0,1,.5-1.22,2,2,0,0,1,1.34-.43,1.73,1.73,0,0,1,1.24.43,1.52,1.52,0,0,1,.46,1.17l.23,32.8a1.51,1.51,0,0,1-.48,1.2A1.88,1.88,0,0,1,478,321,1.84,1.84,0,0,1,476.75,320.58Z"/><path d="M501.59,314.3a2.15,2.15,0,0,1,.34,1.4,5.61,5.61,0,0,1-1.59,4.05,5.35,5.35,0,0,1-4.07,1.66,5.1,5.1,0,0,1-4.94-3c-1-2-1.5-5.17-1.5-9.43,0-1.59.08-3.42.23-5.47l-2.85-.23a1.37,1.37,0,0,1-1.38-1.52,1.2,1.2,0,0,1,1.34-1.38q.36,0,1.56.09,1,.09,1.56.09.33-3.4,1.11-8.55a1.62,1.62,0,0,1,.48-1,1.88,1.88,0,0,1,1.26-.34,1.93,1.93,0,0,1,1.38.46,1.24,1.24,0,0,1,.42,1.15l-.23,1.51q-.69,5.34-.87,7l3.67.09a1.68,1.68,0,0,1,1,.27,1.19,1.19,0,0,1,.34,1,1.53,1.53,0,0,1-.34,1.17,2.24,2.24,0,0,1-1.31.35c-.95,0-2.18.05-3.68.05-.15,1.93-.23,3.71-.23,5.33a27.1,27.1,0,0,0,.71,7c.48,1.69,1.34,2.53,2.6,2.53a1.92,1.92,0,0,0,1.61-.78,4.23,4.23,0,0,0,.69-2.35,2,2,0,0,1,.3-1.08c.17-.23.56-.34,1.17-.34A1.52,1.52,0,0,1,501.59,314.3Z"/><path d="M527.51,320.3a10,10,0,0,1-4.28-3.95,14.16,14.16,0,0,1-.14-12.84,10,10,0,0,1,4.16-4,13.37,13.37,0,0,1,6.28-1.41,12.57,12.57,0,0,1,4.53.76,8.52,8.52,0,0,1,3.11,2v-1q.18-7.21.3-10.53c.07-2.21.22-4.42.43-6.63a1.69,1.69,0,0,1,1.75-1.47,2,2,0,0,1,1.34.44,1.32,1.32,0,0,1,.46,1.13q-.33,3.36-.6,11.54t-.28,14.77a47.12,47.12,0,0,0,.32,7.73,7.43,7.43,0,0,0,.67,1.68c.26.44.54.66.85.66.09,0,.14.17.14.51a1.66,1.66,0,0,1-.6,1.24,1.9,1.9,0,0,1-1.33.55,1.58,1.58,0,0,1-.88-.23,4.68,4.68,0,0,1-1.31-1.22,5,5,0,0,1-.89-2.37,7.81,7.81,0,0,1-3.32,2.9,10.77,10.77,0,0,1-4.83,1.06A13.31,13.31,0,0,1,527.51,320.3Zm9.54-2.69a7.82,7.82,0,0,0,2.88-2.3,5.1,5.1,0,0,0,1.1-3.15c0-1.35,0-2.42.05-3.22l0-3.82a7.41,7.41,0,0,0-2.85-2.71,9,9,0,0,0-4.74-1.24,8.27,8.27,0,0,0-6.12,2.3,8.64,8.64,0,0,0-2.3,6.39,9,9,0,0,0,1.22,4.88,7.52,7.52,0,0,0,3.11,2.83,9,9,0,0,0,3.86.89A8.51,8.51,0,0,0,537.05,317.61Z"/><path d="M556.37,320a10.83,10.83,0,0,1-4.14-4.33,13,13,0,0,1,.07-11.86,11,11,0,0,1,4.19-4.35,12,12,0,0,1,6.25-1.61,12.19,12.19,0,0,1,5.61,1.26,9.5,9.5,0,0,1,3.87,3.52,9.68,9.68,0,0,1,1.38,5.15,4.37,4.37,0,0,1-.32,2c-.22.38-.76.59-1.61.62l-17.53.37a7.14,7.14,0,0,0,1.06,3.59,8.94,8.94,0,0,0,3,3.08,8.23,8.23,0,0,0,4.53,1.24,8.64,8.64,0,0,0,3.31-.57,7.26,7.26,0,0,0,2.17-1.32,23.75,23.75,0,0,0,1.88-2.06,1.2,1.2,0,0,1,1-.42,1.68,1.68,0,0,1,1.13.46,1.39,1.39,0,0,1,.53,1.06,1.59,1.59,0,0,1-.37,1,14.24,14.24,0,0,1-3.56,3.45,10.46,10.46,0,0,1-6,1.43A12.44,12.44,0,0,1,556.37,320Zm13.78-12.44c.3,0,.46-.22.46-.65a5.43,5.43,0,0,0-2.21-4.48,8.78,8.78,0,0,0-5.57-1.73,8,8,0,0,0-4.5,1.29,10.17,10.17,0,0,0-3.09,3,5.94,5.94,0,0,0-1.1,2.95Z"/><path d="M594.18,314.3a2.15,2.15,0,0,1,.35,1.4,5.61,5.61,0,0,1-1.59,4.05,5.37,5.37,0,0,1-4.07,1.66,5.12,5.12,0,0,1-5-3c-1-2-1.49-5.17-1.49-9.43,0-1.59.08-3.42.23-5.47l-2.85-.23a1.37,1.37,0,0,1-1.38-1.52c0-.92.44-1.38,1.33-1.38.25,0,.77,0,1.57.09s1.19.09,1.56.09q.32-3.4,1.1-8.55a1.58,1.58,0,0,1,.49-1,1.88,1.88,0,0,1,1.26-.34,2,2,0,0,1,1.38.46,1.24,1.24,0,0,1,.42,1.15l-.24,1.51q-.69,5.34-.87,7l3.68.09a1.68,1.68,0,0,1,1,.27,1.19,1.19,0,0,1,.34,1,1.53,1.53,0,0,1-.34,1.17,2.24,2.24,0,0,1-1.31.35c-1,0-2.18.05-3.68.05-.16,1.93-.24,3.71-.24,5.33a26.6,26.6,0,0,0,.72,7c.47,1.69,1.34,2.53,2.6,2.53a1.93,1.93,0,0,0,1.61-.78,4.23,4.23,0,0,0,.69-2.35,2,2,0,0,1,.3-1.08c.16-.23.56-.34,1.17-.34A1.5,1.5,0,0,1,594.18,314.3Z"/><path d="M606.39,316a6.69,6.69,0,0,1,1.11,4,7.72,7.72,0,0,1-.88,3.63,7.22,7.22,0,0,1-2.34,2.72,5.47,5.47,0,0,1-3.13,1,1.38,1.38,0,0,1-.94-.3,1,1,0,0,1-.35-.8,1.16,1.16,0,0,1,.28-.79.83.83,0,0,1,.64-.32,4.28,4.28,0,0,0,3.25-1.47,5.4,5.4,0,0,0,1.49-3.31,3.31,3.31,0,0,1-2.44.92,3.18,3.18,0,0,1-2.41-1,3.37,3.37,0,0,1-.95-2.42,3.27,3.27,0,0,1,1-2.43,3.49,3.49,0,0,1,2.55-1A3.57,3.57,0,0,1,606.39,316ZM604.44,319a1.76,1.76,0,0,0,.48-1.25,1.4,1.4,0,0,0-.48-1.08,1.82,1.82,0,0,0-1.27-.44,1.45,1.45,0,0,0-1.12.49,1.63,1.63,0,0,0-.44,1.12,1.75,1.75,0,0,0,.41,1.2,1.46,1.46,0,0,0,1.15.46A1.69,1.69,0,0,0,604.44,319Z"/><path d="M90.74,375.3a10.83,10.83,0,0,1-3.45-3.94,2.66,2.66,0,0,1-.32-.87,1.43,1.43,0,0,1,.58-1.13,1.91,1.91,0,0,1,1.26-.48,1,1,0,0,1,.71.25,8.05,8.05,0,0,1,.72.9,12.08,12.08,0,0,0,2.43,2.78,5.29,5.29,0,0,0,3.41,1,5.44,5.44,0,0,0,3.29-1,2.93,2.93,0,0,0,1.31-2.44,2.5,2.5,0,0,0-.71-1.79,5.66,5.66,0,0,0-1.75-1.2c-.69-.3-1.68-.69-3-1.15-1.62-.58-2.94-1.11-3.93-1.58a7.3,7.3,0,0,1-2.56-2,5.14,5.14,0,0,1-1.05-3.33,6.07,6.07,0,0,1,1-3.34,6.88,6.88,0,0,1,2.82-2.46,10.21,10.21,0,0,1,8.47,0,7.21,7.21,0,0,1,2.85,2.44,6,6,0,0,1,1,3.36,2.08,2.08,0,0,1-.34,1.33,1.51,1.51,0,0,1-1.22.42,1.26,1.26,0,0,1-1.57-1.25,4.25,4.25,0,0,0-1.51-3.19,5.47,5.47,0,0,0-3.45-1,4.51,4.51,0,0,0-3.52,1.17,3.76,3.76,0,0,0-1,2.51,2.72,2.72,0,0,0,1.36,2.42,23.46,23.46,0,0,0,4.21,1.86,36.72,36.72,0,0,1,3.91,1.61,7.45,7.45,0,0,1,2.51,2,5,5,0,0,1,1,3.22,5.5,5.5,0,0,1-2.34,4.7,9.66,9.66,0,0,1-5.8,1.7A9.14,9.14,0,0,1,90.74,375.3Z"/><path d="M112.25,373.89q-3.44-2.76-3.43-8.65a14.26,14.26,0,0,1,1.4-6.46,10.39,10.39,0,0,1,4.07-4.34,12.18,12.18,0,0,1,6.31-1.57,13.36,13.36,0,0,1,6.28,1.45,10.65,10.65,0,0,1,4.37,4.23,13.3,13.3,0,0,1,1.58,6.65c0,3.74-1.09,6.58-3.29,8.53a12.55,12.55,0,0,1-8.67,2.92A13.3,13.3,0,0,1,112.25,373.89Zm14.63-2.32c1.61-1.46,2.41-3.59,2.41-6.42a10.74,10.74,0,0,0-1.08-4.9,7.92,7.92,0,0,0-3-3.31,8.55,8.55,0,0,0-4.48-1.17,7.67,7.67,0,0,0-6,2.58,9.86,9.86,0,0,0-2.28,6.8q0,4.47,2.44,6.54a8.93,8.93,0,0,0,6,2.07A8.75,8.75,0,0,0,126.88,371.57Z"/><path d="M166,355.82a14.47,14.47,0,0,1,1.66,7.58q0,7.74-.05,11.74a1.37,1.37,0,0,1-.43,1.05,1.71,1.71,0,0,1-1.22.42,1.75,1.75,0,0,1-1.27-.42,1.51,1.51,0,0,1-.44-1.15V363.68a14.75,14.75,0,0,0-.89-6,3.38,3.38,0,0,0-3.34-1.84,3.61,3.61,0,0,0-3.4,2.58,15.75,15.75,0,0,0-1.15,6.07V375c0,1-.57,1.48-1.7,1.48s-1.8-.53-1.8-1.57l.05-8.33v-2.11a13.76,13.76,0,0,0-1.31-5.87c-.85-1.73-2-2.59-3.48-2.59a3.35,3.35,0,0,0-2.83,1.67,15.5,15.5,0,0,0-1.86,5.36,38,38,0,0,0-.41,6.4v5.7a1.12,1.12,0,0,1-.51,1,2.06,2.06,0,0,1-1.19.35,2.18,2.18,0,0,1-1.22-.4,1.17,1.17,0,0,1-.44-1q0-4.65-.09-14.86v-1.75a4.62,4.62,0,0,0-.28-1.66,3.32,3.32,0,0,0-.64-.92l-.3-.27a.59.59,0,0,1-.21-.46,1.47,1.47,0,0,1,.51-1.15,1.65,1.65,0,0,1,1.15-.46,1.31,1.31,0,0,1,.76.34,3.91,3.91,0,0,1,.76.81,4.78,4.78,0,0,1,.71,1.38,5.71,5.71,0,0,1,.21,1.65v.78a8.22,8.22,0,0,1,2.34-4,5.48,5.48,0,0,1,3.73-1.36q4.74,0,6.21,5.33A7.6,7.6,0,0,1,156,354.5a6.44,6.44,0,0,1,4.23-1.4Q164.3,353.1,166,355.82Z"/><path d="M215.63,344.29a1.88,1.88,0,0,1,.46,1.36l0,16.79a78.32,78.32,0,0,1-.35,8.51,10.93,10.93,0,0,1-1,4,2.06,2.06,0,0,1-1.82,1.09,4.4,4.4,0,0,1-2.9-1.45,26.91,26.91,0,0,1-3.4-4.24q-1.89-2.78-5.47-8.44-3.36-5.32-5.09-8t-3-4.34c0,2.08,0,3.75,0,5l0,6.12,0,13.94a1.35,1.35,0,0,1-.5,1,1.92,1.92,0,0,1-1.29.44,2,2,0,0,1-1.27-.44,1.31,1.31,0,0,1-.52-1v-14q0-4.37,0-6.81L189.5,347a4.2,4.2,0,0,1,.46-2.19,1.79,1.79,0,0,1,1.61-.71,3.8,3.8,0,0,1,2.49,1.1,16.2,16.2,0,0,1,2.55,3q1.3,1.94,3.84,6-.36-.64,2.44,4,5.7,9.1,9.11,13.48a73.8,73.8,0,0,0,.46-9.3v-17a1.5,1.5,0,0,1,.48-1.17,2.2,2.2,0,0,1,2.69,0Z"/><path d="M224.85,373.89q-3.42-2.76-3.42-8.65a14.13,14.13,0,0,1,1.4-6.46,10.33,10.33,0,0,1,4.07-4.34,12.17,12.17,0,0,1,6.3-1.57,13.34,13.34,0,0,1,6.28,1.45,10.6,10.6,0,0,1,4.37,4.23,13.2,13.2,0,0,1,1.59,6.65q0,5.61-3.29,8.53a12.55,12.55,0,0,1-8.67,2.92A13.33,13.33,0,0,1,224.85,373.89Zm14.63-2.32c1.61-1.46,2.42-3.59,2.42-6.42a10.74,10.74,0,0,0-1.08-4.9,8,8,0,0,0-3-3.31,8.55,8.55,0,0,0-4.48-1.17,7.65,7.65,0,0,0-6.05,2.58,9.86,9.86,0,0,0-2.28,6.8q0,4.47,2.44,6.54a8.92,8.92,0,0,0,6,2.07A8.72,8.72,0,0,0,239.48,371.57Z"/><path d="M272.67,374a1.34,1.34,0,0,1,.32,1,1.66,1.66,0,0,1-.34,1.1,1.17,1.17,0,0,1-.95.42,5.1,5.1,0,0,1-2.78-.6,4.64,4.64,0,0,1-1.54-2.26Q265.31,377,260,377a10.08,10.08,0,0,1-6-1.66,9.1,9.1,0,0,1-3.28-4.2,14.88,14.88,0,0,1-1-5.41A13.8,13.8,0,0,1,251,360a10.6,10.6,0,0,1,3.66-4.37,10,10,0,0,1,5.77-1.65,8.32,8.32,0,0,1,4,.92,6.7,6.7,0,0,1,2.67,2.58l.18-1.52c.06-1.14.59-1.71,1.57-1.71a2,2,0,0,1,1.4.44,1.12,1.12,0,0,1,.39,1l-.14,1.15c-.21,1.28-.37,2.62-.46,4-.09,1.16-.14,2.73-.14,4.69v3.17a25.71,25.71,0,0,0,.12,2.93,3.25,3.25,0,0,0,.48,1.45,1.57,1.57,0,0,0,1.24.55A1.9,1.9,0,0,1,272.67,374Zm-6.25-10.9a6.32,6.32,0,0,0-1-3.65,5.45,5.45,0,0,0-2.35-2,6.57,6.57,0,0,0-2.62-.6,6.08,6.08,0,0,0-4.07,1.38,8,8,0,0,0-2.39,3.45,11.72,11.72,0,0,0-.76,4.09,10.67,10.67,0,0,0,1.59,5.77q1.58,2.57,5.22,2.56a7,7,0,0,0,4.48-1.41,4.93,4.93,0,0,0,1.82-4C266.4,367.21,266.42,365.35,266.42,363.08Z"/><path d="M299.58,365.52c.15,2.55.23,5.78.23,9.71a1.22,1.22,0,0,1-.48,1,2,2,0,0,1-1.27.39,1.94,1.94,0,0,1-1.26-.39,1.4,1.4,0,0,1-.49-1.18q0-12.09-1-15.36a5.36,5.36,0,0,0-1.59-2.74,4.22,4.22,0,0,0-2.78-.85,6.1,6.1,0,0,0-4.05,1.4,8.68,8.68,0,0,0-2.48,3.57,12.52,12.52,0,0,0-.83,4.51v9.7a1.1,1.1,0,0,1-.5.92,2.06,2.06,0,0,1-1.25.37,2,2,0,0,1-1.26-.37,1.14,1.14,0,0,1-.48-1q0-9.53.23-17.94.22-7.55.73-15.18a1.57,1.57,0,0,1,1.75-1.61,2,2,0,0,1,1.22.34,1,1,0,0,1,.44.94l-.33,6.45q-.27,5.92-.46,8.64a9.62,9.62,0,0,1,3-2.83,9,9,0,0,1,4.69-1.12,6.91,6.91,0,0,1,4.76,1.52,9.18,9.18,0,0,1,2.56,4.69A36.43,36.43,0,0,1,299.58,365.52Z"/><path d="M340.47,371.18c.22,1.32.37,2.33.46,3a15.65,15.65,0,0,1,.14,2.2,13.08,13.08,0,0,1-1.38,6.14,9.85,9.85,0,0,1-3.91,4.1,11.6,11.6,0,0,1-5.84,1.45,10.2,10.2,0,0,1-4.55-1,9,9,0,0,1-3.39-2.76,6.23,6.23,0,0,1-1.26-3.75c0-.92.57-1.38,1.7-1.38a1.27,1.27,0,0,1,.85.26,1.48,1.48,0,0,1,.44.85,6,6,0,0,0,2.18,3.63,6.62,6.62,0,0,0,4,1.2,7.08,7.08,0,0,0,5.66-2.3,9.52,9.52,0,0,0,2-6.4,21.64,21.64,0,0,0-.37-3.45,7.51,7.51,0,0,1-3,2.51,10,10,0,0,1-4.48.94,11.3,11.3,0,0,1-6-1.56,10.51,10.51,0,0,1-3.94-4.14,11.82,11.82,0,0,1-1.35-5.57,12.94,12.94,0,0,1,1.33-5.79,11,11,0,0,1,3.79-4.37,9.94,9.94,0,0,1,5.69-1.66,10.27,10.27,0,0,1,3.65.6,6.86,6.86,0,0,1,2.46,1.47c.49-1.41.79-2.21.88-2.39a1.29,1.29,0,0,1,1.19-.78,2.48,2.48,0,0,1,1.31.37,1.17,1.17,0,0,1,.67.92,1.44,1.44,0,0,1,0,.41c0,.12-.14.46-.3,1s-.39,1.37-.67,2.44l1.66,11.36Zm-7.77,1.36a9.65,9.65,0,0,0,2.62-1.57,3.85,3.85,0,0,0,1.34-1.86c-.16-1.47-.53-3.93-1.11-7.36l-.41-2.39a3.41,3.41,0,0,0-1.06-1.27A7.23,7.23,0,0,0,332,357a7.41,7.41,0,0,0-2.62-.46,6.74,6.74,0,0,0-3.84,1.12,7.63,7.63,0,0,0-2.63,3.06A9.86,9.86,0,0,0,322,365a9.5,9.5,0,0,0,.85,4,7,7,0,0,0,2.6,3,7.75,7.75,0,0,0,4.28,1.13A7.93,7.93,0,0,0,332.7,372.54Z"/><path d="M351.26,375.16a10.7,10.7,0,0,1-4.14-4.33,13,13,0,0,1,.07-11.86,11,11,0,0,1,4.19-4.35,12,12,0,0,1,6.25-1.61,12.19,12.19,0,0,1,5.61,1.26,9.5,9.5,0,0,1,3.87,3.52,9.68,9.68,0,0,1,1.38,5.15,4.37,4.37,0,0,1-.32,2c-.22.38-.76.59-1.62.62l-17.52.37a7.14,7.14,0,0,0,1.06,3.59,8.94,8.94,0,0,0,3,3.08,8.23,8.23,0,0,0,4.53,1.24,8.64,8.64,0,0,0,3.31-.57,7.07,7.07,0,0,0,2.16-1.32,22.14,22.14,0,0,0,1.89-2.06,1.2,1.2,0,0,1,1-.42,1.68,1.68,0,0,1,1.13.46,1.39,1.39,0,0,1,.53,1.06,1.59,1.59,0,0,1-.37,1,14.24,14.24,0,0,1-3.56,3.45,10.48,10.48,0,0,1-6,1.43A12.44,12.44,0,0,1,351.26,375.16ZM365,362.72c.3,0,.46-.22.46-.65a5.43,5.43,0,0,0-2.21-4.48,8.78,8.78,0,0,0-5.57-1.73,8.09,8.09,0,0,0-4.51,1.29,10.16,10.16,0,0,0-3.08,3,5.88,5.88,0,0,0-1.1,2.94Z"/><path d="M390.2,354.83a6.59,6.59,0,0,1,1.65,4.53,5.26,5.26,0,0,1-1.51,4,5.47,5.47,0,0,1-3.91,1.44,2.37,2.37,0,0,1-1.31-.27,1.14,1.14,0,0,1-.4-1,1.08,1.08,0,0,1,1.15-1.24c2-.19,3-1.17,3-2.95a3.89,3.89,0,0,0-.78-2.44,3,3,0,0,0-2.53-1,4.09,4.09,0,0,0-3.19,1.57,11.22,11.22,0,0,0-2.14,3.88,17.33,17.33,0,0,0-.92,4.58q-.29,4.23-.28,8a5.62,5.62,0,0,1-.35,2.49,1.43,1.43,0,0,1-1.35.6,1.71,1.71,0,0,1-1.4-.49,2.65,2.65,0,0,1-.4-1.68l0-8.78c0-2-.16-4.7-.46-8-.19-1.93-.29-3.31-.32-4.14a1.26,1.26,0,0,1,.41-1.12,2,2,0,0,1,1.29-.4,1.34,1.34,0,0,1,1.52,1.38c.18,1.94.29,3.82.32,5.66a9.17,9.17,0,0,1,2.71-4.74,6.82,6.82,0,0,1,4.65-1.7A5.83,5.83,0,0,1,390.2,354.83Z"/><path d="M417,364.19V375c0,1.07-.57,1.61-1.71,1.61s-1.84-.52-1.84-1.56V364.14a14.39,14.39,0,0,0-.92-6,3.35,3.35,0,0,0-3.31-1.91,5.14,5.14,0,0,0-4.14,1.94,11.31,11.31,0,0,0-2.25,5.06,27.22,27.22,0,0,0-.42,5.2l.05,6.8a1.15,1.15,0,0,1-.46,1,2,2,0,0,1-1.24.35,2.16,2.16,0,0,1-1.34-.37,1.21,1.21,0,0,1-.46-1c0-2.73-.06-6-.18-10q-.14-3.41-.14-6a5.23,5.23,0,0,0-.25-1.82,12.23,12.23,0,0,0-1-1.87,1.12,1.12,0,0,1-.18-.64,1.31,1.31,0,0,1,.62-1,2,2,0,0,1,1.22-.49c.39,0,.81.29,1.24.88a9.7,9.7,0,0,1,.94,1.77,5.06,5.06,0,0,1,.44,1.95v.51a8.63,8.63,0,0,1,2.67-3.82,7.41,7.41,0,0,1,4.87-1.52Q417,353.19,417,364.19Z"/><path d="M428.31,375.16a10.7,10.7,0,0,1-4.14-4.33,13,13,0,0,1,.07-11.86,11,11,0,0,1,4.18-4.35,12.08,12.08,0,0,1,6.26-1.61,12.22,12.22,0,0,1,5.61,1.26,9.5,9.5,0,0,1,3.87,3.52,9.68,9.68,0,0,1,1.38,5.15,4.21,4.21,0,0,1-.33,2c-.21.38-.75.59-1.61.62l-17.52.37a7.14,7.14,0,0,0,1.06,3.59,8.85,8.85,0,0,0,3,3.08,8.23,8.23,0,0,0,4.53,1.24,8.64,8.64,0,0,0,3.31-.57,7.07,7.07,0,0,0,2.16-1.32,25.32,25.32,0,0,0,1.89-2.06,1.18,1.18,0,0,1,1-.42,1.68,1.68,0,0,1,1.13.46,1.39,1.39,0,0,1,.53,1.06,1.59,1.59,0,0,1-.37,1,14.11,14.11,0,0,1-3.57,3.45,10.42,10.42,0,0,1-5.95,1.43A12.44,12.44,0,0,1,428.31,375.16Zm13.78-12.44c.3,0,.46-.22.46-.65a5.43,5.43,0,0,0-2.21-4.48,8.78,8.78,0,0,0-5.57-1.73,8.09,8.09,0,0,0-4.51,1.29,10,10,0,0,0-3.08,3,5.88,5.88,0,0,0-1.1,2.94Z"/><path d="M471.73,373.62a34.26,34.26,0,0,1-3.38-7.32,64.93,64.93,0,0,1-2-6.44,21.79,21.79,0,0,1-.81-4.6,1.68,1.68,0,0,1,.48-1.31,1.9,1.9,0,0,1,1.31-.43,1.58,1.58,0,0,1,1.71,1.47,54.68,54.68,0,0,0,2.3,9.75,39.35,39.35,0,0,0,2.18,5.29c.78,1.53,1.33,2.3,1.64,2.3s.93-.73,1.7-2.19a45.76,45.76,0,0,0,2.34-5.4,43.61,43.61,0,0,0,2.58-9.94,1.66,1.66,0,0,1,1.75-1.52,1.66,1.66,0,0,1,1.29.51,1.94,1.94,0,0,1,.46,1.33,20.34,20.34,0,0,1-.81,4.54,60.94,60.94,0,0,1-2.09,6.46q-3.92,10.22-7.18,10.21C474.09,376.33,472.91,375.43,471.73,373.62Z"/><path d="M493.33,349.77a2.95,2.95,0,0,1,0-4.1,2.93,2.93,0,0,1,2.11-.8,2.83,2.83,0,0,1,2.05.78,2.69,2.69,0,0,1,.81,2,2.79,2.79,0,0,1-.85,2.07,2.87,2.87,0,0,1-2.1.83A2.8,2.8,0,0,1,493.33,349.77Zm0,26.15a1.4,1.4,0,0,1-.48-1.11l.46-19.55a1.47,1.47,0,0,1,.48-1.19,2.25,2.25,0,0,1,2.62,0,1.51,1.51,0,0,1,.49,1.24l-.46,19.5a1.51,1.51,0,0,1-.53,1.13,2.28,2.28,0,0,1-2.58,0Z"/><path d="M506,375.78a1.47,1.47,0,0,1-.49-1.2l-.27-32.75a1.51,1.51,0,0,1,.5-1.22,2,2,0,0,1,1.34-.43,1.73,1.73,0,0,1,1.24.43,1.52,1.52,0,0,1,.46,1.17l.23,32.8a1.5,1.5,0,0,1-.48,1.2,1.88,1.88,0,0,1-1.27.41A1.84,1.84,0,0,1,506,375.78Z"/><path d="M517.5,375.78a1.5,1.5,0,0,1-.48-1.2l-.28-32.75a1.52,1.52,0,0,1,.51-1.22,2,2,0,0,1,1.33-.43,1.72,1.72,0,0,1,1.24.43,1.52,1.52,0,0,1,.46,1.17l.23,32.8a1.5,1.5,0,0,1-.48,1.2,2.16,2.16,0,0,1-2.53,0Z"/><path d="M533,375.16a10.83,10.83,0,0,1-4.14-4.33,13,13,0,0,1,.07-11.86,11,11,0,0,1,4.19-4.35,12,12,0,0,1,6.25-1.61,12.26,12.26,0,0,1,5.62,1.26,9.54,9.54,0,0,1,3.86,3.52,9.68,9.68,0,0,1,1.38,5.15,4.37,4.37,0,0,1-.32,2c-.22.38-.75.59-1.61.62l-17.53.37a7.14,7.14,0,0,0,1.06,3.59,8.94,8.94,0,0,0,3,3.08,8.28,8.28,0,0,0,4.53,1.24,8.7,8.7,0,0,0,3.32-.57,7.07,7.07,0,0,0,2.16-1.32,23.75,23.75,0,0,0,1.88-2.06,1.22,1.22,0,0,1,1-.42,1.67,1.67,0,0,1,1.12.46,1.39,1.39,0,0,1,.53,1.06,1.59,1.59,0,0,1-.37,1,14.24,14.24,0,0,1-3.56,3.45,10.46,10.46,0,0,1-6,1.43A12.49,12.49,0,0,1,533,375.16Zm13.78-12.44c.31,0,.46-.22.46-.65a5.43,5.43,0,0,0-2.21-4.48,8.78,8.78,0,0,0-5.57-1.73,8.06,8.06,0,0,0-4.5,1.29,9.94,9.94,0,0,0-3.08,3,5.82,5.82,0,0,0-1.11,2.94Z"/><path d="M108.68,420.72c.16,2.55.23,5.78.23,9.71a1.22,1.22,0,0,1-.48,1,2.25,2.25,0,0,1-2.53,0,1.43,1.43,0,0,1-.48-1.18q0-12.09-1-15.36a5.43,5.43,0,0,0-1.59-2.74,4.23,4.23,0,0,0-2.78-.85,6.06,6.06,0,0,0-4.05,1.4,8.61,8.61,0,0,0-2.49,3.57,12.52,12.52,0,0,0-.83,4.51v9.7a1.08,1.08,0,0,1-.5.92,2.31,2.31,0,0,1-2.51,0,1.14,1.14,0,0,1-.48-1q0-9.53.23-17.94.23-7.55.73-15.18a1.57,1.57,0,0,1,1.75-1.61,2,2,0,0,1,1.22.34,1,1,0,0,1,.44.94l-.32,6.45q-.28,5.93-.46,8.64a9.58,9.58,0,0,1,3-2.83,9,9,0,0,1,4.7-1.12,6.93,6.93,0,0,1,4.76,1.52,9.1,9.1,0,0,1,2.55,4.69A35.51,35.51,0,0,1,108.68,420.72Z"/><path d="M136.38,429.19a1.3,1.3,0,0,1,.32,1,1.67,1.67,0,0,1-.35,1.1,1.15,1.15,0,0,1-.94.42,5.05,5.05,0,0,1-2.78-.6,4.57,4.57,0,0,1-1.54-2.26q-2.07,3.36-7.37,3.36a10.09,10.09,0,0,1-6-1.65,9.27,9.27,0,0,1-3.29-4.21,14.88,14.88,0,0,1-1-5.41,14,14,0,0,1,1.24-5.8,10.6,10.6,0,0,1,3.66-4.37,10,10,0,0,1,5.77-1.65,8.29,8.29,0,0,1,4,.92,6.63,6.63,0,0,1,2.67,2.58l.19-1.52q.09-1.71,1.56-1.71a2,2,0,0,1,1.4.44,1.07,1.07,0,0,1,.39,1l-.13,1.15a38.78,38.78,0,0,0-.46,4c-.1,1.16-.14,2.73-.14,4.69v3.18a28.91,28.91,0,0,0,.11,2.92,3.13,3.13,0,0,0,.49,1.45,1.55,1.55,0,0,0,1.24.55A1.85,1.85,0,0,1,136.38,429.19Zm-6.26-10.91a6.25,6.25,0,0,0-1-3.65,5.37,5.37,0,0,0-2.34-2,6.61,6.61,0,0,0-2.63-.6,6.1,6.1,0,0,0-4.07,1.38,8.09,8.09,0,0,0-2.39,3.45A12,12,0,0,0,117,421a10.67,10.67,0,0,0,1.59,5.77,5.66,5.66,0,0,0,5.22,2.56,7,7,0,0,0,4.49-1.41,4.93,4.93,0,0,0,1.81-4C130.1,422.41,130.12,420.55,130.12,418.28Z"/><path d="M147.85,428.82a34.26,34.26,0,0,1-3.38-7.32q-1.16-3.21-2-6.44a22.27,22.27,0,0,1-.8-4.6,1.68,1.68,0,0,1,.48-1.31,1.88,1.88,0,0,1,1.31-.43,1.58,1.58,0,0,1,1.71,1.47,54.68,54.68,0,0,0,2.3,9.75,39.35,39.35,0,0,0,2.18,5.29c.78,1.53,1.33,2.3,1.63,2.3s.94-.73,1.71-2.19a47.49,47.49,0,0,0,2.34-5.4A43.61,43.61,0,0,0,158,410a1.66,1.66,0,0,1,1.75-1.52A1.62,1.62,0,0,1,161,409a1.89,1.89,0,0,1,.46,1.33,20.78,20.78,0,0,1-.8,4.54,63.33,63.33,0,0,1-2.09,6.46q-3.92,10.21-7.18,10.21Q149.61,431.53,147.85,428.82Z"/><path d="M172,430.36a10.83,10.83,0,0,1-4.14-4.33,13,13,0,0,1,.07-11.86,11,11,0,0,1,4.19-4.35,12.05,12.05,0,0,1,6.26-1.61,12.25,12.25,0,0,1,5.61,1.26A9.54,9.54,0,0,1,187.8,413a9.69,9.69,0,0,1,1.38,5.16,4.32,4.32,0,0,1-.32,2c-.22.38-.75.59-1.61.62l-17.53.37a7.24,7.24,0,0,0,1.06,3.59,9,9,0,0,0,3,3.08,8.29,8.29,0,0,0,4.54,1.24,8.68,8.68,0,0,0,3.31-.57,7.07,7.07,0,0,0,2.16-1.32,23.73,23.73,0,0,0,1.89-2.06,1.18,1.18,0,0,1,1-.42,1.65,1.65,0,0,1,1.12.46,1.36,1.36,0,0,1,.53,1.06,1.64,1.64,0,0,1-.36,1,14.5,14.5,0,0,1-3.57,3.46,10.54,10.54,0,0,1-6,1.42A12.49,12.49,0,0,1,172,430.36Zm13.78-12.44c.31,0,.46-.22.46-.65a5.4,5.4,0,0,0-2.21-4.48,8.75,8.75,0,0,0-5.56-1.73,8.07,8.07,0,0,0-4.51,1.29,9.94,9.94,0,0,0-3.08,3,5.82,5.82,0,0,0-1.11,2.94Z"/><path d="M202.57,426.36a6.78,6.78,0,0,1,1.1,4,7.91,7.91,0,0,1-.87,3.64,7.38,7.38,0,0,1-2.35,2.71,5.45,5.45,0,0,1-3.13,1,1.38,1.38,0,0,1-.94-.3,1,1,0,0,1-.34-.8,1.16,1.16,0,0,1,.27-.78.83.83,0,0,1,.65-.33,4.33,4.33,0,0,0,3.26-1.47,5.09,5.09,0,0,0,1.47-3.31,3.11,3.11,0,0,1-2.43.92,3.19,3.19,0,0,1-2.42-1,3.35,3.35,0,0,1-.94-2.41,3.28,3.28,0,0,1,1-2.44,3.49,3.49,0,0,1,2.56-1A3.58,3.58,0,0,1,202.57,426.36ZM197.18,417a3.54,3.54,0,0,1-1-2.53,3.25,3.25,0,0,1,1-2.44,3.41,3.41,0,0,1,2.5-1,3.53,3.53,0,0,1,2.6,1,3.25,3.25,0,0,1,1,2.44,3.35,3.35,0,0,1-3.59,3.54A3.37,3.37,0,0,1,197.18,417Zm3.43,12.42a1.76,1.76,0,0,0,.48-1.25,1.4,1.4,0,0,0-.48-1.08,1.81,1.81,0,0,0-1.26-.44,1.47,1.47,0,0,0-1.13.49,1.64,1.64,0,0,0-.44,1.13,1.7,1.7,0,0,0,.42,1.19,1.45,1.45,0,0,0,1.15.46A1.68,1.68,0,0,0,200.61,429.42Zm-2-16a1.53,1.53,0,0,0-.48,1.09,1.73,1.73,0,0,0,.46,1.26,1.53,1.53,0,0,0,1.15.48,1.51,1.51,0,0,0,1.2-.48,1.89,1.89,0,0,0,.41-1.26,1.48,1.48,0,0,0-.5-1.11,1.76,1.76,0,0,0-1.2-.46A1.48,1.48,0,0,0,198.63,413.38Z"/><path d="M227.15,429.09q-3.42-2.76-3.42-8.65a14.13,14.13,0,0,1,1.4-6.46,10.27,10.27,0,0,1,4.07-4.34,12.17,12.17,0,0,1,6.3-1.57,13.34,13.34,0,0,1,6.28,1.45,10.6,10.6,0,0,1,4.37,4.23,13.2,13.2,0,0,1,1.59,6.65q0,5.61-3.29,8.53a12.55,12.55,0,0,1-8.67,2.92A13.33,13.33,0,0,1,227.15,429.09Zm14.63-2.32c1.61-1.46,2.42-3.59,2.42-6.42a10.74,10.74,0,0,0-1.08-4.9,8.05,8.05,0,0,0-3-3.31,8.56,8.56,0,0,0-4.49-1.17,7.65,7.65,0,0,0-6,2.58,9.86,9.86,0,0,0-2.28,6.8q0,4.47,2.44,6.54a8.92,8.92,0,0,0,6,2.07A8.72,8.72,0,0,0,241.78,426.77Z"/><path d="M273.45,426.38c.22,1.32.37,2.33.46,3a17.31,17.31,0,0,1,.14,2.2,13.08,13.08,0,0,1-1.38,6.14,9.85,9.85,0,0,1-3.91,4.1,11.6,11.6,0,0,1-5.84,1.45,10.24,10.24,0,0,1-4.56-1,9.06,9.06,0,0,1-3.38-2.76,6.23,6.23,0,0,1-1.26-3.75c0-.92.57-1.38,1.7-1.38a1.27,1.27,0,0,1,.85.26,1.48,1.48,0,0,1,.44.85,5.93,5.93,0,0,0,2.18,3.63,6.62,6.62,0,0,0,4,1.2,7.08,7.08,0,0,0,5.66-2.3,9.57,9.57,0,0,0,2-6.4,21.45,21.45,0,0,0-.36-3.45,7.51,7.51,0,0,1-3,2.51,10,10,0,0,1-4.49.94,11.32,11.32,0,0,1-6-1.56,10.49,10.49,0,0,1-3.93-4.14,11.82,11.82,0,0,1-1.36-5.57,13,13,0,0,1,1.34-5.79,11,11,0,0,1,3.79-4.37,9.9,9.9,0,0,1,5.68-1.66,10.33,10.33,0,0,1,3.66.6,6.86,6.86,0,0,1,2.46,1.47c.49-1.41.78-2.21.88-2.39a1.29,1.29,0,0,1,1.19-.78,2.48,2.48,0,0,1,1.31.37,1.17,1.17,0,0,1,.67.92,1.37,1.37,0,0,1-.05.41c0,.12-.13.46-.3,1s-.39,1.37-.66,2.44l1.65,11.36Zm-7.77,1.36a9.8,9.8,0,0,0,2.62-1.57,3.76,3.76,0,0,0,1.33-1.86c-.15-1.47-.52-3.93-1.1-7.36l-.41-2.39a3.41,3.41,0,0,0-1.06-1.27,7.23,7.23,0,0,0-2.07-1.12,7.41,7.41,0,0,0-2.62-.46,6.75,6.75,0,0,0-3.85,1.12,7.69,7.69,0,0,0-2.62,3.06,9.72,9.72,0,0,0-.94,4.33,9.5,9.5,0,0,0,.85,4,6.9,6.9,0,0,0,2.6,3,7.75,7.75,0,0,0,4.28,1.13A7.93,7.93,0,0,0,265.68,427.74Z"/><path d="M314.62,420.72c.15,2.55.23,5.78.23,9.71a1.22,1.22,0,0,1-.48,1,2,2,0,0,1-1.27.39,1.94,1.94,0,0,1-1.26-.39,1.43,1.43,0,0,1-.49-1.18q0-12.09-1-15.36a5.42,5.42,0,0,0-1.58-2.74,4.24,4.24,0,0,0-2.79-.85,6.1,6.1,0,0,0-4.05,1.4,8.68,8.68,0,0,0-2.48,3.57,12.52,12.52,0,0,0-.83,4.51v9.7a1.1,1.1,0,0,1-.5.92,2,2,0,0,1-1.24.37,2,2,0,0,1-1.27-.37,1.14,1.14,0,0,1-.48-1q0-9.53.23-17.94.22-7.55.73-15.18a1.57,1.57,0,0,1,1.75-1.61,2,2,0,0,1,1.22.34,1,1,0,0,1,.44.94l-.32,6.45q-.29,5.93-.46,8.64a9.48,9.48,0,0,1,3-2.83,9,9,0,0,1,4.69-1.12,6.91,6.91,0,0,1,4.76,1.52,9.11,9.11,0,0,1,2.56,4.69A35.51,35.51,0,0,1,314.62,420.72Z"/><path d="M342.31,429.19a1.26,1.26,0,0,1,.32,1,1.66,1.66,0,0,1-.34,1.1,1.15,1.15,0,0,1-.94.42,5.12,5.12,0,0,1-2.79-.6,4.7,4.7,0,0,1-1.54-2.26q-2.07,3.36-7.36,3.36a10.09,10.09,0,0,1-6-1.65,9.2,9.2,0,0,1-3.29-4.21,14.88,14.88,0,0,1-1-5.41,13.8,13.8,0,0,1,1.24-5.8,10.6,10.6,0,0,1,3.66-4.37,10,10,0,0,1,5.77-1.65,8.32,8.32,0,0,1,4,.92,6.63,6.63,0,0,1,2.67,2.58l.18-1.52c.07-1.14.59-1.71,1.57-1.71a2,2,0,0,1,1.4.44,1.12,1.12,0,0,1,.39,1L340.1,412c-.21,1.29-.36,2.62-.46,4-.09,1.16-.13,2.73-.13,4.69v3.18a28.91,28.91,0,0,0,.11,2.92,3.25,3.25,0,0,0,.48,1.45,1.57,1.57,0,0,0,1.25.55A1.78,1.78,0,0,1,342.31,429.19Zm-6.25-10.91a6.32,6.32,0,0,0-1-3.65,5.37,5.37,0,0,0-2.34-2,6.65,6.65,0,0,0-2.63-.6,6.1,6.1,0,0,0-4.07,1.38,8.09,8.09,0,0,0-2.39,3.45,11.72,11.72,0,0,0-.76,4.09,10.67,10.67,0,0,0,1.59,5.77,5.66,5.66,0,0,0,5.22,2.56,7,7,0,0,0,4.48-1.41,4.93,4.93,0,0,0,1.82-4C336,422.41,336.06,420.55,336.06,418.28Z"/><path d="M367.75,419.39v10.76c0,1.08-.57,1.61-1.7,1.61s-1.84-.52-1.84-1.56V419.34a14.56,14.56,0,0,0-.92-6,3.36,3.36,0,0,0-3.31-1.9,5.13,5.13,0,0,0-4.14,1.93,11.21,11.21,0,0,0-2.26,5.06,28.15,28.15,0,0,0-.41,5.2l0,6.8a1.15,1.15,0,0,1-.46,1,2,2,0,0,1-1.24.35,2,2,0,0,1-1.33-.37,1.18,1.18,0,0,1-.46-1c0-2.73-.06-6.05-.19-10q-.13-3.4-.13-6a5.2,5.2,0,0,0-.26-1.82,12.23,12.23,0,0,0-1-1.87,1.12,1.12,0,0,1-.18-.64,1.34,1.34,0,0,1,.62-1,2,2,0,0,1,1.22-.49c.4,0,.81.29,1.24.88a10.35,10.35,0,0,1,.95,1.77,5,5,0,0,1,.43,2v.51a8.63,8.63,0,0,1,2.67-3.82,7.44,7.44,0,0,1,4.88-1.52Q367.75,408.39,367.75,419.39Z"/><path d="M394,428.82a34.26,34.26,0,0,1-3.38-7.32,64.93,64.93,0,0,1-1.95-6.44,21.79,21.79,0,0,1-.81-4.6,1.68,1.68,0,0,1,.48-1.31,1.91,1.91,0,0,1,1.32-.43,1.58,1.58,0,0,1,1.7,1.47,54.68,54.68,0,0,0,2.3,9.75,39.35,39.35,0,0,0,2.18,5.29c.78,1.53,1.33,2.3,1.63,2.3s.94-.73,1.71-2.19a47.49,47.49,0,0,0,2.34-5.4,43.61,43.61,0,0,0,2.58-9.94,1.66,1.66,0,0,1,1.75-1.52,1.66,1.66,0,0,1,1.29.51,1.94,1.94,0,0,1,.46,1.33,20.34,20.34,0,0,1-.81,4.54,60.94,60.94,0,0,1-2.09,6.46q-3.92,10.21-7.18,10.21Q395.76,431.53,394,428.82Z"/><path d="M415.59,405a2.95,2.95,0,0,1,0-4.1,2.93,2.93,0,0,1,2.11-.8,2.83,2.83,0,0,1,2.05.78,2.69,2.69,0,0,1,.81,2,2.79,2.79,0,0,1-.85,2.07,2.87,2.87,0,0,1-2.1.83A2.8,2.8,0,0,1,415.59,405Zm0,26.15a1.4,1.4,0,0,1-.48-1.11l.46-19.55a1.47,1.47,0,0,1,.48-1.19,2.25,2.25,0,0,1,2.62,0,1.51,1.51,0,0,1,.49,1.24l-.46,19.5a1.51,1.51,0,0,1-.53,1.13,2.28,2.28,0,0,1-2.58,0Z"/><path d="M428.22,431a1.47,1.47,0,0,1-.49-1.2L427.46,397a1.55,1.55,0,0,1,.5-1.22,2,2,0,0,1,1.34-.43,1.73,1.73,0,0,1,1.24.43A1.56,1.56,0,0,1,431,397l.23,32.8a1.5,1.5,0,0,1-.48,1.2,1.88,1.88,0,0,1-1.27.41A1.84,1.84,0,0,1,428.22,431Z"/><path d="M472.63,419.39v10.76c0,1.08-.57,1.61-1.7,1.61s-1.84-.52-1.84-1.56V419.34a14.56,14.56,0,0,0-.92-6,3.36,3.36,0,0,0-3.32-1.9,5.16,5.16,0,0,0-4.14,1.93,11.31,11.31,0,0,0-2.25,5.06,27.3,27.3,0,0,0-.41,5.2l0,6.8a1.15,1.15,0,0,1-.46,1,2,2,0,0,1-1.24.35,2,2,0,0,1-1.33-.37,1.18,1.18,0,0,1-.46-1c0-2.73-.07-6.05-.19-10q-.14-3.4-.14-6a5.23,5.23,0,0,0-.25-1.82,12.23,12.23,0,0,0-1-1.87,1.12,1.12,0,0,1-.18-.64,1.31,1.31,0,0,1,.62-1,2,2,0,0,1,1.22-.49c.4,0,.81.29,1.24.88a9.7,9.7,0,0,1,.94,1.77,5.06,5.06,0,0,1,.44,2v.51a8.63,8.63,0,0,1,2.67-3.82,7.41,7.41,0,0,1,4.87-1.52Q472.64,408.39,472.63,419.39Z"/><path d="M497,428.22a5.82,5.82,0,0,0,.53,1.13,1.94,1.94,0,0,1,.32.71,1.31,1.31,0,0,1-.5,1,1.47,1.47,0,0,1-1,.46,2,2,0,0,1-1.63-1.14,4.2,4.2,0,0,1-.72-2.21v-.65a6.77,6.77,0,0,1-3,3.22,9.3,9.3,0,0,1-4.58,1.11,6.72,6.72,0,0,1-5.84-2.67q-1.94-2.67-1.93-7.78V410a1.15,1.15,0,0,1,.48-1,1.93,1.93,0,0,1,1.22-.37,2.12,2.12,0,0,1,1.29.37,1.15,1.15,0,0,1,.5,1v11.46a11.06,11.06,0,0,0,1.11,5.65,3.83,3.83,0,0,0,3.54,1.8q6.21,0,6.21-11.27V410a1.45,1.45,0,0,1,.46-1.15,1.76,1.76,0,0,1,1.24-.42,2,2,0,0,1,1.33.42,1.39,1.39,0,0,1,.51,1.15l.18,16.79A4.48,4.48,0,0,0,497,428.22Z"/><path d="M93.25,484a34.26,34.26,0,0,1-3.38-7.32q-1.16-3.21-2-6.44a22.27,22.27,0,0,1-.8-4.6,1.68,1.68,0,0,1,.48-1.31,1.88,1.88,0,0,1,1.31-.43,1.73,1.73,0,0,1,1.18.39,1.68,1.68,0,0,1,.52,1.08,55.7,55.7,0,0,0,2.31,9.75,39.35,39.35,0,0,0,2.18,5.29c.78,1.53,1.33,2.3,1.63,2.3s.94-.73,1.7-2.19a45.64,45.64,0,0,0,2.35-5.4,43.61,43.61,0,0,0,2.58-9.94,1.71,1.71,0,0,1,.55-1.1,1.69,1.69,0,0,1,1.19-.41,1.62,1.62,0,0,1,1.29.5,1.89,1.89,0,0,1,.46,1.33,20.78,20.78,0,0,1-.8,4.54,63.33,63.33,0,0,1-2.09,6.46q-3.92,10.22-7.18,10.21Q95,486.73,93.25,484Z"/><path d="M130.49,475.92v.69q0,4.18,1.95,6.1c1.3,1.27,3.4,1.91,6.28,1.91a8.62,8.62,0,0,0,4.88-1.22,10.46,10.46,0,0,0,2.94-3.06,1.21,1.21,0,0,1,1.1-.6,1.59,1.59,0,0,1,1.11.48,1.42,1.42,0,0,1,.51,1,2.17,2.17,0,0,1-.42,1.15,10,10,0,0,1-4.23,3.75,15,15,0,0,1-12.08.09,7.1,7.1,0,0,1-3.47-3.43,6.82,6.82,0,0,1-3.38,3.41,13.22,13.22,0,0,1-6,1.24q-5,0-7.36-1.52a5.29,5.29,0,0,1-2.34-4.78q0-7.41,9.33-7.69l7.73-.18v-.64a5.93,5.93,0,0,0-1.84-4.42,7,7,0,0,0-5.15-1.79,9.51,9.51,0,0,0-4.21.82,15.48,15.48,0,0,0-3.29,2.26,1.93,1.93,0,0,1-1.24.5,1.32,1.32,0,0,1-1-.41,1.3,1.3,0,0,1-.41-.92,1.79,1.79,0,0,1,.64-1.2,13,13,0,0,1,9.48-3.95,9.86,9.86,0,0,1,5.59,1.58,8.44,8.44,0,0,1,3.29,4,9.94,9.94,0,0,1,3.82-4.11,11.28,11.28,0,0,1,6.11-1.64,12,12,0,0,1,5.57,1.31,10.57,10.57,0,0,1,4,3.48,8,8,0,0,1,1.45,4.55,3.47,3.47,0,0,1-.53,2.14,2.11,2.11,0,0,1-1.77.67ZM125,483.33a4.33,4.33,0,0,0,2.07-3.87v-3.4l-7.73.18a7.26,7.26,0,0,0-4.53,1.38,4.45,4.45,0,0,0-1.49,3.55,2.82,2.82,0,0,0,1.56,2.64,10.61,10.61,0,0,0,4.88.85A9.5,9.5,0,0,0,125,483.33Zm10-16.19a8.55,8.55,0,0,0-3,2.57,7.75,7.75,0,0,0-1.45,3.5l16-.42v-.46a5.08,5.08,0,0,0-1-2.78,7.51,7.51,0,0,0-2.71-2.41,7.9,7.9,0,0,0-3.91-1A8.35,8.35,0,0,0,135,467.14Z"/><path d="M171.61,465.23a6.59,6.59,0,0,1,1.66,4.53,5.27,5.27,0,0,1-1.52,4,5.46,5.46,0,0,1-3.91,1.45,2.36,2.36,0,0,1-1.31-.28,1.15,1.15,0,0,1-.39-1,1.08,1.08,0,0,1,1.15-1.24c2-.19,3-1.17,3-3a3.9,3.9,0,0,0-.79-2.44,3,3,0,0,0-2.53-1,4.09,4.09,0,0,0-3.19,1.57,11.22,11.22,0,0,0-2.14,3.88,17.74,17.74,0,0,0-.92,4.58q-.28,4.23-.28,8a5.82,5.82,0,0,1-.34,2.49,1.44,1.44,0,0,1-1.36.6,1.71,1.71,0,0,1-1.4-.49,2.73,2.73,0,0,1-.39-1.68l-.05-8.78q0-3-.46-8c-.18-1.93-.29-3.31-.32-4.14a1.26,1.26,0,0,1,.41-1.12,2,2,0,0,1,1.29-.39,1.34,1.34,0,0,1,1.52,1.38c.18,1.93.29,3.81.32,5.65a9.17,9.17,0,0,1,2.71-4.73,6.78,6.78,0,0,1,4.65-1.71A5.81,5.81,0,0,1,171.61,465.23Z"/><path d="M184.24,485.56a10.7,10.7,0,0,1-4.14-4.33,12.89,12.89,0,0,1,.07-11.86,11,11,0,0,1,4.18-4.35,12.08,12.08,0,0,1,6.26-1.61,12.25,12.25,0,0,1,5.61,1.26,9.47,9.47,0,0,1,3.86,3.52,9.69,9.69,0,0,1,1.38,5.16,4.18,4.18,0,0,1-.32,1.95c-.21.38-.75.59-1.61.62l-17.52.37a7.22,7.22,0,0,0,1.05,3.59,9,9,0,0,0,3,3.08,8.23,8.23,0,0,0,4.53,1.24,8.64,8.64,0,0,0,3.31-.57,7.26,7.26,0,0,0,2.16-1.31,25.72,25.72,0,0,0,1.89-2.07,1.18,1.18,0,0,1,1-.42,1.69,1.69,0,0,1,1.13.46,1.39,1.39,0,0,1,.53,1.06,1.71,1.71,0,0,1-.37,1,14.29,14.29,0,0,1-3.57,3.45,10.51,10.51,0,0,1-5.95,1.42A12.44,12.44,0,0,1,184.24,485.56ZM198,473.12c.31,0,.46-.22.46-.65a5.42,5.42,0,0,0-2.2-4.48,8.79,8.79,0,0,0-5.57-1.73,8.07,8.07,0,0,0-4.51,1.29,10,10,0,0,0-3.08,3,5.79,5.79,0,0,0-1.1,2.94Z"/><path d="M236.77,479.9a2.15,2.15,0,0,1,.34,1.4,5.65,5.65,0,0,1-1.58,4.05,5.38,5.38,0,0,1-4.07,1.66,5.12,5.12,0,0,1-5-3c-1-2-1.5-5.17-1.5-9.43,0-1.59.08-3.42.24-5.47l-2.86-.23a1.37,1.37,0,0,1-1.38-1.52,1.2,1.2,0,0,1,1.34-1.38q.36,0,1.56.09,1,.09,1.56.09.33-3.4,1.11-8.55a1.62,1.62,0,0,1,.48-1,1.89,1.89,0,0,1,1.27-.34,2,2,0,0,1,1.38.46,1.26,1.26,0,0,1,.41,1.15l-.23,1.52q-.69,5.32-.87,7l3.68.09a1.58,1.58,0,0,1,1,.28,1.16,1.16,0,0,1,.35,1,1.53,1.53,0,0,1-.35,1.17,2.21,2.21,0,0,1-1.31.35c-.95,0-2.18,0-3.68,0-.15,1.93-.23,3.71-.23,5.33a27.1,27.1,0,0,0,.71,7c.48,1.69,1.35,2.53,2.6,2.53a1.92,1.92,0,0,0,1.61-.78,4.22,4.22,0,0,0,.69-2.34,2.06,2.06,0,0,1,.3-1.09c.17-.23.56-.34,1.17-.34A1.51,1.51,0,0,1,236.77,479.9Z"/><path d="M258.13,465.23a6.55,6.55,0,0,1,1.66,4.53,5.27,5.27,0,0,1-1.52,4,5.44,5.44,0,0,1-3.91,1.45,2.38,2.38,0,0,1-1.31-.28,1.15,1.15,0,0,1-.39-1,1.08,1.08,0,0,1,1.15-1.24c2-.19,3-1.17,3-3a3.89,3.89,0,0,0-.78-2.44,3,3,0,0,0-2.53-1,4.11,4.11,0,0,0-3.2,1.57,11.39,11.39,0,0,0-2.14,3.88,17.74,17.74,0,0,0-.92,4.58q-.27,4.23-.27,8a5.78,5.78,0,0,1-.35,2.49,1.43,1.43,0,0,1-1.36.6,1.73,1.73,0,0,1-1.4-.49,2.73,2.73,0,0,1-.39-1.68l-.05-8.78q0-3-.46-8c-.18-1.93-.29-3.31-.32-4.14a1.27,1.27,0,0,1,.42-1.12,1.9,1.9,0,0,1,1.28-.39,1.34,1.34,0,0,1,1.52,1.38c.19,1.93.29,3.81.32,5.65a9.18,9.18,0,0,1,2.72-4.73,6.76,6.76,0,0,1,4.64-1.71A5.8,5.8,0,0,1,258.13,465.23Z"/><path d="M288.17,484.39a1.26,1.26,0,0,1,.32,1,1.65,1.65,0,0,1-.34,1.1,1.16,1.16,0,0,1-.94.42,5.12,5.12,0,0,1-2.79-.6,4.7,4.7,0,0,1-1.54-2.26q-2.07,3.36-7.36,3.36a10.09,10.09,0,0,1-6-1.65,9.2,9.2,0,0,1-3.29-4.21,14.88,14.88,0,0,1-1-5.41,13.72,13.72,0,0,1,1.24-5.79,10.56,10.56,0,0,1,3.66-4.38,10,10,0,0,1,5.77-1.65,8.32,8.32,0,0,1,4,.92,6.63,6.63,0,0,1,2.67,2.58l.18-1.52c.06-1.14.59-1.7,1.57-1.7a2,2,0,0,1,1.4.43,1.12,1.12,0,0,1,.39,1l-.14,1.15c-.21,1.29-.36,2.62-.46,4-.09,1.17-.13,2.73-.13,4.69v3.18a26.18,26.18,0,0,0,.11,2.92,3.21,3.21,0,0,0,.48,1.45,1.57,1.57,0,0,0,1.25.55A1.81,1.81,0,0,1,288.17,484.39Zm-6.25-10.91a6.32,6.32,0,0,0-1-3.65,5.39,5.39,0,0,0-2.35-2,6.57,6.57,0,0,0-2.62-.6,6.1,6.1,0,0,0-4.07,1.38,8.09,8.09,0,0,0-2.39,3.45,11.72,11.72,0,0,0-.76,4.09,10.67,10.67,0,0,0,1.59,5.77,5.66,5.66,0,0,0,5.22,2.56,7,7,0,0,0,4.48-1.41,4.93,4.93,0,0,0,1.82-4C281.9,477.61,281.92,475.75,281.92,473.48Z"/><path d="M312.53,483.42a5.82,5.82,0,0,0,.53,1.13,1.94,1.94,0,0,1,.32.71,1.32,1.32,0,0,1-.51,1,1.5,1.5,0,0,1-1,.46,2,2,0,0,1-1.64-1.15,4.28,4.28,0,0,1-.71-2.21v-.65a6.74,6.74,0,0,1-3,3.22A9.26,9.26,0,0,1,302,487a6.75,6.75,0,0,1-5.85-2.67c-1.28-1.78-1.93-4.37-1.93-7.77V465.2a1.14,1.14,0,0,1,.49-1,1.91,1.91,0,0,1,1.22-.37,2.07,2.07,0,0,1,1.28.37,1.13,1.13,0,0,1,.51,1v11.46a11.25,11.25,0,0,0,1.1,5.66,3.87,3.87,0,0,0,3.55,1.79q6.21,0,6.21-11.27v-7.68a1.45,1.45,0,0,1,.46-1.15,1.76,1.76,0,0,1,1.24-.42,2,2,0,0,1,1.33.42,1.39,1.39,0,0,1,.51,1.15l.18,16.79A4.48,4.48,0,0,0,312.53,483.42Z"/><path d="M347.88,466.22a14.61,14.61,0,0,1,1.66,7.59q0,7.72-.05,11.73a1.37,1.37,0,0,1-.44,1,1.69,1.69,0,0,1-1.22.42,1.74,1.74,0,0,1-1.26-.42,1.51,1.51,0,0,1-.44-1.15V474.08a14.55,14.55,0,0,0-.9-6,3.37,3.37,0,0,0-3.33-1.84,3.61,3.61,0,0,0-3.4,2.58,15.79,15.79,0,0,0-1.15,6.07v10.53c0,1-.57,1.48-1.71,1.48s-1.79-.53-1.79-1.57l0-8.33v-2.11a13.76,13.76,0,0,0-1.32-5.87q-1.26-2.6-3.47-2.59a3.34,3.34,0,0,0-2.83,1.67,15.5,15.5,0,0,0-1.86,5.36,37,37,0,0,0-.41,6.4v5.7a1.12,1.12,0,0,1-.51,1,2.09,2.09,0,0,1-1.2.35,2.16,2.16,0,0,1-1.22-.4,1.17,1.17,0,0,1-.43-1q0-4.65-.09-14.86v-1.75a5.11,5.11,0,0,0-.28-1.66,3.32,3.32,0,0,0-.64-.92l-.3-.27a.59.59,0,0,1-.21-.46,1.47,1.47,0,0,1,.51-1.15,1.63,1.63,0,0,1,1.15-.46,1.29,1.29,0,0,1,.75.34,3.44,3.44,0,0,1,.76.81,4.58,4.58,0,0,1,.72,1.38,6.11,6.11,0,0,1,.2,1.65V469a8.21,8.21,0,0,1,2.35-4,5.46,5.46,0,0,1,3.73-1.36q4.72,0,6.21,5.34a7.53,7.53,0,0,1,2.39-4.08,6.44,6.44,0,0,1,4.23-1.4Q346.23,463.5,347.88,466.22Z"/><path d="M378.65,484.39a1.26,1.26,0,0,1,.33,1,1.65,1.65,0,0,1-.35,1.1,1.15,1.15,0,0,1-.94.42,5.12,5.12,0,0,1-2.79-.6,4.7,4.7,0,0,1-1.54-2.26q-2.07,3.36-7.36,3.36a10.09,10.09,0,0,1-6-1.65,9.2,9.2,0,0,1-3.29-4.21,14.88,14.88,0,0,1-1-5.41,13.72,13.72,0,0,1,1.24-5.79A10.56,10.56,0,0,1,360.6,466a10,10,0,0,1,5.77-1.65,8.32,8.32,0,0,1,4,.92,6.63,6.63,0,0,1,2.67,2.58l.19-1.52c.06-1.14.58-1.7,1.56-1.7a2,2,0,0,1,1.4.43,1.12,1.12,0,0,1,.39,1l-.13,1.15a38.78,38.78,0,0,0-.46,4c-.1,1.17-.14,2.73-.14,4.69v3.18A28.91,28.91,0,0,0,376,482a3.09,3.09,0,0,0,.49,1.45,1.54,1.54,0,0,0,1.24.55A1.78,1.78,0,0,1,378.65,484.39Zm-6.25-10.91a6.25,6.25,0,0,0-1-3.65,5.37,5.37,0,0,0-2.34-2,6.61,6.61,0,0,0-2.63-.6,6.1,6.1,0,0,0-4.07,1.38,8.09,8.09,0,0,0-2.39,3.45,11.72,11.72,0,0,0-.76,4.09,10.67,10.67,0,0,0,1.59,5.77,5.66,5.66,0,0,0,5.22,2.56,7,7,0,0,0,4.48-1.41,4.93,4.93,0,0,0,1.82-4C372.38,477.61,372.4,475.75,372.4,473.48Z"/><path d="M399.24,479.9a2.15,2.15,0,0,1,.34,1.4,5.65,5.65,0,0,1-1.58,4.05,5.39,5.39,0,0,1-4.08,1.66,5.11,5.11,0,0,1-4.94-3c-1-2-1.5-5.17-1.5-9.43,0-1.59.08-3.42.23-5.47l-2.85-.23a1.37,1.37,0,0,1-1.38-1.52,1.2,1.2,0,0,1,1.34-1.38q.36,0,1.56.09c.67.06,1.2.09,1.56.09q.33-3.4,1.11-8.55a1.62,1.62,0,0,1,.48-1,1.89,1.89,0,0,1,1.27-.34,2,2,0,0,1,1.38.46,1.26,1.26,0,0,1,.41,1.15l-.23,1.52q-.69,5.32-.87,7l3.68.09a1.58,1.58,0,0,1,1,.28,1.16,1.16,0,0,1,.35,1,1.53,1.53,0,0,1-.35,1.17,2.21,2.21,0,0,1-1.31.35c-.95,0-2.18,0-3.68,0-.15,1.93-.23,3.71-.23,5.33a27.1,27.1,0,0,0,.71,7c.48,1.69,1.35,2.53,2.6,2.53a1.92,1.92,0,0,0,1.61-.78,4.22,4.22,0,0,0,.69-2.34,2.06,2.06,0,0,1,.3-1.09c.17-.23.56-.34,1.17-.34A1.51,1.51,0,0,1,399.24,479.9Z"/><path d="M407.63,460.17a2.95,2.95,0,0,1,0-4.1,2.94,2.94,0,0,1,2.12-.8,2.83,2.83,0,0,1,2.05.78,2.72,2.72,0,0,1,.8,2,2.75,2.75,0,0,1-.85,2.07,2.87,2.87,0,0,1-2.09.83A2.82,2.82,0,0,1,407.63,460.17Zm0,26.15a1.38,1.38,0,0,1-.49-1.11l.46-19.55a1.45,1.45,0,0,1,.49-1.19,2.25,2.25,0,0,1,2.62,0,1.54,1.54,0,0,1,.48,1.24l-.46,19.5a1.51,1.51,0,0,1-.53,1.13,1.94,1.94,0,0,1-1.26.39A2,2,0,0,1,407.66,486.32Z"/><path d="M421.94,485.7a10.83,10.83,0,0,1-3.45-3.94,2.44,2.44,0,0,1-.32-.87,1.44,1.44,0,0,1,.57-1.13,1.94,1.94,0,0,1,1.27-.48,1,1,0,0,1,.71.25,7.18,7.18,0,0,1,.71.9,11.9,11.9,0,0,0,2.44,2.78,5.27,5.27,0,0,0,3.4,1,5.35,5.35,0,0,0,3.29-1,2.9,2.9,0,0,0,1.31-2.44,2.46,2.46,0,0,0-.71-1.79,5.55,5.55,0,0,0-1.75-1.2c-.69-.3-1.68-.69-3-1.15-1.63-.58-2.94-1.11-3.94-1.58a7.36,7.36,0,0,1-2.55-2,5.09,5.09,0,0,1-1.06-3.33,6.07,6.07,0,0,1,1-3.34,7,7,0,0,1,2.83-2.46,10.18,10.18,0,0,1,8.46,0A7.24,7.24,0,0,1,434,466.4a6,6,0,0,1,1,3.36,2.06,2.06,0,0,1-.35,1.33,1.5,1.5,0,0,1-1.22.42,1.57,1.57,0,0,1-1.21-.35,1.52,1.52,0,0,1-.35-.9,4.26,4.26,0,0,0-1.52-3.19,5.47,5.47,0,0,0-3.45-1,4.52,4.52,0,0,0-3.52,1.17,3.75,3.75,0,0,0-1,2.51,2.7,2.7,0,0,0,1.36,2.42A22.6,22.6,0,0,0,428,474a35.85,35.85,0,0,1,3.91,1.61,7.47,7.47,0,0,1,2.51,2,5,5,0,0,1,1,3.22,5.5,5.5,0,0,1-2.35,4.7,9.64,9.64,0,0,1-5.8,1.7A9.13,9.13,0,0,1,421.94,485.7Z"/><path d="M446.57,485.56a10.83,10.83,0,0,1-4.14-4.33,13,13,0,0,1,.07-11.86,11,11,0,0,1,4.19-4.35,12,12,0,0,1,6.25-1.61,12.19,12.19,0,0,1,5.61,1.26,9.5,9.5,0,0,1,3.87,3.52,9.69,9.69,0,0,1,1.38,5.16,4.32,4.32,0,0,1-.32,1.95c-.22.38-.76.59-1.61.62l-17.53.37a7.14,7.14,0,0,0,1.06,3.59,8.94,8.94,0,0,0,3,3.08,8.23,8.23,0,0,0,4.53,1.24,8.64,8.64,0,0,0,3.31-.57,7.46,7.46,0,0,0,2.17-1.31,24.11,24.11,0,0,0,1.88-2.07,1.2,1.2,0,0,1,1-.42,1.68,1.68,0,0,1,1.13.46,1.39,1.39,0,0,1,.53,1.06,1.64,1.64,0,0,1-.37,1,14.41,14.41,0,0,1-3.56,3.45,10.54,10.54,0,0,1-6,1.42A12.44,12.44,0,0,1,446.57,485.56Zm13.78-12.44c.3,0,.46-.22.46-.65A5.43,5.43,0,0,0,458.6,468a8.78,8.78,0,0,0-5.57-1.73,8,8,0,0,0-4.5,1.29,10.08,10.08,0,0,0-3.09,3,5.88,5.88,0,0,0-1.1,2.94Z"/><path d="M485.51,465.23a6.59,6.59,0,0,1,1.66,4.53,5.27,5.27,0,0,1-1.52,4,5.48,5.48,0,0,1-3.91,1.45,2.36,2.36,0,0,1-1.31-.28,1.15,1.15,0,0,1-.39-1,1.08,1.08,0,0,1,1.15-1.24c2-.19,3-1.17,3-3a3.89,3.89,0,0,0-.78-2.44,3,3,0,0,0-2.53-1,4.09,4.09,0,0,0-3.19,1.57,11.22,11.22,0,0,0-2.14,3.88,17.74,17.74,0,0,0-.92,4.58q-.28,4.23-.28,8a5.82,5.82,0,0,1-.34,2.49,1.44,1.44,0,0,1-1.36.6,1.71,1.71,0,0,1-1.4-.49,2.73,2.73,0,0,1-.39-1.68l0-8.78q0-3-.46-8c-.18-1.93-.29-3.31-.32-4.14a1.26,1.26,0,0,1,.41-1.12,2,2,0,0,1,1.29-.39,1.34,1.34,0,0,1,1.52,1.38c.18,1.93.29,3.81.32,5.65a9.17,9.17,0,0,1,2.71-4.73,6.78,6.78,0,0,1,4.65-1.71A5.81,5.81,0,0,1,485.51,465.23Z"/><path d="M498.14,485.56a10.7,10.7,0,0,1-4.14-4.33,12.89,12.89,0,0,1,.07-11.86,11,11,0,0,1,4.18-4.35,12.08,12.08,0,0,1,6.26-1.61,12.25,12.25,0,0,1,5.61,1.26,9.47,9.47,0,0,1,3.86,3.52,9.69,9.69,0,0,1,1.38,5.16,4.18,4.18,0,0,1-.32,1.95c-.21.38-.75.59-1.61.62l-17.52.37a7.22,7.22,0,0,0,1,3.59,9,9,0,0,0,3,3.08,8.23,8.23,0,0,0,4.53,1.24,8.64,8.64,0,0,0,3.31-.57,7.26,7.26,0,0,0,2.16-1.31,25.72,25.72,0,0,0,1.89-2.07,1.18,1.18,0,0,1,1-.42,1.69,1.69,0,0,1,1.13.46,1.39,1.39,0,0,1,.53,1.06,1.71,1.71,0,0,1-.37,1,14.29,14.29,0,0,1-3.57,3.45,10.51,10.51,0,0,1-6,1.42A12.44,12.44,0,0,1,498.14,485.56Zm13.77-12.44c.31,0,.46-.22.46-.65a5.42,5.42,0,0,0-2.2-4.48,8.79,8.79,0,0,0-5.57-1.73,8.07,8.07,0,0,0-4.51,1.29,10,10,0,0,0-3.08,3,5.79,5.79,0,0,0-1.1,2.94Z"/><path d="M536,479.9a2.15,2.15,0,0,1,.34,1.4,5.65,5.65,0,0,1-1.58,4.05,5.39,5.39,0,0,1-4.08,1.66,5.11,5.11,0,0,1-4.94-3c-1-2-1.5-5.17-1.5-9.43,0-1.59.08-3.42.23-5.47l-2.85-.23a1.37,1.37,0,0,1-1.38-1.52,1.2,1.2,0,0,1,1.34-1.38q.36,0,1.56.09c.67.06,1.2.09,1.56.09q.33-3.4,1.11-8.55a1.62,1.62,0,0,1,.48-1,1.89,1.89,0,0,1,1.27-.34,2,2,0,0,1,1.38.46,1.26,1.26,0,0,1,.41,1.15l-.23,1.52q-.69,5.32-.87,7l3.68.09a1.58,1.58,0,0,1,1,.28,1.16,1.16,0,0,1,.35,1,1.53,1.53,0,0,1-.35,1.17,2.21,2.21,0,0,1-1.31.35c-1,0-2.18,0-3.68,0-.15,1.93-.23,3.71-.23,5.33a27.1,27.1,0,0,0,.71,7c.48,1.69,1.35,2.53,2.6,2.53a1.92,1.92,0,0,0,1.61-.78,4.22,4.22,0,0,0,.69-2.34,2.06,2.06,0,0,1,.3-1.09c.17-.23.56-.34,1.17-.34A1.51,1.51,0,0,1,536,479.9Z"/><path d="M558.44,484.29q-3.42-2.76-3.43-8.64a14.14,14.14,0,0,1,1.41-6.47,10.27,10.27,0,0,1,4.07-4.34,12.17,12.17,0,0,1,6.3-1.57,13.36,13.36,0,0,1,6.28,1.45,10.65,10.65,0,0,1,4.37,4.23A13.2,13.2,0,0,1,579,475.6c0,3.74-1.1,6.59-3.29,8.53a12.58,12.58,0,0,1-8.67,2.92A13.31,13.31,0,0,1,558.44,484.29ZM573.07,482c1.61-1.46,2.41-3.59,2.41-6.42a10.74,10.74,0,0,0-1.08-4.9,8,8,0,0,0-3-3.31,8.59,8.59,0,0,0-4.49-1.17,7.68,7.68,0,0,0-6,2.58,9.86,9.86,0,0,0-2.27,6.8q0,4.47,2.43,6.54a8.93,8.93,0,0,0,6,2.07A8.73,8.73,0,0,0,573.07,482Z"/><path d="M604.74,481.58c.21,1.32.37,2.33.46,3a17.31,17.31,0,0,1,.14,2.2A13.08,13.08,0,0,1,604,493a9.91,9.91,0,0,1-3.91,4.1,11.63,11.63,0,0,1-5.84,1.45,10.24,10.24,0,0,1-4.56-1,9,9,0,0,1-3.38-2.76A6.23,6.23,0,0,1,585,491c0-.92.56-1.38,1.7-1.38a1.27,1.27,0,0,1,.85.26,1.55,1.55,0,0,1,.44.85,5.88,5.88,0,0,0,2.18,3.63,6.62,6.62,0,0,0,4,1.2,7.06,7.06,0,0,0,5.65-2.3,9.52,9.52,0,0,0,2-6.4,20.53,20.53,0,0,0-.37-3.45,7.41,7.41,0,0,1-3,2.51,10,10,0,0,1-4.49.94,11.32,11.32,0,0,1-6-1.56,10.42,10.42,0,0,1-3.93-4.14,11.71,11.71,0,0,1-1.36-5.57,13,13,0,0,1,1.34-5.79,10.93,10.93,0,0,1,3.79-4.37,9.88,9.88,0,0,1,5.68-1.66,10.33,10.33,0,0,1,3.66.6,6.86,6.86,0,0,1,2.46,1.47c.49-1.41.78-2.21.87-2.39a1.31,1.31,0,0,1,1.2-.78,2.48,2.48,0,0,1,1.31.37,1.19,1.19,0,0,1,.67.92,1.37,1.37,0,0,1-.05.41c0,.12-.13.46-.3,1s-.39,1.37-.67,2.44l1.66,11.36ZM597,482.94a9.71,9.71,0,0,0,2.63-1.57,3.83,3.83,0,0,0,1.33-1.86c-.15-1.47-.52-3.93-1.1-7.36l-.42-2.39a3.22,3.22,0,0,0-1.06-1.27,7.3,7.3,0,0,0-2.06-1.12,7.46,7.46,0,0,0-2.63-.46,6.74,6.74,0,0,0-3.84,1.12,7.61,7.61,0,0,0-2.62,3.06,9.72,9.72,0,0,0-.94,4.33,9.5,9.5,0,0,0,.85,4,6.9,6.9,0,0,0,2.6,3,7.72,7.72,0,0,0,4.27,1.13A7.89,7.89,0,0,0,597,482.94Z"/><path d="M108.68,531.12c.16,2.55.23,5.78.23,9.71a1.22,1.22,0,0,1-.48,1,2.25,2.25,0,0,1-2.53,0,1.44,1.44,0,0,1-.48-1.18q0-12.09-1-15.36a5.43,5.43,0,0,0-1.59-2.74,4.23,4.23,0,0,0-2.78-.85,6.06,6.06,0,0,0-4.05,1.4,8.61,8.61,0,0,0-2.49,3.57,12.52,12.52,0,0,0-.83,4.51v9.7a1.08,1.08,0,0,1-.5.92,2.31,2.31,0,0,1-2.51,0,1.14,1.14,0,0,1-.48-1q0-9.52.23-17.94.23-7.54.73-15.18a1.57,1.57,0,0,1,1.75-1.61,2,2,0,0,1,1.22.34,1,1,0,0,1,.44.94l-.32,6.44q-.28,5.94-.46,8.65a9.58,9.58,0,0,1,3-2.83,9,9,0,0,1,4.7-1.12,7,7,0,0,1,4.76,1.51,9.18,9.18,0,0,1,2.55,4.7A35.38,35.38,0,0,1,108.68,531.12Z"/><path d="M136.38,539.58a1.34,1.34,0,0,1,.32,1,1.67,1.67,0,0,1-.35,1.1,1.14,1.14,0,0,1-.94.41,5.06,5.06,0,0,1-2.78-.59,4.57,4.57,0,0,1-1.54-2.26q-2.07,3.36-7.37,3.36a10,10,0,0,1-6-1.66,9.19,9.19,0,0,1-3.29-4.2,14.88,14.88,0,0,1-1-5.41,13.92,13.92,0,0,1,1.24-5.8,10.6,10.6,0,0,1,3.66-4.37,10,10,0,0,1,5.77-1.65,8.29,8.29,0,0,1,4,.92,6.67,6.67,0,0,1,2.67,2.57l.19-1.51q.09-1.71,1.56-1.71a2,2,0,0,1,1.4.44,1.07,1.07,0,0,1,.39,1l-.13,1.15a38.46,38.46,0,0,0-.46,4c-.1,1.16-.14,2.73-.14,4.69v3.17a29,29,0,0,0,.11,2.93,3,3,0,0,0,.49,1.44,1.53,1.53,0,0,0,1.24.56A1.93,1.93,0,0,1,136.38,539.58Zm-6.26-10.9a6.25,6.25,0,0,0-1-3.65,5.46,5.46,0,0,0-2.34-2,6.76,6.76,0,0,0-2.63-.59,6.1,6.1,0,0,0-4.07,1.38,8.09,8.09,0,0,0-2.39,3.45,12,12,0,0,0-.76,4.09,10.67,10.67,0,0,0,1.59,5.77,5.66,5.66,0,0,0,5.22,2.56,7,7,0,0,0,4.49-1.41,4.93,4.93,0,0,0,1.81-4C130.1,532.81,130.12,531,130.12,528.68Z"/><path d="M147.92,541.1a10,10,0,0,1-4.28-4,12.67,12.67,0,0,1-1.61-6.63,12.51,12.51,0,0,1,1.47-6.21,10,10,0,0,1,4.17-4,13.31,13.31,0,0,1,6.28-1.41,12.65,12.65,0,0,1,4.53.76,8.47,8.47,0,0,1,3.1,2v-1q.18-7.21.3-10.53c.08-2.21.22-4.42.44-6.63a1.66,1.66,0,0,1,.55-1.05,1.72,1.72,0,0,1,1.2-.42,2,2,0,0,1,1.33.44,1.3,1.3,0,0,1,.46,1.13c-.22,2.24-.41,6.08-.6,11.54s-.27,10.38-.27,14.77.1,7,.32,7.73a7,7,0,0,0,.66,1.68c.27.44.55.66.86.66.09,0,.13.17.13.51a1.68,1.68,0,0,1-.59,1.24,1.93,1.93,0,0,1-1.34.55,1.53,1.53,0,0,1-.87-.23,4.55,4.55,0,0,1-1.31-1.22,4.87,4.87,0,0,1-.9-2.37,7.84,7.84,0,0,1-3.31,2.9,10.77,10.77,0,0,1-4.83,1.06A13.35,13.35,0,0,1,147.92,541.1Zm9.54-2.69a7.74,7.74,0,0,0,2.88-2.3,5,5,0,0,0,1.1-3.15c0-1.35,0-2.42.05-3.22l0-3.82a7.52,7.52,0,0,0-2.86-2.71A9,9,0,0,0,154,522a8.24,8.24,0,0,0-6.12,2.3,8.6,8.6,0,0,0-2.3,6.39,9,9,0,0,0,1.22,4.88,7.44,7.44,0,0,0,3.1,2.83,9,9,0,0,0,3.87.89A8.5,8.5,0,0,0,157.46,538.41Z"/><path d="M176.78,540.76a10.83,10.83,0,0,1-4.14-4.33,13,13,0,0,1,.07-11.86,11,11,0,0,1,4.19-4.35,12.05,12.05,0,0,1,6.26-1.61,12.25,12.25,0,0,1,5.61,1.26,9.54,9.54,0,0,1,3.86,3.52,9.68,9.68,0,0,1,1.38,5.15,4.37,4.37,0,0,1-.32,2c-.22.38-.75.59-1.61.62l-17.53.37a7.27,7.27,0,0,0,1.06,3.59,9,9,0,0,0,3,3.08,8.29,8.29,0,0,0,4.54,1.24,8.68,8.68,0,0,0,3.31-.57,7.07,7.07,0,0,0,2.16-1.32,24.1,24.1,0,0,0,1.89-2.07,1.21,1.21,0,0,1,1-.41,1.65,1.65,0,0,1,1.12.46,1.36,1.36,0,0,1,.53,1.06,1.64,1.64,0,0,1-.36,1,14.46,14.46,0,0,1-3.57,3.45,10.46,10.46,0,0,1-6,1.43A12.49,12.49,0,0,1,176.78,540.76Zm13.78-12.44c.31,0,.46-.22.46-.65a5.4,5.4,0,0,0-2.21-4.48,8.75,8.75,0,0,0-5.56-1.73,8.07,8.07,0,0,0-4.51,1.29,10,10,0,0,0-3.08,3,5.88,5.88,0,0,0-1.11,3Z"/><path d="M220.28,541.1a10,10,0,0,1-4.28-4,14.16,14.16,0,0,1-.14-12.84,10,10,0,0,1,4.16-4,13.37,13.37,0,0,1,6.28-1.41,12.57,12.57,0,0,1,4.53.76,8.52,8.52,0,0,1,3.11,2v-1q.18-7.21.3-10.53c.07-2.21.22-4.42.43-6.63a1.72,1.72,0,0,1,.56-1.05,1.68,1.68,0,0,1,1.19-.42,2,2,0,0,1,1.34.44,1.32,1.32,0,0,1,.46,1.13q-.33,3.36-.6,11.54t-.28,14.77c0,4.48.11,7,.33,7.73a7,7,0,0,0,.66,1.68c.26.44.55.66.85.66.09,0,.14.17.14.51a1.66,1.66,0,0,1-.6,1.24,1.9,1.9,0,0,1-1.33.55,1.58,1.58,0,0,1-.88-.23,4.82,4.82,0,0,1-1.31-1.22,5,5,0,0,1-.89-2.37,7.84,7.84,0,0,1-3.31,2.9,10.83,10.83,0,0,1-4.83,1.06A13.32,13.32,0,0,1,220.28,541.1Zm9.54-2.69a7.82,7.82,0,0,0,2.88-2.3,5.1,5.1,0,0,0,1.1-3.15c0-1.35,0-2.42,0-3.22l0-3.82a7.41,7.41,0,0,0-2.85-2.71A9,9,0,0,0,226.3,522a8.27,8.27,0,0,0-6.12,2.3,8.64,8.64,0,0,0-2.3,6.39,9,9,0,0,0,1.22,4.88,7.52,7.52,0,0,0,3.11,2.83,9,9,0,0,0,3.86.89A8.51,8.51,0,0,0,229.82,538.41Z"/><path d="M246.63,515.37a3,3,0,0,1,0-4.1,3,3,0,0,1,2.12-.8,2.83,2.83,0,0,1,2.05.78,2.7,2.7,0,0,1,.8,2,2.75,2.75,0,0,1-.85,2.07,3,3,0,0,1-4.12,0Zm0,26.15a1.41,1.41,0,0,1-.49-1.11l.46-19.55a1.48,1.48,0,0,1,.49-1.19,2.25,2.25,0,0,1,2.62,0,1.54,1.54,0,0,1,.48,1.24l-.46,19.5a1.47,1.47,0,0,1-.53,1.13,1.94,1.94,0,0,1-1.26.39A2,2,0,0,1,246.66,541.52Z"/><path d="M279.11,536.78c.22,1.32.37,2.33.46,3a17.31,17.31,0,0,1,.14,2.2,13.08,13.08,0,0,1-1.38,6.14,9.91,9.91,0,0,1-3.91,4.1,11.63,11.63,0,0,1-5.84,1.45,10.24,10.24,0,0,1-4.56-1,9,9,0,0,1-3.38-2.76,6.23,6.23,0,0,1-1.26-3.75c0-.92.56-1.38,1.7-1.38a1.27,1.27,0,0,1,.85.26,1.55,1.55,0,0,1,.44.85,5.88,5.88,0,0,0,2.18,3.63,6.62,6.62,0,0,0,4,1.2,7,7,0,0,0,5.65-2.3,9.52,9.52,0,0,0,2-6.4,20.53,20.53,0,0,0-.37-3.45,7.41,7.41,0,0,1-3,2.51,10,10,0,0,1-4.49.94,11.32,11.32,0,0,1-6-1.56,10.42,10.42,0,0,1-3.93-4.14,11.71,11.71,0,0,1-1.36-5.57,13,13,0,0,1,1.34-5.79,11,11,0,0,1,3.79-4.37,9.9,9.9,0,0,1,5.68-1.66,10.33,10.33,0,0,1,3.66.6,6.86,6.86,0,0,1,2.46,1.47c.49-1.41.78-2.21.87-2.39a1.31,1.31,0,0,1,1.2-.78,2.56,2.56,0,0,1,1.31.36,1.2,1.2,0,0,1,.67.92,1.4,1.4,0,0,1-.05.42c0,.12-.13.46-.3,1s-.39,1.37-.66,2.44l1.65,11.36Zm-7.77,1.36a9.8,9.8,0,0,0,2.62-1.57,3.83,3.83,0,0,0,1.33-1.86c-.15-1.47-.52-3.93-1.1-7.36l-.42-2.39a3.27,3.27,0,0,0-1-1.27,7.36,7.36,0,0,0-2.07-1.12,7.46,7.46,0,0,0-2.63-.46,6.74,6.74,0,0,0-3.84,1.12,7.61,7.61,0,0,0-2.62,3.06,9.71,9.71,0,0,0-.94,4.32,9.52,9.52,0,0,0,.85,4,6.9,6.9,0,0,0,2.6,3,7.73,7.73,0,0,0,4.28,1.13A8,8,0,0,0,271.34,538.14Z"/><path d="M314.9,515.43a1.49,1.49,0,0,1-1.7,1.66q-1.8,0-1.8-1.56a7.55,7.55,0,0,0-.55-3.22,2.29,2.29,0,0,0-2.3-1.15,2.76,2.76,0,0,0-2.74,1.65,12.77,12.77,0,0,0-.76,5c0,2.36,0,4.28.05,5.75h3.63a1.35,1.35,0,0,1,1,.39,1.59,1.59,0,0,1,.36,1.12q0,1.24-1.38,1.29l-3.58.09q.09,8.65.09,14.17a1.43,1.43,0,0,1-.48,1.2,2,2,0,0,1-1.22.37,1.69,1.69,0,0,1-1.25-.42,1.49,1.49,0,0,1-.41-1.1c0-2.82-.06-6.69-.18-11.59l-.05-2.53-2.76,0a1.64,1.64,0,0,1-1.2-.37,1.5,1.5,0,0,1-.36-1.1,1.44,1.44,0,0,1,.32-1,1.67,1.67,0,0,1,1.19-.42l2.76,0c-.06-3-.09-5-.09-5.89a12.52,12.52,0,0,1,1.73-7,5.86,5.86,0,0,1,5.26-2.6Q314.9,508.17,314.9,515.43Z"/><path d="M319.38,539.49q-3.42-2.76-3.42-8.65a14.13,14.13,0,0,1,1.4-6.46,10.35,10.35,0,0,1,4.07-4.35,12.27,12.27,0,0,1,6.3-1.56,13.36,13.36,0,0,1,6.28,1.45,10.6,10.6,0,0,1,4.37,4.23A13.2,13.2,0,0,1,340,530.8q0,5.61-3.29,8.53a12.57,12.57,0,0,1-8.67,2.92A13.33,13.33,0,0,1,319.38,539.49ZM334,537.17q2.42-2.19,2.41-6.42a10.74,10.74,0,0,0-1.08-4.9,8,8,0,0,0-3-3.31,8.59,8.59,0,0,0-4.49-1.17,7.71,7.71,0,0,0-6.05,2.57,10,10,0,0,0-2.27,6.81c0,3,.81,5.15,2.44,6.53a8.91,8.91,0,0,0,6,2.08A8.72,8.72,0,0,0,334,537.17Z"/><path d="M360.25,520.43a6.55,6.55,0,0,1,1.66,4.53,5.27,5.27,0,0,1-1.52,4,5.45,5.45,0,0,1-3.91,1.44,2.39,2.39,0,0,1-1.31-.27,1.16,1.16,0,0,1-.39-1,1.08,1.08,0,0,1,1.15-1.24c2-.19,3-1.17,3-3a3.89,3.89,0,0,0-.78-2.44,3,3,0,0,0-2.53-1,4.11,4.11,0,0,0-3.2,1.56,11.53,11.53,0,0,0-2.14,3.89,17.74,17.74,0,0,0-.92,4.58c-.18,2.82-.28,5.49-.28,8a5.82,5.82,0,0,1-.34,2.49,1.45,1.45,0,0,1-1.36.59,1.73,1.73,0,0,1-1.4-.48,2.73,2.73,0,0,1-.39-1.68l-.05-8.78q0-3-.46-8c-.18-1.93-.29-3.31-.32-4.14a1.29,1.29,0,0,1,.41-1.12,2,2,0,0,1,1.29-.4,1.34,1.34,0,0,1,1.52,1.38c.18,1.94.29,3.82.32,5.66a9.19,9.19,0,0,1,2.72-4.74,6.78,6.78,0,0,1,4.64-1.7A5.81,5.81,0,0,1,360.25,520.43Z"/><path d="M372.88,540.76a10.7,10.7,0,0,1-4.14-4.33,13,13,0,0,1,.07-11.86,11,11,0,0,1,4.18-4.35,13,13,0,0,1,11.87-.35,9.5,9.5,0,0,1,3.87,3.52,9.68,9.68,0,0,1,1.38,5.15,4.21,4.21,0,0,1-.33,2c-.21.38-.75.59-1.61.62l-17.52.37a7.17,7.17,0,0,0,1.06,3.59,8.94,8.94,0,0,0,3,3.08,8.23,8.23,0,0,0,4.53,1.24,8.64,8.64,0,0,0,3.31-.57,7.07,7.07,0,0,0,2.16-1.32,22.56,22.56,0,0,0,1.89-2.07,1.21,1.21,0,0,1,1-.41,1.68,1.68,0,0,1,1.13.46,1.39,1.39,0,0,1,.53,1.06,1.59,1.59,0,0,1-.37,1,14.29,14.29,0,0,1-3.57,3.45,10.42,10.42,0,0,1-5.95,1.43A12.44,12.44,0,0,1,372.88,540.76Zm13.78-12.44c.3,0,.46-.22.46-.65a5.43,5.43,0,0,0-2.21-4.48,8.78,8.78,0,0,0-5.57-1.73,8.09,8.09,0,0,0-4.51,1.29,10.24,10.24,0,0,0-3.08,3,5.94,5.94,0,0,0-1.1,3Z"/><path d="M401.58,539.22a34.76,34.76,0,0,1-3.38-7.32,64.93,64.93,0,0,1-1.95-6.44,21.79,21.79,0,0,1-.81-4.6,1.68,1.68,0,0,1,.48-1.31,1.91,1.91,0,0,1,1.32-.44,1.59,1.59,0,0,1,1.7,1.48,55.57,55.57,0,0,0,2.3,9.75,39.35,39.35,0,0,0,2.18,5.29c.79,1.53,1.33,2.3,1.64,2.3s.93-.73,1.7-2.19a45.76,45.76,0,0,0,2.34-5.4,43.09,43.09,0,0,0,2.58-9.94,1.69,1.69,0,0,1,.55-1.1,1.72,1.72,0,0,1,1.2-.42,1.66,1.66,0,0,1,1.29.51,1.94,1.94,0,0,1,.46,1.33,20.34,20.34,0,0,1-.81,4.54,60.94,60.94,0,0,1-2.09,6.46q-3.91,10.21-7.18,10.21C403.94,541.93,402.76,541,401.58,539.22Z"/><path d="M423.18,515.37a2.95,2.95,0,0,1,0-4.1,2.94,2.94,0,0,1,2.12-.8,2.81,2.81,0,0,1,2,.78,2.67,2.67,0,0,1,.81,2,2.79,2.79,0,0,1-.85,2.07,2.87,2.87,0,0,1-2.1.83A2.82,2.82,0,0,1,423.18,515.37Zm0,26.15a1.4,1.4,0,0,1-.48-1.11l.46-19.55a1.47,1.47,0,0,1,.48-1.19,2.25,2.25,0,0,1,2.62,0,1.51,1.51,0,0,1,.49,1.24l-.46,19.5a1.51,1.51,0,0,1-.53,1.13,2.28,2.28,0,0,1-2.58,0Z"/><path d="M455.66,536.78c.21,1.32.36,2.33.46,3a17.35,17.35,0,0,1,.13,2.2,13.08,13.08,0,0,1-1.38,6.14,9.85,9.85,0,0,1-3.91,4.1,11.58,11.58,0,0,1-5.84,1.45,10.23,10.23,0,0,1-4.55-1,9,9,0,0,1-3.38-2.76,6.17,6.17,0,0,1-1.27-3.75c0-.92.57-1.38,1.7-1.38a1.27,1.27,0,0,1,.85.26,1.48,1.48,0,0,1,.44.85,5.94,5.94,0,0,0,2.19,3.63,6.59,6.59,0,0,0,4,1.2,7.08,7.08,0,0,0,5.66-2.3,9.52,9.52,0,0,0,2-6.4,21.64,21.64,0,0,0-.37-3.45,7.51,7.51,0,0,1-3,2.51,10,10,0,0,1-4.48.94,11.3,11.3,0,0,1-6-1.56,10.51,10.51,0,0,1-3.94-4.14,11.82,11.82,0,0,1-1.35-5.57A12.94,12.94,0,0,1,435,525a11,11,0,0,1,3.8-4.37,9.88,9.88,0,0,1,5.68-1.66,10.23,10.23,0,0,1,3.65.6A7,7,0,0,1,450.6,521c.49-1.41.78-2.21.87-2.39a1.3,1.3,0,0,1,1.2-.78,2.59,2.59,0,0,1,1.31.36,1.21,1.21,0,0,1,.66.92,1.47,1.47,0,0,1,0,.42c0,.12-.13.46-.3,1s-.39,1.37-.67,2.44l1.66,11.36Zm-7.78,1.36a9.65,9.65,0,0,0,2.62-1.57,3.85,3.85,0,0,0,1.34-1.86c-.16-1.47-.52-3.93-1.11-7.36l-.41-2.39a3.31,3.31,0,0,0-1.06-1.27,7.23,7.23,0,0,0-2.07-1.12,7.41,7.41,0,0,0-2.62-.46,6.74,6.74,0,0,0-3.84,1.12,7.54,7.54,0,0,0-2.62,3.06,10.14,10.14,0,0,0-.1,8.35,7,7,0,0,0,2.6,3,7.78,7.78,0,0,0,4.28,1.13A7.93,7.93,0,0,0,447.88,538.14Z"/><path d="M475.78,535.1a2.15,2.15,0,0,1,.35,1.4,5.61,5.61,0,0,1-1.59,4,5.42,5.42,0,0,1-4.07,1.66,5.13,5.13,0,0,1-5-3c-1-2-1.49-5.17-1.49-9.43,0-1.59.07-3.42.23-5.47L461.4,524a1.37,1.37,0,0,1-1.38-1.52,1.2,1.2,0,0,1,1.34-1.38c.24,0,.77,0,1.56.09s1.2.09,1.57.09q.31-3.41,1.1-8.55a1.62,1.62,0,0,1,.48-1,1.91,1.91,0,0,1,1.27-.34,2,2,0,0,1,1.38.46,1.23,1.23,0,0,1,.41,1.15l-.23,1.51q-.69,5.34-.87,7l3.68.09a1.65,1.65,0,0,1,1,.27,1.19,1.19,0,0,1,.35,1,1.53,1.53,0,0,1-.35,1.17,2.21,2.21,0,0,1-1.31.35c-.95,0-2.17,0-3.68,0-.15,1.94-.23,3.72-.23,5.34a26.6,26.6,0,0,0,.72,7c.47,1.69,1.34,2.53,2.6,2.53a1.9,1.9,0,0,0,1.6-.78,4.23,4.23,0,0,0,.69-2.35,2.14,2.14,0,0,1,.3-1.08c.17-.23.56-.34,1.18-.34A1.5,1.5,0,0,1,475.78,535.1Z"/><path d="M483.25,541.26a2.66,2.66,0,0,1-.73-2,2.77,2.77,0,0,1,.83-2.07,2.7,2.7,0,0,1,2-.83,2.54,2.54,0,0,1,1.89.87,2.89,2.89,0,0,1,.83,2,2.58,2.58,0,0,1-.85,1.91,2.85,2.85,0,0,1-2,.8A2.57,2.57,0,0,1,483.25,541.26Z"/></svg>
