<svg id="Layer_1" data-name="Layer 1" xmlns="http://www.w3.org/2000/svg" width="710" height="740" viewBox="0 0 710 740"><defs><style>.cls-1{fill:#b824d1;}.cls-1,.cls-3{stroke:#000;stroke-miterlimit:10;stroke-width:0.25px;}.cls-2,.cls-3{fill:#cf6bd1;}</style></defs><title>indstillinger_vindue</title><rect class="cls-1" x="5.56" y="8.52" width="698.88" height="722.97" rx="21.02"/><rect class="cls-2" x="28.32" y="26.98" width="653.36" height="686.03" rx="21.02"/><path d="M225.08,90.14c0,2.24-1.1,3.37-3.31,3.37l-15.3-.21a2.8,2.8,0,0,1-2.37-1,3.83,3.83,0,0,1-.69-2.29,3.33,3.33,0,0,1,.89-2.53,3.06,3.06,0,0,1,2.17-.84l4.23,0q.66-11.26.72-22.59c-1.47.1-2.69.2-3.68.31l-1.68.1a2.7,2.7,0,0,1-2.17-.87,3.68,3.68,0,0,1-.74-2.45,3.36,3.36,0,0,1,.74-2.4,3.62,3.62,0,0,1,2.17-1c.75-.11,2.07-.21,4-.31s3.81-.15,5.71-.15,4,.1,6.43.3a2.92,2.92,0,0,1,2.16,1,3.47,3.47,0,0,1,.74,2.32q0,3.21-3.21,3.21-.76,0-3.06-.15-.1,13.88-.76,22.74l3.77,0C224,86.86,225.08,88,225.08,90.14Z"/><path d="M251.37,70.68q2.48,3.13,2.48,9.26l0,11.53a1.78,1.78,0,0,1-1.05,1.63,5.42,5.42,0,0,1-2.57.56,6.39,6.39,0,0,1-2.63-.51c-.77-.34-1.15-.82-1.15-1.43l0-11.83a11.75,11.75,0,0,0-.81-5.2,2.72,2.72,0,0,0-2.55-1.48,2.68,2.68,0,0,0-2.35,1.32,14.87,14.87,0,0,0-1.48,5.15,28.78,28.78,0,0,0-.36,4.75L239,91a2.3,2.3,0,0,1-1,2,5.56,5.56,0,0,1-5.4,0,2.31,2.31,0,0,1-1-2c0-7.08-.1-12.58-.31-16.53a3.29,3.29,0,0,0-.28-1.14,6.33,6.33,0,0,0-.53-1c-.21-.31-.36-.54-.46-.71a2.4,2.4,0,0,1-.31-1.12,2.61,2.61,0,0,1,1.25-2,4.06,4.06,0,0,1,2.43-.94,2,2,0,0,1,1.09.35,5.67,5.67,0,0,1,1.2,1.18,6.66,6.66,0,0,1,.82,1.27,3.08,3.08,0,0,1,.25,1.28v.46a8.09,8.09,0,0,1,2.78-3.24,9.55,9.55,0,0,1,11.88,1.83Z"/><path d="M265,92.46a11.85,11.85,0,0,1-4.85-4.72,15.47,15.47,0,0,1-.05-14.12A11.54,11.54,0,0,1,264.86,69,15,15,0,0,1,272,67.34a11,11,0,0,1,6.12,1.58l.56-12.24.16-3.57a2.43,2.43,0,0,1,1.07-2,4.78,4.78,0,0,1,5.33.15,2.38,2.38,0,0,1,.94,2.22q-.3,2.55-.59,11.3t-.28,15.43a49.1,49.1,0,0,0,.26,6.83,9.83,9.83,0,0,0,1.32,2.6,1.84,1.84,0,0,1,.31,1.07,3,3,0,0,1-1.2,2.32,3.89,3.89,0,0,1-2.62,1.05,4.5,4.5,0,0,1-1.28-.18,2.52,2.52,0,0,1-1-.49,6.94,6.94,0,0,1-2.24-2.85,8.27,8.27,0,0,1-6.68,3.52A14.87,14.87,0,0,1,265,92.46Zm10-5a6.32,6.32,0,0,0,2.12-2.12,5.07,5.07,0,0,0,.79-2.68V75.1a5.57,5.57,0,0,0-2.32-1.41,9.16,9.16,0,0,0-3.34-.69,5.85,5.85,0,0,0-4.77,2.07,8.66,8.66,0,0,0-1.71,5.69,8.06,8.06,0,0,0,1.81,5.45,5.77,5.77,0,0,0,4.57,2.09A5.35,5.35,0,0,0,275.06,87.49Z"/><path d="M295.21,92.41A9.34,9.34,0,0,1,291.28,88a3.67,3.67,0,0,1-.3-1.28,2.74,2.74,0,0,1,1.12-2,3.68,3.68,0,0,1,2.45-1,2,2,0,0,1,1.22.34,4.23,4.23,0,0,1,.71.61,2.41,2.41,0,0,1,.31.38,15.83,15.83,0,0,0,2.45,2.45,3.87,3.87,0,0,0,2.34.71,4.4,4.4,0,0,0,2.2-.53,1.67,1.67,0,0,0,.91-1.51,1.86,1.86,0,0,0-1.07-1.68,19.3,19.3,0,0,0-3.46-1.38,38.55,38.55,0,0,1-4.31-1.73A8.35,8.35,0,0,1,292.94,79a6.47,6.47,0,0,1-1.25-4.11,6.76,6.76,0,0,1,1.43-4.31,9.12,9.12,0,0,1,3.8-2.78,13.34,13.34,0,0,1,5.12-1,11.28,11.28,0,0,1,5.13,1.1,8,8,0,0,1,3.29,2.91,7.24,7.24,0,0,1,1.12,3.85,2.74,2.74,0,0,1-.77,2.09,3.72,3.72,0,0,1-2.55.71,3.38,3.38,0,0,1-2.16-.51,2.33,2.33,0,0,1-.74-1.43,3.85,3.85,0,0,0-.79-2A3.24,3.24,0,0,0,302,72.7a4.1,4.1,0,0,0-2.22.51,1.62,1.62,0,0,0-.79,1.43,1.91,1.91,0,0,0,1.1,1.73,18.48,18.48,0,0,0,3.54,1.33A35,35,0,0,1,308,79.3a8.08,8.08,0,0,1,2.91,2.35,6.47,6.47,0,0,1,1.22,4.1,7.12,7.12,0,0,1-1.63,4.8,9,9,0,0,1-4.08,2.7,15.55,15.55,0,0,1-4.9.82A12,12,0,0,1,295.21,92.41Z"/><path d="M334.73,84.12a2.7,2.7,0,0,1,.77,2.14,7.15,7.15,0,0,1-2.14,5.41,7.53,7.53,0,0,1-5.41,2,6.91,6.91,0,0,1-6.48-3.6q-2-3.58-2-11.39c0-1.57,0-2.71.05-3.42a8.27,8.27,0,0,0-1.17,0c-1.94,0-2.91-1-2.91-2.81a2.86,2.86,0,0,1,.74-2.14,3.59,3.59,0,0,1,2.63-.66l1.12,0q.36-3.16,1.18-7.75a2.61,2.61,0,0,1,1.14-1.86,4.22,4.22,0,0,1,2.43-.64,4.1,4.1,0,0,1,2.7.81,2.54,2.54,0,0,1,1,2l-.05.41L328,64.28q-.62,4.18-.81,5.71c1.15.07,2,.11,2.65.11a2.37,2.37,0,0,1,2.6,2.7,2.58,2.58,0,0,1-.72,2,3.47,3.47,0,0,1-2.39.66h-2.55c0,.68,0,1.77,0,3.27,0,2.51.06,4.44.17,5.78a8.55,8.55,0,0,0,.54,2.73c.24.48.54.72.92.72a.92.92,0,0,0,.92-.46,4.66,4.66,0,0,0,.2-1.63c0-1.6.94-2.4,2.81-2.4A3.69,3.69,0,0,1,334.73,84.12Z"/><path d="M342.31,65.68A4.42,4.42,0,0,1,341,62.4a4.27,4.27,0,0,1,1.3-3.24,4.64,4.64,0,0,1,3.39-1.25A4.5,4.5,0,0,1,349,59.16a4.26,4.26,0,0,1,1.28,3.19,4.56,4.56,0,0,1-1.3,3.31,4.89,4.89,0,0,1-6.68,0Zm-.08,26.81a2.53,2.53,0,0,1-1-2.2l.41-18.82a2.7,2.7,0,0,1,1.07-2.16,4.18,4.18,0,0,1,2.65-.79,4.42,4.42,0,0,1,2.75.81,2.52,2.52,0,0,1,1,2.25l-.4,18.76a2.72,2.72,0,0,1-1.1,2.17,4.92,4.92,0,0,1-5.38,0Z"/><path d="M358.6,92.28a2.81,2.81,0,0,1-1-2.19l-.3-33.76a2.75,2.75,0,0,1,1.07-2.25,4.18,4.18,0,0,1,2.7-.86,4,4,0,0,1,2.63.84,2.77,2.77,0,0,1,1,2.22L365,90a2.72,2.72,0,0,1-1.1,2.27,4.29,4.29,0,0,1-2.68.84A3.75,3.75,0,0,1,358.6,92.28Z"/><path d="M372.37,92.28a2.81,2.81,0,0,1-1-2.19l-.31-33.76a2.76,2.76,0,0,1,1.08-2.25,4.18,4.18,0,0,1,2.7-.86,4,4,0,0,1,2.63.84,2.77,2.77,0,0,1,1,2.22L378.74,90a2.71,2.71,0,0,1-1.09,2.27,4.29,4.29,0,0,1-2.68.84A3.75,3.75,0,0,1,372.37,92.28Z"/><path d="M387.08,65.68a4.46,4.46,0,0,1-1.3-3.28,4.31,4.31,0,0,1,1.3-3.24,4.67,4.67,0,0,1,3.39-1.25,4.52,4.52,0,0,1,3.32,1.25,4.26,4.26,0,0,1,1.27,3.19,4.72,4.72,0,0,1-8,3.33ZM387,92.49a2.48,2.48,0,0,1-1-2.2l.4-18.82a2.71,2.71,0,0,1,1.08-2.16,4.18,4.18,0,0,1,2.65-.79,4.42,4.42,0,0,1,2.75.81,2.57,2.57,0,0,1,1,2.25l-.41,18.76a2.71,2.71,0,0,1-1.09,2.17,4.92,4.92,0,0,1-5.38,0Z"/><path d="M423.29,70.68q2.47,3.13,2.48,9.26l-.06,11.53a1.77,1.77,0,0,1-1,1.63,5.47,5.47,0,0,1-2.58.56,6.38,6.38,0,0,1-2.62-.51c-.77-.34-1.15-.82-1.15-1.43l.05-11.83a11.75,11.75,0,0,0-.81-5.2A2.73,2.73,0,0,0,415,73.21a2.68,2.68,0,0,0-2.34,1.32,14.87,14.87,0,0,0-1.48,5.15,28.78,28.78,0,0,0-.36,4.75l.05,6.58a2.3,2.3,0,0,1-1,2,4.63,4.63,0,0,1-2.68.69,4.68,4.68,0,0,1-2.73-.71,2.32,2.32,0,0,1-1-2c0-7.08-.1-12.58-.31-16.53a3.29,3.29,0,0,0-.28-1.14,6.33,6.33,0,0,0-.53-1c-.21-.31-.36-.54-.46-.71a2.29,2.29,0,0,1-.31-1.12,2.61,2.61,0,0,1,1.25-2,4,4,0,0,1,2.42-.94,2,2,0,0,1,1.1.35,5.67,5.67,0,0,1,1.2,1.18,7.19,7.19,0,0,1,.82,1.27,3.25,3.25,0,0,1,.25,1.28v.46a8.09,8.09,0,0,1,2.78-3.24,9.55,9.55,0,0,1,11.88,1.83Z"/><path d="M456.67,91.06v2.6a12.81,12.81,0,0,1-1.61,6.4,12,12,0,0,1-4.51,4.59,13,13,0,0,1-6.73,1.71,14.07,14.07,0,0,1-5.61-1.1,9.89,9.89,0,0,1-4-3A6.7,6.7,0,0,1,432.7,98a2.5,2.5,0,0,1,.84-2.09,4.15,4.15,0,0,1,2.58-.66,3,3,0,0,1,1.83.51,2.1,2.1,0,0,1,.87,1.43,3.4,3.4,0,0,0,1.43,2.42,5.87,5.87,0,0,0,3.31.79q5.82,0,5.82-7c0-.68,0-1.24-.05-1.68a9.83,9.83,0,0,1-2.93,1.5,12.73,12.73,0,0,1-10.15-1.09,11.63,11.63,0,0,1-4.34-4.64,14,14,0,0,1-1.55-6.63,13.77,13.77,0,0,1,1.6-6.68,11.75,11.75,0,0,1,4.44-4.62,12.59,12.59,0,0,1,6.45-1.66,7.94,7.94,0,0,1,5.3,1.53l.77-1.53a2,2,0,0,1,.87-.91,2.94,2.94,0,0,1,1.53-.36,5,5,0,0,1,2.7.79,2.29,2.29,0,0,1,1.27,2,4.19,4.19,0,0,1-.1.67l-.41,1.22c-.3.82-.47,1.31-.51,1.48l.16,1q.81,5.66,1.48,11.07C456.42,89,456.67,91.06,456.67,91.06Zm-9.94-3.6a3.4,3.4,0,0,0,1.88-1.91q-.76-6.22-1.37-10.15a3.92,3.92,0,0,0-1.48-1.33,4.79,4.79,0,0,0-2.2-.51,5.09,5.09,0,0,0-4.2,2.15,8.45,8.45,0,0,0-1.66,5.35,8.63,8.63,0,0,0,1.48,5.08,4.89,4.89,0,0,0,4.28,2.11A7,7,0,0,0,446.73,87.46Z"/><path d="M467.1,92.38a11.3,11.3,0,0,1-4.77-4.79,14.94,14.94,0,0,1-1.58-6.94,13.22,13.22,0,0,1,1.81-6.91A12.6,12.6,0,0,1,467.51,69a15.34,15.34,0,0,1,13.36-.31,10.62,10.62,0,0,1,6.2,10,4.93,4.93,0,0,1-.79,3.13,3.33,3.33,0,0,1-2.68,1H467.13a4.3,4.3,0,0,0,.86,2.47,6.85,6.85,0,0,0,2.6,2.12,9.3,9.3,0,0,0,4.14.86,7.45,7.45,0,0,0,3.36-.63,11.34,11.34,0,0,0,2.55-1.92,3,3,0,0,1,2-.86,3.24,3.24,0,0,1,2.19.89,2.63,2.63,0,0,1,1,2,3.07,3.07,0,0,1-.61,1.79,10,10,0,0,1-3.62,3.13,13.42,13.42,0,0,1-6.68,1.46A16.16,16.16,0,0,1,467.1,92.38Zm13.23-14.17a.78.78,0,0,0,.59-.16.87.87,0,0,0,.13-.56,3.93,3.93,0,0,0-1.91-3.31,8.06,8.06,0,0,0-4.72-1.33,8.25,8.25,0,0,0-3.9.87A6.89,6.89,0,0,0,468,75.83a4.21,4.21,0,0,0-.86,2.38Z"/><path d="M510.07,68.08a7.08,7.08,0,0,1,2.75,2.68,7.81,7.81,0,0,1,1,4,6.27,6.27,0,0,1-2.17,5.12,8.38,8.38,0,0,1-5.58,1.81,4.31,4.31,0,0,1-2.5-.53,2.11,2.11,0,0,1-.71-1.81,2.3,2.3,0,0,1,.51-1.71,2.41,2.41,0,0,1,1.42-.59c2-.2,3-1,3-2.5a2,2,0,0,0-.43-1.4,1.54,1.54,0,0,0-1.2-.48,3.26,3.26,0,0,0-2.55,1.55,14.34,14.34,0,0,0-1.94,3.62,18,18,0,0,0-1,3.5,60.78,60.78,0,0,0-.35,7.95,6.39,6.39,0,0,1-.79,3.75,3.36,3.36,0,0,1-2.78,1,4.52,4.52,0,0,1-2.78-.72,2.7,2.7,0,0,1-1-2.19V82.9c0-2.18,0-4-.15-5.54s-.27-3.46-.51-5.84l-.2-2.09a2.36,2.36,0,0,1,.84-2.09,3.89,3.89,0,0,1,2.62-.81q2.87,0,3.06,2.55c.07.81.14,2,.21,3.46a10,10,0,0,1,2.88-3.9,7,7,0,0,1,4.51-1.5A7.79,7.79,0,0,1,510.07,68.08Z"/><path d="M118.75,253.55c.06,3.59.09,6.37.09,8.36a1.61,1.61,0,0,1-.4,1.15,1.53,1.53,0,0,1-1.2.45,1.62,1.62,0,0,1-1.2-.45,1.51,1.51,0,0,1-.44-1.11q0-4,0-12.09,0-12.74-1.8-12.73c-.51,0-1.17.64-2,1.91a28.76,28.76,0,0,0-2.06,3.84,28.47,28.47,0,0,0-1.34,3.87c-.36,1.34-.74,2.9-1.13,4.66-.17.84-.77,1.26-1.81,1.26a2.15,2.15,0,0,1-1.15-.27,1.6,1.6,0,0,1-.66-.91l-.58-2.1a58.92,58.92,0,0,0-1.85-6.3,25.29,25.29,0,0,0-2-4.11c-.78-1.29-1.4-1.93-1.85-1.93-.61,0-1.07,1.18-1.36,3.55s-.48,5.34-.57,8.92c0,1.26,0,3.21,0,5.84V262a1.22,1.22,0,0,1-.44,1,2,2,0,0,1-1.28.36,1.42,1.42,0,0,1-1.24-.45,2,2,0,0,1-.32-1.19q0-2.4.09-6.6l0-5.58q0-8.32,1.13-12.22c.76-2.61,2-3.91,3.62-3.91,1.87,0,3.52,1.4,4.93,4.2a46,46,0,0,1,3.51,10.12,39.55,39.55,0,0,1,2.14-6.76,21.24,21.24,0,0,1,3.15-5.44,4.88,4.88,0,0,1,3.61-2.12,2.9,2.9,0,0,1,2.63,1.89,16.38,16.38,0,0,1,1.32,5.44c.25,2.37.41,5.4.46,9.09Z"/><path d="M141.67,260a4.83,4.83,0,0,0,.48,1,1.78,1.78,0,0,1,.29.65,1.18,1.18,0,0,1-.46.88,1.35,1.35,0,0,1-.88.42,1.81,1.81,0,0,1-1.49-1,3.78,3.78,0,0,1-.65-2v-.58a6.29,6.29,0,0,1-2.71,2.94,8.53,8.53,0,0,1-4.18,1,6.17,6.17,0,0,1-5.34-2.43c-1.17-1.63-1.76-4-1.76-7.1V243.35a1.08,1.08,0,0,1,.44-.89,1.83,1.83,0,0,1,1.11-.33,2,2,0,0,1,1.18.33,1,1,0,0,1,.46.89V253.8a10.18,10.18,0,0,0,1,5.17,3.51,3.51,0,0,0,3.23,1.64q5.67,0,5.67-10.29v-7a1.36,1.36,0,0,1,.42-1.05,1.65,1.65,0,0,1,1.14-.37,1.89,1.89,0,0,1,1.22.37,1.33,1.33,0,0,1,.46,1.05l.17,15.33A4.07,4.07,0,0,0,141.67,260Z"/><path d="M150.59,262.06a10,10,0,0,1-3.15-3.59,2.27,2.27,0,0,1-.29-.8,1.31,1.31,0,0,1,.52-1,1.79,1.79,0,0,1,1.16-.44.9.9,0,0,1,.65.23,7.45,7.45,0,0,1,.65.82,11.08,11.08,0,0,0,2.22,2.54,4.83,4.83,0,0,0,3.11.94,4.87,4.87,0,0,0,3-.88,2.66,2.66,0,0,0,1.2-2.22A2.28,2.28,0,0,0,159,256a5,5,0,0,0-1.59-1.09c-.64-.28-1.54-.63-2.71-1.05-1.49-.54-2.69-1-3.6-1.45a6.73,6.73,0,0,1-2.33-1.85,4.72,4.72,0,0,1-1-3.05,5.54,5.54,0,0,1,.9-3,6.33,6.33,0,0,1,2.58-2.25,9.31,9.31,0,0,1,7.73,0,6.59,6.59,0,0,1,2.61,2.23,5.45,5.45,0,0,1,.92,3.06,1.9,1.9,0,0,1-.31,1.22,1.43,1.43,0,0,1-1.12.38,1.46,1.46,0,0,1-1.11-.31,1.44,1.44,0,0,1-.32-.82,3.9,3.9,0,0,0-1.38-2.92,5,5,0,0,0-3.15-1,4.11,4.11,0,0,0-3.21,1.07,3.38,3.38,0,0,0-1,2.29,2.47,2.47,0,0,0,1.24,2.21,20.77,20.77,0,0,0,3.84,1.7,31.78,31.78,0,0,1,3.57,1.47,6.74,6.74,0,0,1,2.29,1.85,4.53,4.53,0,0,1,1,2.94,5,5,0,0,1-2.15,4.28,8.72,8.72,0,0,1-5.29,1.55A8.27,8.27,0,0,1,150.59,262.06Z"/><path d="M170.79,238.75a2.71,2.71,0,0,1,0-3.74,2.67,2.67,0,0,1,1.93-.74,2.56,2.56,0,0,1,1.87.72,2.46,2.46,0,0,1,.74,1.85,2.54,2.54,0,0,1-.78,1.89,2.64,2.64,0,0,1-1.91.75A2.56,2.56,0,0,1,170.79,238.75Zm0,23.87a1.25,1.25,0,0,1-.44-1l.42-17.85a1.39,1.39,0,0,1,.44-1.1,2.13,2.13,0,0,1,2.4,0,1.44,1.44,0,0,1,.44,1.14l-.42,17.81a1.34,1.34,0,0,1-.49,1A1.74,1.74,0,0,1,172,263,1.76,1.76,0,0,1,170.81,262.62Z"/><path d="M182.85,263.13a1,1,0,0,1-.47-.84v-29.7a1.36,1.36,0,0,1,.42-1.05,1.72,1.72,0,0,1,1.18-.37,1.92,1.92,0,0,1,1.2.35,1.32,1.32,0,0,1,.44,1.07l-.09,14.87,3.07-1.72q6.35-3.57,8.4-4.83a2.16,2.16,0,0,1,1-.38,1.26,1.26,0,0,1,1,.61,2.19,2.19,0,0,1,.45,1.32c0,.31-.31.65-.93,1l-12.93,7.69,13.1,9.32a1.13,1.13,0,0,1,.42.93,1.6,1.6,0,0,1-.53,1.15,1.52,1.52,0,0,1-1.07.53,2.63,2.63,0,0,1-1.26-.47l-4.32-3q-3.07-2.27-6.34-4.49l-.05,7.14a1,1,0,0,1-.44.88,1.79,1.79,0,0,1-1.11.33A1.87,1.87,0,0,1,182.85,263.13Z"/><path d="M93.05,355.83a3.91,3.91,0,0,1-2.27-2.62,22.94,22.94,0,0,1-.55-5.86,87.34,87.34,0,0,1,.45-9Q91.12,334,92,328.32a1.39,1.39,0,0,1,.55-.94,1.83,1.83,0,0,1,1.17-.36c1,0,1.51.46,1.51,1.39a1.47,1.47,0,0,1,0,.42q-1.1,7.14-1.49,10.71a72.9,72.9,0,0,0-.4,7.89,17.92,17.92,0,0,0,.32,4A2.5,2.5,0,0,0,95,353.18a7.72,7.72,0,0,0,3.28.51,31.24,31.24,0,0,0,4.13-.25c1.19-.17,2.73-.45,4.6-.84a1.66,1.66,0,0,1,.42,0,1.18,1.18,0,0,1,1,.41,1.73,1.73,0,0,1,.31,1.06,1.36,1.36,0,0,1-.42,1.05,3,3,0,0,1-1.3.58,36.38,36.38,0,0,1-8.44.93A14.52,14.52,0,0,1,93.05,355.83Z"/><path d="M117.47,367a1.39,1.39,0,0,1-.48-1.07,1.82,1.82,0,0,1,.12-.59q2.31-5.71,4-10.33a13.38,13.38,0,0,1-3.65-4.11,44.05,44.05,0,0,1-3.51-6.83,53.61,53.61,0,0,1-2.41-7,1.53,1.53,0,0,1-.09-.54,1.14,1.14,0,0,1,.42-.88,1.78,1.78,0,0,1,1.22-.38,1.22,1.22,0,0,1,.88.25,1.94,1.94,0,0,1,.42.88q4.29,13.2,7.81,15.5,2.56-9.07,4.25-15.66a1.58,1.58,0,0,1,.46-.84,1.37,1.37,0,0,1,.92-.26c1,0,1.64.42,1.81,1.26a1,1,0,0,1,0,.47c-1,3.92-1.73,6.95-2.34,9.11s-1.35,4.54-2.24,7.14c-.65,1.85-1.45,4.11-2.42,6.78s-1.77,4.83-2.41,6.45a1.8,1.8,0,0,1-.57.86,1.46,1.46,0,0,1-.9.27A1.68,1.68,0,0,1,117.47,367Z"/><path d="M139.46,355.54a9.18,9.18,0,0,1-3.91-3.61,12.93,12.93,0,0,1-.13-11.72,9.13,9.13,0,0,1,3.81-3.68,12.23,12.23,0,0,1,5.73-1.28,11.44,11.44,0,0,1,4.14.69,7.82,7.82,0,0,1,2.83,1.79v-.88c.11-4.4.2-7.6.27-9.62s.21-4,.4-6.05a1.56,1.56,0,0,1,.51-1,1.53,1.53,0,0,1,1.09-.38,1.79,1.79,0,0,1,1.22.4,1.22,1.22,0,0,1,.42,1c-.2,2.05-.38,5.56-.55,10.55s-.25,9.48-.25,13.48a43.42,43.42,0,0,0,.29,7.06,6.49,6.49,0,0,0,.61,1.53c.24.4.5.61.78.61.08,0,.13.15.13.46a1.52,1.52,0,0,1-.55,1.13,1.75,1.75,0,0,1-1.22.51,1.49,1.49,0,0,1-.8-.21,4.36,4.36,0,0,1-1.19-1.12,4.47,4.47,0,0,1-.82-2.16,7.23,7.23,0,0,1-3,2.65,9.91,9.91,0,0,1-4.41,1A12.22,12.22,0,0,1,139.46,355.54Zm8.71-2.46a7.21,7.21,0,0,0,2.63-2.1,4.66,4.66,0,0,0,1-2.88c0-1.23,0-2.21,0-2.94l0-3.48a6.86,6.86,0,0,0-2.6-2.48,8.26,8.26,0,0,0-4.33-1.14,7.56,7.56,0,0,0-5.59,2.11,7.87,7.87,0,0,0-2.1,5.83,8.15,8.15,0,0,0,1.12,4.46,6.79,6.79,0,0,0,2.83,2.58,8.21,8.21,0,0,0,3.53.82A7.79,7.79,0,0,0,148.17,353.08Z"/><path d="M165.81,355.22a9.89,9.89,0,0,1-3.78-4,11.85,11.85,0,0,1,.06-10.83,10.08,10.08,0,0,1,3.83-4,11,11,0,0,1,5.71-1.47,11.12,11.12,0,0,1,5.12,1.15,8.58,8.58,0,0,1,4.79,7.92,4,4,0,0,1-.29,1.79c-.2.35-.69.54-1.47.56l-16,.34a6.63,6.63,0,0,0,1,3.28,8.11,8.11,0,0,0,2.75,2.81,7.6,7.6,0,0,0,4.14,1.13,7.85,7.85,0,0,0,3-.52,6.57,6.57,0,0,0,2-1.2,22.76,22.76,0,0,0,1.72-1.89,1.09,1.09,0,0,1,.92-.38,1.53,1.53,0,0,1,1,.42,1.27,1.27,0,0,1,.48,1,1.53,1.53,0,0,1-.33.88,13.2,13.2,0,0,1-3.26,3.15,9.57,9.57,0,0,1-5.44,1.3A11.34,11.34,0,0,1,165.81,355.22Zm12.58-11.36c.28,0,.42-.19.42-.59a4.94,4.94,0,0,0-2-4.09,8,8,0,0,0-5.08-1.58,7.38,7.38,0,0,0-4.11,1.18,9.11,9.11,0,0,0-2.82,2.77,5.41,5.41,0,0,0-1,2.69Z"/><path d="M201.2,332.1a1.36,1.36,0,0,1-1.56,1.51c-1.09,0-1.64-.47-1.64-1.43a6.87,6.87,0,0,0-.5-2.93,2.1,2.1,0,0,0-2.1-1.05,2.51,2.51,0,0,0-2.5,1.51,11.56,11.56,0,0,0-.69,4.58c0,2.15,0,3.9,0,5.25h3.32a1.18,1.18,0,0,1,.92.35,1.42,1.42,0,0,1,.34,1c0,.76-.42,1.15-1.26,1.18l-3.28.08q.09,7.9.09,12.94a1.29,1.29,0,0,1-.44,1.09,1.84,1.84,0,0,1-1.12.34,1.54,1.54,0,0,1-1.13-.38,1.37,1.37,0,0,1-.38-1c0-2.58-.06-6.1-.17-10.58l0-2.32-2.52.05a1.47,1.47,0,0,1-1.09-.34,1.34,1.34,0,0,1-.34-1,1.32,1.32,0,0,1,.3-.92,1.54,1.54,0,0,1,1.09-.38l2.52,0c-.06-2.74-.09-4.54-.09-5.38a11.44,11.44,0,0,1,1.58-6.4,5.37,5.37,0,0,1,4.81-2.37Q201.2,325.47,201.2,332.1Z"/><path d="M217.53,332.1a1.35,1.35,0,0,1-1.55,1.51c-1.09,0-1.64-.47-1.64-1.43a7,7,0,0,0-.5-2.93,2.1,2.1,0,0,0-2.1-1.05,2.5,2.5,0,0,0-2.5,1.51,11.56,11.56,0,0,0-.69,4.58c0,2.15,0,3.9,0,5.25h3.32a1.18,1.18,0,0,1,.92.35,1.47,1.47,0,0,1,.34,1c0,.76-.42,1.15-1.26,1.18l-3.28.08q.09,7.9.08,12.94a1.26,1.26,0,0,1-.44,1.09,1.79,1.79,0,0,1-1.11.34,1.54,1.54,0,0,1-1.13-.38,1.33,1.33,0,0,1-.38-1c0-2.58-.06-6.1-.17-10.58l0-2.32-2.52.05a1.45,1.45,0,0,1-1.09-.34,1.34,1.34,0,0,1-.34-1,1.37,1.37,0,0,1,.29-.92,1.57,1.57,0,0,1,1.1-.38l2.52,0c-.06-2.74-.09-4.54-.09-5.38a11.44,11.44,0,0,1,1.58-6.4,5.37,5.37,0,0,1,4.81-2.37Q217.54,325.47,217.53,332.1Z"/><path d="M224.48,355.22a9.89,9.89,0,0,1-3.78-4,11.81,11.81,0,0,1,.07-10.83,10.05,10.05,0,0,1,3.82-4A11,11,0,0,1,230.3,335a11.16,11.16,0,0,1,5.13,1.15,8.71,8.71,0,0,1,3.52,3.22,8.82,8.82,0,0,1,1.26,4.7,3.89,3.89,0,0,1-.29,1.79c-.2.35-.69.54-1.47.56l-16,.34a6.61,6.61,0,0,0,1,3.28,8.2,8.2,0,0,0,2.75,2.81A7.6,7.6,0,0,0,230.3,354a7.87,7.87,0,0,0,3-.52,6.51,6.51,0,0,0,2-1.2,21.12,21.12,0,0,0,1.72-1.89A1.12,1.12,0,0,1,238,350a1.53,1.53,0,0,1,1,.42,1.25,1.25,0,0,1,.49,1,1.55,1.55,0,0,1-.34.88,13.33,13.33,0,0,1-3.25,3.15,9.61,9.61,0,0,1-5.44,1.3A11.36,11.36,0,0,1,224.48,355.22Zm12.58-11.36c.28,0,.42-.19.42-.59a5,5,0,0,0-2-4.09,8,8,0,0,0-5.08-1.58,7.39,7.39,0,0,0-4.12,1.18,9.18,9.18,0,0,0-2.81,2.77,5.31,5.31,0,0,0-1,2.69Z"/><path d="M247.39,356.42a1,1,0,0,1-.46-.84V325.89a1.33,1.33,0,0,1,.42-1.05,1.66,1.66,0,0,1,1.18-.38,1.92,1.92,0,0,1,1.2.35,1.32,1.32,0,0,1,.44,1.08l-.09,14.86,3.07-1.72q6.34-3.57,8.4-4.83a2.18,2.18,0,0,1,1-.38,1.26,1.26,0,0,1,1,.61,2.19,2.19,0,0,1,.44,1.33c0,.3-.3.64-.92,1l-12.94,7.69,13.11,9.32a1.14,1.14,0,0,1,.42.93,1.6,1.6,0,0,1-.53,1.15,1.52,1.52,0,0,1-1.07.53,2.71,2.71,0,0,1-1.26-.46l-4.32-3c-2.05-1.51-4.16-3-6.35-4.49l0,7.14a1,1,0,0,1-.44.88,1.79,1.79,0,0,1-1.11.34A1.92,1.92,0,0,1,247.39,356.42Z"/><path d="M281.31,350.06a1.94,1.94,0,0,1,.31,1.28,5.11,5.11,0,0,1-1.45,3.69,4.9,4.9,0,0,1-3.71,1.52,4.68,4.68,0,0,1-4.52-2.78q-1.37-2.76-1.36-8.61c0-1.45.07-3.12.21-5l-2.61-.21a1.25,1.25,0,0,1-1.26-1.39,1.1,1.1,0,0,1,1.22-1.26c.23,0,.7,0,1.43.08s1.09.09,1.43.09c.19-2.07.53-4.68,1-7.81a1.44,1.44,0,0,1,.44-.95,1.7,1.7,0,0,1,1.15-.31,1.81,1.81,0,0,1,1.26.42,1.12,1.12,0,0,1,.38,1.05l-.21,1.38q-.63,4.88-.8,6.38l3.36.09a1.5,1.5,0,0,1,1,.25,1.07,1.07,0,0,1,.31.88,1.38,1.38,0,0,1-.31,1.07,2,2,0,0,1-1.2.32c-.87,0-2,0-3.36,0-.14,1.77-.21,3.39-.21,4.87a24.8,24.8,0,0,0,.65,6.39c.43,1.54,1.23,2.31,2.37,2.31a1.74,1.74,0,0,0,1.47-.72,3.78,3.78,0,0,0,.63-2.14,1.85,1.85,0,0,1,.28-1c.15-.21.51-.31,1.07-.31A1.37,1.37,0,0,1,281.31,350.06Z"/><path d="M291.26,355.22a9.89,9.89,0,0,1-3.78-4,11.81,11.81,0,0,1,.07-10.83,10,10,0,0,1,3.82-4,11,11,0,0,1,5.71-1.47,11.12,11.12,0,0,1,5.12,1.15,8.68,8.68,0,0,1,3.53,3.22,8.82,8.82,0,0,1,1.26,4.7,4,4,0,0,1-.29,1.79c-.2.35-.69.54-1.47.56l-16,.34a6.61,6.61,0,0,0,1,3.28,8.11,8.11,0,0,0,2.75,2.81,7.6,7.6,0,0,0,4.14,1.13,7.82,7.82,0,0,0,3-.52,6.57,6.57,0,0,0,2-1.2,22.76,22.76,0,0,0,1.72-1.89,1.1,1.1,0,0,1,.92-.38,1.53,1.53,0,0,1,1,.42,1.28,1.28,0,0,1,.49,1,1.55,1.55,0,0,1-.34.88,13.2,13.2,0,0,1-3.26,3.15,9.56,9.56,0,0,1-5.43,1.3A11.36,11.36,0,0,1,291.26,355.22Zm12.58-11.36c.28,0,.42-.19.42-.59a5,5,0,0,0-2-4.09,8,8,0,0,0-5.09-1.58,7.38,7.38,0,0,0-4.11,1.18,9.22,9.22,0,0,0-2.82,2.77,5.38,5.38,0,0,0-1,2.69Z"/><path d="M326.81,336.66a6,6,0,0,1,1.52,4.14,4.79,4.79,0,0,1-1.39,3.63,5,5,0,0,1-3.57,1.32,2.14,2.14,0,0,1-1.2-.25,1.08,1.08,0,0,1-.35-.92,1,1,0,0,1,1.05-1.14c1.82-.17,2.73-1.06,2.73-2.69a3.5,3.5,0,0,0-.72-2.22,2.71,2.71,0,0,0-2.31-.93,3.77,3.77,0,0,0-2.92,1.43,10.6,10.6,0,0,0-1.95,3.55,15.83,15.83,0,0,0-.84,4.18c-.17,2.58-.25,5-.25,7.31a5.27,5.27,0,0,1-.32,2.27,1.31,1.31,0,0,1-1.24.54,1.59,1.59,0,0,1-1.28-.44,2.53,2.53,0,0,1-.35-1.53l0-8c0-1.85-.15-4.29-.42-7.31q-.25-2.65-.3-3.78a1.17,1.17,0,0,1,.38-1,1.74,1.74,0,0,1,1.17-.36,1.22,1.22,0,0,1,1.39,1.26c.17,1.76.27,3.49.29,5.17a8.45,8.45,0,0,1,2.48-4.33,6.23,6.23,0,0,1,4.24-1.55A5.29,5.29,0,0,1,326.81,336.66Z"/><path d="M98.33,460.22a3.88,3.88,0,0,1-2.27-2.62,23,23,0,0,1-.54-5.86,87.51,87.51,0,0,1,.44-8.95c.29-2.91.75-6.27,1.36-10.08a1.41,1.41,0,0,1,.55-.94,1.83,1.83,0,0,1,1.17-.36c1,0,1.52.46,1.52,1.39a1.4,1.4,0,0,1,0,.42q-1.1,7.14-1.49,10.71a72.9,72.9,0,0,0-.4,7.89,18.09,18.09,0,0,0,.32,4,2.54,2.54,0,0,0,1.32,1.74,7.91,7.91,0,0,0,3.28.5,29.62,29.62,0,0,0,4.13-.25c1.19-.17,2.73-.45,4.6-.84a1.66,1.66,0,0,1,.42,0,1.16,1.16,0,0,1,1,.42,1.7,1.7,0,0,1,.32,1.05,1.37,1.37,0,0,1-.42,1.05,3.08,3.08,0,0,1-1.31.59,36.94,36.94,0,0,1-8.44.92A14.52,14.52,0,0,1,98.33,460.22Z"/><path d="M122.75,471.37a1.39,1.39,0,0,1-.48-1.07,1.76,1.76,0,0,1,.12-.58q2.31-5.72,4-10.34a13.26,13.26,0,0,1-3.65-4.11,43.6,43.6,0,0,1-3.51-6.83,54,54,0,0,1-2.41-7,1.63,1.63,0,0,1-.09-.55,1.16,1.16,0,0,1,.42-.88,1.78,1.78,0,0,1,1.22-.38,1.27,1.27,0,0,1,.88.25,2,2,0,0,1,.42.89q4.29,13.18,7.81,15.49,2.56-9.06,4.25-15.66a1.67,1.67,0,0,1,.46-.84,1.37,1.37,0,0,1,.92-.25c1,0,1.64.42,1.81,1.26a1,1,0,0,1,0,.46c-1,3.92-1.73,7-2.33,9.11s-1.36,4.54-2.25,7.14c-.65,1.85-1.45,4.11-2.42,6.78s-1.77,4.83-2.41,6.45a1.8,1.8,0,0,1-.57.86,1.46,1.46,0,0,1-.9.28A1.69,1.69,0,0,1,122.75,471.37Z"/><path d="M144.74,459.93a9.12,9.12,0,0,1-3.91-3.61,11.54,11.54,0,0,1-1.47-6.05,11.38,11.38,0,0,1,1.35-5.67,9,9,0,0,1,3.8-3.67,12.14,12.14,0,0,1,5.73-1.29,11.22,11.22,0,0,1,4.14.7,7.68,7.68,0,0,1,2.83,1.78v-.88c.11-4.4.2-7.6.27-9.62s.21-4,.4-6.05a1.54,1.54,0,0,1,1.6-1.34,1.79,1.79,0,0,1,1.22.4,1.17,1.17,0,0,1,.42,1c-.2,2-.38,5.56-.55,10.54s-.25,9.48-.25,13.48a43.42,43.42,0,0,0,.29,7.06,6.32,6.32,0,0,0,.61,1.53c.24.41.5.61.78.61.08,0,.13.15.13.46a1.55,1.55,0,0,1-.55,1.14,1.77,1.77,0,0,1-1.22.5,1.49,1.49,0,0,1-.8-.21,4.15,4.15,0,0,1-1.19-1.11,4.55,4.55,0,0,1-.82-2.17,7.16,7.16,0,0,1-3,2.65,9.92,9.92,0,0,1-4.41,1A12.22,12.22,0,0,1,144.74,459.93Zm8.71-2.46a6.93,6.93,0,0,0,2.63-2.1,4.65,4.65,0,0,0,1-2.87c0-1.24,0-2.22,0-2.94l0-3.49a6.79,6.79,0,0,0-2.6-2.48,8.32,8.32,0,0,0-4.33-1.13,7.57,7.57,0,0,0-5.59,2.1,7.88,7.88,0,0,0-2.1,5.84,8.14,8.14,0,0,0,1.12,4.45,6.73,6.73,0,0,0,2.83,2.58,8.1,8.1,0,0,0,3.53.82A7.79,7.79,0,0,0,153.45,457.47Z"/><path d="M169,459.74a9.91,9.91,0,0,1-3.15-3.59,2.42,2.42,0,0,1-.29-.8,1.32,1.32,0,0,1,.52-1,1.79,1.79,0,0,1,1.16-.44.89.89,0,0,1,.65.23,8.6,8.6,0,0,1,.65.82,10.67,10.67,0,0,0,2.23,2.54,4.81,4.81,0,0,0,3.11.95,5,5,0,0,0,3-.88,2.67,2.67,0,0,0,1.2-2.23,2.26,2.26,0,0,0-.66-1.64,4.93,4.93,0,0,0-1.59-1.09c-.63-.28-1.53-.63-2.71-1.05-1.48-.53-2.68-1-3.59-1.45a6.53,6.53,0,0,1-2.33-1.85,4.66,4.66,0,0,1-1-3,5.57,5.57,0,0,1,.9-3.05,6.48,6.48,0,0,1,2.59-2.24,9.31,9.31,0,0,1,7.73,0,6.69,6.69,0,0,1,2.6,2.22,5.48,5.48,0,0,1,.92,3.07,1.92,1.92,0,0,1-.31,1.22,1.39,1.39,0,0,1-1.11.37,1.47,1.47,0,0,1-1.12-.31,1.34,1.34,0,0,1-.31-.82,3.91,3.91,0,0,0-1.39-2.92,5,5,0,0,0-3.15-.94,4.08,4.08,0,0,0-3.21,1.07,3.39,3.39,0,0,0-.95,2.29,2.47,2.47,0,0,0,1.24,2.2,20.26,20.26,0,0,0,3.85,1.7,33.45,33.45,0,0,1,3.57,1.47,6.92,6.92,0,0,1,2.28,1.85,4.53,4.53,0,0,1,.95,2.94,5,5,0,0,1-2.14,4.28,8.75,8.75,0,0,1-5.29,1.56A8.31,8.31,0,0,1,169,459.74Z"/><path d="M200,454.45a2,2,0,0,1,.31,1.28,5.16,5.16,0,0,1-1.44,3.7,5,5,0,0,1-3.72,1.51,4.69,4.69,0,0,1-4.52-2.77q-1.36-2.78-1.36-8.61c0-1.46.07-3.13.21-5l-2.61-.21a1.25,1.25,0,0,1-1.25-1.39c0-.84.4-1.26,1.21-1.26.23,0,.7,0,1.43.09s1.09.08,1.43.08c.19-2.07.53-4.68,1-7.81a1.44,1.44,0,0,1,.44-.95,1.72,1.72,0,0,1,1.15-.31,1.81,1.81,0,0,1,1.26.42,1.12,1.12,0,0,1,.38,1l-.21,1.38q-.63,4.88-.8,6.39l3.36.08a1.56,1.56,0,0,1,.95.25,1.09,1.09,0,0,1,.31.89,1.41,1.41,0,0,1-.31,1.07,2.09,2.09,0,0,1-1.2.31c-.87,0-2,0-3.36,0-.14,1.77-.21,3.39-.21,4.88a24.77,24.77,0,0,0,.65,6.38q.66,2.31,2.37,2.31a1.76,1.76,0,0,0,1.47-.71,3.81,3.81,0,0,0,.63-2.15,1.84,1.84,0,0,1,.28-1c.15-.21.51-.32,1.07-.32A1.37,1.37,0,0,1,200,454.45Z"/><path d="M210.19,471.37a1.39,1.39,0,0,1-.48-1.07,1.58,1.58,0,0,1,.13-.58q2.31-5.72,3.94-10.34a13.39,13.39,0,0,1-3.65-4.11,43.6,43.6,0,0,1-3.51-6.83,54,54,0,0,1-2.41-7,1.63,1.63,0,0,1-.09-.55,1.16,1.16,0,0,1,.42-.88,1.78,1.78,0,0,1,1.22-.38,1.25,1.25,0,0,1,.88.25,2,2,0,0,1,.42.89q4.29,13.18,7.82,15.49,2.55-9.06,4.24-15.66a1.67,1.67,0,0,1,.46-.84,1.39,1.39,0,0,1,.92-.25c1,0,1.64.42,1.81,1.26a1,1,0,0,1,0,.46q-1.43,5.88-2.33,9.11t-2.25,7.14c-.64,1.85-1.45,4.11-2.41,6.78s-1.78,4.83-2.42,6.45a1.8,1.8,0,0,1-.57.86,1.44,1.44,0,0,1-.9.28A1.69,1.69,0,0,1,210.19,471.37Z"/><path d="M241.46,441.05a6,6,0,0,1,1.51,4.14,4.79,4.79,0,0,1-1.38,3.63,5,5,0,0,1-3.57,1.32,2.14,2.14,0,0,1-1.2-.25,1,1,0,0,1-.36-.92,1,1,0,0,1,1-1.14c1.82-.16,2.73-1.06,2.73-2.68a3.52,3.52,0,0,0-.71-2.23,2.73,2.73,0,0,0-2.31-.92,3.76,3.76,0,0,0-2.92,1.42,10.36,10.36,0,0,0-2,3.55,15.91,15.91,0,0,0-.84,4.18c-.17,2.58-.25,5-.25,7.31a5.27,5.27,0,0,1-.32,2.27,1.31,1.31,0,0,1-1.24.54,1.56,1.56,0,0,1-1.28-.44,2.45,2.45,0,0,1-.36-1.53l0-8q0-2.77-.42-7.31c-.17-1.76-.26-3-.29-3.78a1.17,1.17,0,0,1,.38-1,1.74,1.74,0,0,1,1.17-.36,1.22,1.22,0,0,1,1.39,1.26c.17,1.77.26,3.49.29,5.17A8.38,8.38,0,0,1,233,440.9a6.23,6.23,0,0,1,4.24-1.55A5.35,5.35,0,0,1,241.46,441.05Z"/><path d="M249.9,460.81a1,1,0,0,1-.46-.84V430.28a1.33,1.33,0,0,1,.42-1,1.71,1.71,0,0,1,1.18-.38,1.82,1.82,0,0,1,1.19.36,1.27,1.27,0,0,1,.45,1.07l-.09,14.87,3.07-1.73q6.34-3.57,8.4-4.83a2.13,2.13,0,0,1,1-.37,1.25,1.25,0,0,1,1,.6,2.19,2.19,0,0,1,.44,1.33c0,.31-.3.64-.92,1l-12.94,7.68,13.11,9.33a1.11,1.11,0,0,1,.42.92,1.6,1.6,0,0,1-.53,1.15,1.49,1.49,0,0,1-1.07.53,2.6,2.6,0,0,1-1.26-.46l-4.32-3c-2.05-1.51-4.16-3-6.35-4.49l0,7.14a1.06,1.06,0,0,1-.44.88,1.75,1.75,0,0,1-1.11.34A1.86,1.86,0,0,1,249.9,460.81Z"/><path d="M275.29,459.61a9.86,9.86,0,0,1-3.78-3.94,11.49,11.49,0,0,1-1.28-5.36,11.35,11.35,0,0,1,1.35-5.48,10.05,10.05,0,0,1,3.82-4,11,11,0,0,1,5.71-1.47,11.12,11.12,0,0,1,5.12,1.16,8.59,8.59,0,0,1,3.53,3.21,8.82,8.82,0,0,1,1.26,4.7,4,4,0,0,1-.29,1.79q-.3.53-1.47.57l-16,.33a6.58,6.58,0,0,0,1,3.28,8,8,0,0,0,2.75,2.81,7.52,7.52,0,0,0,4.14,1.14,7.81,7.81,0,0,0,3-.53,6.57,6.57,0,0,0,2-1.2,19.91,19.91,0,0,0,1.72-1.89,1.08,1.08,0,0,1,.92-.37,1.53,1.53,0,0,1,1,.42,1.26,1.26,0,0,1,.49,1,1.53,1.53,0,0,1-.34.88,12.85,12.85,0,0,1-3.26,3.15,9.55,9.55,0,0,1-5.43,1.31A11.36,11.36,0,0,1,275.29,459.61Zm12.58-11.36c.28,0,.42-.19.42-.58a5,5,0,0,0-2-4.1,8,8,0,0,0-5.09-1.57,7.37,7.37,0,0,0-4.11,1.17,9.33,9.33,0,0,0-2.82,2.77,5.38,5.38,0,0,0-1,2.69Z"/><path class="cls-1" d="M614.24,253.12c0,20.78-39,17.08-82.13,17.08s-74,3.7-74-17.08S493,234,536.16,234,614.24,232.33,614.24,253.12Z"/><path class="cls-1" d="M614.24,349.54c0,20.79-39,17.08-82.13,17.08s-74,3.71-74-17.08,35-19.17,78.08-19.17S614.24,328.76,614.24,349.54Z"/><path class="cls-1" d="M574.24,536c0,20.79-57,18.05-237.17,18.05s-199.62,2.77-199.62-18S173.83,517.83,354,517.83,574.24,515.25,574.24,536Z"/><path class="cls-3" d="M501.75,251.32c0,8.45-7.41,17-16.55,17s-18-8.59-18-17,8.9-15.3,18-15.3S501.75,242.87,501.75,251.32Z"/><path class="cls-3" d="M605,347.74c0,8.45-7.41,17-16.55,17s-18-8.59-18-17,8.9-15.3,18-15.3S605,339.29,605,347.74Z"/><path class="cls-3" d="M446.9,535.09c0,8.45-7.41,17-16.55,17s-18-8.59-18-17,8.9-15.3,18-15.3S446.9,526.64,446.9,535.09Z"/><path d="M479.69,206.15a.78.78,0,0,1,.21.6.94.94,0,0,1-.23.65.64.64,0,0,1-.62.2c-.9-.12-1.69-.2-2.38-.25s-1.45-.07-2.3-.07c-.66,0-1.66,0-3,.1.15,1.75.24,3.75.25,6,.62,0,1.34-.08,2.15-.08a32.47,32.47,0,0,1,3.93.18.81.81,0,0,1,.59.3,1,1,0,0,1,.18.6.82.82,0,0,1-.2.58.76.76,0,0,1-.65.22c-1.2-.09-2.49-.13-3.87-.13-.77,0-1.48,0-2.13.08q0,4.17-.25,7.07a.84.84,0,0,1-.3.56,1,1,0,0,1-.67.22,1,1,0,0,1-.71-.23.63.63,0,0,1-.24-.57q.26-2.84.27-6.88l-1.1.15a.58.58,0,0,1-.56-.2,1,1,0,0,1-.21-.65.82.82,0,0,1,.82-.9l1.05-.12a57.53,57.53,0,0,0-.3-6.1l-.7,0a.87.87,0,0,1-.71-.2.94.94,0,0,1-.21-.67.88.88,0,0,1,.19-.6.84.84,0,0,1,.66-.25l.6-.05,0-.3a.86.86,0,0,1,.24-.68,1.07,1.07,0,0,1,.74-.25.91.91,0,0,1,1,.95l0,.18c1,0,2-.08,3.05-.08s2.06,0,2.94.09a12.18,12.18,0,0,1,1.91.24A1.24,1.24,0,0,1,479.69,206.15Z"/><path d="M490.82,211.29a3.55,3.55,0,0,1,.9,2.46,2.83,2.83,0,0,1-.82,2.16,2.94,2.94,0,0,1-2.13.79,1.27,1.27,0,0,1-.71-.15.63.63,0,0,1-.21-.55.58.58,0,0,1,.62-.67c1.09-.1,1.63-.64,1.63-1.6a2.08,2.08,0,0,0-.43-1.33,1.61,1.61,0,0,0-1.37-.55,2.25,2.25,0,0,0-1.74.85,6.2,6.2,0,0,0-1.16,2.11,9.83,9.83,0,0,0-.5,2.49c-.1,1.54-.15,3-.15,4.35a3,3,0,0,1-.19,1.35.77.77,0,0,1-.74.33.92.92,0,0,1-.76-.27,1.46,1.46,0,0,1-.21-.91l0-4.77c0-1.1-.08-2.55-.25-4.35-.1-1.05-.15-1.8-.17-2.25a.72.72,0,0,1,.22-.62,1.06,1.06,0,0,1,.7-.21.73.73,0,0,1,.83.75c.1,1.05.16,2.08.17,3.08a5.06,5.06,0,0,1,1.48-2.58,3.71,3.71,0,0,1,2.52-.92A3.15,3.15,0,0,1,490.82,211.29Z"/><path d="M507.15,221.7a.72.72,0,0,1,.17.55.93.93,0,0,1-.18.6.65.65,0,0,1-.52.23,2.75,2.75,0,0,1-1.51-.33,2.61,2.61,0,0,1-.84-1.22c-.75,1.21-2.08,1.82-4,1.82a5.46,5.46,0,0,1-3.27-.9,5,5,0,0,1-1.79-2.29,8,8,0,0,1-.54-2.93,7.46,7.46,0,0,1,.68-3.15,5.64,5.64,0,0,1,2-2.38,5.39,5.39,0,0,1,3.13-.9,4.56,4.56,0,0,1,2.18.5,3.75,3.75,0,0,1,1.45,1.4l.1-.82c0-.62.31-.93.85-.93a1.08,1.08,0,0,1,.76.24.57.57,0,0,1,.21.56l-.07.63a21.14,21.14,0,0,0-.25,2.17c-.05.63-.08,1.48-.08,2.55v1.73a12.2,12.2,0,0,0,.07,1.58,1.67,1.67,0,0,0,.26.79.82.82,0,0,0,.67.3A1,1,0,0,1,507.15,221.7Zm-3.4-5.92a3.44,3.44,0,0,0-.53-2A3,3,0,0,0,502,212.7a3.54,3.54,0,0,0-1.43-.32,3.31,3.31,0,0,0-2.21.75A4.43,4.43,0,0,0,497,215a6.54,6.54,0,0,0-.41,2.23,5.84,5.84,0,0,0,.86,3.13,3.08,3.08,0,0,0,2.84,1.39,3.82,3.82,0,0,0,2.44-.76,2.68,2.68,0,0,0,1-2.19C503.74,218,503.75,217,503.75,215.78Z"/><path d="M479.69,304.39a.77.77,0,0,1,.21.59,1,1,0,0,1-.23.66.66.66,0,0,1-.62.19c-.9-.11-1.69-.19-2.38-.25s-1.45-.07-2.3-.07c-.66,0-1.66,0-3,.1.15,1.75.24,3.75.25,6,.62-.05,1.34-.08,2.15-.08a32.47,32.47,0,0,1,3.93.18.81.81,0,0,1,.59.3,1,1,0,0,1,.18.6.86.86,0,0,1-.2.59.73.73,0,0,1-.65.21c-1.2-.08-2.49-.13-3.87-.13-.77,0-1.48,0-2.13.08q0,4.17-.25,7.07a.84.84,0,0,1-.3.57,1.19,1.19,0,0,1-1.38,0,.63.63,0,0,1-.24-.57c.17-1.88.26-4.18.27-6.88l-1.1.15a.56.56,0,0,1-.56-.2,1,1,0,0,1-.21-.65.82.82,0,0,1,.82-.9l1.05-.12a57.68,57.68,0,0,0-.3-6.1l-.7,0a.87.87,0,0,1-.71-.2.93.93,0,0,1-.21-.67.77.77,0,0,1,.85-.85l.6-.05,0-.3a.88.88,0,0,1,.24-.68,1.07,1.07,0,0,1,.74-.25.91.91,0,0,1,1,.95l0,.18c1-.05,2-.08,3.05-.08s2.06,0,2.94.09a12.18,12.18,0,0,1,1.91.24A1.16,1.16,0,0,1,479.69,304.39Z"/><path d="M490.82,309.52a3.59,3.59,0,0,1,.9,2.46,2.86,2.86,0,0,1-.82,2.17,3,3,0,0,1-2.13.78,1.19,1.19,0,0,1-.71-.15.63.63,0,0,1-.21-.55.59.59,0,0,1,.62-.67c1.09-.1,1.63-.63,1.63-1.6a2,2,0,0,0-.43-1.32,1.61,1.61,0,0,0-1.37-.56,2.25,2.25,0,0,0-1.74.85,6.25,6.25,0,0,0-1.16,2.12,9.75,9.75,0,0,0-.5,2.48c-.1,1.54-.15,3-.15,4.36a3,3,0,0,1-.19,1.34.77.77,0,0,1-.74.33,1,1,0,0,1-.76-.26,1.5,1.5,0,0,1-.21-.91l0-4.78c0-1.1-.08-2.55-.25-4.35-.1-1.05-.15-1.8-.17-2.25a.69.69,0,0,1,.22-.61,1.07,1.07,0,0,1,.7-.22.73.73,0,0,1,.83.75c.1,1.05.16,2.08.17,3.08a5.06,5.06,0,0,1,1.48-2.58,3.71,3.71,0,0,1,2.52-.92A3.18,3.18,0,0,1,490.82,309.52Z"/><path d="M507.15,319.93a.74.74,0,0,1,.17.55.93.93,0,0,1-.18.6.65.65,0,0,1-.52.23,2.75,2.75,0,0,1-1.51-.33,2.55,2.55,0,0,1-.84-1.22c-.75,1.22-2.08,1.82-4,1.82a5.46,5.46,0,0,1-3.27-.9,5,5,0,0,1-1.79-2.28,8.07,8.07,0,0,1-.54-2.94,7.46,7.46,0,0,1,.68-3.15,5.7,5.7,0,0,1,2-2.38,5.39,5.39,0,0,1,3.13-.9,4.56,4.56,0,0,1,2.18.5,3.75,3.75,0,0,1,1.45,1.4l.1-.82c0-.62.31-.93.85-.93a1.08,1.08,0,0,1,.76.24.57.57,0,0,1,.21.56l-.07.63a21.14,21.14,0,0,0-.25,2.17c-.05.64-.08,1.49-.08,2.55v1.73a12.28,12.28,0,0,0,.07,1.59,1.66,1.66,0,0,0,.26.78.79.79,0,0,0,.67.3A1.09,1.09,0,0,1,507.15,319.93Zm-3.4-5.92a3.44,3.44,0,0,0-.53-2,3,3,0,0,0-1.27-1.09,3.72,3.72,0,0,0-1.43-.32,3.31,3.31,0,0,0-2.21.75,4.43,4.43,0,0,0-1.3,1.87,6.59,6.59,0,0,0-.41,2.23,5.88,5.88,0,0,0,.86,3.14A3.09,3.09,0,0,0,500.3,320a3.82,3.82,0,0,0,2.44-.76,2.68,2.68,0,0,0,1-2.19C503.74,316.25,503.75,315.24,503.75,314Z"/><path d="M583.9,206.8a.94.94,0,0,1-.25.69.88.88,0,0,1-.7.21c-1.52-.11-2.88-.18-4.08-.2q-.2,2.33-.32,6.73l0,.52q-.16,5.1-.17,7.58a1.12,1.12,0,0,1-.24.81,1.08,1.08,0,0,1-.79.24,1,1,0,0,1-.8-.28,1.62,1.62,0,0,1-.22-1c0-.51,0-1.44.07-2.76s.09-2.36.13-3.11l.07-1.45.35-7.28c-1.28,0-2.68.13-4.2.28a.87.87,0,0,1-.71-.19.9.9,0,0,1-.26-.71.75.75,0,0,1,.75-.85,51,51,0,0,1,5.55-.3,48.14,48.14,0,0,1,5,.17C583.6,206,583.9,206.27,583.9,206.8Z"/><path d="M587.87,208.54a1.48,1.48,0,0,1-.45-1.11,1.52,1.52,0,0,1,.45-1.12,1.58,1.58,0,0,1,1.15-.43,1.53,1.53,0,0,1,1.11.42,1.45,1.45,0,0,1,.44,1.1,1.51,1.51,0,0,1-.46,1.13A1.58,1.58,0,0,1,589,209,1.53,1.53,0,0,1,587.87,208.54Zm0,14.21a.76.76,0,0,1-.26-.6l.25-10.62a.81.81,0,0,1,.26-.65,1.09,1.09,0,0,1,.72-.23,1.06,1.06,0,0,1,.71.23.84.84,0,0,1,.26.67l-.25,10.6a.79.79,0,0,1-.29.61,1,1,0,0,1-.68.22A1.09,1.09,0,0,1,587.88,222.75Z"/><path d="M594.73,222.68a.83.83,0,0,1-.26-.65l-.15-17.8a.82.82,0,0,1,.28-.67,1.09,1.09,0,0,1,.72-.23,1,1,0,0,1,.68.23.87.87,0,0,1,.25.64l.12,17.83a.83.83,0,0,1-.26.65,1,1,0,0,1-.69.22A1,1,0,0,1,594.73,222.68Z"/><path d="M583.9,305a.94.94,0,0,1-.25.69.88.88,0,0,1-.7.21c-1.52-.11-2.88-.18-4.08-.2-.13,1.55-.24,3.8-.32,6.73l0,.52c-.11,3.41-.17,5.93-.17,7.58a1.12,1.12,0,0,1-.24.81,1.08,1.08,0,0,1-.79.24,1,1,0,0,1-.8-.28,1.62,1.62,0,0,1-.22-1c0-.51,0-1.43.07-2.76s.09-2.36.13-3.11l.07-1.45.35-7.28c-1.28,0-2.68.13-4.2.28a.87.87,0,0,1-.71-.19.89.89,0,0,1-.26-.71.75.75,0,0,1,.75-.85,51,51,0,0,1,5.55-.3,47.4,47.4,0,0,1,5,.18C583.6,304.2,583.9,304.5,583.9,305Z"/><path d="M587.87,306.77a1.59,1.59,0,0,1,0-2.22,1.58,1.58,0,0,1,1.15-.44,1.53,1.53,0,0,1,1.11.42,1.45,1.45,0,0,1,.44,1.11,1.5,1.5,0,0,1-.46,1.12,1.58,1.58,0,0,1-1.14.45A1.53,1.53,0,0,1,587.87,306.77Zm0,14.21a.74.74,0,0,1-.26-.59l.25-10.63a.83.83,0,0,1,.26-.65,1.09,1.09,0,0,1,.72-.22,1.06,1.06,0,0,1,.71.22.84.84,0,0,1,.26.67l-.25,10.61a.81.81,0,0,1-.29.61,1.22,1.22,0,0,1-1.4,0Z"/><path d="M594.73,320.91a.83.83,0,0,1-.26-.65l-.15-17.8a.81.81,0,0,1,.28-.66,1,1,0,0,1,.72-.24.94.94,0,0,1,.68.24.86.86,0,0,1,.25.63l.12,17.83a.83.83,0,0,1-.26.65,1,1,0,0,1-.69.23A1,1,0,0,1,594.73,320.91Z"/><path d="M159.21,513.88a2.35,2.35,0,0,1-1.35-1.56,13.89,13.89,0,0,1-.32-3.49c0-1.81.09-3.59.26-5.32s.45-3.73.81-6a.88.88,0,0,1,.33-.56,1.12,1.12,0,0,1,.7-.22c.6,0,.9.28.9.83a.73.73,0,0,1,0,.25c-.43,2.83-.73,5-.88,6.37a42.23,42.23,0,0,0-.24,4.7,10.43,10.43,0,0,0,.19,2.39,1.49,1.49,0,0,0,.78,1,4.65,4.65,0,0,0,1.95.3,17.88,17.88,0,0,0,2.47-.15c.7-.1,1.62-.27,2.73-.5a.9.9,0,0,1,.25,0,.7.7,0,0,1,.59.25,1,1,0,0,1,.19.63.77.77,0,0,1-.25.62,1.77,1.77,0,0,1-.78.35,21.57,21.57,0,0,1-5,.55A8.78,8.78,0,0,1,159.21,513.88Z"/><path d="M183.09,512.88a.74.74,0,0,1,.17.55.93.93,0,0,1-.18.6.65.65,0,0,1-.52.23,2.75,2.75,0,0,1-1.51-.33,2.55,2.55,0,0,1-.84-1.22c-.75,1.22-2.08,1.82-4,1.82a5.46,5.46,0,0,1-3.27-.9,5,5,0,0,1-1.79-2.28,8.07,8.07,0,0,1-.54-2.94,7.46,7.46,0,0,1,.68-3.15,5.7,5.7,0,0,1,2-2.38,5.39,5.39,0,0,1,3.13-.9,4.56,4.56,0,0,1,2.18.5,3.75,3.75,0,0,1,1.45,1.4l.1-.82c0-.62.31-.93.85-.93a1.08,1.08,0,0,1,.76.24.57.57,0,0,1,.21.56l-.07.63a21.14,21.14,0,0,0-.25,2.17c0,.64-.08,1.49-.08,2.55V510a12.28,12.28,0,0,0,.07,1.59,1.66,1.66,0,0,0,.26.78.79.79,0,0,0,.67.3A1.09,1.09,0,0,1,183.09,512.88Zm-3.4-5.92a3.44,3.44,0,0,0-.53-2,3,3,0,0,0-1.27-1.09,3.72,3.72,0,0,0-1.43-.32,3.31,3.31,0,0,0-2.21.75,4.43,4.43,0,0,0-1.3,1.87,6.59,6.59,0,0,0-.41,2.23,5.88,5.88,0,0,0,.86,3.14,3.09,3.09,0,0,0,2.84,1.38,3.82,3.82,0,0,0,2.44-.76,2.68,2.68,0,0,0,1-2.19C179.68,509.2,179.69,508.19,179.69,507Z"/><path d="M189.33,512.68a17.93,17.93,0,0,1-1.84-4,35.85,35.85,0,0,1-1.06-3.5,11.48,11.48,0,0,1-.44-2.5.91.91,0,0,1,.26-.71,1,1,0,0,1,.71-.24.93.93,0,0,1,.64.21,1,1,0,0,1,.29.59,30.07,30.07,0,0,0,1.25,5.3,20,20,0,0,0,1.19,2.87c.42.84.72,1.25.88,1.25s.51-.39.93-1.18a25.68,25.68,0,0,0,1.27-2.94,23.16,23.16,0,0,0,1.4-5.4,1,1,0,0,1,.3-.6,1,1,0,0,1,.65-.23.9.9,0,0,1,.7.28,1,1,0,0,1,.25.72,10.75,10.75,0,0,1-.44,2.47,34.55,34.55,0,0,1-1.13,3.51q-2.13,5.55-3.9,5.55C190.6,514.16,190,513.67,189.33,512.68Z"/><path d="M521.71,506.43c0,.59-.38.88-1.13.88h-.4l.18,6.07a.88.88,0,0,1-.23.69.89.89,0,0,1-.7.26,1,1,0,0,1-.72-.23,1,1,0,0,1-.28-.67l-.17-6.17-8.25-.13-.53,6.63c-.05.47-.36.7-1,.7s-1-.28-1-.85l.52-6.53h-.47a1.17,1.17,0,0,1-.73-.22.85.85,0,0,1,0-1.3,1.27,1.27,0,0,1,.78-.23h.57l.65-8.2a.84.84,0,0,1,.31-.66,1.17,1.17,0,0,1,.69-.21.84.84,0,0,1,.73.29,1,1,0,0,1,.2.71l-.65,8.12,8.05.13-.25-8.3a.94.94,0,0,1,.25-.7.92.92,0,0,1,.7-.25,1,1,0,0,1,.71.25.84.84,0,0,1,.26.62l.25,8.4h.45C521.33,505.53,521.71,505.83,521.71,506.43Z"/><path d="M536.55,505.2a7.66,7.66,0,0,1,.53,2.91,5.89,5.89,0,0,1-1.78,4.64,6.86,6.86,0,0,1-4.72,1.58,7.27,7.27,0,0,1-4.25-1.17l-1.15,1.32a1.18,1.18,0,0,1-.27.25.64.64,0,0,1-.33.08.75.75,0,0,1-.48-.2.58.58,0,0,1-.24-.43.78.78,0,0,1,.2-.55l1.22-1.42a6.38,6.38,0,0,1-1.25-4.08,7.69,7.69,0,0,1,.77-3.51,5.53,5.53,0,0,1,2.21-2.36,6.6,6.6,0,0,1,3.42-.85,7.15,7.15,0,0,1,3.43.8l1.32-1.53a.83.83,0,0,1,.65-.35.64.64,0,0,1,.49.22.66.66,0,0,1,.21.48.62.62,0,0,1-.2.48L535,503A6,6,0,0,1,536.55,505.2Zm-10,5.51,6.17-7.18a4.74,4.74,0,0,0-2.25-.55,4.2,4.2,0,0,0-3.29,1.4,5.42,5.42,0,0,0-1.23,3.7A5.33,5.33,0,0,0,526.56,510.71Zm7.29.86a4.47,4.47,0,0,0,1.31-3.49,5.32,5.32,0,0,0-1.3-3.7l-6.38,7.43a5.29,5.29,0,0,0,6.37-.24Z"/><path d="M537,519.22a3.38,3.38,0,0,1-1-2.51,1.19,1.19,0,0,1,.2-.8.86.86,0,0,1,.67-.23.83.83,0,0,1,.93.83,3.23,3.23,0,0,0,.51,1.64,1.35,1.35,0,0,0,1.11.48q2.36,0,2.45-4.92.15-6.08.15-11.1a.68.68,0,0,1,.24-.54,1.09,1.09,0,0,1,.74-.21c.61,0,.92.27.92.8,0,3.53,0,7.22-.15,11.05a9.53,9.53,0,0,1-1.17,4.84,3.43,3.43,0,0,1-3,1.66A3.52,3.52,0,0,1,537,519.22Zm4.93-19.52a1.52,1.52,0,0,1,0-2.18,1.6,1.6,0,0,1,1.15-.44,1.54,1.54,0,0,1,1.14.44,1.49,1.49,0,0,1,.44,1.09,1.45,1.45,0,0,1-.46,1.1,1.61,1.61,0,0,1-1.12.42A1.56,1.56,0,0,1,541.9,499.7Z"/></svg>
