<svg id="Layer_1" data-name="Layer 1" xmlns="http://www.w3.org/2000/svg" width="80" height="70" viewBox="0 0 80 70"><defs><style>.cls-1{fill:#b824d1;stroke:#000;stroke-miterlimit:10;stroke-width:0.25px;}.cls-2{fill:#cf6bd1;}</style></defs><title>kryds_knap</title><path class="cls-1" d="M75.29,35C75.29,53.2,53.83,67.35,40,68,20.55,68.84,4.71,53.2,4.71,35S23.18,1.5,40,2C55.51,2.47,75.29,16.77,75.29,35Z"/><path class="cls-2" d="M43.22,32.35C38.86,44,34.76,53.3,32.86,52.59c-2.1-.78-.79-11.22,3.56-22.9s9.64-21.14,12.2-19.4C51,11.93,47.57,20.67,43.22,32.35Z"/><path class="cls-2" d="M42.92,30.34c6.71,11.85,11.25,21.54,9.48,22.19-1.94.73-9.08-8.05-15.78-19.89s-11.5-22.73-8.49-23C31,9.4,36.22,18.5,42.92,30.34Z"/></svg>
