<svg id="Layer_1" data-name="Layer 1" xmlns="http://www.w3.org/2000/svg" width="170" height="170" viewBox="0 0 170 170"><defs><style>.cls-1{opacity:0.8;}.cls-2{fill:#2e262a;}</style></defs><title>lakrids_stjerne</title><polygon class="cls-1" points="168.99 115.14 110.03 117.19 78.34 165.8 58.13 111.66 1.01 97.23 47.47 61.72 43.87 4.2 92.8 36.39 147.68 15.27 131.46 70.67 168.99 115.14"/><polygon points="133.42 102.28 99.43 103.5 81.12 131.51 69.5 100.35 36.58 92.09 63.39 71.61 61.36 38.49 89.55 56.99 121.21 44.79 111.81 76.7 133.42 102.28"/><path class="cls-2" d="M87.21,79.64h0a1.35,1.35,0,0,1-1.85-.36L63.3,47.07a1.29,1.29,0,0,1,.37-1.81h0a1.35,1.35,0,0,1,1.85.36L87.58,77.83A1.28,1.28,0,0,1,87.21,79.64Z"/><path class="cls-2" d="M88.41,73.67h0a1.24,1.24,0,0,1-.73,1.62L46.2,91.06a1.3,1.3,0,0,1-1.66-.71h0a1.24,1.24,0,0,1,.73-1.62L86.75,73A1.29,1.29,0,0,1,88.41,73.67Z"/><path class="cls-2" d="M86.34,74.73h0a1.29,1.29,0,0,1,.16-1.84L114.35,50a1.34,1.34,0,0,1,1.88.16h0a1.28,1.28,0,0,1-.16,1.83L88.22,74.89A1.36,1.36,0,0,1,86.34,74.73Z"/><path class="cls-2" d="M82.56,120.13h0a1.32,1.32,0,0,1-1.26-1.38l2.25-39.41A1.33,1.33,0,0,1,85,78.12h0a1.31,1.31,0,0,1,1.26,1.37L84,118.9A1.34,1.34,0,0,1,82.56,120.13Z"/><path class="cls-2" d="M83.56,77h0a1.34,1.34,0,0,1,1.81-.51l35.74,19.12a1.28,1.28,0,0,1,.53,1.77h0a1.35,1.35,0,0,1-1.81.52L84.09,78.79A1.29,1.29,0,0,1,83.56,77Z"/><polygon class="cls-2" points="96.2 82.04 88.34 82.22 84.19 88.75 81.4 81.39 73.76 79.34 79.9 74.61 79.32 66.82 85.9 71.25 93.19 68.48 91.12 75.96 96.2 82.04"/></svg>
