<svg id="Layer_1" data-name="Layer 1" xmlns="http://www.w3.org/2000/svg" width="100" height="120" viewBox="0 0 100 120"><defs><style>.cls-1{fill:#14130d;}.cls-2{fill:#ef8626;}.cls-3{fill:#b824d1;}.cls-4{fill:#ff3ff6;opacity:0.5;}</style></defs><title>lakridskonfekt</title><polygon class="cls-1" points="61.47 109.27 16.84 21.58 38.53 10.73 83.16 98.42 61.47 109.27"/><path class="cls-2" d="M83.16,98.42,38.82,11.29a.62.62,0,0,1,.28-.84l10.2-5.1a4.88,4.88,0,0,1,6.53,2.13L96.07,86.56A4.8,4.8,0,0,1,93.92,93Z"/><path class="cls-3" d="M16.84,21.58l44.34,87.13a.62.62,0,0,1-.28.84l-10.2,5.1a4.88,4.88,0,0,1-6.53-2.13L3.93,33.44A4.8,4.8,0,0,1,6.08,27Z"/><ellipse class="cls-4" cx="47.51" cy="104.36" rx="3.16" ry="7.25" transform="translate(-57 57.18) rotate(-41.23)"/></svg>
