<svg id="Layer_1" data-name="Layer 1" xmlns="http://www.w3.org/2000/svg" width="290" height="100" viewBox="0 0 290 100"><defs><style>.cls-1{fill:#b824d1;}.cls-2{fill:#cf6bd1;}</style></defs><title>luk_knap</title><rect class="cls-1" x="3.89" y="2.86" width="282.22" height="94.28" rx="21.02"/><rect class="cls-2" x="13.86" y="8.57" width="256.6" height="78.74" rx="21.02"/><path d="M114.44,58.11a4.29,4.29,0,0,1-2.36-2.73,22.24,22.24,0,0,1-.58-5.89,76.88,76.88,0,0,1,.41-8.23c.27-2.5.64-5.12,1.11-7.88a2.21,2.21,0,0,1,1-1.5,3.49,3.49,0,0,1,2-.56,2.81,2.81,0,0,1,2,.64,2.26,2.26,0,0,1,.69,1.73,5,5,0,0,1-.08.71q-.83,4.8-1.25,8.17a55.42,55.42,0,0,0-.43,7.08,15.58,15.58,0,0,0,.18,2.8,1.81,1.81,0,0,0,.7,1.25,3,3,0,0,0,1.66.35A53.55,53.55,0,0,0,127.84,53a2.62,2.62,0,0,1,.55,0,2,2,0,0,1,1.62.76,2.79,2.79,0,0,1,.6,1.78q0,2.07-3,2.61c-1.8.34-3.16.57-4.08.68a27.79,27.79,0,0,1-3.49.18A14.33,14.33,0,0,1,114.44,58.11Z"/><path d="M151.08,54.79a6.16,6.16,0,0,0,.51,1.25,2.28,2.28,0,0,1,.27.55,2.08,2.08,0,0,1-.72,1.62,2.78,2.78,0,0,1-1.93.64,2.56,2.56,0,0,1-1.62-.8,3.85,3.85,0,0,1-1.15-1.77q-1.37,2.61-5.11,2.61A6.38,6.38,0,0,1,136,56.47a9.69,9.69,0,0,1-1.89-6.16V41.1a1.74,1.74,0,0,1,.8-1.46,3.37,3.37,0,0,1,2-.56,3.57,3.57,0,0,1,2,.56,1.71,1.71,0,0,1,.84,1.46v9.13a7.33,7.33,0,0,0,.58,3,1.9,1.9,0,0,0,1.79,1.33,2.38,2.38,0,0,0,2.25-1.37,11.15,11.15,0,0,0,.72-4.79V41.18a2,2,0,0,1,.76-1.67,3.06,3.06,0,0,1,2-.63,3.24,3.24,0,0,1,2.08.63,2,2,0,0,1,.8,1.67l.12,11.47A8,8,0,0,0,151.08,54.79Z"/><path d="M157.29,58.54a1.72,1.72,0,0,1-.82-1.44V32.21a2,2,0,0,1,.78-1.67,3.06,3.06,0,0,1,2-.63,3.18,3.18,0,0,1,2,.63,2,2,0,0,1,.8,1.67L162,43.13l2.31-1.48q3.81-2.41,5.57-3.47a2.68,2.68,0,0,1,1.76-.39,2.06,2.06,0,0,1,1.36.92,2.82,2.82,0,0,1,.59,1.69,1.47,1.47,0,0,1-.31,1,5.14,5.14,0,0,1-1.06.82l-9.05,5.57,9.4,7.18a1.79,1.79,0,0,1,.67,1.52,2.15,2.15,0,0,1-.76,1.68,2.64,2.64,0,0,1-1.78.66,3.31,3.31,0,0,1-1.95-.7q-1.37-1-3.86-3.24L162,52.38v4.68a1.79,1.79,0,0,1-.78,1.48,3.16,3.16,0,0,1-1.95.58A3.29,3.29,0,0,1,157.29,58.54Z"/></svg>
