<svg id="Layer_1" data-name="Layer 1" xmlns="http://www.w3.org/2000/svg" width="229.33" height="177.59" viewBox="0 0 229.33 177.59"><defs><style>.cls-1{opacity:0.5;}.cls-2{fill:#6b6a68;}.cls-3{fill:#cf6bd1;}.cls-4{fill:#fff;}.cls-5{fill:none;stroke:#fff;stroke-linecap:round;stroke-miterlimit:10;stroke-width:2px;}</style></defs><title>Play_knap</title><g class="cls-1"><rect class="cls-2" x="14.25" y="17.78" width="200.69" height="132.74" rx="21.02" transform="translate(-10.23 16.08) rotate(-7.69)"/></g><path class="cls-3" d="M24.64,22,169.29,5.15c14.11-1.64,26.89,7.19,28.53,19.73L208,102.36c1.64,12.53-8.48,24-22.59,25.67L40.71,144.85c-14.11,1.64-26.89-7.19-28.53-19.73L2.05,47.64C.41,35.11,10.53,23.61,24.64,22Z"/><path class="cls-4" d="M162.13,61.09c2.24,4,.81,4.36-2.38,7.54L124.24,92.49,89.65,119.8c-5.53,4.37-14.2,1.5-15.05-5l-4.43-34L65.26,43.33c-.73-5.64,5.14-10.28,11.33-8.94L117.2,48.05Z"/><path class="cls-5" d="M10.68,44.73c.34-3,1.39-8.16,8-13.06a25.21,25.21,0,0,1,16.08-5.21"/><path class="cls-5" d="M16.11,42.88c.59-2.14,2-5.82,7.3-8.79a18.81,18.81,0,0,1,12.27-2.32"/><path class="cls-5" d="M163.55,12.11a22.89,22.89,0,0,1,16.6-.7c8,2.48,11.42,7,13,9.59"/><path class="cls-5" d="M168,15.31a16.67,16.67,0,0,1,12.13,1c5.51,2.54,7.47,6.14,8.33,8.18"/><path class="cls-5" d="M201.45,103.11c.15,3-.08,8.24-5.81,13.91a24.55,24.55,0,0,1-15.11,7.19"/><path class="cls-5" d="M196.36,105.63c-.24,2.19-1,6-5.83,9.6a18.46,18.46,0,0,1-11.8,3.85"/><path class="cls-5" d="M41.72,139.45A21.92,21.92,0,0,1,26,134.79c-6.41-4.89-7.76-10.21-8.19-13.17"/><path class="cls-5" d="M38.85,135A15.62,15.62,0,0,1,28,130.18a13.85,13.85,0,0,1-4.41-10.35"/></svg>
