<svg id="Layer_1" data-name="Layer 1" xmlns="http://www.w3.org/2000/svg" width="130" height="70" viewBox="0 0 130 70"><defs><style>.cls-1{fill:#ff9074;}.cls-2{fill:#f7ff4a;}</style></defs><title>point_200</title><ellipse class="cls-1" cx="65.96" cy="35.81" rx="17.16" ry="27.55"/><ellipse class="cls-1" cx="109.38" cy="34.19" rx="17.16" ry="27.55"/><ellipse class="cls-2" cx="65.96" cy="35.81" rx="12.69" ry="21.04"/><ellipse class="cls-2" cx="109.38" cy="34.74" rx="12.69" ry="21.04"/><path class="cls-1" d="M37.06,28.9c1.87-3,3-15-6.65-17.81S2.93,19.84,3.47,23.37c2.39,15.41,14.28-4.68,24-1.9S27,45.09,37.06,28.9Z"/><path class="cls-1" d="M12.53,49.85c-6,4.35-2.26,10,11.7,2.67,8.9-4.72,26.2-25.75,12.4-36.66-1.68-1.33,1.62,6.5-4.51,14.49C28.28,35.35,25.33,40.63,12.53,49.85Z"/><path class="cls-1" d="M11.21,51.29c-5,5.55,1,8.59,16.75,7.93,12.84-.54,15.14,3.12,15.27-5.11,0-2.14-.51-3.33-5.54-3.24C31,51,12.24,50.14,11.21,51.29Z"/><path class="cls-2" d="M39.21,28.84c1.28-2.33-3-13.9-11-15.47S5.78,21.09,6.65,23.63c2.09,6.14,12.65-7.32,20.64-5.74S35.25,36,39.21,28.84Z"/><path class="cls-2" d="M14.31,56c.51,2.61,7.63-4.74,14-9.87,11.17-9,13-20.27,10-24.29-5.25-7.26-2.62,12.34-9.39,16.86S13.48,51.81,14.31,56Z"/><path class="cls-2" d="M16.56,52.9c-1.21.55-3.78,1.83-1.72,3.9C16.49,58.46,40,58,41,55.73c1.89-4.06-9.42-3.56-13.54-3.5S23.92,49.51,16.56,52.9Z"/></svg>
