<svg id="Layer_1" data-name="Layer 1" xmlns="http://www.w3.org/2000/svg" width="120" height="70" viewBox="0 0 120 70"><defs><style>.cls-1{fill:#ff9074;}.cls-2{fill:#f7ff4a;}</style></defs><title>point_500</title><ellipse class="cls-1" cx="57.55" cy="36.91" rx="17.16" ry="27.55"/><ellipse class="cls-1" cx="100.98" cy="35.29" rx="17.16" ry="27.55"/><ellipse class="cls-2" cx="57.55" cy="36.91" rx="12.69" ry="21.04"/><ellipse class="cls-2" cx="100.98" cy="35.84" rx="12.69" ry="21.04"/><path class="cls-1" d="M15.21,23.32c0,15.1-3.27,11.1-7,11.1s-6.39,4-6.39-11.1S4.57,4.86,8.26,4.86,15.21,8.22,15.21,23.32Z"/><path class="cls-1" d="M18.74,18.73c-9.9-.29-14.44-3.8-14.35-8S8.54.47,19.08,3.65c9.57,2.89,17.86,3.89,17.76,8.06S28.64,19,18.74,18.73Z"/><path class="cls-2" d="M21.12,14.88c-7.21-.21-16.79-1.4-16.73-4.11s9.77-4,17-3.77,13.51,1.94,13.45,4.65S28.34,15.08,21.12,14.88Z"/><path class="cls-1" d="M5.37,53.57c-8.11.74,6.07,16.55,18.86,13.19,9.1-2.39,19.56-34.28,1.81-42.51-2.16-1,2.66,6.08-1.36,17.63C22.16,49.11,20.05,52.22,5.37,53.57Z"/><path class="cls-1" d="M33.25,31c-.2,3.74-7.67,5.57-16.83,4.95S2,33.71,2.15,30s5.83-8.16,15-7.54S33.45,27.28,33.25,31Z"/><path class="cls-2" d="M29.44,31.42c-6,2-1.65,2.27-7.46.88-6.16-1.47-17.79-2.61-17.37-4.62s8-3.28,14.1-1.64S34.67,29.68,29.44,31.42Z"/><path class="cls-2" d="M11.75,21.06c0,13.59-.81,4.32-3.21,4.32s-3.77,9.14-3.77-4.45,1.09-9,3.49-9S11.75,7.47,11.75,21.06Z"/><path class="cls-2" d="M8.26,57.93c1.32,2.92,15.94,6.14,21-2.08,9-14.53,3.32-29-1.46-27.38-7.76,2.59,7.78,13.78-1.65,20.69C18.72,54.62,6.12,53.22,8.26,57.93Z"/></svg>
