<svg id="Layer_1" data-name="Layer 1" xmlns="http://www.w3.org/2000/svg" width="120" height="70" viewBox="0 0 120 70"><defs><style>.cls-1{fill:#ff9074;}.cls-2{fill:#f7ff4a;}</style></defs><title>point_400</title><path class="cls-1" d="M30,31.8c.4,3.72-6.66,7.75-15.78,9s-14,1.13-12.83-6.74c.54-3.7,2.28-5.5,11.4-6.74S29.63,28.08,30,31.8Z"/><ellipse class="cls-1" cx="28.32" cy="36.82" rx="6.67" ry="30.17"/><path class="cls-2" d="M31.52,33c0,12.14-.8,28.29-3.2,28.29S24.54,45,24.54,32.84s1.37-22.79,3.78-22.79S31.52,20.82,31.52,33Z"/><ellipse class="cls-1" cx="8.77" cy="21.46" rx="18.7" ry="6.03" transform="translate(-13.89 26.39) rotate(-80.04)"/><path class="cls-2" d="M5.22,35.37c-5.3,1.45-2.65-.66-.61-7,2.16-6.68,4.8-19.53,6.51-18.77s1.74,9.38-.56,16S10.52,33.92,5.22,35.37Z"/><path class="cls-2" d="M27,34.25c-5.57,3.16-1.25,2.57-7.19,2.38-6.3-.2-17.92,1-17.82-1s7.32-4.84,13.61-4.46S31.89,31.49,27,34.25Z"/><ellipse class="cls-1" cx="58.18" cy="34.77" rx="17.16" ry="27.55"/><ellipse class="cls-1" cx="101.6" cy="33.15" rx="17.16" ry="27.55"/><ellipse class="cls-2" cx="58.18" cy="34.77" rx="12.69" ry="21.04"/><ellipse class="cls-2" cx="101.6" cy="33.7" rx="12.69" ry="21.04"/></svg>
