<svg id="Layer_1" data-name="Layer 1" xmlns="http://www.w3.org/2000/svg" width="120" height="70" viewBox="0 0 120 70"><defs><style>.cls-1{fill:#ff9074;}.cls-2{fill:#f7ff4a;}</style></defs><title>point_300</title><ellipse class="cls-1" cx="57.53" cy="37.44" rx="17.16" ry="27.55"/><ellipse class="cls-1" cx="100.95" cy="35.82" rx="17.16" ry="27.55"/><ellipse class="cls-2" cx="57.53" cy="37.44" rx="12.69" ry="21.04"/><ellipse class="cls-2" cx="100.95" cy="36.37" rx="12.69" ry="21.04"/><path class="cls-1" d="M30.27,20.68C31.26,17.17,29,5,18.68,5S.55,14.93,2.08,18.25c6.73,14.52,6.27-2.16,16.6-2.16S25,39.49,30.27,20.68Z"/><path class="cls-1" d="M6.16,33.84c-7.62.62,5.71,13.78,17.73,11,8.56-2,19-30,2.27-36.86-2-.84,3.44,6-.34,15.56C23.45,29.53,20,32.73,6.16,33.84Z"/><path class="cls-2" d="M32.41,18.37C33,15.71,25.49,5.53,17.17,6.24S4.91,14.72,6.48,17c3.81,5.46,2.76-5.32,11.08-6S30.55,26.59,32.41,18.37Z"/><path class="cls-2" d="M8.81,37c1.24,2.42,12.94,8.35,17.72,1.51,8.44-12.09,7-23.66,3-26.8-7.23-5.66.91,12.91-4.47,19.29S6.8,33.11,8.81,37Z"/><path class="cls-1" d="M7.34,53.3c-7.62.61,5.71,13.77,17.73,11,8.56-2,13.74-23.5,6.37-27.73C29.53,35.46,30.78,33.36,27,43,24.63,49,21.14,52.18,7.34,53.3Z"/><path class="cls-2" d="M10,56.49c1.24,2.43,12.94,8.36,17.72,1.51,8.44-12.09,3.91-23.87-1.07-24.88-3.51-.72,5,11-.39,17.38S8,52.57,10,56.49Z"/></svg>
