<svg id="Layer_1" data-name="Layer 1" xmlns="http://www.w3.org/2000/svg" width="130" height="70" viewBox="0 0 130 70"><defs><style>.cls-1{fill:#ff9074;}.cls-2{fill:#f7ff4a;}</style></defs><title>point_100</title><ellipse class="cls-1" cx="15.87" cy="20.27" rx="17.93" ry="6.44" transform="translate(-9.19 14.37) rotate(-38.7)"/><ellipse class="cls-1" cx="29.43" cy="35.83" rx="7.29" ry="28.26"/><ellipse class="cls-1" cx="64.54" cy="35.83" rx="18.17" ry="28.26"/><ellipse class="cls-1" cx="110.53" cy="34.17" rx="18.17" ry="28.26"/><ellipse class="cls-2" cx="64.54" cy="35.83" rx="13.44" ry="21.58"/><path class="cls-2" d="M32.93,32.21c0,11.37-.88,26.5-3.5,26.5S25.3,43.47,25.3,32.1s1.5-21.34,4.13-21.34S32.93,20.85,32.93,32.21Z"/><path class="cls-2" d="M29.15,12.5c-3.76,6.42.23,3.09-5.84,6.79C16.88,23.21,5.94,31.87,4.84,30s4.56-9,11.08-12.82S32.45,6.87,29.15,12.5Z"/><ellipse class="cls-2" cx="110.53" cy="34.74" rx="13.44" ry="21.58"/></svg>
