<svg id="Layer_1" data-name="Layer 1" xmlns="http://www.w3.org/2000/svg" width="290" height="100" viewBox="0 0 290 100"><defs><style>.cls-1{fill:#b824d1;}</style></defs><title>prøv_igen_knap</title><rect class="cls-1" x="3.89" y="2.86" width="282.22" height="94.28" rx="21.02"/><path d="M67.59,32.78A10.13,10.13,0,0,1,71.76,36a8.08,8.08,0,0,1,.18,9.23,9.19,9.19,0,0,1-3.73,3.1A12.15,12.15,0,0,1,63,49.45a17.11,17.11,0,0,1-2.6-.19,13.09,13.09,0,0,1-2.08-.47l-.08,7.8a2.39,2.39,0,0,1-.8,1.85,3.05,3.05,0,0,1-2.13.72,3,3,0,0,1-2.12-.74,2.32,2.32,0,0,1-.72-2q.15-4.05.15-9.08,0-4.77-.19-8.47l-.12.08a1.57,1.57,0,0,1-.7.19,1.23,1.23,0,0,1-1.09-.74,3.29,3.29,0,0,1-.43-1.71,1.77,1.77,0,0,1,.46-1.27,7.84,7.84,0,0,1,1.41-1.07l.31-.2v-.5a2.44,2.44,0,0,1,.7-1.9,3.34,3.34,0,0,1,2.27-.64,5.63,5.63,0,0,1,2.16.29c.4.2.6.4.6.61v0a17.21,17.21,0,0,1,3.82-.43A14.3,14.3,0,0,1,67.59,32.78ZM65.48,43.6a4,4,0,0,0,1.35-3,3.43,3.43,0,0,0-1.47-2.91,6.22,6.22,0,0,0-3.76-1.07,18.86,18.86,0,0,0-3.51.47c0,.44,0,1,0,1.68,0,1,0,2.26.08,3.66,0,.78.08,1.35.08,1.72a8,8,0,0,0,1.69.5,9.8,9.8,0,0,0,2.05.24A4.89,4.89,0,0,0,65.48,43.6Z"/><path d="M90.89,39.29A5.53,5.53,0,0,1,93,41.34a6,6,0,0,1,.78,3.08,4.84,4.84,0,0,1-1.66,3.92,6.46,6.46,0,0,1-4.27,1.38,3.24,3.24,0,0,1-1.91-.41,1.59,1.59,0,0,1-.55-1.38,1.78,1.78,0,0,1,.39-1.31,1.84,1.84,0,0,1,1.09-.44c1.54-.16,2.3-.8,2.3-1.92a1.57,1.57,0,0,0-.33-1.07,1.14,1.14,0,0,0-.91-.37A2.48,2.48,0,0,0,86,44a10.75,10.75,0,0,0-1.49,2.77,13.77,13.77,0,0,0-.74,2.67,45.7,45.7,0,0,0-.27,6.08,4.89,4.89,0,0,1-.6,2.87,2.59,2.59,0,0,1-2.13.76,3.52,3.52,0,0,1-2.13-.54,2.1,2.1,0,0,1-.76-1.68V50.62c0-1.66,0-3.07-.11-4.23s-.21-2.65-.39-4.47l-.16-1.6a1.8,1.8,0,0,1,.64-1.59,3,3,0,0,1,2-.63q2.19,0,2.34,1.95c0,.63.11,1.51.16,2.65a7.57,7.57,0,0,1,2.2-3A5.3,5.3,0,0,1,88,38.57,6,6,0,0,1,90.89,39.29Z"/><path d="M117,45.32a12.17,12.17,0,0,1,.64,4,8.93,8.93,0,0,1-2.85,7.08,11.21,11.21,0,0,1-7.72,2.52,12.92,12.92,0,0,1-5.53-1.09L99.9,59.79a2.47,2.47,0,0,1-.7.6,1.88,1.88,0,0,1-.86.18A2,2,0,0,1,97,60a1.64,1.64,0,0,1-.6-1.25,2,2,0,0,1,.5-1.32l1.6-1.88a9.8,9.8,0,0,1-2.14-6.51,11.19,11.19,0,0,1,1.29-5.42,9.16,9.16,0,0,1,3.64-3.71,11.23,11.23,0,0,1,5.56-1.32,11.6,11.6,0,0,1,5.23,1.13l1.21-1.4a2,2,0,0,1,1.63-.82l.31,0a1.74,1.74,0,0,1,1.14.62,1.86,1.86,0,0,1,.46,1.25,1.74,1.74,0,0,1-.5,1.25L115.15,42A9.62,9.62,0,0,1,117,45.32Zm-14.8,5.89L109,43.33a4.85,4.85,0,0,0-1.95-.39,4.5,4.5,0,0,0-3.67,1.67A6.91,6.91,0,0,0,102,49.1,8.56,8.56,0,0,0,102.24,51.21Zm8.48,2a5.51,5.51,0,0,0,1.31-4,8.53,8.53,0,0,0-.51-3l-6.79,7.92a6,6,0,0,0,2.31.43A4.89,4.89,0,0,0,110.72,53.25Z"/><path d="M125.72,56.76a22.84,22.84,0,0,1-3.12-6.33,49,49,0,0,1-1.54-5.13,18.51,18.51,0,0,1-.65-3.73,2.21,2.21,0,0,1,.78-1.81,3.09,3.09,0,0,1,2-.64,3.26,3.26,0,0,1,1.87.52,2.2,2.2,0,0,1,.94,1.54,64.53,64.53,0,0,0,1.4,6.91q.51,1.9,1,3.39c.37,1,.63,1.48.79,1.48s.52-.58,1-1.75A18.91,18.91,0,0,0,131.41,48c.49-2,.82-3.43,1-4.19s.29-1.67.4-2.71a2.18,2.18,0,0,1,.89-1.54,3.13,3.13,0,0,1,2-.61,3,3,0,0,1,2,.66,2.4,2.4,0,0,1,.76,1.91,16.75,16.75,0,0,1-.64,3.61c-.43,1.65-1,3.39-1.66,5.21a24.79,24.79,0,0,1-3.28,6.41,4.58,4.58,0,0,1-3.58,2.09A4.49,4.49,0,0,1,125.72,56.76Z"/><path d="M158.07,37.46a3.38,3.38,0,0,1-1-2.52,3.24,3.24,0,0,1,1-2.47,3.56,3.56,0,0,1,2.59-1,3.45,3.45,0,0,1,2.53,1,3.25,3.25,0,0,1,1,2.43,3.46,3.46,0,0,1-1,2.54,3.39,3.39,0,0,1-2.55,1A3.45,3.45,0,0,1,158.07,37.46ZM158,58a1.87,1.87,0,0,1-.78-1.67l.31-14.39a2.06,2.06,0,0,1,.82-1.66,3.17,3.17,0,0,1,2-.61,3.34,3.34,0,0,1,2.1.63,1.92,1.92,0,0,1,.78,1.71L163,56.31a2.08,2.08,0,0,1-.84,1.66A3.72,3.72,0,0,1,158,58Z"/><path d="M188.9,56.86v2a9.87,9.87,0,0,1-1.23,4.89,9.18,9.18,0,0,1-3.46,3.51,9.85,9.85,0,0,1-5.14,1.31,10.73,10.73,0,0,1-4.29-.84,7.51,7.51,0,0,1-3.08-2.3,5.1,5.1,0,0,1-1.13-3.22,1.92,1.92,0,0,1,.64-1.6,3.21,3.21,0,0,1,2-.5,2.34,2.34,0,0,1,1.4.39,1.59,1.59,0,0,1,.67,1.09,2.58,2.58,0,0,0,1.09,1.85,4.44,4.44,0,0,0,2.53.61q4.45,0,4.45-5.39c0-.51,0-.94,0-1.28A7.48,7.48,0,0,1,181,58.52a9.26,9.26,0,0,1-2.95.45,9.07,9.07,0,0,1-4.81-1.29A8.88,8.88,0,0,1,170,54.13a10.77,10.77,0,0,1-1.19-5.07A10.52,10.52,0,0,1,170,44a9,9,0,0,1,3.39-3.53,9.66,9.66,0,0,1,4.94-1.27,6.13,6.13,0,0,1,4,1.17l.59-1.17a1.63,1.63,0,0,1,.66-.7,2.3,2.3,0,0,1,1.17-.27,3.88,3.88,0,0,1,2.07.6,1.77,1.77,0,0,1,1,1.51,2.68,2.68,0,0,1-.08.5l-.31.94c-.23.62-.36,1-.39,1.13l.12.78c.42,2.89.79,5.71,1.13,8.46C188.7,55.28,188.9,56.86,188.9,56.86Zm-7.61-2.75a2.64,2.64,0,0,0,1.44-1.46q-.58-4.76-1-7.76a2.88,2.88,0,0,0-1.13-1,3.56,3.56,0,0,0-1.68-.39,3.92,3.92,0,0,0-3.22,1.64,7.26,7.26,0,0,0-.13,8,3.73,3.73,0,0,0,3.27,1.62A5.4,5.4,0,0,0,181.29,54.11Z"/><path d="M196.87,57.88a8.73,8.73,0,0,1-3.65-3.67A11.47,11.47,0,0,1,192,48.9a10.15,10.15,0,0,1,1.38-5.28A9.58,9.58,0,0,1,197.18,40a11.82,11.82,0,0,1,10.22-.23,8.12,8.12,0,0,1,4.74,7.64,3.77,3.77,0,0,1-.6,2.4,2.56,2.56,0,0,1-2,.72h-12.6a3.28,3.28,0,0,0,.66,1.89,5.21,5.21,0,0,0,2,1.62,6.91,6.91,0,0,0,3.16.67,5.75,5.75,0,0,0,2.58-.49,8.71,8.71,0,0,0,1.94-1.46,2.28,2.28,0,0,1,1.53-.67,2.49,2.49,0,0,1,1.67.69,2,2,0,0,1,.78,1.54,2.29,2.29,0,0,1-.47,1.36,7.6,7.6,0,0,1-2.76,2.4,10.3,10.3,0,0,1-5.11,1.11A12.45,12.45,0,0,1,196.87,57.88ZM207,47a.64.64,0,0,0,.45-.11.73.73,0,0,0,.1-.43A3,3,0,0,0,206.07,44a6.19,6.19,0,0,0-3.6-1,6.4,6.4,0,0,0-3,.66,5.3,5.3,0,0,0-1.93,1.62,3.23,3.23,0,0,0-.66,1.81Z"/><path d="M232.24,41.28q1.89,2.4,1.89,7.08l0,8.81a1.35,1.35,0,0,1-.8,1.25,4.1,4.1,0,0,1-2,.43,4.87,4.87,0,0,1-2-.39c-.59-.26-.88-.62-.88-1.09l0-9a9.07,9.07,0,0,0-.62-4,2.09,2.09,0,0,0-2-1.13,2.06,2.06,0,0,0-1.8,1A11.33,11.33,0,0,0,223,48.16a22.55,22.55,0,0,0-.27,3.63l0,5a1.76,1.76,0,0,1-.76,1.54,3.56,3.56,0,0,1-2.05.53,3.48,3.48,0,0,1-2.09-.55,1.78,1.78,0,0,1-.76-1.52q0-8.12-.23-12.63a2.78,2.78,0,0,0-.22-.88,4,4,0,0,0-.41-.76l-.35-.55a1.82,1.82,0,0,1-.23-.86,2,2,0,0,1,.95-1.54,3.12,3.12,0,0,1,1.86-.72,1.49,1.49,0,0,1,.83.27,4.75,4.75,0,0,1,.92.9,4.92,4.92,0,0,1,.63,1,2.47,2.47,0,0,1,.19,1v.35a6.3,6.3,0,0,1,2.13-2.47,7.27,7.27,0,0,1,9.08,1.4Z"/></svg>
