<svg id="Layer_1" data-name="Layer 1" xmlns="http://www.w3.org/2000/svg" width="90" height="130" viewBox="0 0 90 130"><defs><style>.cls-1{fill:#00b414;}.cls-2{fill:#00e014;opacity:0.5;}</style></defs><title>pære</title><path d="M30.49,13c2.05,4.18,6.49,5.14,5.26,5.75a6.41,6.41,0,0,1-7.9-3.2c-2.05-4.18-.76-11.35.47-12S28.44,8.82,30.49,13Z"/><path class="cls-1" d="M85.8,76.92C89.7,95.54,60,132.33,41,124.76,20,116.42,17.27,133.06,4.93,89-.82,68.44,17.34,48.08,39.67,44.75S82.6,61.67,85.8,76.92Z"/><path class="cls-1" d="M68,58.56C89.29,60,65.58,90.89,44.48,94S-7.54,76.21,12.7,69.5C34.92,62.12,12,20.78,33.09,17.64,49.88,15.13,42.6,56.84,68,58.56Z"/><ellipse cx="23.95" cy="117.97" rx="1.09" ry="4.87" transform="translate(-49.48 22.58) rotate(-26.12)"/><ellipse cx="25.82" cy="118.3" rx="1.09" ry="4.87" transform="translate(-36.98 14.77) rotate(-18.93)"/><ellipse cx="27.6" cy="118.04" rx="1.09" ry="4.87" transform="translate(-27.85 10.24) rotate(-14.06)"/><ellipse cx="29.29" cy="118.56" rx="4.56" ry="2.15" transform="translate(-92.55 110.14) rotate(-72.17)"/><ellipse cx="32.64" cy="118.97" rx="4.13" ry="2.42" transform="translate(-90.68 122.34) rotate(-76.23)"/><ellipse cx="35.8" cy="119.37" rx="4.11" ry="1.09" transform="translate(-88.66 125.73) rotate(-76.23)"/><ellipse cx="37.93" cy="120.58" rx="3.71" ry="2.14" transform="translate(-88.48 119.76) rotate(-72.17)"/><ellipse cx="40.13" cy="120.66" rx="4.37" ry="1.09" transform="translate(-87.02 121.92) rotate(-72.17)"/><ellipse cx="41.5" cy="121.69" rx="3.82" ry="1.57" transform="translate(-85.23 100.04) rotate(-61.47)"/><ellipse cx="43.6" cy="122.08" rx="4.39" ry="1.82" transform="translate(-84.48 102.09) rotate(-61.47)"/><ellipse cx="45.28" cy="123.11" rx="3.23" ry="1.09" transform="translate(-85.86 120.07) rotate(-68.48)"/><ellipse cx="47.32" cy="121.9" rx="4.87" ry="1.09" transform="translate(-83.44 121.2) rotate(-68.48)"/><ellipse class="cls-2" cx="68.88" cy="67.22" rx="5.55" ry="13.89" transform="translate(-26.46 54.1) rotate(-36.47)"/></svg>
