<svg id="Layer_1" data-name="Layer 1" xmlns="http://www.w3.org/2000/svg" width="150" height="100" viewBox="0 0 150 100"><defs><style>.cls-1{fill:#cf6bd1;}.cls-2{fill:#776e6e;}.cls-3{fill:#bcafaf;}.cls-4{fill:#cec8c8;}</style></defs><title>settings_knap</title><rect class="cls-1" x="3.56" y="0.84" width="142.88" height="98.31" rx="30.88"/><path class="cls-2" d="M100.79,77.51,94.7,74.64a4.19,4.19,0,0,0-6,3.92l.21,6.73a4.18,4.18,0,0,1-7.73,2.35l-3.58-5.71A4.18,4.18,0,0,0,70.5,82L67,87.78a4.19,4.19,0,0,1-7.78-2.21l.08-6.73a4.17,4.17,0,0,0-6-3.8l-6,3a4.18,4.18,0,0,1-5.35-6l3.71-5.63a4.18,4.18,0,0,0-3-6.46l-6.69-.75a4.18,4.18,0,0,1-1.23-8l6.16-2.73a4.18,4.18,0,0,0,.95-7.07L36.57,37.1a4.18,4.18,0,0,1,3.28-7.38l6.66,1a4.19,4.19,0,0,0,4.62-5.44L49,18.92a4.19,4.19,0,0,1,6.76-4.43l5,4.47a4.18,4.18,0,0,0,6.82-2.08l1.7-6.52a4.19,4.19,0,0,1,8.08-.07l1.82,6.48a4.18,4.18,0,0,0,6.86,1.95l5-4.57a4.18,4.18,0,0,1,6.83,4.3l-2,6.45a4.18,4.18,0,0,0,4.72,5.34l6.64-1.16a4.18,4.18,0,0,1,3.42,7.31l-5.14,4.36a4.18,4.18,0,0,0,1.08,7l6.21,2.61a4.18,4.18,0,0,1-1.07,8l-6.68.88a4.18,4.18,0,0,0-2.9,6.52L106,71.36A4.18,4.18,0,0,1,100.79,77.51Z"/><path class="cls-3" d="M92.6,68.72l-4.24-2a2.92,2.92,0,0,0-4.16,2.72l.15,4.69A2.92,2.92,0,0,1,79,75.77l-2.49-4a2.91,2.91,0,0,0-5,0l-2.42,4a2.91,2.91,0,0,1-5.41-1.53l0-4.69A2.91,2.91,0,0,0,59.53,67l-4.21,2.08a2.91,2.91,0,0,1-3.72-4.22l2.58-3.91a2.91,2.91,0,0,0-2.11-4.5l-4.66-.53a2.91,2.91,0,0,1-.85-5.56l4.29-1.9a2.91,2.91,0,0,0,.66-4.92l-3.64-3a2.91,2.91,0,0,1,2.29-5.14l4.63.72A2.92,2.92,0,0,0,58,32.36L56.55,27.9a2.92,2.92,0,0,1,4.71-3.08l3.51,3.11a2.91,2.91,0,0,0,4.75-1.44L70.7,22a2.92,2.92,0,0,1,5.63-.06l1.27,4.52a2.91,2.91,0,0,0,4.78,1.35l3.45-3.18a2.92,2.92,0,0,1,4.76,3l-1.38,4.49a2.91,2.91,0,0,0,3.29,3.72L97.13,35a2.91,2.91,0,0,1,2.38,5.09l-3.58,3A2.92,2.92,0,0,0,96.68,48L101,49.83a2.92,2.92,0,0,1-.75,5.58L95.61,56a2.92,2.92,0,0,0-2,4.54l2.65,3.87A2.91,2.91,0,0,1,92.6,68.72Z"/><circle class="cls-4" cx="73.81" cy="48.52" r="7.41"/></svg>
