<svg id="Layer_1" data-name="Layer 1" xmlns="http://www.w3.org/2000/svg" width="90" height="110" viewBox="0 0 90 110"><defs><style>.cls-1{fill:#d00021;}.cls-2{fill:#fff;}</style></defs><title>slikstang</title><path class="cls-1" d="M54.91,63C34.18,90,17.8,114.19,7,103.9-9.2,88.44,13.44,74,34.17,47s35-51.19,47.9-40.94C99.19,19.72,75.64,35.94,54.91,63Z"/><path class="cls-2" d="M61.14,55.24l-.47.53c-.16-.32-.17.06-.08-.61L66.34,8c.09-.72,2.14-1.92,2.43-1.95l-.24.2a1.54,1.54,0,0,1,.57,1.21L62.55,53.58A18.36,18.36,0,0,0,61.14,55.24Z"/><path class="cls-2" d="M41.92,80l-.1.15-.34.44.34-43.67c.41-.56,1.45-2,1.61-2.18l.38.22a1.55,1.55,0,0,1,.71,1.14L43.3,78.19C43,78.7,42.06,79.82,41.92,80Z"/><path class="cls-2" d="M15.37,105.9l-.32.08-.47.12V69.7c.41-.46,1.69-1.54,1.84-1.69l.38.18s.72.39.71,1l-1,36.35C16,105.69,15.53,105.83,15.37,105.9Z"/><polygon class="cls-2" points="87.16 23.81 82.98 19.57 85.07 25.15 81.76 19.92 82.34 25.2 80.29 19.62 79.3 23.96 78.76 18.7 76.31 21.58 77.35 17.28 73.73 18.35 76.23 15.52 71.89 14.65 75.53 13.64 70.99 10.94 75.34 11.86 71.15 7.66 75.69 10.41 72.35 5.2 76.52 9.45 74.44 3.87 77.75 9.09 77.17 3.82 79.21 9.4 80.21 5.06 80.74 10.31 83.2 7.44 82.15 11.74 85.77 10.67 83.28 13.5 87.61 14.36 83.97 15.38 88.51 18.08 84.16 17.15 88.36 21.36 83.82 18.61 87.16 23.81"/><polygon class="cls-2" points="11.52 105.34 9 102.33 10.66 105.89 8.44 102.4 9.33 105.6 7.69 102.05 7.71 104.51 6.84 101.32 5.98 102.75 5.99 100.31 4.35 100.53 5.24 99.14 3.02 98.12 4.68 97.94 2.15 95.81 4.38 96.86 1.85 93.87 4.38 96.03 2.15 92.55 4.68 95.56 3.01 92 5.23 95.49 4.34 92.29 5.98 95.84 5.96 93.38 6.83 96.56 7.69 95.14 7.68 97.58 9.32 97.36 8.44 98.75 10.65 99.77 8.99 99.95 11.52 102.08 9.29 101.03 11.82 104.02 9.29 101.86 11.52 105.34"/></svg>
