<svg id="Layer_1" data-name="Layer 1" xmlns="http://www.w3.org/2000/svg" width="1920" height="1080" viewBox="0 0 1920 1080"><defs><style>.cls-1{fill:#16f4de;}.cls-13,.cls-2{fill:#fff;}.cls-2{opacity:0.8;}.cls-3{fill:#c6c1c6;}.cls-4{fill:#a59ba5;}.cls-5{fill:#f1ff74;}.cls-12,.cls-5{opacity:0.5;}.cls-6{fill:#54cc5d;}.cls-10,.cls-11,.cls-7{fill:#bcafaf;}.cls-11,.cls-13,.cls-14,.cls-15,.cls-7,.cls-9{stroke:#000;}.cls-11,.cls-13,.cls-14,.cls-15,.cls-7{stroke-miterlimit:10;}.cls-13,.cls-14,.cls-7{stroke-width:0.25px;}.cls-8{fill:#e8ab85;}.cls-15,.cls-9{fill:none;stroke-linecap:round;}.cls-9{stroke-linejoin:round;stroke-width:54px;}.cls-11{stroke-width:0.5px;}.cls-12{fill:#c19daf;}.cls-15{stroke-width:3px;}.cls-16{fill:#6e4932;}.cls-17{fill:#2a5bd8;}</style></defs><title>Spilleskærm</title><rect class="cls-1" x="51.9" width="1797.85" height="537.16"/><path class="cls-2" d="M526.88,250,511.6,273.12c-13.1-.56-4-6.2-13.83,2.41l-3.91,1C469,298.25,324.23,333.38,321.19,307l-24.79-4.83c-1.21-10.47,11.69-9.53,0-13.15L304,278.69c-29.48-9.12-13.4-42.15,17.69-57.06l51.42-16.43c12.35-5.92,26.42-20.27,29.07-31.12l-9.46,16.55c6.66-27.32,48.46-42,70.72-24.79l19.45-.55c29.37,7.42,141.74,13.68,16,6.52h0c33.6-7.78,57.09,17.87,39.76,43.39h0c-6.89,10.13,5.66,19.06-2.06,30.47h0C550.68,268.18,559.86,251.43,526.88,250Z"/><path class="cls-2" d="M837.45,230.63,822,246.7c-5.86-6.48.43-7.95-7.28-3.85l-2.19-.74c-19.4,10.33-99.13-20.15-90.94-47.8l-9.7-16c3.25-11,8.88-4.21,4.78-13.1l7.28-6.83c-10.32-22.4,9.14-48,29-48.79l29.77,6.9c7.87-.31,19.6-8.24,24.77-17.84L797,110.84c13-24.18,37.69-19.86,41.74,7.3l9.2,8.25c10.88,20.67,60.58,77.71,5,13.71h0c18.36,7.46,19.9,43.61,2.59,61.17h0c-6.88,7-4.32,21.53-12.05,29.4h0C841.85,259.46,852.19,246.94,837.45,230.63Z"/><rect class="cls-3" x="370.82" y="153.59" width="53.14" height="602.48" rx="7.84"/><path class="cls-3" d="M389.58,197.62l-.35-15.6c-.14-6.16,6.73-11.51,15.36-12l326.34-16.42c8.62-.44,15.72,4.21,15.86,10.37l.36,15.6c.14,6.17-6.74,11.52-15.37,11.95L405.45,208C396.82,208.44,389.72,203.79,389.58,197.62Z"/><rect class="cls-4" x="642.9" y="185.67" width="92.38" height="27.75" rx="5.52"/><path class="cls-5" d="M658.7,206.48h60.78a0,0,0,0,1,0,0v8.65a5.23,5.23,0,0,1-5.23,5.23H663.76a5.06,5.06,0,0,1-5.06-5.06v-8.82A0,0,0,0,1,658.7,206.48Z"/><rect class="cls-6" x="226.81" y="537.16" width="1598.22" height="67.7"/><path class="cls-7" d="M1245.54,498.88h348.53a105.7,105.7,0,0,1,105.7,105.7v475a1.87,1.87,0,0,1-1.87,1.87H1119.1a1.87,1.87,0,0,1-1.87-1.87V627.19A128.31,128.31,0,0,1,1245.54,498.88Z"/><path class="cls-7" d="M1519.07,586.54h402.86a0,0,0,0,1,0,0V1080a0,0,0,0,1,0,0H1219.65a0,0,0,0,1,0,0V886A299.43,299.43,0,0,1,1519.07,586.54Z"/><path class="cls-1" d="M1590.67,743.31h317.16a14.1,14.1,0,0,1,14.1,14.1V1065.9a14.1,14.1,0,0,1-14.1,14.1H1451.24a14.1,14.1,0,0,1-14.1-14.1V896.84A153.52,153.52,0,0,1,1590.67,743.31Z"/><ellipse class="cls-8" cx="1710.97" cy="442.72" rx="356.82" ry="378.41"/><path class="cls-1" d="M1519.16,852.63h103.26a0,0,0,0,1,0,0v204.16a75.25,75.25,0,0,1-75.25,75.25h-28a0,0,0,0,1,0,0V852.63a0,0,0,0,1,0,0Z" transform="translate(2064.32 2783.57) rotate(-137.69)"/><path class="cls-9" d="M1393.81,1080c0-96.83,154.9-175.33,346-175.33s346,78.5,346,175.33"/><ellipse class="cls-10" cx="791.62" cy="94.54" rx="284.33" ry="53.02"/><ellipse class="cls-10" cx="648.76" cy="41.52" rx="11.88" ry="51.95"/><ellipse class="cls-11" cx="681.01" cy="68.65" rx="12.18" ry="37.73" transform="translate(567.79 743.68) rotate(-86.24)"/><ellipse class="cls-12" cx="960" cy="112.01" rx="75.49" ry="12.62" transform="translate(-5.45 157.31) rotate(-9.34)"/><path class="cls-13" d="M1685.31,394.59c6.23,40.69-32.86,67.26-74.5,74.51-40.54,7-67.57-31.27-74.51-74.51-6.52-40.63,32.29-77.92,74.51-74.51C1648.2,323.11,1679.09,353.91,1685.31,394.59Z"/><circle class="cls-14" cx="1610.77" cy="394.9" r="11.3"/><path d="M1649.33,260.44l-137.89,56.39c-15.64,2.07-30,5.83-31.24-.38h0c17.36-20.72,17.36-20.72,32.92-31L1643.86,225s10.48-3.55,13.47,2.81l2.83,3.91C1661.44,237.89,1664.79,246.75,1649.33,260.44Z"/><path class="cls-15" d="M1700.69,443.74c-5.19,11-16.33,29.62-51.71,42.84s-63.29,9.79-78.19,6.87"/><path class="cls-15" d="M1711,443.74c-1.77,11.69-7,32.1-37.44,52.64a136.69,136.69,0,0,1-73.89,23.9"/><circle class="cls-13" cx="1739.72" cy="690.54" r="70.82"/><path class="cls-13" d="M1845.55,371c-4.35-40.94,35.91-65.69,77.84-71,40.82-5.19,66.06,34.32,71,77.84,4.65,40.89-35.83,76.36-77.84,71C1879.35,444.13,1849.9,411.94,1845.55,371Z"/><circle class="cls-14" cx="1920.03" cy="374.12" r="11.3"/><path d="M1874,205.84l138.29,55.38c12.69,9.38,25.58,16.63,22.19,22h0c-26.88,2.81-26.88,2.81-45.2-.63l-136-47.45s-10-4.74-7.72-11.39l.69-4.77C1849.64,213.61,1853.39,204.92,1874,205.84Z"/><path class="cls-15" d="M1940.66,494c-12.11.64-33.82-.3-62.27-25.14s-38.68-51-43.2-65.53"/><path class="cls-15" d="M1883.07,496.14c-7.13-3.49-19.78-10.95-34.84-34.44s-19.35-41.95-21.06-51.81"/><ellipse class="cls-8" cx="1685.97" cy="876.78" rx="59.72" ry="53.64"/><ellipse class="cls-16" cx="1873.21" cy="133.61" rx="64.04" ry="49.75"/><ellipse class="cls-16" cx="1309.08" cy="443.74" rx="64.04" ry="49.75"/><ellipse class="cls-16" cx="1396.55" cy="415.72" rx="64.04" ry="49.75"/><ellipse class="cls-16" cx="1298.24" cy="394.9" rx="64.04" ry="49.75"/><ellipse class="cls-16" cx="1418.19" cy="332.37" rx="64.04" ry="49.75"/><ellipse class="cls-16" cx="1373.11" cy="376.69" rx="64.04" ry="49.75"/><ellipse class="cls-16" cx="1796.63" cy="210.63" rx="64.04" ry="49.75"/><ellipse class="cls-16" cx="1884.93" cy="172.03" rx="64.04" ry="49.75"/><ellipse class="cls-16" cx="1735.28" cy="205.77" rx="64.04" ry="49.75"/><ellipse class="cls-16" cx="1635.74" cy="190.71" rx="64.04" ry="49.75"/><ellipse class="cls-16" cx="1521.88" cy="223.98" rx="64.04" ry="49.75"/><ellipse class="cls-16" cx="1343.37" cy="299.54" rx="64.04" ry="49.75"/><ellipse class="cls-16" cx="1437.15" cy="260.37" rx="64.04" ry="49.75"/><ellipse class="cls-16" cx="1292.82" cy="504.57" rx="64.04" ry="49.75"/><ellipse class="cls-16" cx="1354.15" cy="614.25" rx="64.04" ry="49.75"/><ellipse class="cls-16" cx="1393.81" cy="233.1" rx="64.04" ry="49.75"/><ellipse class="cls-16" cx="1460.59" cy="183.36" rx="64.04" ry="49.75"/><ellipse class="cls-16" cx="1648.13" cy="139.85" rx="64.04" ry="49.75"/><ellipse class="cls-16" cx="1555.21" cy="146.82" rx="64.04" ry="49.75"/><ellipse class="cls-16" cx="1491.18" cy="139.85" rx="64.04" ry="49.75"/><ellipse class="cls-16" cx="1762.99" cy="139.85" rx="64.04" ry="49.75"/><ellipse class="cls-16" cx="1681.66" cy="100.1" rx="64.04" ry="49.75"/><ellipse class="cls-16" cx="1555.21" cy="83.86" rx="64.04" ry="49.75"/><ellipse class="cls-16" cx="1655.31" cy="50.36" rx="64.04" ry="49.75"/><ellipse class="cls-16" cx="1745.69" cy="64.31" rx="64.04" ry="49.75"/><ellipse class="cls-16" cx="1811.93" cy="68.65" rx="64.04" ry="49.75"/><ellipse class="cls-16" cx="1439.48" cy="496.95" rx="64.04" ry="49.75"/><ellipse class="cls-16" cx="1460.59" cy="733.53" rx="64.04" ry="49.75"/><ellipse class="cls-16" cx="1460.59" cy="633.72" rx="64.04" ry="49.75"/><ellipse class="cls-16" cx="1279.34" cy="651.38" rx="64.04" ry="49.75"/><ellipse class="cls-16" cx="1279.34" cy="571.07" rx="64.04" ry="49.75"/><ellipse class="cls-16" cx="1427.14" cy="555.11" rx="64.04" ry="49.75"/><ellipse class="cls-16" cx="1381.6" cy="669.91" rx="64.04" ry="49.75"/><ellipse class="cls-16" cx="1382.83" cy="469.94" rx="64.04" ry="49.75"/><ellipse class="cls-16" cx="1382.83" cy="753.07" rx="64.04" ry="49.75"/><ellipse class="cls-16" cx="1298.24" cy="731.54" rx="64.04" ry="49.75"/><ellipse class="cls-16" cx="1309.08" cy="784.71" rx="64.04" ry="49.75"/><ellipse class="cls-16" cx="1446.86" cy="802.82" rx="64.04" ry="49.75"/><ellipse class="cls-16" cx="1354.15" cy="836.76" rx="49.75" ry="64.04" transform="matrix(0.5, -0.87, 0.87, 0.5, -47.58, 1591.11)"/><path class="cls-2" d="M1386.45,128.05l12.83,18.14c-6.84-1.49-7.34-5.5-4.59.94l-1,.56c6.94,16.22-32.49,34.3-57.11,11.95l-16.26-6c-9.78-8.87-2.69-7.08-11.54-11l-5.36-8c-22.29-10-43.46-36.35-41.45-46.4l10.55-9.74c.8-4-5-14.91-13.19-23.79l9.92,13.12c-20.72-22.36-13.29-31.35,12.58-15.22l9,1.07c20.76,8.51,80.77,22.56,13.47,6.7h0c9.48-3.87,43.37,19.45,57.34,39.47h0c5.55,8,19.46,16.41,25.73,25.36h0C1413.92,145.12,1403.69,131.81,1386.45,128.05Z"/><ellipse class="cls-16" cx="1332.52" cy="349.28" rx="64.04" ry="49.75"/><ellipse class="cls-16" cx="1363.11" cy="540" rx="64.04" ry="49.75"/><ellipse class="cls-16" cx="1343.37" cy="205.77" rx="64.04" ry="49.75"/><ellipse class="cls-16" cx="1378.8" cy="154.05" rx="64.04" ry="49.75" transform="translate(371.84 1108.43) rotate(-49.84)"/><ellipse class="cls-16" cx="1318.79" cy="255.51" rx="64.04" ry="49.75" transform="translate(272.98 1098.6) rotate(-49.84)"/><ellipse class="cls-16" cx="1445.63" cy="68.65" rx="64.04" ry="49.75" transform="translate(16.16 294.85) rotate(-11.71)"/><ellipse class="cls-16" cx="1528.61" cy="14.56" rx="64.04" ry="49.75" transform="translate(531.63 1173.39) rotate(-49.84)"/><ellipse class="cls-16" cx="1622.49" cy="3.03" rx="64.04" ry="49.75" transform="translate(573.77 1241.04) rotate(-49.84)"/><ellipse class="cls-16" cx="1904.1" cy="64.31" rx="49.75" ry="64.04" transform="translate(1036.55 1760.51) rotate(-64.85)"/><ellipse class="cls-16" cx="1726.28" cy="-8.44" rx="49.75" ry="64.04" transform="translate(1000.16 1557.72) rotate(-64.85)"/><ellipse class="cls-16" cx="1805.93" cy="-6.04" rx="49.75" ry="64.04" transform="translate(1043.78 1631.2) rotate(-64.85)"/><polygon class="cls-17" points="125.21 589.04 -0.96 588.84 -0.52 -10.45 159.3 -5.71 444.26 -5.24 324.15 177.37 125.21 589.04"/><path class="cls-7" d="M28.69,498.88H370.1a105.7,105.7,0,0,1,105.7,105.7v473.55a1.87,1.87,0,0,1-1.87,1.87H1.62a1.87,1.87,0,0,1-1.87-1.87V527.82A28.94,28.94,0,0,1,28.69,498.88Z"/><path class="cls-7" d="M-.26,586.54h85A297.18,297.18,0,0,1,381.9,883.72V1080a0,0,0,0,1,0,0H-.26a0,0,0,0,1,0,0V586.54A0,0,0,0,1-.26,586.54Z"/><path class="cls-7" d="M600.08,498.88H1013.4a103.83,103.83,0,0,1,103.83,103.83V1080a0,0,0,0,1,0,0H475.8a0,0,0,0,1,0,0V623.16A124.28,124.28,0,0,1,600.08,498.88Z"/><path class="cls-3" d="M361.77,487.82c0,68.4-68.57,57-153.15,57s-153.15,11.36-153.15-57S124,364,208.62,364,361.77,419.42,361.77,487.82Z"/><path class="cls-3" d="M949.67,502.51c0,68.4-68.57,57-153.15,57s-153.15,11.36-153.15-57,68.56-123.85,153.15-123.85S949.67,434.11,949.67,502.51Z"/><path class="cls-3" d="M171.44,575.8c0,95.26-95.49,79.43-213.29,79.43s-213.29,15.83-213.29-79.43,95.49-172.49,213.29-172.49S171.44,480.54,171.44,575.8Z"/><path class="cls-5" d="M648.39,343.42c-16.62,0-33.34-2.25-29.09-9.7l39-72L678.76,226a11.13,11.13,0,0,1,19.28-.1l20.78,35.59L758.3,321c4.32,7.4,18.93,18.93-18.94,18.7l-51.49,3.69Z"/><path class="cls-12" d="M938.9,506.35c-3.28-6.15-20.85-3.17-39.24,6.65S869,535.76,872.31,541.91s25.15,9.3,43.53-.52S942.18,512.5,938.9,506.35Z"/><path class="cls-12" d="M349.68,493.45c-3.28-6.14-20.85-3.17-39.24,6.65S279.81,522.86,283.09,529s25.15,9.3,43.54-.52S353,499.6,349.68,493.45Z"/><path class="cls-12" d="M154,565.72c-6.16-10.26-36-3.63-66.69,14.79s-50.53,41.67-44.37,51.93,43.9,13.76,74.57-4.67S160.11,576,154,565.72Z"/><path class="cls-3" d="M460.47,829.29c0,132.37-17.7,236.6-22.93,236.6s-9.48-107.3-9.48-239.67,4.24-239.68,9.48-239.68S460.47,696.92,460.47,829.29Z"/><path class="cls-3" d="M1100.5,836.34c0,132.37-17.7,236.61-22.94,236.61s-9.47-107.31-9.47-239.68,4.24-239.67,9.47-239.67S1100.5,704,1100.5,836.34Z"/><path d="M542.93,1079.56l-11.57.37c-15.15.49-31.89,8.17-32.38-7L487.46,572.24c-.49-15.15,9.21-18.85,19.74-32.24l10.37-10.23c13.38-10.25,7.48-10.69,25.33-17.25L570,1066.38C570.47,1081.54,558.09,1079.07,542.93,1079.56Z"/><rect class="cls-3" x="497.5" y="773.96" width="54.65" height="25.46" transform="translate(-30.91 21.52) rotate(-2.28)"/><path class="cls-10" d="M537.78,808.07a16.81,16.81,0,0,1-.95,5.86,8.68,8.68,0,0,1-16.23,0,16.58,16.58,0,0,1-1-5.86c0-11.81,4.06-21.38,9.06-21.38S537.78,796.26,537.78,808.07Z"/><path class="cls-7" d="M548.55,788.22c.12,2.12-9.33,7-21.29,7.7s-21.91-3.15-22-5.27,9.26-8.36,21.22-9S548.43,786.11,548.55,788.22Z"/><path d="M1187.22,1078.14l-11.57.38c-15.15.49-31.89,8.17-32.38-7l-11.52-500.7c-.49-15.16,9.21-18.85,19.74-32.24l10.37-10.24c13.38-10.24,7.48-10.69,25.33-17.25L1214.27,1065C1214.76,1080.12,1202.38,1077.65,1187.22,1078.14Z"/><rect class="cls-3" x="1141.79" y="772.54" width="54.65" height="25.46" transform="translate(-30.34 47.17) rotate(-2.28)"/><path class="cls-10" d="M1182.07,806.66a16.58,16.58,0,0,1-1,5.86,8.69,8.69,0,0,1-16.23,0,16.81,16.81,0,0,1-1-5.86c0-11.81,4.06-21.38,9.07-21.38S1182.07,794.85,1182.07,806.66Z"/><path class="cls-7" d="M1192.84,786.81c.12,2.11-9.33,7-21.29,7.7s-21.91-3.15-22-5.27,9.25-8.36,21.21-9S1192.72,784.69,1192.84,786.81Z"/></svg>
