<svg id="Layer_1" data-name="Layer 1" xmlns="http://www.w3.org/2000/svg" width="120" height="120" viewBox="0 0 120 120"><defs><style>.cls-1{fill:#7c7c7c;opacity:0.5;}.cls-2{fill:#ef8626;}.cls-3{fill:#f7ff4a;}.cls-4{fill:#fff30b;}</style></defs><title>tid_2</title><ellipse class="cls-1" cx="60.96" cy="60" rx="58.23" ry="55.51"/><ellipse class="cls-2" cx="58.99" cy="60" rx="52.01" ry="52.06"/><ellipse class="cls-3" cx="58.99" cy="20.77" rx="1.98" ry="8.57"/><ellipse class="cls-3" cx="83.23" cy="32.34" rx="8.57" ry="1.98" transform="translate(4.29 74.08) rotate(-49.1)"/><ellipse class="cls-3" cx="96.39" cy="57.01" rx="8.56" ry="1.98"/><ellipse class="cls-4" cx="86.74" cy="84.37" rx="1.98" ry="8.57" transform="translate(-34.25 85.97) rotate(-44.97)"/><ellipse class="cls-3" cx="60.96" cy="99.34" rx="1.98" ry="8.57"/><ellipse class="cls-3" cx="32.62" cy="90.77" rx="8.57" ry="1.98" transform="translate(-57.35 56) rotate(-49.1)"/><ellipse class="cls-3" cx="32.62" cy="30.19" rx="1.98" ry="8.57" transform="translate(-11.8 31.88) rotate(-44.97)"/><ellipse class="cls-3" cx="18.84" cy="57.01" rx="8.56" ry="1.98"/><ellipse class="cls-3" cx="58.99" cy="58.99" rx="4.71" ry="4.71"/><ellipse class="cls-3" cx="66.09" cy="68.03" rx="1.62" ry="12.69" transform="translate(-25.16 42.16) rotate(-30)"/></svg>
