<svg id="Layer_1" data-name="Layer 1" xmlns="http://www.w3.org/2000/svg" width="120" height="120" viewBox="0 0 120 120"><defs><style>.cls-1{fill:#7c7c7c;opacity:0.5;}.cls-2{fill:#ef8626;}.cls-3{fill:#f7ff4a;}.cls-4{fill:#fff30b;}</style></defs><title>tid_1</title><ellipse class="cls-1" cx="60" cy="60" rx="58.23" ry="55.51"/><ellipse class="cls-2" cx="58.02" cy="60" rx="52.01" ry="52.06"/><ellipse class="cls-3" cx="58.02" cy="20.77" rx="1.98" ry="8.57"/><ellipse class="cls-3" cx="82.27" cy="32.34" rx="8.57" ry="1.98" transform="translate(3.96 73.35) rotate(-49.1)"/><ellipse class="cls-3" cx="95.43" cy="57.01" rx="8.56" ry="1.98"/><ellipse class="cls-4" cx="85.77" cy="84.37" rx="1.98" ry="8.57" transform="translate(-34.54 85.29) rotate(-44.97)"/><ellipse class="cls-3" cx="60" cy="99.34" rx="1.98" ry="8.57"/><ellipse class="cls-3" cx="31.66" cy="90.77" rx="8.57" ry="1.98" transform="translate(-57.68 55.27) rotate(-49.1)"/><ellipse class="cls-3" cx="31.66" cy="30.19" rx="1.98" ry="8.57" transform="translate(-12.08 31.2) rotate(-44.97)"/><ellipse class="cls-3" cx="17.87" cy="57.01" rx="8.56" ry="1.98"/><ellipse class="cls-3" cx="58.02" cy="58.99" rx="4.71" ry="4.71"/><ellipse class="cls-3" cx="68.76" cy="52.02" rx="12.69" ry="1.62" transform="translate(-17.19 45.15) rotate(-32.54)"/></svg>
