<svg id="Layer_1" data-name="Layer 1" xmlns="http://www.w3.org/2000/svg" xmlns:xlink="http://www.w3.org/1999/xlink" width="1920" height="1080" viewBox="0 0 1920 1080"><defs><style>.cls-1{fill:#c6c1c6;}.cls-2{fill:#54cc5d;}.cls-3{fill:#16f4de;}.cls-10,.cls-11,.cls-12,.cls-14,.cls-18,.cls-19,.cls-20,.cls-22,.cls-26,.cls-4,.cls-9{stroke:#000;stroke-miterlimit:10;}.cls-12,.cls-4{stroke-width:2px;}.cls-34,.cls-38,.cls-39,.cls-4,.cls-44,.cls-45,.cls-6,.cls-7{opacity:0.5;}.cls-5{fill:#a59ba5;}.cls-6{fill:#f1ff74;}.cls-7{fill:#7c7c7c;}.cls-8{fill:#2a5bd8;}.cls-11,.cls-12,.cls-18,.cls-23,.cls-24,.cls-9{fill:#fff;}.cls-10,.cls-9{stroke-width:4px;}.cls-13{fill:#6e4932;}.cls-15{fill:#fff30b;}.cls-16{fill:#d00021;}.cls-17,.cls-22{fill:#e8ab85;}.cls-18,.cls-19,.cls-20,.cls-22{stroke-width:0.25px;}.cls-20{fill:none;stroke-linecap:round;}.cls-21{fill:aqua;}.cls-24,.cls-29{opacity:0.8;}.cls-25,.cls-26{fill:#54a55d;}.cls-26{stroke-width:0.5px;}.cls-27{fill:url(#linear-gradient);}.cls-28{fill:url(#linear-gradient-2);}.cls-30{fill:#2e262a;}.cls-31{fill:#d09100;}.cls-32{fill:#d0a600;}.cls-33{fill:#cf6bd1;}.cls-34{fill:#d0a6c1;}.cls-35{fill:#14130d;}.cls-36{fill:#ef8626;}.cls-37{fill:#b824d1;}.cls-38{fill:#ff763b;}.cls-39{fill:#ff3ff6;}.cls-40{fill:#00b414;}.cls-41{fill:#ea869c;}.cls-42{fill:#0f090a;}.cls-43{fill:#efb126;}.cls-45{fill:#00e014;}</style><linearGradient id="linear-gradient" x1="2583.91" y1="-627.21" x2="2592.62" y2="-627.21" gradientTransform="matrix(0.97, -0.88, 1.05, 1.16, -1128.5, 3616.46)" gradientUnits="userSpaceOnUse"><stop offset="0" stop-color="#fff"/><stop offset="0.03" stop-color="#3fff5c"/><stop offset="0.95" stop-color="#ff3f4a"/><stop offset="1" stop-color="#dbdbdb"/></linearGradient><linearGradient id="linear-gradient-2" x1="1936.2" y1="-2074.62" x2="1962.41" y2="-2074.62" gradientTransform="matrix(0.82, -0.58, 0.58, 0.82, 332.71, 3457.19)" xlink:href="#linear-gradient"/></defs><title>Titelskærm</title><rect class="cls-1" y="609.87" width="1920" height="465.94"/><rect class="cls-2" y="263.16" width="1920" height="428.18"/><rect class="cls-3" x="-0.47" y="-0.03" width="1920" height="263.73"/><line class="cls-4" x1="1328.26" y1="97.07" x2="1322.69" y2="97.07"/><rect class="cls-1" x="1719.69" y="152.03" width="32.66" height="518.99" rx="7.84"/><rect class="cls-1" x="1618.05" y="83.37" width="32.66" height="220.1" rx="9.61" transform="translate(1375.29 1818.68) rotate(-87.69)"/><rect class="cls-5" x="1534.06" y="203.54" width="56.77" height="23.9" rx="5.52"/><path class="cls-6" d="M1543.77,221.47h37.35a0,0,0,0,1,0,0v6.72a5.23,5.23,0,0,1-5.23,5.23h-27.07a5.06,5.06,0,0,1-5.06-5.06v-6.9A0,0,0,0,1,1543.77,221.47Z"/><rect class="cls-1" x="405.1" y="164.3" width="32.66" height="518.99" rx="7.84"/><rect class="cls-1" x="303.47" y="95.64" width="32.66" height="220.1" rx="9.61" transform="translate(101.39 516.94) rotate(-87.69)"/><rect class="cls-5" x="219.48" y="215.81" width="56.77" height="23.9" rx="5.52"/><path class="cls-6" d="M229.19,233.74h37.35a0,0,0,0,1,0,0v6.72a5.23,5.23,0,0,1-5.23,5.23H234.24a5.06,5.06,0,0,1-5.06-5.06v-6.9A0,0,0,0,1,229.19,233.74Z"/><ellipse class="cls-7" cx="767.87" cy="877.57" rx="475.22" ry="51.51" transform="translate(-23.94 21.53) rotate(-1.58)"/><path class="cls-7" d="M551.65,817.58c7.11,22.56-18.6-5.06-57.14-46-47.1-50.06-67.95-65-75.06-87.54s21.35,5.77,57.85,42.66S544.54,795,551.65,817.58Z"/><path class="cls-7" d="M490.6,769.45c-.69-4,6.17,5.27,22.19,21.84C530,809.07,537,815.14,537,815.14c6.61,22-2,17.58-15.58,4.14S493.74,787.32,490.6,769.45Z"/><path class="cls-8" d="M1011,873.89l-698.9.61c-46.34,6.42-52-59.48-52-70.38v-2c0-10.9-17.8-82.69,142.56-67.77H929.31c161.63-13.9,151.74,17.78,150.19,54.15l-.93,20.09C1078.57,819.49,1062.58,880.92,1011,873.89Z"/><polyline class="cls-8" points="500.73 571.98 498.83 769.64 388.36 768.59"/><polyline class="cls-8" points="942.99 765.19 842.36 763.64 845.31 572.81"/><rect class="cls-8" x="494.51" y="567.87" width="356.79" height="203.67" rx="18.62"/><ellipse class="cls-9" cx="440.95" cy="864.12" rx="67.46" ry="64.96"/><circle class="cls-10" cx="440.95" cy="864.12" r="9.99"/><rect class="cls-10" x="440.94" y="799.16" width="0.01" height="129.92" transform="translate(881.88 1728.24) rotate(180)"/><rect class="cls-10" x="440.36" y="798" width="0.62" height="131.62" transform="translate(1304.48 423.14) rotate(90)"/><rect class="cls-10" x="440.94" y="798.85" width="0.01" height="129.92" transform="translate(1351.07 1198.88) rotate(137.25)"/><rect class="cls-10" x="441.23" y="799.16" width="0.01" height="129.92" transform="translate(76.52 1763.21) rotate(-130.87)"/><ellipse class="cls-9" cx="884.68" cy="864.29" rx="66.84" ry="64.37"/><circle class="cls-10" cx="884.95" cy="864.6" r="9.9"/><rect class="cls-10" x="884.95" y="800.23" width="0.01" height="128.74" transform="translate(1769.9 1729.2) rotate(180)"/><rect class="cls-10" x="884.37" y="799.08" width="0.62" height="130.42" transform="translate(1748.97 -20.39) rotate(90)"/><rect class="cls-10" x="884.95" y="799.92" width="0.01" height="128.74" transform="translate(2121.48 898.36) rotate(137.25)"/><rect class="cls-10" x="885.24" y="800.23" width="0.01" height="128.74" transform="translate(810.69 2099.77) rotate(-130.87)"/><path class="cls-11" d="M498.62,579.81l-1.15,143.9a9.33,9.33,0,0,1-9.33,9.25l-72.67-.06"/><path class="cls-11" d="M916.17,732.24H844.1a7.48,7.48,0,0,1-7.48-7.48l0-148"/><rect class="cls-12" x="508.4" y="573.8" width="150.08" height="159.16" rx="7.39"/><path class="cls-13" d="M657,643c.07,2.46-.8,3.8-3.27,3.8s-4.46-1.7-4.46-3.8,2-3.8,4.46-3.8S656.94,641.6,657,643Z"/><rect class="cls-12" x="673.83" y="573.8" width="150.63" height="159.16" rx="6.33"/><path class="cls-4" d="M824.46,623.16c-1.2,9.08,2.34,27.57-4.42,25.56-6.54-1.94-12.78-8.07-13.12-13.58-.5-8.25-1.5-17.69,5.37-19.31S825.85,612.75,824.46,623.16Z"/><rect class="cls-14" x="625.78" y="742.12" width="28.75" height="13.28"/><rect class="cls-14" x="795.71" y="742.12" width="28.75" height="13.28"/><path class="cls-15" d="M291.36,797.11H260.5a.39.39,0,0,1-.39-.37l-.57-9.35v0c.26-26.74,26.67-44.88,47.11-48.69l6.64-1.65a.39.39,0,0,1,.48.47L309,789.39C307.87,794.44,296.54,797.11,291.36,797.11Z"/><path class="cls-16" d="M1079.5,786.76h-39.39a8.75,8.75,0,0,1-8.76-8.75V740.65c0-.1,0-3.4,0-7.85l15.36,2.61c18.17,5,33.68,9.73,33.45,38.67Z"/><rect x="665.2" y="566.83" width="1.17" height="307.06"/><path d="M525,732.48l8,.31,5.15-64.33c-1.34-1.34.06-2.34-3.42-3.58h0a3.52,3.52,0,0,0-4,2.93Z"/><path class="cls-3" d="M563.9,659h4.68a4.1,4.1,0,0,1,4.1,4.1v49.72a0,0,0,0,1,0,0H561a1.18,1.18,0,0,1-1.18-1.18V663.13A4.1,4.1,0,0,1,563.9,659Z" transform="translate(-267.84 994.91) rotate(-70.79)"/><path class="cls-3" d="M630.09,666.17h7.67a14.1,14.1,0,0,1,14.1,14.1v51.21a0,0,0,0,1,0,0H586.54a0,0,0,0,1,0,0V709.72A43.55,43.55,0,0,1,630.09,666.17Z"/><path class="cls-17" d="M651.85,648.38A27.61,27.61,0,0,1,624.25,676c-15.25,0-26.43-13.07-26.43-28.32s11.18-26.89,26.43-26.89A27.6,27.6,0,0,1,651.85,648.38Z"/><ellipse class="cls-13" cx="606.21" cy="620.84" rx="4.46" ry="3.8"/><ellipse class="cls-13" cx="609.58" cy="624.64" rx="4.46" ry="3.8"/><path class="cls-13" d="M608,627c0,2.1-2,3.8-4.46,3.8s-4.89-1.75-4.46-3.8a4.33,4.33,0,0,1,4.46-3.8C606,623.16,608,624.86,608,627Z"/><ellipse class="cls-13" cx="610.67" cy="616.45" rx="4.46" ry="3.8"/><ellipse class="cls-13" cx="620.38" cy="616.45" rx="4.46" ry="3.8"/><ellipse class="cls-13" cx="617.17" cy="615.56" rx="4.46" ry="3.8"/><ellipse class="cls-13" cx="615.92" cy="620.84" rx="4.46" ry="3.8"/><ellipse class="cls-13" cx="622.68" cy="623.16" rx="4.46" ry="3.8"/><ellipse class="cls-13" cx="613.21" cy="626.96" rx="4.46" ry="3.8"/><ellipse class="cls-13" cx="610.28" cy="630.76" rx="4.46" ry="3.8"/><ellipse class="cls-13" cx="615.92" cy="624.64" rx="4.46" ry="3.8"/><ellipse class="cls-13" cx="634.24" cy="620.84" rx="4.46" ry="3.8"/><ellipse class="cls-13" cx="626.37" cy="619.36" rx="4.46" ry="3.8"/><ellipse class="cls-13" cx="622.13" cy="628.44" rx="4.46" ry="3.8"/><ellipse class="cls-13" cx="628.84" cy="625.3" rx="4.46" ry="3.8"/><ellipse class="cls-13" cx="610.67" cy="620.84" rx="4.46" ry="3.8"/><ellipse class="cls-13" cx="640.85" cy="630.76" rx="4.46" ry="3.8"/><ellipse class="cls-13" cx="644.81" cy="636.76" rx="4.46" ry="3.8"/><ellipse class="cls-13" cx="650.32" cy="641.6" rx="4.46" ry="3.8"/><ellipse class="cls-13" cx="650.32" cy="647.86" rx="4.46" ry="3.8"/><ellipse class="cls-13" cx="640.35" cy="618.7" rx="4.46" ry="3.8"/><ellipse class="cls-13" cx="643.6" cy="625.3" rx="4.46" ry="3.8"/><ellipse class="cls-13" cx="645.31" cy="630.15" rx="4.46" ry="3.8"/><ellipse class="cls-13" cx="649.27" cy="635.38" rx="4.46" ry="3.8"/><ellipse class="cls-13" cx="637.76" cy="624.64" rx="4.46" ry="3.8"/><path class="cls-13" d="M638.7,613.9c0,2.1-2,3.8-4.46,3.8s-4.46-1.7-4.46-3.8,1.82-4.9,4.46-3.79C636.51,611.05,638.7,611.81,638.7,613.9Z"/><ellipse class="cls-13" cx="631.6" cy="617.7" rx="4.46" ry="3.8"/><path class="cls-13" d="M630.83,613.24c0,2.1-2,3.8-4.46,3.8s-4.46-1.7-4.46-3.8,2-3.36,4.46-3.79A3.89,3.89,0,0,1,630.83,613.24Z"/><ellipse class="cls-13" cx="645.31" cy="622.5" rx="4.46" ry="3.8"/><path class="cls-13" d="M656.31,637.8a3.58,3.58,0,0,1-3.79,3.8c-2.47,0-4.46-1.7-4.46-3.8s2-3.79,4.46-3.79A3.58,3.58,0,0,1,656.31,637.8Z"/><ellipse class="cls-13" cx="649.25" cy="631.58" rx="4.46" ry="3.8"/><ellipse class="cls-13" cx="650.32" cy="626.96" rx="4.46" ry="3.8"/><rect class="cls-4" x="652.18" y="649.7" width="5.57" height="81.78"/><rect class="cls-4" x="817.69" y="649.7" width="5.57" height="81.78"/><path class="cls-13" d="M656.31,653.38c0,3.3-2,4.91-4.46,4.91s-4.46-1.71-4.46-3.8,2-3.8,4.46-3.8S656.31,651.18,656.31,653.38Z"/><path class="cls-13" d="M657,647.86a3.5,3.5,0,0,1-3.69,3.79c-2.46,0-4.46-1.7-4.46-3.79s2-3.8,4.46-3.8A3.5,3.5,0,0,1,657,647.86Z"/><ellipse class="cls-13" cx="634.68" cy="629.16" rx="4.46" ry="3.8"/><ellipse class="cls-13" cx="645.31" cy="646.78" rx="4.46" ry="3.8"/><ellipse class="cls-13" cx="643.16" cy="641.6" rx="4.46" ry="3.8"/><ellipse class="cls-13" cx="637.76" cy="636.76" rx="4.46" ry="3.8"/><ellipse class="cls-13" cx="632.86" cy="632.24" rx="4.46" ry="3.8"/><ellipse class="cls-13" cx="626.09" cy="630.76" rx="4.46" ry="3.8"/><ellipse class="cls-13" cx="647.39" cy="651.13" rx="4.46" ry="3.8"/><ellipse class="cls-13" cx="617.17" cy="628.44" rx="4.46" ry="3.8"/><path d="M610.43,638.47l-6.58-4.61c-.59-.71-1.19-1.28-1-1.6h0a4,4,0,0,1,2.24.36l6.51,4.07s.48.38.33.8l-.06.31A1.14,1.14,0,0,1,610.43,638.47Z"/><ellipse class="cls-13" cx="602.75" cy="632.24" rx="4.46" ry="3.8"/><path class="cls-18" d="M626,644.31c.47,3.06-2.47,5.06-5.6,5.6s-5.08-2.35-5.61-5.6c-.49-3.06,2.43-5.86,5.61-5.61A6.4,6.4,0,0,1,626,644.31Z"/><circle class="cls-19" cx="617.67" cy="644.22" r="0.85"/><path class="cls-18" d="M609.37,661.79c1.33,2.44-.74,5.74-2.19,7.57-.21.26-2.33-2.64-4-4.9s-2-3.91,0-5S608,659.36,609.37,661.79Z"/><path d="M627.2,641.72l-6.34-4.94c-.55-.73-1.12-1.33-.91-1.64h0a4.08,4.08,0,0,1,2.22.47l6.3,4.39s.46.4.29.82l-.08.3A1.14,1.14,0,0,1,627.2,641.72Z"/><path class="cls-20" d="M609.54,660.63a2.46,2.46,0,0,1,1.4,1.74,2.78,2.78,0,0,1-.11,2.23"/><path class="cls-20" d="M608.54,659a4.46,4.46,0,0,1,2.88,2.54c.9,1.76.81,3,.39,3.82"/><path class="cls-20" d="M620.49,651.6a4.84,4.84,0,0,1-3.71-1,5.45,5.45,0,0,1-2.23-3.25"/><path class="cls-20" d="M619.69,652.36a4.82,4.82,0,0,1-3.58-1.4,5.43,5.43,0,0,1-1.83-3.48"/><path class="cls-21" d="M631.12,708.42h-.3l-3.82-.3c-1.55-.12-4.15-.33-5-1.8-.5-.86-.39-2.08.34-3.63l3.53-44.41a4,4,0,0,1,4-3.66h.32l4.66.37a4,4,0,0,1,3.65,4.28L634.82,705A3.74,3.74,0,0,1,631.12,708.42Z"/><path d="M629.82,654.74h.31l4.66.37a3.86,3.86,0,0,1,3.53,4.14L634.69,705a3.6,3.6,0,0,1-3.57,3.3h-.29L627,708c-1.53-.12-4.08-.32-4.91-1.74-.48-.81-.36-2,.34-3.5l0,0v-.05L626,658.28a3.87,3.87,0,0,1,3.84-3.54m0-.25a4.11,4.11,0,0,0-4.09,3.77l-3.52,44.37c-2.28,4.91,1.91,5.38,4.78,5.6l3.82.31h.31a3.83,3.83,0,0,0,3.82-3.53l3.63-45.74a4.1,4.1,0,0,0-3.76-4.41l-4.66-.37Z"/><path class="cls-22" d="M640.21,651.65c.14,2.56-3.37,7.55-7.54,7.55s-7.32-4.27-7.54-7.55c-.26-3.83,4.83-7.43,7.54-7.54C636.52,644,640,647.57,640.21,651.65Z"/><path class="cls-22" d="M546.47,676.07c.15,3.06-3.74,9-8.36,9s-8.11-5.12-8.35-9c-.28-4.59,5.35-8.91,8.35-9C542.38,666.85,546.23,671.18,546.47,676.07Z"/><path class="cls-4" d="M768.91,685.13H780a0,0,0,0,1,0,0V762a5.56,5.56,0,0,1-5.56,5.56h0a5.56,5.56,0,0,1-5.56-5.56V685.13a0,0,0,0,1,0,0Z" transform="translate(1500.8 -48.14) rotate(90)"/><rect class="cls-23" x="18.37" y="987.8" width="342.13" height="51.02"/><rect class="cls-23" x="1040.69" y="989.99" width="342.13" height="51.02"/><rect class="cls-23" x="547.59" y="989.99" width="342.13" height="51.02"/><rect class="cls-23" x="1555.21" y="987.8" width="342.13" height="51.02"/><path d="M665.37,254.35a46.8,46.8,0,0,1-5.25,23.27,42.27,42.27,0,0,1-16.28,17c-7.15,4.24-15.62,6.4-25.49,6.65a64.29,64.29,0,0,1-27.55-5.46,53.94,53.94,0,0,1-21.93-17.41c-5.83-7.79-9.29-17.44-10.06-29.24A62.74,62.74,0,0,1,565.05,217a73,73,0,0,1,20.65-25.59,66.36,66.36,0,0,1,28.54-13.59c7-1.37,13.31-1.25,18.84.43a27.8,27.8,0,0,1,9.92,5.32c1.4,1.18,3.81-.35,3.84-2.43,0-.84,0-1.67,0-2.51a7.38,7.38,0,0,1,1.8-4.78,8.39,8.39,0,0,1,5-2.49c4.11-.73,6.06,1.16,5.88,5.66q-.39,10.2-.6,20.42c-.11,5.48-2.17,8.49-6.24,9a6.74,6.74,0,0,1-3.73-.39,7.6,7.6,0,0,1-2.85-2.47c-8.78-11.55-19.44-15.88-32.2-13.6a46.26,46.26,0,0,0-21.81,10.71,57.61,57.61,0,0,0-15.55,20.89,56.5,56.5,0,0,0-4.67,26.49c.53,9.38,3.22,17.05,7.89,23.22A42.1,42.1,0,0,0,597,285a48.46,48.46,0,0,0,21.32,4,42.94,42.94,0,0,0,16.81-4.08,30.34,30.34,0,0,0,12.7-11.15c3.2-4.94,4.68-11.09,4.45-18.35a7.52,7.52,0,0,1,1.53-5.22,6.44,6.44,0,0,1,4.65-2.22Q665.19,247.34,665.37,254.35Z"/><path d="M749,282.27a27.65,27.65,0,0,0,2,4.86,9.25,9.25,0,0,1,1.25,3.09,6.23,6.23,0,0,1-1.69,4.26c-1.17,1.36-2.3,2-3.4,2.07-2.21,0-4.22-1.59-6-4.87a20.8,20.8,0,0,1-2.86-9.48c0-.92-.06-1.85-.08-2.78Q735,288.67,728,293.57a28.73,28.73,0,0,1-16.24,5.05c-9.35.18-16.52-3.4-21.48-10.57s-7.75-17.65-8.09-31.55q-.55-23.2-.28-46.36A5.66,5.66,0,0,1,683.7,206a7.68,7.68,0,0,1,4.5-2,6.51,6.51,0,0,1,4.7.95,4.25,4.25,0,0,1,1.79,3.77q-.35,23.67.15,47.38c.23,10.67,1.84,18.41,4.66,23.28s7.19,7.24,13,7.06c14.94-.4,21.65-16.8,21.55-49.18q0-16.51.29-33a7.75,7.75,0,0,1,1.78-5.12,6.82,6.82,0,0,1,4.58-2.26,5.45,5.45,0,0,1,6.55,6.1q-.4,36.42.79,73A22.72,22.72,0,0,0,749,282.27Z"/><path d="M830.42,196.44c3.88,5.45,5.77,12.31,5.67,20.52q-.12,11.68-5.63,18.62a18.36,18.36,0,0,1-14.16,7.27c-2.22.1-3.81-.25-4.75-1s-1.41-2.31-1.4-4.54c0-3.63,1.41-5.58,4.18-5.87q10.83-1.82,10.95-14.06a20.16,20.16,0,0,0-2.68-11q-2.76-4.46-9.08-4c-4.44.31-8.36,3-11.71,7.91a60.39,60.39,0,0,0-7.94,18A95.6,95.6,0,0,0,790.5,249q-.94,19.08-.57,36c.11,5.66-.21,9.39-1,11.19s-2.39,2.72-4.81,2.76-4.13-.67-5.1-2.09-1.52-3.9-1.6-7.46q-.57-19.57-.75-39.12c0-9-.61-20.86-1.52-35.49-.56-8.53-.81-14.62-.84-18.28a7.14,7.14,0,0,1,1.63-5.14,7,7,0,0,1,4.73-2.17q5.18-.48,5.35,5.67.35,6.24.52,12.35c.08,2.72,3,3.3,4.11.82a40.86,40.86,0,0,1,6.29-10c4.79-5.48,10.47-8.52,17-9Q824.63,188.29,830.42,196.44Z"/><path d="M861.58,292.51a8.06,8.06,0,0,1-1.81-5.57q-1.38-76.56.92-152.84a9.18,9.18,0,0,1,2-5.84,6.94,6.94,0,0,1,4.84-2.45,4.77,4.77,0,0,1,4.35,1.68,7.81,7.81,0,0,1,1.44,5.37q-2.28,76.83-1,153.91a8.1,8.1,0,0,1-1.68,5.64,6.32,6.32,0,0,1-9.11.1Z"/><path d="M908.94,168.36a14.52,14.52,0,0,1-2.79-9.59,16.36,16.36,0,0,1,3.16-9.86,9.91,9.91,0,0,1,7.64-4.2,8.23,8.23,0,0,1,7.23,3.4q2.82,3.62,2.72,9.55a16.4,16.4,0,0,1-3.19,10,9.8,9.8,0,0,1-7.57,4.24A8.4,8.4,0,0,1,908.94,168.36Zm-.45,124.37a7.67,7.67,0,0,1-1.78-5.24q.51-46.51,1.86-93a8.73,8.73,0,0,1,1.8-5.75,6.31,6.31,0,0,1,4.75-2.14,5.68,5.68,0,0,1,4.69,1.81q1.71,1.92,1.68,5.87-1.29,46.54-1.84,93.11a8.21,8.21,0,0,1-1.87,5.39,5.91,5.91,0,0,1-4.54,1.9A6.05,6.05,0,0,1,908.49,292.73Z"/><path d="M1019.38,235.85q0,26,0,51.91,0,7.77-6.15,7.75-6.63,0-6.63-7.55,0-26.19,0-52.37,0-19.51-3.34-28.72t-11.93-9.18c-6.07,0-11,3.17-14.92,9.4s-6.61,14.39-8.16,24.44a172.86,172.86,0,0,0-1.51,25q.09,16.38.21,32.78a6.46,6.46,0,0,1-1.64,4.76,6.06,6.06,0,0,1-4.48,1.68A6.26,6.26,0,0,1,956,294a6.54,6.54,0,0,1-1.68-4.64c0-13.12-.3-29.11-.72-48q-.48-16.35-.43-28.94a33.05,33.05,0,0,0-.88-8.71,65.17,65.17,0,0,0-3.51-8.87,6.66,6.66,0,0,1-.64-3.08,7.25,7.25,0,0,1,2.27-5,6.45,6.45,0,0,1,4.39-2.41q2.15,0,4.44,4.11A53.8,53.8,0,0,1,962.6,197a30.88,30.88,0,0,1,1.54,9.38c0,.81,0,1.62,0,2.43a44.86,44.86,0,0,1,9.66-18.48q6.63-7.38,17.53-7.46C1009.9,182.76,1019.32,200.54,1019.38,235.85Z"/><path d="M1117.55,270.56q1.11,9.38,1.55,14.38a104.23,104.23,0,0,1,.39,10.45q-.21,16.51-5.42,29t-14.39,19.5a34.33,34.33,0,0,1-21,7.07,28.49,28.49,0,0,1-16.2-4.87,35.75,35.75,0,0,1-12-13.24,36.92,36.92,0,0,1-4.4-18q0-6.64,6.17-6.63a3.86,3.86,0,0,1,3,1.22,8.31,8.31,0,0,1,1.54,4.1q1.89,11.71,7.68,17.45a19.47,19.47,0,0,0,14.35,5.7,23.34,23.34,0,0,0,20.46-11c4.85-7.3,7.39-17.41,7.53-30.37q0-4.17-.48-10c-.22-2.38-2.4-3.41-3.7-1.73a30.8,30.8,0,0,1-7.79,7.12,29.08,29.08,0,0,1-16.21,4.38,33.32,33.32,0,0,1-21.51-7.62,47.76,47.76,0,0,1-14.14-20,73.06,73.06,0,0,1-4.91-26.83,80.16,80.16,0,0,1,4.73-27.84q4.74-13,13.53-20.77a28.37,28.37,0,0,1,20.35-7.4,29.8,29.8,0,0,1,13.2,3.29,29.27,29.27,0,0,1,6.6,4.67c1.22,1.17,2.88.59,3.35-1.23q1.62-6.34,2-7.35c1-2.43,2.36-3.61,4.24-3.53a8.1,8.1,0,0,1,4.76,2,6.27,6.27,0,0,1,2.48,4.47,8.34,8.34,0,0,1-.13,1.95c-.1.57-.43,2.15-1,4.74s-1.25,6.11-2.14,10.88a4,4,0,0,0,0,1.14q3.29,26.74,6.19,53.39Q1116.92,264.79,1117.55,270.56Zm-28.1,6a33.92,33.92,0,0,0,9.5-7.32,19.09,19.09,0,0,0,4.72-8.22,3.58,3.58,0,0,0,.08-1.13c-.57-7.06-1.87-18.55-4-34.5q-.76-5.53-1.54-11.06a3.84,3.84,0,0,0-.15-.69,17.22,17.22,0,0,0-3.77-5.81,27.49,27.49,0,0,0-7.53-5.6,21.69,21.69,0,0,0-9.47-2.47,19.44,19.44,0,0,0-13.8,5.06,34.62,34.62,0,0,0-9.36,14.5,64.26,64.26,0,0,0-.24,40.11,32.57,32.57,0,0,0,9.36,14.45,23,23,0,0,0,15.42,5.54A22.55,22.55,0,0,0,1089.45,276.6Z"/><path d="M1240.7,206.05c4.17,8.34,6.34,19.59,6.31,33.86,0,22.63-.57,39.81-1,51.54a7,7,0,0,1-1.72,4.63,6.38,6.38,0,0,1-8.93-.17,7.57,7.57,0,0,1-1.42-5.14q.72-25.22.75-50.4c0-12.24-1.18-21.15-3.43-26.77s-6.36-8.69-12.27-9.17c-5.57-.45-9.61,3.1-12.17,10.68s-3.87,16.68-4,27.24q0,8-.06,16.06-.12,15.85-.47,31.71c-.1,4.46-2.2,6.65-6.28,6.6-4.31-.07-6.39-2.48-6.3-7.25q.45-19,.6-38.05c0-3.22,0-6.45,0-9.67a76.63,76.63,0,0,0-4.94-27.08c-3.17-8.11-7.45-12.38-12.78-12.72q-6.16-.39-10.11,7.16c-2.65,5-4.78,13.22-6.49,24.56-1,6.81-1.43,16.72-1.5,29.71q0,7.08-.12,14.15-.06,6.21-.16,12.43a5.82,5.82,0,0,1-1.89,4.59,6.36,6.36,0,0,1-8.69-.32,6.32,6.32,0,0,1-1.51-4.65c.18-14.51.31-37.72-.21-69.6l-.09-8.18a29.36,29.36,0,0,0-1.11-7.8,16.66,16.66,0,0,0-2.4-4.43l-.22-.28a7,7,0,0,1-1.1-6.67,6.83,6.83,0,0,1,1.16-1.89,4.93,4.93,0,0,1,4.11-1.92,4.79,4.79,0,0,1,2.77,1.77,19,19,0,0,1,2.82,3.92,26.37,26.37,0,0,1,2.7,6.58,35.5,35.5,0,0,1,.87,7.75c0,1.22,0,2.44,0,3.65q2.65-12.07,8.17-18a15.86,15.86,0,0,1,13.34-5.39c9.57.68,16.55,6.93,20.81,18.57.84,2.28,3.3,2.44,4,.28a27.17,27.17,0,0,1,6.46-10.74q6-5.86,15.22-5C1229.43,193,1236.54,197.73,1240.7,206.05Z"/><path d="M1277.2,286.88c-8-8.11-11.71-20.79-11.54-37.78.11-10.61,1.78-19.82,5.14-27.5s8.2-13.41,14.63-17.12,14.08-5,23-3.88a51.21,51.21,0,0,1,23.2,8.8,48.48,48.48,0,0,1,16.07,18.84c3.82,7.8,5.58,16.71,5.23,26.86-.51,14.76-5.13,25.72-13.46,33.24s-18.94,11.28-31.79,11C1295.24,299.08,1285.13,295,1277.2,286.88Zm53.11-7.66c6.07-5.64,9.39-14,9.73-25.32a46.81,46.81,0,0,0-3.54-20,36.2,36.2,0,0,0-11.07-14.59,32.29,32.29,0,0,0-16.49-6.64c-9.23-1-16.55,1.77-22,8.53s-8.24,16.27-8.38,28.33c-.16,12.73,2.53,22.2,8.2,28.29a29.12,29.12,0,0,0,21.21,9.5A30.21,30.21,0,0,0,1330.31,279.22Z"/><path d="M1428.83,224.88a24.17,24.17,0,0,1,5.45,16.83c-.33,5.91-2.51,10.33-6.44,13.36s-8.83,4.31-14.64,3.76c-2.24-.22-3.82-.7-4.73-1.47s-1.32-2-1.22-3.84q.23-4.38,4.46-4.09c7.34.12,11.22-3,11.53-9.3a14.47,14.47,0,0,0-2.53-9.11c-1.85-2.69-4.94-4.36-9.27-5a13.51,13.51,0,0,0-12,4.12,37.63,37.63,0,0,0-8.34,13.54,68.9,68.9,0,0,0-4.13,16.88q-1.85,15.87-3,30.16c-.38,4.75-1.07,7.87-2,9.36s-2.65,2.2-5,2.14-4-.71-4.86-2-1.13-3.43-.89-6.5q1.18-16.9,1.89-33.8a275.67,275.67,0,0,0-.72-30.94c-.56-7.52-.95-12.89-1.06-16.09-.11-1.9.4-3.28,1.54-4.11a6.25,6.25,0,0,1,4.77-.79c3.54.53,5.42,2.56,5.64,6.07s.53,7.13.67,10.62c.1,2.33,3,3.37,4.19,1.51a24.34,24.34,0,0,1,6.37-7c4.83-3.55,10.63-4.73,17.38-3.66C1419.16,216.69,1424.87,219.86,1428.83,224.88Z"/><path d="M696.18,403.71c.54,4.43-1.56,6.41-6.3,5.9l-.38,0c-1.18-.12-2,.93-1.75,2.33q3.36,21.6,7.26,43.28.65,3.22-.58,4.95t-4,1.22a8,8,0,0,1-4.76-2.55,10.93,10.93,0,0,1-2.52-5.21q-4.1-21.84-7.63-43.59a3.14,3.14,0,0,0-2.39-2.6Q649,404.33,625,400.93a1.51,1.51,0,0,0-1.73,1.84q2.21,21.56,5.2,43,.56,4.72-4.79,3.6-6.41-1.38-7.21-7-3-20.51-5.28-41.15a3.18,3.18,0,0,0-2.5-2.68l-.73-.09a9.49,9.49,0,0,1-4.82-2.09,7.49,7.49,0,0,1-2.68-4.57q-.53-2.83,1.1-4.12a6.14,6.14,0,0,1,4.61-1l1.69.19a1.54,1.54,0,0,0,1.73-1.84q-2.57-26.5-3.81-53.25c-.15-2,.35-3.52,1.49-4.47a6.31,6.31,0,0,1,4.3-1.4,6.17,6.17,0,0,1,4.93,2,8.27,8.27,0,0,1,1.85,4.94q1.07,26.83,3.41,53.44a3.08,3.08,0,0,0,2.45,2.68q23.26,2.83,46.66,5.46c1.2.13,2-.92,1.8-2.32q-4.52-29.46-7.91-58.73a6.92,6.92,0,0,1,1.19-5.13,5.28,5.28,0,0,1,4.41-1.81,6.57,6.57,0,0,1,4.8,1.91,7.27,7.27,0,0,1,2.09,4.68q3.27,30.18,7.72,60.54a3,3,0,0,0,2.4,2.59l.82.08Q695.37,396.88,696.18,403.71Z"/><path d="M785,452.81a8.17,8.17,0,0,1,1.53,4.64,8,8,0,0,1-.69,4.8,2.83,2.83,0,0,1-3,1.49c-4.28-.48-7.52-1.74-9.75-3.73a21.78,21.78,0,0,1-4.49-6.43c-.85-1.7-2.64-2.13-3.41-.83-4.11,7-11.33,9.71-21.76,8.29A38.21,38.21,0,0,1,722,451.18a56,56,0,0,1-13.54-19.12,81.59,81.59,0,0,1-6.23-22.87,59.42,59.42,0,0,1,1.58-23.73,34.58,34.58,0,0,1,11-17.56c5.24-4.37,11.84-6.46,19.73-6.15A27,27,0,0,1,749,366.3a30.06,30.06,0,0,1,6.75,6.31c1.37,1.75,3.56,1,3.63-1.27h0c-.14-5,1.54-7.39,5-7.27a6.9,6.9,0,0,1,5.07,2.11,6.14,6.14,0,0,1,1.68,4.64L771,375.9q-.56,8.5-.33,17.65c.08,5.14.46,12.05,1.2,20.74q.6,7,1.25,14.07.81,8.76,1.62,13a19.36,19.36,0,0,0,2.28,6.6,6.27,6.27,0,0,0,4.49,2.89A7.22,7.22,0,0,1,785,452.81Zm-26-50.14c-.57-6.59-2.12-12-4.7-16.22a25.36,25.36,0,0,0-8.92-9.17,21.76,21.76,0,0,0-9.42-3c-5.7-.29-10.3,1.43-13.75,5.11a28.27,28.27,0,0,0-6.92,14,53.79,53.79,0,0,0-.75,17,62.24,62.24,0,0,0,8.36,24.94c4.51,7.63,10.89,12,19.14,13.06,6.16.75,11-.67,14.62-4.31s5.07-9.33,4.43-17Q760.24,417.6,758.93,402.67Z"/><path d="M876.33,416.75q1,25.37,2.4,50.74.4,7.59-5.41,7.21c-4.18-.29-6.43-2.89-6.72-7.78q-1.49-25.47-2.68-50.9-.85-19-4.44-28t-12.07-9.26c-6-.18-10.72,2.65-14.21,8.46s-5.72,13.44-6.65,22.95a155.18,155.18,0,0,0,.09,23.81q1.13,15.66,2.42,31.32a5.37,5.37,0,0,1-1.21,4.41,4.92,4.92,0,0,1-4.11,1.19,7.1,7.1,0,0,1-4.69-2.12,7.4,7.4,0,0,1-1.93-4.56c-1-12.46-2.44-27.67-4.09-45.6q-1.54-15.56-2.23-27.5a32.18,32.18,0,0,0-1.37-8.31,69.08,69.08,0,0,0-4-8.6,6.76,6.76,0,0,1-.81-2.95,6,6,0,0,1,2-4.63,5.72,5.72,0,0,1,4.2-2.07q2.13.06,4.6,4.12a55.2,55.2,0,0,1,3.73,8.21,30.25,30.25,0,0,1,2,9l.12,2.31A37.11,37.11,0,0,1,829.84,371c4.13-4.53,9.81-6.74,17-6.58C865.29,364.77,874.93,382.18,876.33,416.75Z"/><path d="M965.54,419.09q.26,26,.6,51.92c.06,5.18-1.85,7.74-5.73,7.65q-6.3-.15-6.44-7.69-.48-26.14-.86-52.27-.27-19.49-3.64-28.71t-11.86-9.32q-9-.12-14.5,9t-7.37,24a172.25,172.25,0,0,0-.72,24.77q.59,16.26,1.24,32.52a6.11,6.11,0,0,1-1.4,4.66,5.16,5.16,0,0,1-4.19,1.44,6.39,6.39,0,0,1-4.64-2,7.24,7.24,0,0,1-1.76-4.68c-.53-13-1.37-28.83-2.42-47.52q-1-16.2-1.37-28.66a34.19,34.19,0,0,0-1.14-8.65,68.61,68.61,0,0,0-3.74-8.92,7.06,7.06,0,0,1-.74-3.07,6.68,6.68,0,0,1,2.09-4.87,5.91,5.91,0,0,1,4.27-2.23c1.42,0,2.92,1.43,4.52,4.23a56.84,56.84,0,0,1,3.54,8.49,31.91,31.91,0,0,1,1.77,9.35l.06,2.41a41.05,41.05,0,0,1,9-18.06q6.4-7.15,17.23-7.06Q965.11,366.12,965.54,419.09Z"/><path d="M1007.55,481.92c-6.21-5.24-10.94-12.24-14.17-20.92a81.31,81.31,0,0,1-4.92-28.38,78,78,0,0,1,5.13-29q5.19-13.2,14.84-21a34.7,34.7,0,0,1,22.27-7.83,33.92,33.92,0,0,1,19.86,6,38.13,38.13,0,0,1,13.37,16.76c3.1,7.18,4.52,15.38,4.28,24.66q-.18,6.61-1.38,9.41c-.8,1.86-2.69,2.89-5.69,3.1q-29.46,1.49-58.92,2.32c-1.23,0-2.22,1.51-2.08,3.2a47,47,0,0,0,3.51,14.21,39.75,39.75,0,0,0,10.3,14.87,22,22,0,0,0,15.5,5.86,22.33,22.33,0,0,0,11.41-2.95,26.53,26.53,0,0,0,7.58-6.48,120.16,120.16,0,0,0,6.75-10.11,4,4,0,0,1,3.55-2.07,4.86,4.86,0,0,1,3.84,2.11,7.37,7.37,0,0,1,1.67,5,10.46,10.46,0,0,1-1.4,4.67,68.82,68.82,0,0,1-12.69,16.94c-4.9,4.7-11.71,7.16-20.48,7.29A32.35,32.35,0,0,1,1007.55,481.92Zm48.71-66.77c1,6.17,1.52,5.13,1.57,3.07q.29-13.28-7.36-21.48t-19.58-8.15a23.64,23.64,0,0,0-16,6.28A44.36,44.36,0,0,0,1004,409.55a43.9,43.9,0,0,0-3.55,10.53c-.34,1.87.73,3.66,2.12-2.61Q1029.39,416.54,1056.26,415.15Z"/><path class="cls-24" d="M756.62,143.75l-17.36,12.18c-7.41-5.71,0-6.51-8.92-3.65l-2.66-.75c-22.42,7.2-119.43-23.17-111.5-45.35L603.55,92.37c3.14-8.81,10.29-2.87,4.82-10.45l8.22-5.13c-13.78-19.1,7.69-38.86,31.24-38.18l35.91,7.65c9.35.27,22.8-5.46,28.32-13l-11.58,9.33c13.91-19,43.58-13.82,50.21,8.78l11.5,7.4c14.34,17.71,77.33,67.91,6.89,11.6h0c22.38,7.36,26.61,37.18,7.16,50.46h0c-7.72,5.28-3.71,17.42-12.38,23.37h0C763.78,167.74,775.26,158.14,756.62,143.75Z"/><path d="M626.75,562.85c-1.09-.63-1.63-1.88-2.29-3.18s-1.17-2.18-.56-3.72a4.78,4.78,0,0,1,3.47-3,4.89,4.89,0,0,1,4.4,1.29c1.26,1.16,1.12,2.31,1.05,3.64s0,2.72-.81,3.78a4.19,4.19,0,0,1-2.35,1.85A3.89,3.89,0,0,1,626.75,562.85Zm-2.37-14.5a3.08,3.08,0,0,1-1.47-1.78c-4.56-13.49-7.91-26-12-39.51-.31-.88-.52-1.82-1-3.58-.66-2.29,3.6-2.1,6.51-2.72,2.7-.57,4.93-1.3,6.55-.6.56.23.72.72.94,1.66,1.74,14,4.45,28.92,6.22,43.07a3.57,3.57,0,0,1-.81,2.37,4.13,4.13,0,0,1-2.39,1.22A4.07,4.07,0,0,1,624.38,548.35Z"/><path d="M615,602.87c-2.21-.15-3.73-1.62-5.5-3.08-1.61-1.33-3-2.39-2.73-5.13a9.69,9.69,0,0,1,4.61-7,10,10,0,0,1,8.25-1.26c2.74.82,3,2.64,3.56,4.66s1.25,4.06.37,6.21-1.81,3.56-3.2,4.44A8.3,8.3,0,0,1,615,602.87ZM604,583a4.61,4.61,0,0,1-3.39-1.6c-14.32-16.75-26.06-32.91-39.59-50.05-1-1.1-1.76-2.33-3.48-4.58-2.23-2.94,5.25-5.72,10-8.74,4.43-2.8,8-5.49,11.11-5.63,1.07-.05,1.58.56,2.41,1.8,9.68,19.61,21.42,39.77,31.2,59.53a5.44,5.44,0,0,1-.29,4.11,9.07,9.07,0,0,1-3.56,3.53A9.27,9.27,0,0,1,604,583Z"/><path class="cls-25" d="M188.33,664.57c0,5.88,3.28,22.95-2.6,22.95L184,691.34"/><path class="cls-25" d="M183.08,664.57c0,5.88,3.27,22.95-2.6,22.95l-1.74,3.82"/><path class="cls-25" d="M274.5,647.27c0,8.91,4.88,34.77-3.86,34.77l-2.6,5.79"/><path class="cls-25" d="M263.49,647.27c0,8.91,4.88,34.77-3.87,34.77L257,687.83"/><path class="cls-25" d="M254.21,647.27c0,8.91,4.88,34.77-3.87,34.77l-2.59,5.79"/><path class="cls-25" d="M245.18,647.27c0,8.91,4.87,34.77-3.87,34.77l-2.59,5.79"/><path class="cls-25" d="M223.15,651.35c0,8.9,4.88,34.76-3.86,34.76l-2.6,5.79"/><path class="cls-25" d="M234.16,651.35c0,8.9,4.88,34.76-3.86,34.76l-2.6,5.79"/><path class="cls-25" d="M229.54,647.27c0,8.91,4.88,34.77-3.86,34.77l-2.6,5.79"/><path class="cls-25" d="M216.76,647.27c0,8.91,4.88,34.77-3.86,34.77l-2.6,5.79"/><path class="cls-25" d="M208.94,651.35c0,8.9,4.88,34.76-3.86,34.76l-2.6,5.79"/><path class="cls-25" d="M178.66,647.27c0,8.91,4.87,34.77-3.87,34.77l-2.59,5.79"/><path class="cls-25" d="M201.13,647.27c0,8.91,4.87,34.77-3.87,34.77l-2.59,5.79"/><path class="cls-25" d="M174.75,647.27c0,8.91,4.88,34.77-3.87,34.77l-2.59,5.79"/><path class="cls-25" d="M178.72,686.94c1.53-8.76,1.17-35.1,9.78-33.54l3.55-5.24"/><path class="cls-25" d="M241.26,684.9c1.08-6.15-1.9-25.12,9-23.14l3.94-3.41"/><path class="cls-25" d="M221.21,683.29c-3.92-7.95-19.67-28.84-11.86-32.84l-.23-6.36"/><path class="cls-26" d="M198.57,686.94c1.54-8.76,1.18-35.1,9.79-33.54l3.55-5.24"/><path class="cls-26" d="M201.1,686.49c-3.61-8.11-18.52-29.62-10.55-33.29l0-6.37"/><path class="cls-26" d="M240.78,686.86c-2.94-8.38-16.08-31.06-7.85-34.06l.53-6.34"/><path class="cls-26" d="M220.32,682.87c1.53-8.76,1.18-35.1,9.79-33.54l3.55-5.24"/><path class="cls-26" d="M182.77,686.05c1.53-8.76,1.18-35.1,9.78-33.54l3.55-5.24"/><path class="cls-26" d="M169.44,682.87c1.53-8.76,1.17-35.1,9.78-33.54l3.55-5.24"/><path class="cls-25" d="M339.88,646.14c0,9.37,4.53,36.61-3.59,36.61l-2.41,6.1"/><path class="cls-25" d="M329.66,646.14c0,9.37,4.52,36.61-3.59,36.61l-2.41,6.1"/><path class="cls-25" d="M321,646.14c0,9.37,4.53,36.61-3.59,36.61l-2.41,6.1"/><path class="cls-25" d="M312.65,646.14c0,9.37,4.53,36.61-3.59,36.61l-2.41,6.1"/><path class="cls-25" d="M292.2,650.43c0,9.37,4.53,36.62-3.59,36.62l-2.41,6.1"/><path class="cls-25" d="M302.43,650.43c0,9.37,4.53,36.62-3.59,36.62l-2.41,6.1"/><path class="cls-25" d="M298.14,646.14c0,9.37,4.52,36.61-3.59,36.61l-2.41,6.1"/><path class="cls-25" d="M286.27,646.14c0,9.37,4.53,36.61-3.59,36.61l-2.41,6.1"/><path class="cls-25" d="M279,650.43c0,9.37,4.53,36.62-3.59,36.62l-2.41,6.1"/><path class="cls-25" d="M250.89,646.14c0,9.37,4.53,36.61-3.59,36.61l-2.41,6.1"/><path class="cls-25" d="M271.75,646.14c0,9.37,4.53,36.61-3.59,36.61l-2.41,6.1"/><path class="cls-25" d="M247.26,646.14c0,9.37,4.53,36.61-3.59,36.61l-2.41,6.1"/><path class="cls-25" d="M251,687.92c1.42-9.23,1.09-37,9.08-35.33l3.3-5.52"/><path class="cls-25" d="M309,685.77c1-6.48-1.77-26.46,8.38-24.37l3.66-3.6"/><path class="cls-25" d="M290.4,684.08c-3.64-8.39-18.27-30.39-11-34.59l-.22-6.7"/><path class="cls-26" d="M269.38,687.92c1.42-9.23,1.09-37,9.09-35.33l3.29-5.52"/><path class="cls-26" d="M271.72,687.45c-3.34-8.55-17.19-31.21-9.79-35.08l0-6.7"/><path class="cls-26" d="M308.57,687.84c-2.73-8.83-14.93-32.72-7.29-35.88l.5-6.68"/><path class="cls-26" d="M289.58,683.63c1.42-9.23,1.09-37,9.08-35.32l3.3-5.52"/><path class="cls-26" d="M254.71,687c1.42-9.23,1.09-37,9.08-35.33l3.3-5.51"/><path class="cls-26" d="M242.33,683.63c1.42-9.23,1.09-37,9.08-35.32l3.3-5.52"/><path class="cls-25" d="M389.24,646.18c0,9.5,3.93,37.11-3.11,37.11L384,689.48"/><path class="cls-25" d="M380.37,646.18c0,9.5,3.93,37.11-3.11,37.11l-2.09,6.19"/><path class="cls-25" d="M372.9,646.18c0,9.5,3.93,37.11-3.12,37.11l-2.09,6.19"/><path class="cls-25" d="M365.62,646.18c0,9.5,3.93,37.11-3.11,37.11l-2.09,6.19"/><path class="cls-25" d="M347.88,650.53c0,9.5,3.93,37.11-3.11,37.11l-2.09,6.19"/><path class="cls-25" d="M356.75,650.53c0,9.5,3.93,37.11-3.11,37.11l-2.09,6.19"/><path class="cls-25" d="M353,646.18c0,9.5,3.93,37.11-3.12,37.11l-2.09,6.19"/><path class="cls-25" d="M342.73,646.18c0,9.5,3.93,37.11-3.11,37.11l-2.09,6.19"/><path class="cls-25" d="M336.44,650.53c0,9.5,3.92,37.11-3.12,37.11l-2.09,6.19"/><path class="cls-25" d="M312,646.18c0,9.5,3.93,37.11-3.12,37.11l-2.09,6.19"/><path class="cls-25" d="M330.14,646.18c0,9.5,3.93,37.11-3.11,37.11l-2.09,6.19"/><path class="cls-25" d="M308.89,646.18c0,9.5,3.93,37.11-3.11,37.11l-2.09,6.19"/><path class="cls-25" d="M312.09,688.53c1.23-9.36.94-37.47,7.88-35.81l2.86-5.59"/><path class="cls-25" d="M362.47,686.35c.86-6.56-1.54-26.82,7.27-24.7l3.18-3.65"/><path class="cls-25" d="M346.32,684.63c-3.16-8.49-15.85-30.79-9.56-35l-.18-6.79"/><path class="cls-26" d="M328.08,688.53c1.24-9.36.95-37.47,7.88-35.81l2.86-5.59"/><path class="cls-26" d="M330.11,688.05c-2.9-8.66-14.91-31.63-8.49-35.55v-6.79"/><path class="cls-26" d="M362.08,688.45c-2.37-9-12.95-33.17-6.32-36.37l.43-6.77"/><path class="cls-26" d="M345.6,684.18c1.24-9.35.95-37.46,7.88-35.8l2.86-5.59"/><path class="cls-26" d="M315.35,687.58c1.24-9.36.95-37.47,7.88-35.81l2.86-5.59"/><path class="cls-26" d="M304.61,684.18c1.24-9.35.95-37.46,7.88-35.8l2.86-5.59"/><path class="cls-25" d="M351,685.24c.68-8-1.17-31.43,5.68-31.07l2.48-5.1"/><path class="cls-25" d="M359.61,685.69c.68-8-1.18-31.43,5.68-31.07l2.47-5.09"/><path class="cls-25" d="M366.89,686.08c.67-8-1.18-31.44,5.67-31.08l2.48-5.09"/><path class="cls-25" d="M374,686.45c.68-8-1.18-31.43,5.68-31.08l2.47-5.09"/><path class="cls-25" d="M391.55,683.69c.68-8-1.18-31.43,5.68-31.07l2.47-5.1"/><path class="cls-25" d="M382.91,683.24c.68-8-1.17-31.43,5.68-31.07l2.48-5.1"/><path class="cls-25" d="M386.23,687.09c.68-8-1.18-31.43,5.68-31.07l2.47-5.1"/><path class="cls-25" d="M396.25,687.61c.68-8-1.18-31.43,5.68-31.07l2.47-5.09"/><path class="cls-25" d="M402.69,684.28c.68-8-1.18-31.44,5.68-31.08l2.47-5.09"/><path class="cls-25" d="M426.13,689.18c.68-8-1.18-31.43,5.68-31.07l2.47-5.1"/><path class="cls-25" d="M408.51,688.26c.68-8-1.18-31.43,5.68-31.08l2.47-5.09"/><path class="cls-25" d="M429.19,689.34c.68-8-1.17-31.43,5.68-31.07l2.48-5.1"/><path class="cls-25" d="M429.1,653.54c-1.87,7.81-3.59,31.48-10.22,29.73l-3.19,4.56"/><path class="cls-25" d="M379.9,652.8c-1.31,5.48-.42,22.65-8.84,20.42l-3.35,2.91"/><path class="cls-25" d="M395.5,655.07c2.47,7.31,13.23,26.72,6.8,30l-.3,5.72"/><path class="cls-26" d="M413.53,652.73c-1.87,7.81-3.59,31.48-10.22,29.72L400.12,687"/><path class="cls-26" d="M411.52,653c2.21,7.44,12.26,27.38,5.74,30.35l-.5,5.72"/><path class="cls-26" d="M380.43,651.06c1.67,7.65,10.24,28.57,3.56,30.92l-.9,5.68"/><path class="cls-26" d="M396.17,655.49c-1.87,7.81-3.6,31.48-10.23,29.73l-3.18,4.56"/><path class="cls-26" d="M425.86,654.17c-1.87,7.82-3.6,31.49-10.23,29.73l-3.18,4.56"/><path class="cls-26" d="M436.07,657.58c-1.87,7.81-3.59,31.48-10.23,29.73l-3.18,4.56"/><path class="cls-25" d="M1134.36,645.06c0,9.5,3.93,37.11-3.11,37.11l-2.09,6.19"/><path class="cls-25" d="M1125.49,645.06c0,9.5,3.93,37.11-3.11,37.11l-2.09,6.19"/><path class="cls-25" d="M1118,645.06c0,9.5,3.93,37.11-3.12,37.11l-2.09,6.19"/><path class="cls-25" d="M1110.74,645.06c0,9.5,3.93,37.11-3.11,37.11l-2.09,6.19"/><path class="cls-25" d="M1093,649.41c0,9.5,3.93,37.11-3.11,37.11l-2.09,6.18"/><path class="cls-25" d="M1101.87,649.41c0,9.5,3.93,37.11-3.11,37.11l-2.09,6.18"/><path class="cls-25" d="M1098.15,645.06c0,9.5,3.93,37.11-3.12,37.11l-2.09,6.19"/><path class="cls-25" d="M1087.85,645.06c0,9.5,3.93,37.11-3.11,37.11l-2.09,6.19"/><path class="cls-25" d="M1081.56,649.41c0,9.5,3.92,37.11-3.12,37.11l-2.09,6.18"/><path class="cls-25" d="M1057.16,645.06c0,9.5,3.93,37.11-3.12,37.11l-2.09,6.19"/><path class="cls-25" d="M1075.26,645.06c0,9.5,3.93,37.11-3.12,37.11l-2.09,6.19"/><path class="cls-25" d="M1054,645.06c0,9.5,3.93,37.11-3.11,37.11l-2.09,6.19"/><path class="cls-25" d="M1057.21,687.41c1.23-9.36.94-37.47,7.88-35.81L1068,646"/><path class="cls-25" d="M1107.59,685.23c.86-6.57-1.54-26.82,7.27-24.7l3.18-3.65"/><path class="cls-25" d="M1091.44,683.51c-3.16-8.49-15.85-30.79-9.56-35l-.18-6.79"/><path class="cls-26" d="M1073.2,687.41c1.24-9.36,1-37.47,7.88-35.81l2.86-5.59"/><path class="cls-26" d="M1075.23,686.93c-2.9-8.66-14.91-31.63-8.49-35.55v-6.79"/><path class="cls-26" d="M1107.2,687.33c-2.37-9-13-33.17-6.32-36.37l.43-6.77"/><path class="cls-26" d="M1090.72,683.06c1.23-9.35,1-37.47,7.88-35.8l2.86-5.59"/><path class="cls-26" d="M1060.47,686.46c1.24-9.36,1-37.47,7.88-35.81l2.86-5.59"/><path class="cls-26" d="M1049.73,683.06c1.24-9.35,1-37.47,7.88-35.8l2.86-5.59"/><path class="cls-25" d="M967.54,689.34c0-9.5-4.12-37.09,2.93-37.13l2.06-6.19"/><path class="cls-25" d="M976.41,689.3c0-9.51-4.12-37.1,2.93-37.13l2.06-6.2"/><path class="cls-25" d="M983.89,689.26c0-9.51-4.12-37.09,2.92-37.13l2.06-6.19"/><path class="cls-25" d="M991.17,689.22c0-9.5-4.12-37.09,2.92-37.13l2.06-6.19"/><path class="cls-25" d="M1008.88,684.78c0-9.5-4.11-37.09,2.93-37.13l2.06-6.19"/><path class="cls-25" d="M1000,684.83c0-9.51-4.12-37.1,2.93-37.13l2.06-6.19"/><path class="cls-25" d="M1003.76,689.16c0-9.51-4.12-37.1,2.92-37.13l2.06-6.2"/><path class="cls-25" d="M1014.05,689.1c0-9.5-4.11-37.09,2.93-37.12l2.06-6.2"/><path class="cls-25" d="M1020.33,684.72c-.05-9.5-4.12-37.09,2.92-37.13l2.06-6.19"/><path class="cls-25" d="M1044.75,689c0-9.51-4.12-37.1,2.92-37.13l2.06-6.19"/><path class="cls-25" d="M1026.65,689c-.05-9.5-4.12-37.09,2.92-37.13l2.06-6.19"/><path class="cls-25" d="M1047.9,688.93c-.05-9.5-4.12-37.09,2.92-37.13l2.06-6.19"/><path class="cls-25" d="M1044.48,646.6c-1.18,9.36-.75,37.47-7.7,35.85l-2.83,5.6"/><path class="cls-25" d="M994.11,649c-.83,6.57,1.68,26.81-7.14,24.75l-3.16,3.66"/><path class="cls-25" d="M1010.27,650.67c3.2,8.48,16,30.71,9.73,35l.23,6.79"/><path class="cls-26" d="M1028.49,646.68c-1.19,9.37-.76,37.48-7.7,35.85l-2.83,5.6"/><path class="cls-26" d="M1026.46,647.17c3,8.64,15.07,31.55,8.68,35.5l0,6.8"/><path class="cls-26" d="M994.49,646.94c2.41,8.93,13.12,33.1,6.51,36.33l-.4,6.77"/><path class="cls-26" d="M1011,651.12c-1.19,9.36-.75,37.47-7.7,35.84l-2.83,5.61"/><path class="cls-26" d="M1041.22,647.57c-1.18,9.36-.75,37.47-7.7,35.84l-2.83,5.61"/><path class="cls-26" d="M1052,650.91c-1.19,9.36-.76,37.47-7.7,35.84l-2.83,5.61"/><path class="cls-25" d="M1014.13,635.23c1.25,9.42,8.77,36.27,1.79,37.2l-1.26,6.4"/><path class="cls-25" d="M1005.33,636.4c1.25,9.42,8.78,36.27,1.8,37.2l-1.26,6.4"/><path class="cls-25" d="M997.92,637.38c1.25,9.42,8.78,36.27,1.8,37.2l-1.26,6.4"/><path class="cls-25" d="M990.71,638.34c1.25,9.42,8.78,36.27,1.79,37.2l-1.25,6.4"/><path class="cls-25" d="M973.69,645c1.25,9.42,8.78,36.27,1.8,37.2l-1.26,6.4"/><path class="cls-25" d="M982.49,643.81c1.25,9.42,8.77,36.28,1.79,37.2L983,687.42"/><path class="cls-25" d="M978.23,640c1.25,9.42,8.77,36.28,1.79,37.2l-1.26,6.41"/><path class="cls-25" d="M968,641.35c1.25,9.42,8.78,36.27,1.79,37.2l-1.25,6.4"/><path class="cls-25" d="M962.35,646.48c1.25,9.43,8.78,36.28,1.79,37.21l-1.26,6.4"/><path class="cls-25" d="M937.59,645.38c1.25,9.42,8.78,36.28,1.8,37.2L938.13,689"/><path class="cls-25" d="M955.54,643c1.25,9.42,8.77,36.28,1.79,37.2l-1.26,6.41"/><path class="cls-25" d="M934.47,645.8c1.25,9.42,8.78,36.27,1.8,37.2L935,689.4"/><path class="cls-25" d="M943.21,687.36c0-9.44-4-37.27,3.1-36.54l2.1-5.92"/><path class="cls-25" d="M992.87,678.57c0-6.62-5-26.38,4-25.44l2.67-4"/><path class="cls-25" d="M976.63,679c-4.25-8-19.76-28.44-14.08-33.49l-1.08-6.71"/><path class="cls-26" d="M959.07,685.25c0-9.44-4-37.27,3.1-36.53l2.1-5.92"/><path class="cls-26" d="M961,684.51c-4-8.2-18.95-29.39-13.1-34.12l-.88-6.74"/><path class="cls-26" d="M992.76,680.7c-3.53-8.56-17.2-31.17-11-35.22l-.47-6.76"/><path class="cls-26" d="M975.86,678.64c0-9.44-4-37.27,3.11-36.53l2.1-5.92"/><path class="cls-26" d="M946.32,686c0-9.44-4-37.27,3.11-36.54l2.1-5.92"/><path class="cls-26" d="M935.23,684c0-9.43-4-37.26,3.1-36.53l2.1-5.92"/><path class="cls-25" d="M1194.15,645.16c0,9.5,3.93,37.11-3.11,37.11l-2.09,6.19"/><path class="cls-25" d="M1185.28,645.16c0,9.5,3.93,37.11-3.11,37.11l-2.09,6.19"/><path class="cls-25" d="M1177.8,645.16c0,9.5,3.93,37.11-3.11,37.11l-2.09,6.19"/><path class="cls-25" d="M1170.53,645.16c0,9.5,3.93,37.11-3.11,37.11l-2.1,6.19"/><path class="cls-25" d="M1152.79,649.51c0,9.5,3.93,37.11-3.12,37.11l-2.09,6.19"/><path class="cls-25" d="M1161.66,649.51c0,9.5,3.93,37.11-3.12,37.11l-2.09,6.19"/><path class="cls-25" d="M1157.94,645.16c0,9.5,3.92,37.11-3.12,37.11l-2.09,6.19"/><path class="cls-25" d="M1147.64,645.16c0,9.5,3.93,37.11-3.11,37.11l-2.09,6.19"/><path class="cls-25" d="M1141.34,649.51c0,9.5,3.93,37.11-3.11,37.11l-2.09,6.19"/><path class="cls-25" d="M1117,645.16c0,9.5,3.92,37.11-3.12,37.11l-2.09,6.19"/><path class="cls-25" d="M1135.05,645.16c0,9.5,3.93,37.11-3.12,37.11l-2.09,6.19"/><path class="cls-25" d="M1113.8,645.16c0,9.5,3.93,37.11-3.12,37.11l-2.09,6.19"/><path class="cls-25" d="M1117,687.51c1.23-9.36.94-37.47,7.88-35.81l2.86-5.59"/><path class="cls-25" d="M1167.38,685.33c.86-6.56-1.54-26.82,7.27-24.7l3.18-3.65"/><path class="cls-25" d="M1151.22,683.61c-3.15-8.49-15.84-30.79-9.55-35.05l-.19-6.79"/><path class="cls-26" d="M1133,687.51c1.23-9.36,1-37.47,7.88-35.81l2.86-5.59"/><path class="cls-26" d="M1135,687c-2.9-8.66-14.91-31.63-8.5-35.55l0-6.79"/><path class="cls-26" d="M1167,687.43c-2.37-8.95-13-33.17-6.32-36.37l.42-6.77"/><path class="cls-26" d="M1150.51,683.16c1.23-9.35,1-37.46,7.88-35.8l2.86-5.59"/><path class="cls-26" d="M1120.26,686.56c1.23-9.36,1-37.47,7.88-35.81l2.86-5.59"/><path class="cls-26" d="M1109.52,683.16c1.23-9.35,1-37.46,7.88-35.8l2.86-5.59"/><path class="cls-25" d="M1257.18,645.16c0,9.5,3.93,37.11-3.11,37.11l-2.09,6.19"/><path class="cls-25" d="M1248.31,645.16c0,9.5,3.93,37.11-3.11,37.11l-2.09,6.19"/><path class="cls-25" d="M1240.83,645.16c0,9.5,3.93,37.11-3.11,37.11l-2.09,6.19"/><path class="cls-25" d="M1233.56,645.16c0,9.5,3.93,37.11-3.12,37.11l-2.09,6.19"/><path class="cls-25" d="M1215.82,649.51c0,9.5,3.92,37.11-3.12,37.11l-2.09,6.19"/><path class="cls-25" d="M1224.69,649.51c0,9.5,3.93,37.11-3.12,37.11l-2.09,6.19"/><path class="cls-25" d="M1221,645.16c0,9.5,3.93,37.11-3.11,37.11l-2.09,6.19"/><path class="cls-25" d="M1210.67,645.16c0,9.5,3.93,37.11-3.12,37.11l-2.09,6.19"/><path class="cls-25" d="M1204.37,649.51c0,9.5,3.93,37.11-3.11,37.11l-2.09,6.19"/><path class="cls-25" d="M1180,645.16c0,9.5,3.93,37.11-3.11,37.11l-2.09,6.19"/><path class="cls-25" d="M1198.07,645.16c0,9.5,3.93,37.11-3.11,37.11l-2.09,6.19"/><path class="cls-25" d="M1176.83,645.16c0,9.5,3.92,37.11-3.12,37.11l-2.09,6.19"/><path class="cls-25" d="M1180,687.51c1.24-9.36,1-37.47,7.88-35.81l2.86-5.59"/><path class="cls-25" d="M1230.4,685.33c.87-6.56-1.53-26.82,7.28-24.7l3.17-3.65"/><path class="cls-25" d="M1214.25,683.61c-3.16-8.49-15.85-30.79-9.55-35.05l-.19-6.79"/><path class="cls-26" d="M1196,687.51c1.23-9.36.94-37.47,7.88-35.81l2.86-5.59"/><path class="cls-26" d="M1198.05,687c-2.9-8.66-14.92-31.63-8.5-35.55l0-6.79"/><path class="cls-26" d="M1230,687.43c-2.37-8.95-13-33.17-6.33-36.37l.43-6.77"/><path class="cls-26" d="M1213.54,683.16c1.23-9.35.94-37.46,7.88-35.8l2.86-5.59"/><path class="cls-26" d="M1183.29,686.56c1.23-9.36.94-37.47,7.88-35.81l2.86-5.59"/><path class="cls-26" d="M1172.55,683.16c1.23-9.35.94-37.46,7.88-35.8l2.86-5.59"/><path class="cls-25" d="M1316.07,648.93c0,9.5,3.93,37.11-3.12,37.11l-2.09,6.19"/><path class="cls-25" d="M1307.2,648.93c0,9.5,3.93,37.11-3.12,37.11l-2.09,6.19"/><path class="cls-25" d="M1299.72,648.93c0,9.5,3.93,37.11-3.11,37.11l-2.09,6.19"/><path class="cls-25" d="M1292.44,648.93c0,9.5,3.93,37.11-3.11,37.11l-2.09,6.19"/><path class="cls-25" d="M1274.7,653.28c0,9.5,3.93,37.11-3.11,37.11l-2.09,6.19"/><path class="cls-25" d="M1283.57,653.28c0,9.5,3.93,37.11-3.11,37.11l-2.09,6.19"/><path class="cls-25" d="M1279.85,648.93c0,9.5,3.93,37.11-3.11,37.11l-2.09,6.19"/><path class="cls-25" d="M1269.56,648.93c0,9.5,3.92,37.11-3.12,37.11l-2.09,6.19"/><path class="cls-25" d="M1263.26,653.28c0,9.5,3.93,37.11-3.12,37.11l-2.09,6.19"/><path class="cls-25" d="M1238.86,648.93c0,9.5,3.93,37.11-3.11,37.11l-2.09,6.19"/><path class="cls-25" d="M1257,648.93c0,9.5,3.93,37.11-3.11,37.11l-2.09,6.19"/><path class="cls-25" d="M1235.71,648.93c0,9.5,3.93,37.11-3.11,37.11l-2.09,6.19"/><path class="cls-25" d="M1238.91,691.28c1.23-9.36.95-37.47,7.88-35.81l2.86-5.59"/><path class="cls-25" d="M1289.29,689.1c.87-6.56-1.53-26.82,7.27-24.7l3.18-3.65"/><path class="cls-25" d="M1273.14,687.38c-3.16-8.49-15.85-30.79-9.55-35l-.19-6.79"/><path class="cls-26" d="M1254.91,691.28c1.23-9.36.94-37.47,7.88-35.81l2.86-5.59"/><path class="cls-26" d="M1256.94,690.8c-2.91-8.66-14.92-31.63-8.5-35.55l0-6.79"/><path class="cls-26" d="M1288.9,691.2c-2.37-9-13-33.17-6.32-36.37l.43-6.77"/><path class="cls-26" d="M1272.43,686.93c1.23-9.35.94-37.46,7.88-35.8l2.86-5.59"/><path class="cls-26" d="M1242.18,690.33c1.23-9.36.94-37.47,7.88-35.81l2.86-5.59"/><path class="cls-26" d="M1231.44,686.93c1.23-9.35.94-37.46,7.88-35.8l2.86-5.59"/><path class="cls-25" d="M1382.15,644.68c0,9.51,3.93,37.12-3.11,37.12L1377,688"/><path class="cls-25" d="M1373.28,644.68c0,9.51,3.93,37.12-3.11,37.12l-2.09,6.18"/><path class="cls-25" d="M1365.8,644.68c0,9.51,3.93,37.12-3.11,37.12L1360.6,688"/><path class="cls-25" d="M1358.53,644.68c0,9.51,3.93,37.12-3.11,37.12l-2.1,6.18"/><path class="cls-25" d="M1340.79,649c0,9.51,3.93,37.12-3.12,37.12l-2.09,6.18"/><path class="cls-25" d="M1349.66,649c0,9.51,3.93,37.12-3.12,37.12l-2.09,6.18"/><path class="cls-25" d="M1345.94,644.68c0,9.51,3.92,37.12-3.12,37.12l-2.09,6.18"/><path class="cls-25" d="M1335.64,644.68c0,9.51,3.93,37.12-3.11,37.12l-2.09,6.18"/><path class="cls-25" d="M1329.34,649c0,9.51,3.93,37.12-3.11,37.12l-2.09,6.18"/><path class="cls-25" d="M1305,644.68c0,9.51,3.92,37.12-3.12,37.12l-2.09,6.18"/><path class="cls-25" d="M1323.05,644.68c0,9.51,3.93,37.12-3.12,37.12l-2.09,6.18"/><path class="cls-25" d="M1301.8,644.68c0,9.51,3.93,37.12-3.12,37.12l-2.09,6.18"/><path class="cls-25" d="M1305,687c1.23-9.36.94-37.47,7.88-35.8l2.86-5.6"/><path class="cls-25" d="M1355.38,684.85c.86-6.56-1.54-26.81,7.27-24.7l3.18-3.64"/><path class="cls-25" d="M1339.22,683.14c-3.15-8.5-15.84-30.8-9.55-35.06l-.19-6.79"/><path class="cls-26" d="M1321,687c1.23-9.36,1-37.47,7.88-35.8l2.86-5.6"/><path class="cls-26" d="M1323,686.55c-2.9-8.66-14.91-31.63-8.5-35.54l0-6.8"/><path class="cls-26" d="M1355,687c-2.37-9-13-33.17-6.32-36.36l.42-6.77"/><path class="cls-26" d="M1338.51,682.69c1.23-9.36,1-37.47,7.88-35.81l2.86-5.59"/><path class="cls-26" d="M1308.26,686.08c1.23-9.36,1-37.47,7.88-35.8l2.86-5.6"/><path class="cls-26" d="M1297.52,682.69c1.23-9.36,1-37.47,7.88-35.81l2.86-5.59"/><path class="cls-25" d="M1442,644.68c0,9.51,3.93,37.12-3.11,37.12l-2.09,6.18"/><path class="cls-25" d="M1433.16,644.68c0,9.51,3.93,37.12-3.11,37.12L1428,688"/><path class="cls-25" d="M1425.68,644.68c0,9.51,3.93,37.12-3.11,37.12l-2.09,6.18"/><path class="cls-25" d="M1418.41,644.68c0,9.51,3.93,37.12-3.11,37.12l-2.1,6.18"/><path class="cls-25" d="M1400.67,649c0,9.51,3.93,37.12-3.12,37.12l-2.09,6.18"/><path class="cls-25" d="M1409.54,649c0,9.51,3.93,37.12-3.12,37.12l-2.09,6.18"/><path class="cls-25" d="M1405.82,644.68c0,9.51,3.92,37.12-3.12,37.12l-2.09,6.18"/><path class="cls-25" d="M1395.52,644.68c0,9.51,3.93,37.12-3.11,37.12l-2.09,6.18"/><path class="cls-25" d="M1389.22,649c0,9.51,3.93,37.12-3.11,37.12l-2.09,6.18"/><path class="cls-25" d="M1364.83,644.68c0,9.51,3.92,37.12-3.12,37.12l-2.09,6.18"/><path class="cls-25" d="M1382.93,644.68c0,9.51,3.93,37.12-3.12,37.12l-2.09,6.18"/><path class="cls-25" d="M1361.68,644.68c0,9.51,3.93,37.12-3.12,37.12l-2.09,6.18"/><path class="cls-25" d="M1364.88,687c1.23-9.36.94-37.47,7.88-35.8l2.86-5.6"/><path class="cls-25" d="M1415.26,684.85c.86-6.56-1.54-26.81,7.27-24.7l3.18-3.64"/><path class="cls-25" d="M1399.1,683.14c-3.15-8.5-15.84-30.8-9.55-35.06l-.19-6.79"/><path class="cls-26" d="M1380.87,687c1.23-9.36,1-37.47,7.88-35.8l2.86-5.6"/><path class="cls-26" d="M1382.9,686.55c-2.9-8.66-14.91-31.63-8.5-35.54l0-6.8"/><path class="cls-26" d="M1414.87,687c-2.37-9-13-33.17-6.32-36.36l.42-6.77"/><path class="cls-26" d="M1398.39,682.69c1.23-9.36.95-37.47,7.88-35.81l2.86-5.59"/><path class="cls-26" d="M1368.14,686.08c1.23-9.36.95-37.47,7.88-35.8l2.86-5.6"/><path class="cls-26" d="M1357.4,682.69c1.23-9.36.95-37.47,7.88-35.81l2.86-5.59"/><path class="cls-25" d="M1504.91,644.11c0,9.5,3.93,37.11-3.11,37.11l-2.09,6.19"/><path class="cls-25" d="M1496,644.11c0,9.5,3.93,37.11-3.11,37.11l-2.1,6.19"/><path class="cls-25" d="M1488.56,644.11c0,9.5,3.93,37.11-3.11,37.11l-2.09,6.19"/><path class="cls-25" d="M1481.29,644.11c0,9.5,3.93,37.11-3.12,37.11l-2.09,6.19"/><path class="cls-25" d="M1463.55,648.46c0,9.5,3.92,37.11-3.12,37.11l-2.09,6.18"/><path class="cls-25" d="M1472.42,648.46c0,9.5,3.92,37.11-3.12,37.11l-2.09,6.18"/><path class="cls-25" d="M1468.69,644.11c0,9.5,3.93,37.11-3.11,37.11l-2.09,6.19"/><path class="cls-25" d="M1458.4,644.11c0,9.5,3.93,37.11-3.12,37.11l-2.09,6.19"/><path class="cls-25" d="M1452.1,648.46c0,9.5,3.93,37.11-3.11,37.11l-2.09,6.18"/><path class="cls-25" d="M1427.7,644.11c0,9.5,3.93,37.11-3.11,37.11l-2.09,6.19"/><path class="cls-25" d="M1445.8,644.11c0,9.5,3.93,37.11-3.11,37.11l-2.09,6.19"/><path class="cls-25" d="M1424.55,644.11c0,9.5,3.93,37.11-3.11,37.11l-2.09,6.19"/><path class="cls-25" d="M1427.75,686.46c1.24-9.36,1-37.47,7.88-35.81l2.86-5.59"/><path class="cls-25" d="M1478.13,684.28c.87-6.56-1.53-26.82,7.28-24.7l3.17-3.65"/><path class="cls-25" d="M1462,682.56c-3.16-8.49-15.85-30.79-9.55-35l-.19-6.79"/><path class="cls-26" d="M1443.75,686.46c1.23-9.36.94-37.47,7.88-35.81l2.86-5.59"/><path class="cls-26" d="M1445.78,686c-2.9-8.66-14.92-31.63-8.5-35.55l0-6.79"/><path class="cls-26" d="M1477.75,686.38c-2.37-9-13-33.17-6.33-36.37l.43-6.77"/><path class="cls-26" d="M1461.27,682.11c1.23-9.35.94-37.46,7.88-35.8l2.86-5.59"/><path class="cls-26" d="M1431,685.51c1.23-9.36.94-37.47,7.88-35.81l2.86-5.59"/><path class="cls-26" d="M1420.28,682.11c1.23-9.35.94-37.46,7.88-35.8l2.86-5.59"/><path class="cls-25" d="M1554.83,643.73c0,9.51,3.93,37.12-3.11,37.12l-2.09,6.18"/><path class="cls-25" d="M1546,643.73c0,9.51,3.93,37.12-3.12,37.12l-2.09,6.18"/><path class="cls-25" d="M1538.48,643.73c0,9.51,3.93,37.12-3.11,37.12l-2.09,6.18"/><path class="cls-25" d="M1531.21,643.73c0,9.51,3.93,37.12-3.12,37.12L1526,687"/><path class="cls-25" d="M1513.46,648.08c0,9.51,3.93,37.12-3.11,37.12l-2.09,6.18"/><path class="cls-25" d="M1522.34,648.08c0,9.51,3.92,37.12-3.12,37.12l-2.09,6.18"/><path class="cls-25" d="M1518.61,643.73c0,9.51,3.93,37.12-3.11,37.12l-2.09,6.18"/><path class="cls-25" d="M1508.32,643.73c0,9.51,3.93,37.12-3.12,37.12l-2.09,6.18"/><path class="cls-25" d="M1502,648.08c0,9.51,3.93,37.12-3.11,37.12l-2.09,6.18"/><path class="cls-25" d="M1477.62,643.73c0,9.51,3.93,37.12-3.11,37.12l-2.09,6.18"/><path class="cls-25" d="M1495.72,643.73c0,9.51,3.93,37.12-3.11,37.12l-2.09,6.18"/><path class="cls-25" d="M1474.47,643.73c0,9.51,3.93,37.12-3.11,37.12l-2.09,6.18"/><path class="cls-25" d="M1477.67,686.08c1.24-9.36.95-37.47,7.88-35.8l2.86-5.6"/><path class="cls-25" d="M1528.05,683.91c.87-6.57-1.53-26.82,7.28-24.71l3.17-3.64"/><path class="cls-25" d="M1511.9,682.19c-3.16-8.5-15.85-30.8-9.55-35.06l-.19-6.79"/><path class="cls-26" d="M1493.67,686.08c1.23-9.36.94-37.47,7.88-35.8l2.86-5.6"/><path class="cls-26" d="M1495.7,685.6c-2.9-8.65-14.92-31.62-8.5-35.54l0-6.8"/><path class="cls-26" d="M1527.67,686c-2.37-9-13-33.16-6.33-36.36l.43-6.77"/><path class="cls-26" d="M1511.19,681.74c1.23-9.36.94-37.47,7.88-35.81l2.86-5.59"/><path class="cls-26" d="M1480.94,685.13c1.23-9.35.94-37.47,7.88-35.8l2.86-5.6"/><path class="cls-26" d="M1470.2,681.74c1.23-9.36.94-37.47,7.88-35.81l2.86-5.59"/><path class="cls-25" d="M1613.61,642.31c0,9.5,3.93,37.11-3.11,37.11l-2.09,6.18"/><path class="cls-25" d="M1604.74,642.31c0,9.5,3.93,37.11-3.11,37.11l-2.09,6.18"/><path class="cls-25" d="M1597.27,642.31c0,9.5,3.92,37.11-3.12,37.11l-2.09,6.18"/><path class="cls-25" d="M1590,642.31c0,9.5,3.93,37.11-3.11,37.11l-2.09,6.18"/><path class="cls-25" d="M1572.25,646.66c0,9.5,3.93,37.11-3.12,37.11L1567,690"/><path class="cls-25" d="M1581.12,646.66c0,9.5,3.93,37.11-3.11,37.11l-2.1,6.18"/><path class="cls-25" d="M1577.4,642.31c0,9.5,3.93,37.11-3.12,37.11l-2.09,6.18"/><path class="cls-25" d="M1567.1,642.31c0,9.5,3.93,37.11-3.11,37.11l-2.09,6.18"/><path class="cls-25" d="M1560.8,646.66c0,9.5,3.93,37.11-3.11,37.11L1555.6,690"/><path class="cls-25" d="M1536.41,642.31c0,9.5,3.93,37.11-3.12,37.11l-2.09,6.18"/><path class="cls-25" d="M1554.51,642.31c0,9.5,3.93,37.11-3.12,37.11l-2.09,6.18"/><path class="cls-25" d="M1533.26,642.31c0,9.5,3.93,37.11-3.12,37.11l-2.09,6.18"/><path class="cls-25" d="M1536.46,684.66c1.23-9.36.94-37.47,7.88-35.81l2.86-5.59"/><path class="cls-25" d="M1586.84,682.48c.86-6.57-1.54-26.82,7.27-24.71l3.18-3.64"/><path class="cls-25" d="M1570.69,680.76c-3.16-8.49-15.85-30.79-9.56-35l-.18-6.8"/><path class="cls-26" d="M1552.45,684.66c1.23-9.36,1-37.47,7.88-35.81l2.86-5.59"/><path class="cls-26" d="M1554.48,684.18c-2.9-8.66-14.91-31.63-8.5-35.55l0-6.79"/><path class="cls-26" d="M1586.45,684.57c-2.37-9-13-33.16-6.32-36.36l.42-6.77"/><path class="cls-26" d="M1570,680.31c1.23-9.35,1-37.47,7.88-35.8l2.86-5.6"/><path class="cls-26" d="M1539.72,683.71c1.23-9.36,1-37.47,7.88-35.81l2.86-5.59"/><path class="cls-26" d="M1529,680.31c1.23-9.35,1-37.47,7.88-35.8l2.86-5.6"/><path class="cls-25" d="M1663.92,646.18c0,9.5,3.93,37.11-3.11,37.11l-2.09,6.19"/><path class="cls-25" d="M1655.05,646.18c0,9.5,3.93,37.11-3.12,37.11l-2.09,6.19"/><path class="cls-25" d="M1647.57,646.18c0,9.5,3.93,37.11-3.11,37.11l-2.09,6.19"/><path class="cls-25" d="M1640.3,646.18c0,9.5,3.93,37.11-3.12,37.11l-2.09,6.19"/><path class="cls-25" d="M1622.55,650.53c0,9.5,3.93,37.11-3.11,37.11l-2.09,6.18"/><path class="cls-25" d="M1631.43,650.53c0,9.5,3.92,37.11-3.12,37.11l-2.09,6.18"/><path class="cls-25" d="M1627.7,646.18c0,9.5,3.93,37.11-3.11,37.11l-2.09,6.19"/><path class="cls-25" d="M1617.41,646.18c0,9.5,3.93,37.11-3.12,37.11l-2.09,6.19"/><path class="cls-25" d="M1611.11,650.53c0,9.5,3.93,37.11-3.11,37.11l-2.09,6.18"/><path class="cls-25" d="M1586.71,646.18c0,9.5,3.93,37.11-3.11,37.11l-2.09,6.19"/><path class="cls-25" d="M1604.81,646.18c0,9.5,3.93,37.11-3.11,37.11l-2.09,6.19"/><path class="cls-25" d="M1583.56,646.18c0,9.5,3.93,37.11-3.11,37.11l-2.09,6.19"/><path class="cls-25" d="M1586.76,688.53c1.24-9.36,1-37.47,7.88-35.81l2.86-5.59"/><path class="cls-25" d="M1637.14,686.35c.87-6.57-1.53-26.82,7.28-24.7l3.17-3.65"/><path class="cls-25" d="M1621,684.63c-3.16-8.49-15.85-30.79-9.55-35l-.19-6.79"/><path class="cls-26" d="M1602.76,688.53c1.23-9.36.94-37.47,7.88-35.81l2.86-5.59"/><path class="cls-26" d="M1604.79,688.05c-2.9-8.66-14.92-31.63-8.5-35.55l0-6.79"/><path class="cls-26" d="M1636.76,688.45c-2.37-9-13-33.17-6.33-36.37l.43-6.77"/><path class="cls-26" d="M1620.28,684.18c1.23-9.35.94-37.46,7.88-35.8l2.86-5.59"/><path class="cls-26" d="M1590,687.58c1.23-9.36.94-37.47,7.88-35.81l2.86-5.59"/><path class="cls-26" d="M1579.29,684.18c1.23-9.35.94-37.46,7.88-35.8l2.86-5.59"/><path class="cls-25" d="M1669,689.43c-.4-9.5-5.51-36.92,1.53-37.22l1.82-6.26"/><path class="cls-25" d="M1677.85,689.05c-.4-9.5-5.51-36.91,1.53-37.21l1.83-6.27"/><path class="cls-25" d="M1685.32,688.73c-.4-9.5-5.51-36.91,1.53-37.21l1.83-6.27"/><path class="cls-25" d="M1692.59,688.42c-.4-9.5-5.51-36.91,1.53-37.21l1.82-6.27"/><path class="cls-25" d="M1710.13,683.32c-.4-9.5-5.51-36.91,1.53-37.21l1.82-6.27"/><path class="cls-25" d="M1701.27,683.7c-.41-9.5-5.51-36.92,1.53-37.22l1.82-6.26"/><path class="cls-25" d="M1705.17,687.88c-.4-9.49-5.5-36.91,1.53-37.21l1.83-6.27"/><path class="cls-25" d="M1715.46,687.44c-.41-9.49-5.51-36.91,1.53-37.21l1.82-6.27"/><path class="cls-25" d="M1721.57,682.83c-.41-9.5-5.51-36.91,1.52-37.21l1.83-6.27"/><path class="cls-25" d="M1746.13,686.13c-.41-9.49-5.51-36.91,1.52-37.21l1.83-6.26"/><path class="cls-25" d="M1728,686.91c-.4-9.5-5.51-36.92,1.53-37.22l1.83-6.26"/><path class="cls-25" d="M1749.27,686c-.4-9.5-5.51-36.91,1.53-37.21l1.82-6.27"/><path class="cls-25" d="M1744.27,643.83c-.83,9.4.65,37.47-6.35,36.11l-2.62,5.71"/><path class="cls-25" d="M1694,648.15c-.59,6.6,2.68,26.73-6.21,25l-3,3.78"/><path class="cls-25" d="M1710.24,649.18c3.52,8.35,17.15,30.09,11,34.61l.47,6.78"/><path class="cls-26" d="M1728.29,644.51c-.83,9.4.65,37.47-6.35,36.11l-2.62,5.71"/><path class="cls-26" d="M1726.28,645.07c3.27,8.53,16.25,31,10,35.15l.27,6.79"/><path class="cls-26" d="M1694.33,646c2.75,8.84,14.35,32.58,7.86,36.06l-.13,6.78"/><path class="cls-26" d="M1711,649.6c-.83,9.4.65,37.47-6.34,36.1l-2.62,5.71"/><path class="cls-26" d="M1741.05,644.92c-.83,9.4.65,37.47-6.35,36.1l-2.62,5.71"/><path class="cls-26" d="M1751.92,647.85c-.83,9.4.66,37.47-6.34,36.11l-2.62,5.71"/><path class="cls-25" d="M1720.65,644.75c0,9.51,3.93,37.12-3.11,37.12l-2.09,6.18"/><path class="cls-25" d="M1711.78,644.75c0,9.51,3.93,37.12-3.11,37.12l-2.09,6.18"/><path class="cls-25" d="M1704.3,644.75c0,9.51,3.93,37.12-3.11,37.12l-2.09,6.18"/><path class="cls-25" d="M1697,644.75c0,9.51,3.93,37.12-3.12,37.12l-2.09,6.18"/><path class="cls-25" d="M1679.29,649.1c0,9.51,3.93,37.12-3.12,37.12l-2.09,6.18"/><path class="cls-25" d="M1688.16,649.1c0,9.51,3.93,37.12-3.12,37.12L1683,692.4"/><path class="cls-25" d="M1684.43,644.75c0,9.51,3.93,37.12-3.11,37.12l-2.09,6.18"/><path class="cls-25" d="M1674.14,644.75c0,9.51,3.93,37.12-3.12,37.12l-2.09,6.18"/><path class="cls-25" d="M1667.84,649.1c0,9.51,3.93,37.12-3.11,37.12l-2.09,6.18"/><path class="cls-25" d="M1643.44,644.75c0,9.51,3.93,37.12-3.11,37.12l-2.09,6.18"/><path class="cls-25" d="M1661.55,644.75c0,9.51,3.92,37.12-3.12,37.12l-2.09,6.18"/><path class="cls-25" d="M1640.3,644.75c0,9.51,3.93,37.12-3.12,37.12l-2.09,6.18"/><path class="cls-25" d="M1643.49,687.1c1.24-9.36,1-37.47,7.88-35.8l2.87-5.6"/><path class="cls-25" d="M1693.88,684.92c.86-6.56-1.54-26.81,7.27-24.7l3.17-3.64"/><path class="cls-25" d="M1677.72,683.21c-3.16-8.5-15.84-30.8-9.55-35.06l-.19-6.79"/><path class="cls-26" d="M1659.49,687.1c1.23-9.36,1-37.47,7.88-35.8l2.86-5.6"/><path class="cls-26" d="M1661.52,686.62c-2.9-8.66-14.91-31.63-8.5-35.54l0-6.8"/><path class="cls-26" d="M1693.49,687c-2.37-8.95-13-33.17-6.32-36.36l.42-6.77"/><path class="cls-26" d="M1677,682.76c1.23-9.36.94-37.47,7.88-35.81l2.86-5.59"/><path class="cls-26" d="M1646.76,686.15c1.23-9.36,1-37.47,7.88-35.8l2.86-5.6"/><path class="cls-26" d="M1636,682.76c1.23-9.36.94-37.47,7.88-35.81l2.86-5.59"/><path class="cls-25" d="M106.21,650.33c0,8.9,4.88,34.77-3.86,34.77l-2.6,5.79"/><path class="cls-25" d="M95.2,650.33c0,8.9,4.88,34.77-3.86,34.77l-2.6,5.79"/><path class="cls-25" d="M85.92,650.33c0,8.9,4.88,34.77-3.86,34.77l-2.6,5.79"/><path class="cls-25" d="M76.89,650.33c0,8.9,4.88,34.77-3.87,34.77l-2.59,5.79"/><path class="cls-25" d="M54.86,654.4c0,8.91,4.88,34.77-3.86,34.77L48.4,695"/><path class="cls-25" d="M65.88,654.4c0,8.91,4.87,34.77-3.87,34.77L59.42,695"/><path class="cls-25" d="M61.25,650.33c0,8.9,4.88,34.77-3.86,34.77l-2.6,5.79"/><path class="cls-25" d="M48.47,650.33c0,8.9,4.88,34.77-3.86,34.77L42,690.89"/><path class="cls-25" d="M40.66,654.4c0,8.91,4.87,34.77-3.87,34.77L34.2,695"/><path class="cls-25" d="M10.37,650.33c0,8.9,4.88,34.77-3.87,34.77l-2.59,5.79"/><path class="cls-25" d="M32.84,650.33c0,8.9,4.88,34.77-3.87,34.77l-2.59,5.79"/><path class="cls-25" d="M6.46,650.33c0,8.9,4.88,34.77-3.86,34.77L0,690.89"/><path class="cls-25" d="M10.43,690c1.53-8.77,1.18-35.1,9.78-33.54l3.55-5.24"/><path class="cls-25" d="M73,688c1.07-6.15-1.91-25.12,9-23.14l4-3.42"/><path class="cls-25" d="M52.92,686.35c-3.92-8-19.67-28.84-11.86-32.84l-.23-6.36"/><path class="cls-26" d="M30.29,690c1.53-8.77,1.17-35.1,9.78-33.54l3.55-5.24"/><path class="cls-26" d="M32.81,689.55c-3.6-8.11-18.52-29.63-10.55-33.3l0-6.36"/><path class="cls-26" d="M72.49,689.92c-2.94-8.38-16.08-31.06-7.84-34.06l.53-6.34"/><path class="cls-26" d="M52,685.93c1.53-8.77,1.17-35.1,9.78-33.54l3.55-5.24"/><path class="cls-26" d="M14.48,689.11c1.53-8.77,1.18-35.1,9.79-33.54l3.55-5.24"/><path class="cls-26" d="M1.15,685.93c1.53-8.77,1.17-35.1,9.78-33.54l3.55-5.24"/><path class="cls-25" d="M171.58,649.15c0,8.9,4.88,34.76-3.86,34.76l-2.6,5.79"/><path class="cls-25" d="M160.57,649.15c0,8.9,4.88,34.76-3.86,34.76l-2.6,5.79"/><path class="cls-25" d="M151.29,649.15c0,8.9,4.88,34.76-3.86,34.76l-2.6,5.79"/><path class="cls-25" d="M142.26,649.15c0,8.9,4.88,34.76-3.87,34.76l-2.59,5.79"/><path class="cls-25" d="M120.23,653.22c0,8.9,4.88,34.76-3.86,34.76l-2.6,5.8"/><path class="cls-25" d="M131.25,653.22c0,8.9,4.87,34.76-3.87,34.76l-2.59,5.8"/><path class="cls-25" d="M126.62,649.15c0,8.9,4.88,34.76-3.86,34.76l-2.6,5.79"/><path class="cls-25" d="M113.84,649.15c0,8.9,4.88,34.76-3.86,34.76l-2.6,5.79"/><path class="cls-25" d="M106,653.22c0,8.9,4.87,34.76-3.87,34.76l-2.59,5.8"/><path class="cls-25" d="M75.74,649.15c0,8.9,4.88,34.76-3.87,34.76l-2.59,5.79"/><path class="cls-25" d="M98.21,649.15c0,8.9,4.88,34.76-3.87,34.76l-2.59,5.79"/><path class="cls-25" d="M71.83,649.15c0,8.9,4.88,34.76-3.87,34.76l-2.59,5.79"/><path class="cls-25" d="M75.8,688.81c1.53-8.76,1.18-35.1,9.78-33.54L89.13,650"/><path class="cls-25" d="M138.34,686.77c1.08-6.15-1.9-25.12,9-23.14l3.95-3.41"/><path class="cls-25" d="M118.29,685.16c-3.92-7.95-19.67-28.84-11.86-32.83L106.2,646"/><path class="cls-26" d="M95.66,688.81c1.53-8.76,1.17-35.1,9.78-33.54L109,650"/><path class="cls-26" d="M98.18,688.37c-3.61-8.12-18.52-29.63-10.55-33.3l0-6.37"/><path class="cls-26" d="M137.86,688.74c-2.94-8.39-16.08-31.07-7.85-34.07l.53-6.34"/><path class="cls-26" d="M117.41,684.74c1.53-8.76,1.17-35.09,9.78-33.53l3.55-5.24"/><path class="cls-26" d="M79.85,687.92c1.53-8.76,1.18-35.09,9.79-33.54l3.55-5.23"/><path class="cls-26" d="M66.52,684.74c1.53-8.76,1.17-35.09,9.78-33.53L79.85,646"/><path class="cls-25" d="M196.47,647.81c0,8.9,4.21,34.76-3.33,34.76l-2.23,5.8"/><path class="cls-25" d="M187,647.81c0,8.9,4.2,34.76-3.33,34.76l-2.24,5.8"/><path class="cls-25" d="M179,647.81c0,8.9,4.2,34.76-3.33,34.76l-2.24,5.8"/><path class="cls-25" d="M171.22,647.81c0,8.9,4.2,34.76-3.33,34.76l-2.24,5.8"/><path class="cls-25" d="M152.25,651.88c0,8.91,4.2,34.77-3.33,34.77l-2.24,5.79"/><path class="cls-25" d="M161.73,651.88c0,8.91,4.2,34.77-3.33,34.77l-2.23,5.79"/><path class="cls-25" d="M157.75,647.81c0,8.9,4.2,34.76-3.33,34.76l-2.23,5.8"/><path class="cls-25" d="M146.74,647.81c0,8.9,4.2,34.76-3.33,34.76l-2.23,5.8"/><path class="cls-25" d="M140,651.88c0,8.91,4.2,34.77-3.33,34.77l-2.24,5.79"/><path class="cls-25" d="M113.92,647.81c0,8.9,4.2,34.76-3.33,34.76l-2.23,5.8"/><path class="cls-25" d="M133.28,647.81c0,8.9,4.2,34.76-3.33,34.76l-2.24,5.8"/><path class="cls-25" d="M110.56,647.81c0,8.9,4.2,34.76-3.33,34.76l-2.24,5.8"/><path class="cls-25" d="M114,687.48c1.31-8.77,1-35.1,8.42-33.54l3.06-5.24"/><path class="cls-25" d="M167.84,685.44c.93-6.15-1.64-25.12,7.78-23.14l3.4-3.42"/><path class="cls-25" d="M150.57,683.83c-3.37-8-16.94-28.85-10.21-32.84l-.2-6.36"/><path class="cls-26" d="M131.08,687.48c1.32-8.77,1-35.1,8.42-33.54l3.06-5.24"/><path class="cls-26" d="M133.25,687c-3.1-8.11-16-29.63-9.09-33.3l0-6.36"/><path class="cls-26" d="M167.43,687.4c-2.53-8.38-13.85-31.07-6.76-34.06l.46-6.34"/><path class="cls-26" d="M149.81,683.41c1.32-8.77,1-35.1,8.43-33.54l3-5.24"/><path class="cls-26" d="M117.47,686.59c1.31-8.77,1-35.1,8.42-33.54l3.06-5.24"/><path class="cls-26" d="M106,683.41c1.32-8.77,1-35.1,8.43-33.54l3.06-5.24"/><path class="cls-25" d="M1850.17,649.15c0,8.9,4.88,34.76-3.86,34.76l-2.6,5.8"/><path class="cls-25" d="M1839.16,649.15c0,8.9,4.88,34.76-3.86,34.76l-2.6,5.8"/><path class="cls-25" d="M1829.88,649.15c0,8.9,4.88,34.76-3.86,34.76l-2.6,5.8"/><path class="cls-25" d="M1820.85,649.15c0,8.9,4.88,34.76-3.87,34.76l-2.59,5.8"/><path class="cls-25" d="M1798.82,653.22c0,8.91,4.88,34.77-3.86,34.77l-2.6,5.79"/><path class="cls-25" d="M1809.84,653.22c0,8.91,4.87,34.77-3.87,34.77l-2.59,5.79"/><path class="cls-25" d="M1805.21,649.15c0,8.9,4.88,34.76-3.86,34.76l-2.6,5.8"/><path class="cls-25" d="M1792.43,649.15c0,8.9,4.88,34.76-3.86,34.76l-2.6,5.8"/><path class="cls-25" d="M1784.62,653.22c0,8.91,4.87,34.77-3.87,34.77l-2.59,5.79"/><path class="cls-25" d="M1754.33,649.15c0,8.9,4.88,34.76-3.87,34.76l-2.59,5.8"/><path class="cls-25" d="M1776.8,649.15c0,8.9,4.88,34.76-3.87,34.76l-2.59,5.8"/><path class="cls-25" d="M1750.42,649.15c0,8.9,4.88,34.76-3.86,34.76l-2.6,5.8"/><path class="cls-25" d="M1754.39,688.82c1.53-8.77,1.18-35.1,9.78-33.54l3.55-5.24"/><path class="cls-25" d="M1816.94,686.78c1.07-6.15-1.91-25.12,9-23.14l4-3.42"/><path class="cls-25" d="M1796.88,685.17c-3.92-8-19.67-28.85-11.86-32.84l-.23-6.36"/><path class="cls-26" d="M1774.25,688.82c1.53-8.77,1.17-35.1,9.78-33.54l3.55-5.24"/><path class="cls-26" d="M1776.77,688.37c-3.6-8.11-18.52-29.63-10.55-33.3l0-6.36"/><path class="cls-26" d="M1816.45,688.74c-2.94-8.38-16.08-31.07-7.84-34.06l.53-6.34"/><path class="cls-26" d="M1796,684.75c1.53-8.77,1.17-35.1,9.78-33.54l3.55-5.24"/><path class="cls-26" d="M1758.44,687.93c1.53-8.77,1.18-35.1,9.79-33.54l3.55-5.24"/><path class="cls-26" d="M1745.11,684.75c1.53-8.77,1.17-35.1,9.78-33.54l3.55-5.24"/><path class="cls-25" d="M1916.75,648.7c0,8.9,4.88,34.77-3.86,34.77l-2.6,5.79"/><path class="cls-25" d="M1905.74,648.7c0,8.9,4.88,34.77-3.86,34.77l-2.6,5.79"/><path class="cls-25" d="M1896.46,648.7c0,8.9,4.88,34.77-3.87,34.77l-2.59,5.79"/><path class="cls-25" d="M1887.43,648.7c0,8.9,4.87,34.77-3.87,34.77l-2.59,5.79"/><path class="cls-25" d="M1865.4,652.78c0,8.9,4.88,34.76-3.86,34.76l-2.6,5.79"/><path class="cls-25" d="M1876.41,652.78c0,8.9,4.88,34.76-3.86,34.76l-2.6,5.79"/><path class="cls-25" d="M1871.79,648.7c0,8.9,4.88,34.77-3.86,34.77l-2.6,5.79"/><path class="cls-25" d="M1859,648.7c0,8.9,4.88,34.77-3.86,34.77l-2.6,5.79"/><path class="cls-25" d="M1851.19,652.78c0,8.9,4.88,34.76-3.86,34.76l-2.6,5.79"/><path class="cls-25" d="M1820.91,648.7c0,8.9,4.87,34.77-3.87,34.77l-2.59,5.79"/><path class="cls-25" d="M1843.38,648.7c0,8.9,4.88,34.77-3.87,34.77l-2.59,5.79"/><path class="cls-25" d="M1817,648.7c0,8.9,4.88,34.77-3.87,34.77l-2.59,5.79"/><path class="cls-25" d="M1821,688.37c1.53-8.76,1.17-35.1,9.78-33.54l3.55-5.24"/><path class="cls-25" d="M1883.51,686.33c1.08-6.15-1.9-25.12,9-23.14l4-3.41"/><path class="cls-25" d="M1863.46,684.72c-3.92-8-19.67-28.84-11.86-32.84l-.23-6.36"/><path class="cls-26" d="M1840.83,688.37c1.53-8.76,1.17-35.1,9.78-33.54l3.55-5.24"/><path class="cls-26" d="M1843.35,687.92c-3.61-8.11-18.52-29.63-10.55-33.29l0-6.37"/><path class="cls-26" d="M1883,688.29c-2.94-8.38-16.08-31.06-7.85-34.06l.53-6.34"/><path class="cls-26" d="M1862.57,684.3c1.53-8.76,1.18-35.1,9.79-33.54l3.55-5.24"/><path class="cls-26" d="M1825,687.48c1.53-8.76,1.18-35.1,9.78-33.54l3.55-5.24"/><path class="cls-26" d="M1811.69,684.3c1.53-8.76,1.17-35.1,9.78-33.54l3.55-5.24"/><path class="cls-25" d="M1853.83,686.92c.55-8.88-.72-34.9,4.43-34.51l1.89-5.66"/><path class="cls-25" d="M1860.32,687.42c.55-8.89-.72-34.91,4.44-34.51l1.89-5.66"/><path class="cls-25" d="M1865.79,687.83c.56-8.88-.72-34.9,4.44-34.51l1.89-5.66"/><path class="cls-25" d="M1871.12,688.24c.55-8.88-.72-34.9,4.44-34.51l1.89-5.66"/><path class="cls-25" d="M1884.36,685.17c.56-8.89-.72-34.91,4.44-34.51l1.89-5.66"/><path class="cls-25" d="M1877.87,684.67c.55-8.88-.72-34.9,4.43-34.51l1.89-5.66"/><path class="cls-25" d="M1880.34,688.94c.55-8.88-.72-34.9,4.44-34.51l1.89-5.66"/><path class="cls-25" d="M1887.88,689.52c.55-8.88-.72-34.91,4.44-34.51l1.89-5.66"/><path class="cls-25" d="M1892.74,685.8c.56-8.88-.72-34.9,4.44-34.51l1.89-5.66"/><path class="cls-25" d="M1910.35,691.23c.56-8.88-.72-34.9,4.44-34.51l1.89-5.66"/><path class="cls-25" d="M1897.1,690.22c.55-8.88-.72-34.9,4.44-34.51l1.89-5.66"/><path class="cls-25" d="M1912.66,691.41c.55-8.89-.72-34.91,4.43-34.51l1.89-5.66"/><path class="cls-25" d="M1912.78,651.65c-1.45,8.68-2.87,35-7.85,33l-2.42,5.07"/><path class="cls-25" d="M1875.76,650.87c-1,6.09-.43,25.15-6.76,22.69l-2.53,3.22"/><path class="cls-25" d="M1887.49,653.38c1.82,8.12,9.81,29.66,5,33.3l-.26,6.35"/><path class="cls-26" d="M1901.07,650.76c-1.45,8.68-2.87,35-7.85,33l-2.42,5.07"/><path class="cls-26" d="M1899.55,651.09c1.62,8.26,9.08,30.39,4.16,33.7l-.41,6.35"/><path class="cls-26" d="M1876.17,648.94c1.21,8.49,7.56,31.72,2.52,34.33l-.71,6.31"/><path class="cls-26" d="M1888,653.84c-1.45,8.68-2.87,35-7.85,33l-2.42,5.07"/><path class="cls-26" d="M1910.33,652.36c-1.45,8.67-2.87,35-7.85,33l-2.42,5.07"/><path class="cls-26" d="M1918,656.13c-1.45,8.67-2.87,35-7.85,33l-2.42,5.07"/><path class="cls-25" d="M980.86,633c2,9.29,11.75,35.43,4.86,36.93l-.72,6.49"/><path class="cls-25" d="M972.2,634.86c2,9.29,11.74,35.43,4.86,36.93l-.73,6.48"/><path class="cls-25" d="M964.89,636.46c2,9.28,11.74,35.42,4.86,36.92l-.72,6.49"/><path class="cls-25" d="M957.78,638c2,9.29,11.74,35.43,4.86,36.93l-.72,6.49"/><path class="cls-25" d="M941.37,646c2,9.29,11.75,35.43,4.86,36.93l-.72,6.48"/><path class="cls-25" d="M950,644.14c2,9.29,11.74,35.43,4.86,36.93l-.72,6.48"/><path class="cls-25" d="M945.48,640.69c2,9.28,11.74,35.42,4.86,36.92l-.73,6.49"/><path class="cls-25" d="M935.42,642.88c2,9.28,11.74,35.42,4.86,36.92l-.73,6.49"/><path class="cls-25" d="M930.19,648.47c2,9.28,11.74,35.42,4.86,36.92l-.72,6.49"/><path class="cls-25" d="M905.43,649.41c2,9.29,11.74,35.43,4.86,36.93l-.73,6.49"/><path class="cls-25" d="M923.11,645.56c2,9.29,11.75,35.43,4.86,36.93l-.72,6.48"/><path class="cls-25" d="M902.35,650.09c2,9.28,11.74,35.42,4.86,36.92l-.72,6.49"/><path class="cls-25" d="M914.49,690.78c-.78-9.41-7-36.81.08-36.66l1.6-6.08"/><path class="cls-25" d="M963.26,677.93c-.56-6.6-7.22-25.88,1.84-25.69l2.33-4.24"/><path class="cls-25" d="M947.11,679.69c-4.9-7.63-22-26.72-16.8-32.22l-1.63-6.6"/><path class="cls-26" d="M930.12,687.37c-.79-9.4-7-36.81.08-36.66l1.6-6.07"/><path class="cls-26" d="M932,686.48c-4.68-7.85-21.3-27.73-15.87-32.93l-1.43-6.64"/><path class="cls-26" d="M963.32,680.06c-4.22-8.24-19.72-29.65-13.92-34.19l-1-6.7"/><path class="cls-26" d="M946.31,679.4c-.78-9.41-7-36.81.08-36.66l1.6-6.08"/><path class="cls-26" d="M917.48,689.16c-.79-9.41-7.05-36.81.08-36.66l1.6-6.08"/><path class="cls-26" d="M906.26,688.13c-.78-9.41-7-36.81.08-36.66l1.6-6.08"/><path class="cls-27" d="M716.85,617.25c6.08,6.7,14.74,13.82,7.27,15.5-8.36,1.89-8.65-2-14.73-8.72s-9.47-13.81-7.26-15.51C709.4,603,710.78,610.56,716.85,617.25Z"/><path class="cls-28" d="M739.84,630.7c4.06,5.76,1.06,13.56-3.07,17.79-4.93,5-16.86,3.92-17.79-3.07-.91-6.77-3.6-15.51,3.07-17.79C728.87,625.31,735.77,624.94,739.84,630.7Z"/><circle class="cls-23" cx="730.07" cy="637.6" r="5.01"/><polygon class="cls-29" points="1870.19 716.44 1854.81 691.7 1826.18 690.55 1844.41 668.04 1836.54 639.88 1863.18 650.71 1886.94 634.46 1885.18 663.66 1907.74 681.77 1880.01 688.99 1870.19 716.44"/><polygon points="1866.95 697.91 1858.06 683.65 1841.56 682.97 1852.05 670.02 1847.49 653.8 1862.86 660.06 1876.55 650.72 1875.56 667.53 1888.58 677.98 1872.59 682.11 1866.95 697.91"/><path class="cls-30" d="M1865.28,672.32h0a.66.66,0,0,1-.3-.88l8.37-17.69a.65.65,0,0,1,.87-.31h0a.68.68,0,0,1,.3.89L1866.15,672A.65.65,0,0,1,1865.28,672.32Z"/><path class="cls-30" d="M1868.14,671.31h0a.62.62,0,0,1-.88.1l-17-13.74a.65.65,0,0,1-.1-.9h0a.61.61,0,0,1,.87-.1l17,13.74A.66.66,0,0,1,1868.14,671.31Z"/><path class="cls-30" d="M1867.17,670.69h0a.65.65,0,0,1,.83-.4l16.65,6.09a.66.66,0,0,1,.39.84h0a.64.64,0,0,1-.82.4l-16.66-6.08A.68.68,0,0,1,1867.17,670.69Z"/><path class="cls-30" d="M1846.79,680.68h0a.67.67,0,0,1,.28-.89l17.44-9.11a.63.63,0,0,1,.87.29h0a.67.67,0,0,1-.28.89L1847.66,681A.65.65,0,0,1,1846.79,680.68Z"/><path class="cls-30" d="M1865.5,670.09h0a.65.65,0,0,1,.67.64l.6,20.21a.65.65,0,0,1-.63.67h0a.64.64,0,0,1-.66-.64l-.6-20.21A.64.64,0,0,1,1865.5,670.09Z"/><polygon class="cls-30" points="1866.47 676.78 1864.45 673.46 1860.64 673.35 1863.1 670.28 1862.1 666.48 1865.64 667.9 1868.83 665.66 1868.55 669.61 1871.53 672.03 1867.82 673.05 1866.47 676.78"/><path class="cls-31" d="M1216.59,771.93c19.64,7.38,37.86,7.24,28.64,31.76-7.13,19-22.83,12.41-42.47,5s-37.4-7.59-28.64-31.76C1182.38,754.18,1197,764.55,1216.59,771.93Z"/><ellipse class="cls-23" cx="1237.64" cy="799.32" rx="16.24" ry="4.83" transform="translate(53.97 1676.58) rotate(-69.4)"/><ellipse class="cls-23" cx="1176.76" cy="777.89" rx="12.41" ry="1.03" transform="matrix(0.35, -0.94, 0.94, 0.35, 34.56, 1605.7)"/><ellipse class="cls-32" cx="1201.47" cy="800.44" rx="2.97" ry="26.83" transform="translate(29.47 1643.45) rotate(-69.4)"/><ellipse class="cls-33" cx="791.62" cy="586.03" rx="22.29" ry="13.33" transform="translate(-192.43 627.8) rotate(-38.94)"/><ellipse class="cls-34" cx="795.05" cy="574.72" rx="7.13" ry="2.63" transform="translate(-103.8 181.69) rotate(-12.24)"/><rect class="cls-35" x="1585.89" y="794.7" width="79.51" height="20.41" transform="translate(538.71 -647.39) rotate(26.85)"/><path class="cls-36" d="M1599.4,782.35h68.14a5.68,5.68,0,0,1,5.68,5.68v8.53a0,0,0,0,1,0,0h-78.77a.74.74,0,0,1-.74-.74V788A5.68,5.68,0,0,1,1599.4,782.35Z" transform="translate(532.57 -652.59) rotate(26.85)"/><path class="cls-37" d="M1583.76,813.24h68.14a5.68,5.68,0,0,1,5.68,5.68v8.53a0,0,0,0,1,0,0h-78.77a.74.74,0,0,1-.74-.74v-7.79a5.68,5.68,0,0,1,5.68-5.68Z" transform="translate(2690.81 2282.9) rotate(-153.15)"/><ellipse class="cls-38" cx="1606.03" cy="772.22" rx="2.66" ry="5.86" transform="translate(521.81 2186.48) rotate(-78.2)"/><ellipse class="cls-39" cx="1644.96" cy="835.75" rx="2.66" ry="5.86" transform="translate(490.6 2275.13) rotate(-78.2)"/><path class="cls-7" d="M1869.43,808.08c7.11,22.56-18.6-5.06-57.14-46-47.09-50.06-67.94-65-75.06-87.54s21.35,5.77,57.86,42.66S1862.32,785.53,1869.43,808.08Z"/><path class="cls-7" d="M1808.38,760c-.69-4,6.17,5.27,22.19,21.84,17.2,17.78,24.23,23.85,24.23,23.85,6.61,22-2,17.58-15.58,4.14S1811.52,777.82,1808.38,760Z"/><path class="cls-40" d="M1471.69,679.92c10,13.79,3.24,45.54-25.43,66.37s-61.8,16.33-71.83,2.53,4.08-35.79,32.75-56.62S1461.66,666.12,1471.69,679.92Z"/><path class="cls-25" d="M1422.86,717.74c1.49,2.51-8.35,10.79-22,18.49s-25.88,11.9-27.37,9.39,11.19-4.47,24.81-12.17S1421.37,715.23,1422.86,717.74Z"/><path class="cls-25" d="M1473.16,701.49c1.72,2.37-14.37,17-35.93,32.66s-40.44,26.46-42.15,24.09-6.08,6.84,15.48-8.84S1471.44,699.12,1473.16,701.49Z"/><path class="cls-25" d="M1448.45,711c1.49,2.51-13.41,13.66-33.29,24.89s-37.2,18.3-38.69,15.78,8.69-1.73,28.56-13S1447,708.44,1448.45,711Z"/><path class="cls-41" d="M1459.37,672c3.91,2-15.24,18.89-39.66,36.64s-47.24,31.5-48.25,27.18,9.86-27.66,34.93-45.88C1430,672.77,1455.79,670.15,1459.37,672Z"/><ellipse class="cls-42" cx="1413.28" cy="706.2" rx="2.45" ry="0.83" transform="translate(-145.14 965.86) rotate(-36.01)"/><ellipse class="cls-42" cx="1408.75" cy="695.8" rx="2.45" ry="0.83" transform="translate(-139.88 961.21) rotate(-36.01)"/><ellipse class="cls-42" cx="1404.8" cy="704.34" rx="2.45" ry="0.83" transform="translate(-145.66 960.52) rotate(-36.01)"/><ellipse class="cls-42" cx="1395.17" cy="703.61" rx="2.45" ry="0.83" transform="translate(-147.07 954.72) rotate(-36.01)"/><ellipse class="cls-42" cx="1398.91" cy="718.7" rx="2.45" ry="0.83" transform="translate(-155.23 959.8) rotate(-36.01)"/><ellipse class="cls-42" cx="1390.91" cy="715.47" rx="2.45" ry="0.83" transform="matrix(0.81, -0.59, 0.59, 0.81, -154.86, 954.48)"/><ellipse class="cls-42" cx="1383.35" cy="725.26" rx="2.45" ry="0.83" transform="matrix(0.81, -0.59, 0.59, 0.81, -162.06, 951.91)"/><ellipse class="cls-42" cx="1430.61" cy="679.91" rx="2.45" ry="0.83" transform="translate(-126.37 971.03) rotate(-36.01)"/><ellipse class="cls-42" cx="1423.55" cy="699.77" rx="2.45" ry="0.83" transform="translate(-139.39 970.67) rotate(-36.01)"/><ellipse class="cls-42" cx="1415.24" cy="696.54" rx="2.36" ry="1.01" transform="translate(-139.08 965.17) rotate(-36.01)"/><ellipse class="cls-42" cx="1446.05" cy="679.69" rx="2.45" ry="0.83" transform="translate(-123.29 980.06) rotate(-36.01)"/><ellipse class="cls-42" cx="1427.5" cy="689.9" rx="2.45" ry="0.83" transform="translate(-132.83 971.11) rotate(-36.01)"/><ellipse class="cls-42" cx="1438.13" cy="689.17" rx="2.45" ry="0.83" transform="translate(-130.37 977.22) rotate(-36.01)"/><path class="cls-24" d="M1536.33,33.22l19.35-10.94c-2.18,6.66-6.22,6.76.47,4.67l.45,1c16.84-5.27,30.84,35.79,6.12,58l-7.6,15.57c-9.81,8.83-7.31,2-12.13,10.37l-8.55,4.51c-12.15,21.18-40.56,39.57-50.35,36.55l-8.62-11.47c-3.89-1.21-15.34,3.42-25,10.71l14-8.55c-24.34,18.36-32.53,10-13.87-14.05l2-8.8c10.57-19.8,30.61-78.08,8-12.72h0c-2.9-9.84,23.73-41.19,45.06-53.07h0c8.47-4.71,18.29-17.7,27.83-23h0C1556.09,7.61,1541.81,16.45,1536.33,33.22Z"/><path class="cls-24" d="M1848.05,83.53l-8,4.2c-3.63-2.26-.13-2.42-4.31-1.53l-1.27-.33C1823.93,88.13,1777.27,75,1780.62,67l-6.26-5.37c1.33-3.21,4.84-.87,2.1-3.79l3.81-1.75c-6.91-7.35,2.93-14.28,14.12-13.59L1811.6,46c4.45.28,10.73-1.6,13.21-4.3l-5.33,3.25c6.26-6.79,20.45-4.31,24,4.2l5.6,3c7.15,6.84,38,26.66,3.5,4.43h0c10.76,3.15,13.33,14.3,4.34,18.87h0c-3.57,1.82-1.43,6.4-5.44,8.45h0C1851.9,92.57,1857.18,89.22,1848.05,83.53Z"/><path class="cls-24" d="M94.46,101.06l-.26,11.28c-3.09-2.17-1.78-4.16-2.84-.54l-.75,0C88,121,59.67,121,55.25,105.25L48.88,99c-1.75-6.27,1.34-3.9-1.85-7.65l.29-4.94c-8-9.45-9-26.4-4-30.7l9.49-2.32c2-1.7,3.21-8.07,2.29-14l.16,8.3C53,32.67,60.52,30,68,43.16l4.39,2.42c7.79,8.45,34.47,27.9,4.59,6h0c6.62.21,15.62,18.44,15.23,30.84h0c-.15,4.93,4,11.89,3.82,17.44h0C102.47,115,102.22,106.52,94.46,101.06Z"/><path class="cls-36" d="M791.78,699.81c-3.82,9.54-17.64,7.65-26,4.32s-12-13.77-8.16-23.32,13.67-14.58,22-11.25S795.6,690.26,791.78,699.81Z"/><path class="cls-23" d="M779.64,688.37c-2.48,4.45-7.18,16.54-14.42,13.65s-9.33-13.83-6.12-21.87,11.7-12.21,18.94-9.32S779.83,688,779.64,688.37Z"/><path class="cls-43" d="M777.64,688.83c-2.44,6.09-7.84,13.73-13.66,11.4s-5.72-14.59-3.29-20.68,9.7-10.55,15.52-8.22S780.08,682.74,777.64,688.83Z"/><rect class="cls-44" x="768.8" y="671.06" width="1.01" height="28.38" rx="0.5" transform="translate(354.43 -257.76) rotate(24.56)"/><rect class="cls-44" x="768.7" y="673.29" width="1.01" height="24.36" rx="0.5" transform="translate(-89.82 116.59) rotate(-8.19)"/><rect class="cls-44" x="769.61" y="673.03" width="1.01" height="23.07" rx="0.5" transform="translate(832 -343.97) rotate(51.81)"/><rect class="cls-44" x="768.47" y="676.38" width="0.84" height="17.03" rx="0.42" transform="translate(1690.41 225.47) rotate(111.81)"/><ellipse class="cls-42" cx="767.87" cy="694.92" rx="1.18" ry="0.41" transform="translate(-82.76 1285.65) rotate(-76.92)"/><ellipse class="cls-42" cx="772.99" cy="690.43" rx="0.41" ry="1.18" transform="translate(-261.43 625.72) rotate(-38.19)"/><ellipse class="cls-42" cx="764.04" cy="691.95" rx="1.18" ry="0.41" transform="translate(-258.08 825.49) rotate(-49.61)"/><ellipse class="cls-42" cx="762.52" cy="686.24" rx="1.18" ry="0.41" transform="translate(-90 115.65) rotate(-8.19)"/><ellipse class="cls-42" cx="776.07" cy="684.29" rx="1.18" ry="0.41" transform="translate(-206.76 360.92) rotate(-23.19)"/><ellipse class="cls-42" cx="764.53" cy="679.67" rx="0.41" ry="1.18" transform="translate(-248.24 535.62) rotate(-33.54)"/><ellipse class="cls-42" cx="770.7" cy="676.11" rx="1.18" ry="0.41" transform="translate(-62.25 1273.84) rotate(-76.92)"/><ellipse class="cls-42" cx="775.39" cy="677.65" rx="1.18" ry="0.41" transform="translate(-252.61 737.99) rotate(-44.51)"/><ellipse class="cls-42" cx="769.3" cy="685" rx="1.23" ry="1.1" transform="translate(-152.47 1144.76) rotate(-68.19)"/><path d="M1763.92,857.45c2.11,2,4.91,1.59,4.32,2.21a4,4,0,0,1-5.31-.14c-2.11-2-2.92-6.47-2.34-7.09S1761.8,855.45,1763.92,857.45Z"/><path class="cls-40" d="M1810.21,882.71c6.35,10-3,38-15.72,37.75-14.09-.29-12.06,10-28.9-13-7.85-10.75-1.69-26.61,10.63-33.44S1805,874.5,1810.21,882.71Z"/><path class="cls-40" d="M1795.8,875.87c12.75-3.81,5.64,19.42-6,25.87s-34.29,1-23.93-7.39c11.37-9.16-11.06-28.31.58-34.76C1775.71,854.46,1780.57,880.42,1795.8,875.87Z"/><ellipse cx="1783.04" cy="920.22" rx="0.68" ry="3.04" transform="translate(-110.39 1584.28) rotate(-46.62)"/><ellipse cx="1784.2" cy="920.01" rx="0.68" ry="3.04" transform="translate(-178.2 1342.8) rotate(-39.44)"/><ellipse cx="1785.19" cy="919.46" rx="0.68" ry="3.04" transform="translate(-206.52 1175.23) rotate(-34.57)"/><ellipse cx="1786.29" cy="919.4" rx="1.34" ry="2.85" transform="translate(-41 84.45) rotate(-2.68)"/><ellipse cx="1788.33" cy="918.9" rx="1.51" ry="2.58" transform="translate(-95.45 216.14) rotate(-6.74)"/><ellipse cx="1790.27" cy="918.45" rx="0.68" ry="2.56" transform="translate(-95.38 216.36) rotate(-6.74)"/><ellipse cx="1791.78" cy="918.69" rx="1.34" ry="2.31" transform="translate(-40.96 84.7) rotate(-2.68)"/><ellipse cx="1793.09" cy="918.26" rx="0.68" ry="2.73" transform="matrix(1, -0.05, 0.05, 1, -40.94, 84.76)"/><ellipse cx="1794.11" cy="918.56" rx="2.39" ry="0.98" transform="translate(634.32 2567.03) rotate(-81.98)"/><ellipse cx="1795.42" cy="918.33" rx="2.74" ry="1.14" transform="translate(635.67 2568.13) rotate(-81.98)"/><ellipse cx="1796.63" cy="918.56" rx="2.01" ry="0.68" transform="translate(846.51 2698.7) rotate(-88.99)"/><ellipse cx="1797.55" cy="917.41" rx="3.04" ry="0.68" transform="translate(848.58 2698.5) rotate(-88.99)"/><ellipse class="cls-45" cx="1798.2" cy="880.74" rx="3.46" ry="8.66" transform="translate(79.75 1908.43) rotate(-56.98)"/><ellipse class="cls-7" cx="1661.52" cy="858.92" rx="42.47" ry="11.83"/><ellipse class="cls-7" cx="1248.59" cy="827.2" rx="29.2" ry="8.55"/><ellipse class="cls-7" cx="1454.49" cy="777.89" rx="61.46" ry="10.61"/><ellipse class="cls-7" cx="1805.93" cy="922.52" rx="21.24" ry="5.92"/><ellipse class="cls-7" cx="1681.5" cy="706.29" rx="77.83" ry="9.92"/><ellipse class="cls-7" cx="1508.26" cy="716.4" rx="42.47" ry="11.83" transform="translate(-149.8 519.11) rotate(-18.62)"/><path class="cls-7" d="M1176.77,702.61c.6,4.46-35,5.92-77,11.49s-75.09,8.69-75.68,4.22,33-12.61,74.95-18.18S1176.18,698.14,1176.77,702.61Z"/><path class="cls-7" d="M1155.88,722.22c0,2.42-15.24-.62-61.79-.62s-66.53,2.89-66.53.48,97.52-11.36,144.06-11.36S1155.88,719.81,1155.88,722.22Z"/><path class="cls-7" d="M1156.35,735.05c-.26,2.39-15.09-2.24-61.38-7.18s-66.46-4.18-66.21-6.58,98.18-.95,144.46,4S1156.6,732.65,1156.35,735.05Z"/><path class="cls-7" d="M1028.76,721.29c0,1-1.62-.27-6.59-.27s-7.09,1.25-7.09.21,10.4-4.91,15.36-4.91S1028.76,720.25,1028.76,721.29Z"/><polygon class="cls-7" points="1902.83 743.54 1877.69 745.95 1853.72 753.89 1857.18 747.05 1836.44 747.09 1863.71 740.46 1874.87 732.55 1888.27 735.28 1915.89 730.35 1896.9 738.68 1902.83 743.54"/><path class="cls-18" d="M609.8,642.59c.46,3.06-2.48,5.06-5.61,5.6s-5.08-2.35-5.61-5.6c-.49-3.06,2.43-5.87,5.61-5.61A6.42,6.42,0,0,1,609.8,642.59Z"/><circle class="cls-19" cx="601.09" cy="641.82" r="0.85"/><path class="cls-20" d="M609.85,646.06a4.84,4.84,0,0,1-2.59,2.83,5.45,5.45,0,0,1-3.91.45"/><path class="cls-20" d="M610.2,646.16a4.81,4.81,0,0,1-2.17,3.16,5.42,5.42,0,0,1-3.81,1"/></svg>
