<svg id="Layer_1" data-name="Layer 1" xmlns="http://www.w3.org/2000/svg" width="919.08" height="412.97" viewBox="0 0 919.08 412.97"><title>Titel</title><path d="M138.17,154.43a46.9,46.9,0,0,1-5.24,23.27,42.33,42.33,0,0,1-16.28,17c-7.16,4.24-15.63,6.4-25.49,6.65a64.5,64.5,0,0,1-27.56-5.45A54,54,0,0,1,41.68,178.5c-5.84-7.79-9.3-17.44-10.06-29.24a62.76,62.76,0,0,1,6.23-32.17A73.15,73.15,0,0,1,58.5,91.5,66.41,66.41,0,0,1,87,77.91c7-1.37,13.31-1.25,18.84.43a28,28,0,0,1,9.92,5.32c1.4,1.18,3.81-.35,3.84-2.43,0-.84,0-1.67,0-2.51a7.39,7.39,0,0,1,1.81-4.78,8.36,8.36,0,0,1,5-2.49c4.12-.73,6.07,1.16,5.89,5.66q-.41,10.2-.6,20.42c-.12,5.48-2.17,8.49-6.25,9a6.75,6.75,0,0,1-3.73-.39,7.6,7.6,0,0,1-2.85-2.47c-8.78-11.55-19.43-15.88-32.19-13.6A46.22,46.22,0,0,0,64.9,100.82a57.59,57.59,0,0,0-15.56,20.9,56.44,56.44,0,0,0-4.67,26.48c.53,9.38,3.22,17.05,7.89,23.23a42.12,42.12,0,0,0,17.29,13.63,48.56,48.56,0,0,0,21.31,4A43.12,43.12,0,0,0,108,184.94a30.28,30.28,0,0,0,12.7-11.15c3.21-4.94,4.68-11.09,4.46-18.35a7.47,7.47,0,0,1,1.53-5.22A6.42,6.42,0,0,1,131.3,148Q138,147.42,138.17,154.43Z"/><path d="M221.78,182.35a29.25,29.25,0,0,0,2,4.86,9.25,9.25,0,0,1,1.25,3.09,6.16,6.16,0,0,1-1.69,4.26c-1.17,1.36-2.3,2.05-3.4,2.07-2.2,0-4.22-1.59-6-4.87a20.8,20.8,0,0,1-2.86-9.48c0-.92-.05-1.85-.08-2.78q-3.24,9.27-10.23,14.15a28.75,28.75,0,0,1-16.24,5c-9.36.18-16.53-3.4-21.49-10.57s-7.75-17.65-8.08-31.55q-.56-23.21-.29-46.36a5.62,5.62,0,0,1,1.83-4.15A7.66,7.66,0,0,1,161,104a6.51,6.51,0,0,1,4.7.95,4.24,4.24,0,0,1,1.79,3.77q-.35,23.67.16,47.38c.22,10.67,1.83,18.41,4.66,23.28s7.18,7.24,13,7.06c14.95-.4,21.65-16.8,21.55-49.18q0-16.52.29-33A7.75,7.75,0,0,1,209,99.15a6.79,6.79,0,0,1,4.57-2.26,5.46,5.46,0,0,1,6.56,6.1q-.4,36.42.78,73A23.48,23.48,0,0,0,221.78,182.35Z"/><path d="M303.23,96.52C307.1,102,309,108.83,308.9,117c-.09,7.79-1.95,14-5.63,18.62a18.4,18.4,0,0,1-14.17,7.27q-3.33.15-4.74-1c-.95-.79-1.42-2.3-1.41-4.54,0-3.62,1.42-5.58,4.19-5.87,7.22-1.2,10.85-5.89,10.94-14.06a20.07,20.07,0,0,0-2.68-11q-2.76-4.45-9.08-4c-4.44.31-8.35,3-11.7,7.91a60.15,60.15,0,0,0-7.95,18,95.6,95.6,0,0,0-3.37,20.77q-.93,19.08-.57,36,.18,8.49-1,11.19c-.78,1.8-2.39,2.72-4.8,2.76s-4.13-.67-5.11-2.09-1.51-3.9-1.6-7.46q-.57-19.58-.75-39.12c0-9-.6-20.86-1.52-35.49-.56-8.53-.81-14.61-.83-18.28a6.54,6.54,0,0,1,6.35-7.31q5.18-.48,5.36,5.67t.52,12.35c.08,2.72,3,3.3,4.11.82a40.57,40.57,0,0,1,6.29-10c4.78-5.48,10.46-8.52,17-9Q297.42,88.37,303.23,96.52Z"/><path d="M334.38,192.59a8.06,8.06,0,0,1-1.81-5.57q-1.38-76.56.92-152.84a9.24,9.24,0,0,1,2-5.84,6.89,6.89,0,0,1,4.84-2.44,4.75,4.75,0,0,1,4.36,1.68,7.87,7.87,0,0,1,1.44,5.36q-2.3,76.83-1,153.91a8.15,8.15,0,0,1-1.68,5.64,6.33,6.33,0,0,1-9.12.1Z"/><path d="M381.74,68.44c-1.94-2.46-2.86-5.65-2.79-9.59A16.3,16.3,0,0,1,382.12,49a9.89,9.89,0,0,1,7.63-4.2,8.25,8.25,0,0,1,7.24,3.4q2.81,3.62,2.71,9.55a16.34,16.34,0,0,1-3.19,10A9.77,9.77,0,0,1,388.94,72,8.4,8.4,0,0,1,381.74,68.44Zm-.44,124.37a7.62,7.62,0,0,1-1.78-5.24q.5-46.51,1.85-93a8.67,8.67,0,0,1,1.81-5.75,6.29,6.29,0,0,1,4.74-2.14,5.68,5.68,0,0,1,4.69,1.81c1.14,1.28,1.71,3.24,1.68,5.87q-1.29,46.54-1.83,93.11a8.25,8.25,0,0,1-1.88,5.39,5.89,5.89,0,0,1-4.54,1.9A6,6,0,0,1,381.3,192.81Z"/><path d="M492.18,135.93q0,25.95,0,51.91c0,5.18-2.06,7.76-6.15,7.76q-6.63,0-6.62-7.56,0-26.19,0-52.37,0-19.51-3.35-28.72t-11.93-9.18c-6.07,0-11,3.17-14.91,9.4s-6.61,14.39-8.17,24.44a174.3,174.3,0,0,0-1.51,25q.09,16.38.22,32.78a6.51,6.51,0,0,1-1.65,4.77,6.05,6.05,0,0,1-4.47,1.67,6.29,6.29,0,0,1-4.82-1.76,6.47,6.47,0,0,1-1.67-4.64q-.06-19.68-.73-48-.48-16.35-.43-28.94a33.12,33.12,0,0,0-.87-8.71A66.87,66.87,0,0,0,421.59,95a6.92,6.92,0,0,1-.64-3.08,7.31,7.31,0,0,1,2.27-5q2.25-2.37,4.39-2.41c1.44,0,2.91,1.34,4.44,4.11A54.74,54.74,0,0,1,435.41,97a31.17,31.17,0,0,1,1.53,9.38v2.44a44.72,44.72,0,0,1,9.66-18.49q6.63-7.38,17.52-7.46C482.7,82.84,492.12,100.62,492.18,135.93Z"/><path d="M590.35,170.64q1.11,9.39,1.56,14.39a101.1,101.1,0,0,1,.38,10.44c-.14,11-1.95,20.68-5.42,29s-8.26,14.86-14.39,19.51a34.32,34.32,0,0,1-21,7.06,28.51,28.51,0,0,1-16.2-4.87,35.92,35.92,0,0,1-12-13.24,36.89,36.89,0,0,1-4.4-18q0-6.65,6.17-6.63a3.85,3.85,0,0,1,3,1.23,8.26,8.26,0,0,1,1.55,4.09q1.88,11.72,7.67,17.45a19.49,19.49,0,0,0,14.36,5.7,23.33,23.33,0,0,0,20.45-11c4.85-7.3,7.4-17.41,7.54-30.37q0-4.17-.48-10c-.22-2.38-2.41-3.41-3.71-1.73a30.47,30.47,0,0,1-7.79,7.12,29,29,0,0,1-16.2,4.38A33.33,33.33,0,0,1,530,187.54a47.79,47.79,0,0,1-14.14-20,72.85,72.85,0,0,1-4.9-26.83,80.16,80.16,0,0,1,4.72-27.84q4.76-13,13.53-20.77a28.38,28.38,0,0,1,20.35-7.4A29.8,29.8,0,0,1,562.76,88a29.27,29.27,0,0,1,6.6,4.67c1.22,1.17,2.89.59,3.35-1.23q1.62-6.34,2-7.35c.95-2.43,2.35-3.61,4.24-3.53a8.08,8.08,0,0,1,4.75,2A6.27,6.27,0,0,1,586.17,87a8.34,8.34,0,0,1-.13,2c-.1.58-.43,2.15-1,4.74s-1.25,6.11-2.13,10.88a3.63,3.63,0,0,0,0,1.14q3.28,26.75,6.2,53.4Q589.71,164.87,590.35,170.64Zm-28.09,6a34,34,0,0,0,9.49-7.32,19,19,0,0,0,4.73-8.22,3.57,3.57,0,0,0,.07-1.13c-.56-7.06-1.87-18.55-4-34.5-.5-3.68-1-7.37-1.53-11.06a3.15,3.15,0,0,0-.16-.69,17.07,17.07,0,0,0-3.77-5.81,27.29,27.29,0,0,0-7.52-5.6,21.73,21.73,0,0,0-9.48-2.47,19.47,19.47,0,0,0-13.79,5.06,34.43,34.43,0,0,0-9.36,14.5,64.17,64.17,0,0,0-.25,40.11A32.51,32.51,0,0,0,536,174a23,23,0,0,0,15.42,5.54A22.59,22.59,0,0,0,562.26,176.68Z"/><path d="M713.51,106.13c4.16,8.34,6.33,19.59,6.3,33.86,0,22.63-.56,39.81-1,51.54a6.91,6.91,0,0,1-1.73,4.63,6.38,6.38,0,0,1-8.93-.17,7.61,7.61,0,0,1-1.42-5.13q.72-25.23.75-50.41c0-12.24-1.18-21.15-3.43-26.77s-6.36-8.69-12.26-9.17c-5.58-.45-9.61,3.1-12.17,10.68s-3.88,16.68-4,27.24q0,8-.06,16.06-.12,15.85-.47,31.72-.15,6.67-6.28,6.59c-4.3-.06-6.39-2.48-6.3-7.25q.46-19,.61-38.05c0-3.22,0-6.45,0-9.67a76.86,76.86,0,0,0-5-27.08c-3.17-8.11-7.45-12.38-12.77-12.72q-6.18-.39-10.11,7.16c-2.65,5-4.79,13.22-6.5,24.56-1,6.81-1.42,16.72-1.5,29.72q0,7.07-.11,14.14-.07,6.21-.16,12.43a5.86,5.86,0,0,1-1.9,4.59,6.39,6.39,0,0,1-4.33,1.56,6.51,6.51,0,0,1-4.36-1.88,6.32,6.32,0,0,1-1.51-4.65c.18-14.51.32-37.72-.21-69.6,0-2.72-.06-5.45-.09-8.18a28.94,28.94,0,0,0-1.11-7.8,16.92,16.92,0,0,0-2.39-4.43l-.23-.28a7,7,0,0,1-1.09-6.67,6.79,6.79,0,0,1,1.15-1.89,4.93,4.93,0,0,1,4.11-1.92,4.83,4.83,0,0,1,2.78,1.77,18.64,18.64,0,0,1,2.81,3.92,26,26,0,0,1,2.7,6.58,34.41,34.41,0,0,1,.87,7.76c0,1.21,0,2.43,0,3.64,1.78-8,4.49-14.07,8.18-18a15.85,15.85,0,0,1,13.33-5.39c9.57.68,16.56,6.93,20.82,18.57.83,2.28,3.29,2.44,4,.28a27,27,0,0,1,6.45-10.74q6-5.86,15.22-5C702.23,93.11,709.34,97.81,713.51,106.13Z"/><path d="M750,187c-8-8.12-11.71-20.8-11.54-37.79.11-10.61,1.79-19.81,5.14-27.5s8.2-13.41,14.63-17.12,14.09-5,23-3.88a51.17,51.17,0,0,1,23.19,8.8,48.46,48.46,0,0,1,16.08,18.85c3.81,7.79,5.58,16.7,5.23,26.86-.51,14.75-5.14,25.71-13.46,33.23s-18.95,11.28-31.8,11C768,199.16,757.94,195.1,750,187Zm53.11-7.67c6.08-5.64,9.4-14,9.73-25.32a46.66,46.66,0,0,0-3.54-20,36.1,36.1,0,0,0-11.07-14.58,32.15,32.15,0,0,0-16.49-6.65c-9.22-1-16.55,1.77-22,8.54s-8.23,16.26-8.38,28.32c-.15,12.73,2.54,22.2,8.2,28.29a29.1,29.1,0,0,0,21.22,9.5A30.19,30.19,0,0,0,803.11,179.3Z"/><path d="M901.64,125a24.17,24.17,0,0,1,5.44,16.83c-.33,5.91-2.5,10.33-6.44,13.36s-8.82,4.31-14.64,3.76a8.85,8.85,0,0,1-4.73-1.47c-.91-.76-1.32-2-1.22-3.84.16-2.91,1.64-4.28,4.46-4.08,7.34.11,11.22-3,11.53-9.31a14.43,14.43,0,0,0-2.53-9.11c-1.84-2.69-4.94-4.36-9.27-5a13.49,13.49,0,0,0-12,4.12,37.5,37.5,0,0,0-8.34,13.54,68.59,68.59,0,0,0-4.14,16.88q-1.83,15.87-3,30.16c-.38,4.75-1.06,7.87-2,9.36s-2.64,2.2-5,2.14-4-.71-4.86-2-1.12-3.42-.89-6.5q1.2-16.9,1.89-33.8a275.67,275.67,0,0,0-.72-30.94c-.56-7.52-1-12.89-1-16.09-.12-1.9.39-3.28,1.53-4.11a6.26,6.26,0,0,1,4.78-.79c3.53.53,5.42,2.56,5.63,6.07s.54,7.13.68,10.62c.09,2.33,3,3.37,4.19,1.51a24.2,24.2,0,0,1,6.37-7c4.83-3.55,10.62-4.73,17.38-3.66C892,116.77,897.67,119.94,901.64,125Z"/><path d="M169,303.79c.53,4.43-1.56,6.41-6.31,5.9l-.37,0c-1.18-.12-2,.93-1.76,2.33q3.36,21.6,7.26,43.28c.44,2.15.24,3.8-.57,4.95s-2.16,1.55-4,1.22a8,8,0,0,1-4.77-2.55,10.92,10.92,0,0,1-2.51-5.21q-4.11-21.84-7.64-43.59a3.14,3.14,0,0,0-2.38-2.6Q121.81,304.4,97.83,301a1.52,1.52,0,0,0-1.74,1.84q2.22,21.56,5.2,43c.37,3.16-1.23,4.35-4.79,3.6-4.27-.92-6.68-3.26-7.2-7q-3-20.5-5.28-41.15a3.2,3.2,0,0,0-2.51-2.68l-.73-.09A9.5,9.5,0,0,1,76,296.39a7.4,7.4,0,0,1-2.68-4.57q-.53-2.83,1.09-4.11a6.12,6.12,0,0,1,4.61-1l1.7.19a1.53,1.53,0,0,0,1.72-1.83q-2.55-26.52-3.81-53.26c-.14-2,.36-3.52,1.49-4.47a6.35,6.35,0,0,1,4.3-1.4,6.16,6.16,0,0,1,4.93,2,8.28,8.28,0,0,1,1.86,4.94q1,26.84,3.41,53.44A3.05,3.05,0,0,0,97,289.06q23.27,2.83,46.66,5.46c1.2.13,2-.92,1.81-2.32q-4.53-29.46-7.91-58.73a6.87,6.87,0,0,1,1.18-5.13,5.25,5.25,0,0,1,4.42-1.8,6.54,6.54,0,0,1,4.8,1.9,7.32,7.32,0,0,1,2.09,4.68q3.25,30.18,7.72,60.54a3,3,0,0,0,2.39,2.6l.82.07C165.79,296.75,168.44,299.23,169,303.79Z"/><path d="M257.76,352.89a10.61,10.61,0,0,1,.85,9.44,2.84,2.84,0,0,1-3,1.49c-4.28-.48-7.52-1.74-9.74-3.73a21.61,21.61,0,0,1-4.5-6.43c-.84-1.7-2.64-2.13-3.41-.83-4.11,7-11.33,9.71-21.76,8.29a38.24,38.24,0,0,1-21.34-9.86,56,56,0,0,1-13.54-19.12,82.27,82.27,0,0,1-6.23-22.87,59.61,59.61,0,0,1,1.58-23.73,34.51,34.51,0,0,1,11-17.55c5.25-4.38,11.84-6.47,19.73-6.16a27,27,0,0,1,14.4,4.55,29.64,29.64,0,0,1,6.75,6.31c1.37,1.75,3.57,1,3.63-1.27h0q-.19-7.46,5-7.27a6.91,6.91,0,0,1,5.08,2.11,6.09,6.09,0,0,1,1.67,4.64c-.05,1.7-.1,3.39-.14,5.08-.38,5.67-.48,11.55-.34,17.65.08,5.14.46,12.05,1.21,20.75q.6,7,1.24,14.06.81,8.76,1.62,13a19.28,19.28,0,0,0,2.28,6.6,6.27,6.27,0,0,0,4.49,2.89A7.2,7.2,0,0,1,257.76,352.89Zm-26-50.14c-.57-6.59-2.12-12-4.71-16.22a25.29,25.29,0,0,0-8.92-9.17,21.76,21.76,0,0,0-9.41-3.05c-5.71-.29-10.31,1.43-13.76,5.11a28.32,28.32,0,0,0-6.92,14,54.09,54.09,0,0,0-.75,17,62.55,62.55,0,0,0,8.36,24.94c4.51,7.63,10.89,12,19.14,13.06,6.17.75,11-.67,14.62-4.31s5.07-9.33,4.43-17C233.31,320.84,232.6,312.71,231.74,302.75Z"/><path d="M349.13,316.84q1.06,25.35,2.41,50.73.39,7.6-5.41,7.21c-4.19-.29-6.44-2.89-6.72-7.78q-1.5-25.46-2.68-50.9-.87-19-4.45-28t-12.07-9.26c-6-.18-10.72,2.65-14.21,8.46s-5.71,13.44-6.64,23a156.31,156.31,0,0,0,.08,23.81q1.14,15.66,2.42,31.32a5.37,5.37,0,0,1-1.21,4.41,4.87,4.87,0,0,1-4.11,1.19,7,7,0,0,1-4.68-2.12,7.35,7.35,0,0,1-1.94-4.56c-1-12.46-2.44-27.67-4.09-45.6q-1.54-15.56-2.23-27.49a31.76,31.76,0,0,0-1.37-8.32,70.21,70.21,0,0,0-4-8.6,6.5,6.5,0,0,1-.81-2.95,6,6,0,0,1,1.95-4.63,5.76,5.76,0,0,1,4.21-2.07q2.12.06,4.59,4.12A56.19,56.19,0,0,1,292,277a30.22,30.22,0,0,1,2,9c.05.77.08,1.54.13,2.32a37.23,37.23,0,0,1,8.55-17.23c4.13-4.53,9.82-6.74,17-6.58C338.1,264.85,347.73,282.26,349.13,316.84Z"/><path d="M438.34,319.17q.27,26,.6,51.93c.07,5.17-1.84,7.73-5.73,7.64q-6.3-.15-6.44-7.69-.47-26.15-.85-52.27-.29-19.48-3.64-28.71t-11.87-9.32c-6-.08-10.83,2.94-14.5,9s-6.13,14.09-7.36,24a170.69,170.69,0,0,0-.73,24.77q.58,16.26,1.25,32.52a6.15,6.15,0,0,1-1.41,4.66,5.15,5.15,0,0,1-4.19,1.44,6.35,6.35,0,0,1-4.63-2,7.2,7.2,0,0,1-1.77-4.68Q376.28,351,374.66,323q-1-16.2-1.38-28.66a33.3,33.3,0,0,0-1.14-8.65,68.61,68.61,0,0,0-3.74-8.92,6.92,6.92,0,0,1-.73-3.07,6.64,6.64,0,0,1,2.08-4.87A6,6,0,0,1,374,266.6q2.13,0,4.51,4.23a57.28,57.28,0,0,1,3.54,8.49,31.91,31.91,0,0,1,1.77,9.35l.06,2.41A41.17,41.17,0,0,1,393,273q6.39-7.15,17.22-7.06Q437.91,266.2,438.34,319.17Z"/><path d="M480.35,382c-6.2-5.24-10.93-12.24-14.17-20.92a81.07,81.07,0,0,1-4.91-28.37,78.21,78.21,0,0,1,5.12-29q5.19-13.2,14.85-21a34.73,34.73,0,0,1,22.26-7.83,33.89,33.89,0,0,1,19.86,6,38.22,38.22,0,0,1,13.38,16.76c3.1,7.18,4.51,15.38,4.27,24.66-.11,4.41-.58,7.55-1.37,9.41s-2.7,2.9-5.7,3.1q-29.46,1.49-58.92,2.32c-1.23,0-2.21,1.51-2.08,3.2a47.31,47.31,0,0,0,3.51,14.21,39.7,39.7,0,0,0,10.31,14.88,22.07,22.07,0,0,0,15.49,5.85,22.37,22.37,0,0,0,11.42-2.95,26.61,26.61,0,0,0,7.57-6.47A118.18,118.18,0,0,0,528,355.73a4,4,0,0,1,3.55-2.07,4.85,4.85,0,0,1,3.84,2.11,7.38,7.38,0,0,1,1.68,5,10.68,10.68,0,0,1-1.41,4.68A69,69,0,0,1,523,382.42c-4.89,4.7-11.7,7.16-20.47,7.29A32.34,32.34,0,0,1,480.35,382Zm48.71-66.77c1,6.17,1.52,5.13,1.57,3.07q.29-13.28-7.36-21.48c-5.11-5.48-11.65-8.2-19.57-8.15a23.62,23.62,0,0,0-16,6.28,44.22,44.22,0,0,0-10.94,14.68,43.53,43.53,0,0,0-3.56,10.53c-.34,1.87.73,3.66,2.12-2.61Q502.19,316.62,529.06,315.23Z"/></svg>
