<svg id="Layer_1" data-name="Layer 1" xmlns="http://www.w3.org/2000/svg" width="300" height="210" viewBox="0 0 300 210"><defs><style>.cls-1{fill:#00b414;}.cls-2{fill:#54a55d;}.cls-3{fill:#ea869c;}.cls-4{fill:#0f090a;}</style></defs><title>vandmelon</title><path class="cls-1" d="M293.52,41.61c17.06,44.74-19.3,123.72-104.44,156.17S22.79,191.7,5.74,147,37.69,55.06,122.82,22.61,276.47-3.12,293.52,41.61Z"/><path class="cls-2" d="M147.1,103.11c2.25,7.87-27.64,22-66.78,31.58S7.63,145.62,5.38,137.74s31-2.92,70.15-12.49S144.85,95.23,147.1,103.11Z"/><path class="cls-2" d="M284.23,100.17c2.92,7.67-46.63,33.68-110.67,58.09s-118.33,38-121.25,30.32-19.52,13.29,44.53-11.12S281.3,92.51,284.23,100.17Z"/><path class="cls-2" d="M216,105.55c2.25,7.87-42.21,25.57-99.3,39.52s-105.21,18.87-107.46,11,23,2.36,80.12-11.6S213.72,97.67,216,105.55Z"/><path class="cls-3" d="M267.15,10.61c8.69,8.43-50,38-122.52,65.69S6.05,122.23,6.1,109.93c.06-11.9,41.65-65.66,116.11-94C192.26-10.81,259.19,2.9,267.15,10.61Z"/><ellipse class="cls-4" cx="129.81" cy="64.75" rx="6.31" ry="2.33" transform="translate(-14.55 50.48) rotate(-20.87)"/><ellipse class="cls-4" cx="124.63" cy="33.45" rx="6.31" ry="2.33" transform="translate(-3.74 46.58) rotate(-20.87)"/><ellipse class="cls-4" cx="109.48" cy="53.01" rx="6.31" ry="2.33" transform="translate(-11.7 42.47) rotate(-20.87)"/><ellipse class="cls-4" cx="85.55" cy="43.36" rx="6.31" ry="2.33" transform="translate(-9.83 33.31) rotate(-20.87)"/><ellipse class="cls-4" cx="85.89" cy="86.48" rx="6.31" ry="2.33" transform="translate(-25.17 36.27) rotate(-20.87)"/><ellipse class="cls-4" cx="67.59" cy="71.47" rx="6.31" ry="2.33" transform="translate(-21.02 28.76) rotate(-20.87)"/><ellipse class="cls-4" cx="42.54" cy="91.46" rx="6.31" ry="2.33" transform="translate(-29.79 21.15) rotate(-20.87)"/><ellipse class="cls-4" cx="189.55" cy="8.7" rx="6.31" ry="2.33" transform="translate(9.33 68.08) rotate(-20.87)"/><ellipse class="cls-4" cx="159.69" cy="55.85" rx="6.31" ry="2.33" transform="translate(-9.42 60.54) rotate(-20.87)"/><ellipse class="cls-4" cx="140.62" cy="40.61" rx="6.08" ry="2.83" transform="translate(-5.24 52.75) rotate(-20.87)"/><ellipse class="cls-4" cx="228.77" cy="20.48" rx="6.31" ry="2.33" transform="translate(7.71 82.83) rotate(-20.87)"/><ellipse class="cls-4" cx="175.65" cy="32.77" rx="6.31" ry="2.33" transform="translate(-0.15 64.71) rotate(-20.87)"/><ellipse class="cls-4" cx="203.01" cy="39.34" rx="6.31" ry="2.33" transform="translate(-0.7 74.89) rotate(-20.87)"/></svg>
