<svg id="Layer_1" data-name="Layer 1" xmlns="http://www.w3.org/2000/svg" width="115" height="70" viewBox="0 0 115 70"><defs><style>.cls-1{fill:#59006a;}.cls-2{fill:#940087;opacity:0.5;}</style></defs><title>vindruer</title><ellipse class="cls-1" cx="26.51" cy="31.04" rx="13.6" ry="11.08"/><ellipse class="cls-1" cx="100.81" cy="31.04" rx="13.6" ry="11.08"/><ellipse class="cls-1" cx="84.7" cy="15.79" rx="13.6" ry="11.08"/><ellipse class="cls-1" cx="60.53" cy="11.41" rx="13.6" ry="11.08"/><ellipse class="cls-1" cx="82.91" cy="58.02" rx="10.74" ry="14.03" transform="translate(-8.69 101.03) rotate(-60.13)"/><ellipse class="cls-1" cx="77.81" cy="28.28" rx="13.4" ry="7.86" transform="translate(-2.13 49.82) rotate(-35.05)"/><ellipse class="cls-1" cx="84.7" cy="40.78" rx="13.6" ry="11.08"/><ellipse class="cls-1" cx="63.66" cy="52.72" rx="13.6" ry="16.87"/><ellipse class="cls-1" cx="62.1" cy="28.28" rx="15.17" ry="12.49"/><ellipse class="cls-1" cx="44.67" cy="55.27" rx="10.74" ry="14.03" transform="translate(-25.5 66.48) rotate(-60.13)"/><ellipse class="cls-1" cx="44.67" cy="35.85" rx="9.79" ry="15.4" transform="translate(-12.34 30.29) rotate(-33.18)"/><ellipse class="cls-1" cx="31.07" cy="46.94" rx="13.6" ry="11.08"/><ellipse class="cls-1" cx="40.11" cy="18.61" rx="13.6" ry="11.08"/><ellipse class="cls-1" cx="98.3" cy="50.19" rx="13.6" ry="8.07"/><ellipse cx="15.83" cy="12.5" rx="6.17" ry="18.5" transform="translate(-3.67 17.63) rotate(-53.05)"/><path class="cls-2" d="M54.05,50.34c.78.73-4.7.58-9.88-1.3s-10.25-7.1-10-8.26,4.66,4.28,9.83,6.16S53.17,49.53,54.05,50.34Z"/><path class="cls-2" d="M43.92,31.67c.38.58-2.79,1.27-5.62.24s-5.28-5.29-5-6.45,2.29,3.42,5.12,4.45S43.49,31,43.92,31.67Z"/><path class="cls-2" d="M61.59,23.16c.42.69-3.2,1.61-6.4.44s-5.9-6.22-5.57-7.63,2.55,4.06,5.74,5.22S61.11,22.39,61.59,23.16Z"/><path class="cls-2" d="M94.93,53.68c.78.73-4.69.57-9.87-1.31s-10.26-7.1-10-8.26,4.65,4.28,9.83,6.16S94.06,52.86,94.93,53.68Z"/><path class="cls-2" d="M63.44,64.71c.26.54-2.21,1.48-4.33.71s-3.75-4.73-3.47-5.89,1.56,3.15,3.68,3.92S63.14,64.11,63.44,64.71Z"/><path class="cls-2" d="M81.71,24.69c.26.53-2.21,1.48-4.32.71s-3.75-4.74-3.48-5.9,1.57,3.16,3.68,3.93S81.42,24.08,81.71,24.69Z"/><path class="cls-2" d="M75.39,40.44c.54.52-3.29.5-6.89-.81s-7.1-5.09-6.89-6,3.21,3.09,6.81,4.4S74.78,39.84,75.39,40.44Z"/><path class="cls-2" d="M99.74,40c.19.77-3.19.09-5.64-2.22s-3.45-7.8-2.79-8.88,1.12,4.55,3.58,6.86S99.53,39.1,99.74,40Z"/><path class="cls-2" d="M30.42,54.91c.26.54-2.21,1.48-4.32.71s-3.75-4.73-3.48-5.89,1.57,3.15,3.68,3.92S30.12,54.31,30.42,54.91Z"/></svg>
